<?xml version="1.0" encoding="utf-8"?>
<!-- Generator: Adobe Illustrator 28.0.0, SVG Export Plug-In . SVG Version: 6.00 Build 0)  -->
<svg version="1.1" id="Layer_1" xmlns="http://www.w3.org/2000/svg" xmlns:xlink="http://www.w3.org/1999/xlink" x="0px" y="0px"
	 width="201px" height="201px" viewBox="0 0 201 201" style="enable-background:new 0 0 201 201;" xml:space="preserve">
<style type="text/css">
	.st0{display:none;}
</style>
<g>
	<path d="M185.2,0.4l-62.1,89.8c-7.1,10.1-10.3,20.2-9.9,30.3c0.5,10.1,4,19.2,10.4,27.2c6.5,8,15.5,14.5,27.2,19.6
		c11.6,5.1,25.1,7.6,40.3,7.6v25.8c-16.6,0-31.1-3-43.6-8.9c-12.5-5.9-22.1-13.7-28.9-23.3c-6.8-9.6-10.4-20.6-11-32.8
		c-0.6-12.2,2.7-24.6,9.7-37.2L46.7,200.6H15.5l62.1-89.8c7.1-10.1,10.3-20.2,9.9-30.3C87,70.4,83.6,61.3,77.2,53.3
		c-6.4-8-15.4-14.5-27-19.6c-11.6-5.1-25.1-7.6-40.3-7.6V0.4c16.6,0,31.1,3,43.5,8.9c12.4,5.9,22,13.7,28.9,23.3
		c6.9,9.6,10.5,20.6,11,32.8c0.5,12.2-2.8,24.6-9.9,37.2L154,0.4H185.2z"/>
</g>
</svg>
