<?xml version="1.0" encoding="utf-8"?>
<!-- Generator: Adobe Illustrator 28.0.0, SVG Export Plug-In . SVG Version: 6.00 Build 0)  -->
<svg version="1.1" id="Layer_1" xmlns="http://www.w3.org/2000/svg" xmlns:xlink="http://www.w3.org/1999/xlink" x="0px" y="0px"
	 width="201px" height="201px" viewBox="0 0 201 201" style="enable-background:new 0 0 201 201;" xml:space="preserve">
<style type="text/css">
	.st0{display:none;}
</style>
<g>
	<path d="M196.8,0l-63.5,88.4c-5.6,9.2-7.8,18.2-6.7,27c1.1,8.8,4.8,16.8,11.2,23.8c6.4,7.1,15,12.8,25.9,17.1
		c10.9,4.3,23.4,6.5,37.3,6.5V201c-19.3,0-35.4-2.9-48.5-8.6c-13-5.7-22.8-13.4-29.2-23c-6.5-9.6-9.4-20.7-8.8-33.3
		c0.6-12.6,5-25.9,13.1-39.9L52.5,201h-48l60.2-84.1c7-9.4,10.2-18.8,9.8-28.1c-0.4-9.4-3.7-17.8-9.8-25.3
		C58.5,56,49.9,49.9,38.8,45.2c-11.1-4.7-24.1-7-38.8-7V0c19.5,0,35.8,2.9,48.9,8.8C62,14.6,71.8,22.4,78.1,32.2
		c6.4,9.8,9.1,21.1,8.2,33.9c-0.9,12.8-5.6,26.3-14.2,40.5L148.5,0H196.8z"/>
</g>
</svg>
