<?xml version="1.0" encoding="iso-8859-1"?>
<!-- Generator: Adobe Illustrator 28.0.0, SVG Export Plug-In . SVG Version: 6.00 Build 0)  -->
<svg version="1.1" xmlns="http://www.w3.org/2000/svg" xmlns:xlink="http://www.w3.org/1999/xlink" x="0px" y="0px" width="22.5px"
	 height="22.5px" viewBox="0 0 22.5 22.5" enable-background="new 0 0 22.5 22.5" xml:space="preserve">
<g id="Layer_4">
	<g>
		<defs>
			<rect id="SVGID_1_" x="-44.941" y="-2259.304" width="576" height="2225.994"/>
		</defs>
		<clipPath id="SVGID_00000176758411200128105020000003276518329020546711_">
			<use xlink:href="#SVGID_1_"  overflow="visible"/>
		</clipPath>
		<g opacity="0.05" clip-path="url(#SVGID_00000176758411200128105020000003276518329020546711_)">
			<g>
			</g>
		</g>
	</g>
</g>
<g id="Layer_1">
	<g>
		<g>
			<defs>
				<path id="SVGID_00000106132045822629000000000001648071897209825471_" d="M499.198-47.838H-13.081
					c-9.444,0-17.1-7.656-17.1-17.1v-492.001c0-9.444,7.656-17.1,17.1-17.1h512.279c9.444,0,17.1,7.656,17.1,17.1v492.001
					C516.298-55.494,508.642-47.838,499.198-47.838z"/>
			</defs>
			<clipPath id="SVGID_00000073700915315310755130000009105016375479471284_">
				<use xlink:href="#SVGID_00000106132045822629000000000001648071897209825471_"  overflow="visible"/>
			</clipPath>
			<g clip-path="url(#SVGID_00000073700915315310755130000009105016375479471284_)">
				<g opacity="0.05">
					<path fill="none" d="M45.444,40.752v-5.908v-1.764v-5.907v-1.764v-5.908v-2.108c0-1.952-1.588-3.54-3.54-3.54h-2.14h-5.908
						h-1.764h-5.907h-1.764h-5.908h-1.763h-5.908h-2.14c-1.952,0-3.54,1.588-3.54,3.54v2.108v5.908v1.764v5.907v1.764v5.908v2.108
						c0,1.952,1.588,3.54,3.54,3.54h2.14h5.908h1.763h5.908h1.764h5.907h1.764h5.908h2.14c1.952,0,3.54-1.588,3.54-3.54V40.752z
						 M40.489,38.437c0,1.658-1.35,3.008-3.008,3.008H13.127c-1.659,0-3.009-1.35-3.009-3.008V21.819
						c0-1.658,1.35-3.008,3.009-3.008h24.354c1.658,0,3.008,1.35,3.008,3.008V38.437z"/>
					<path fill="none" d="M37.481,40.345H13.127c-1.053,0-1.909-0.856-1.909-1.908V21.819c0-1.052,0.856-1.908,1.909-1.908h24.354
						c1.052,0,1.908,0.856,1.908,1.908v16.618C39.389,39.489,38.533,40.345,37.481,40.345z"/>
					<path fill="none" d="M20.716,8.267c0-0.415,0.338-0.753,0.753-0.753c0.415,0,0.753,0.338,0.753,0.753v3.387h-1.505V8.267z"/>
					<path fill="none" d="M13.046,8.267c0-0.415,0.338-0.753,0.753-0.753c0.415,0,0.753,0.338,0.753,0.753v3.387h-1.505V8.267z"/>
					<path fill="none" d="M-0.425,23.21c-0.414,0-0.752-0.338-0.752-0.753c0-0.415,0.338-0.753,0.752-0.753h3.388v1.505H-0.425z"/>
					<path d="M48.177-104.687c-9.984-0.181-21.813-0.271-33.605-0.271c-11.977,0-23.906,0.093-33.811,0.279
						c-0.599,0.011-1.08,0.5-1.08,1.1l-0.118,195.55c-0.001,0.608,0.491,1.101,1.099,1.102c32.737,0.045,105.547,0,106.278,0
						c0.292,0,0.571-0.116,0.778-0.323l4.5-4.501c0.206-0.206,0.322-0.486,0.322-0.778V-71.694c2.83-0.52,4.983-2.999,4.983-5.978
						c0-3.355-2.729-6.084-6.083-6.084s-6.083,2.729-6.083,6.084c0,2.978,2.153,5.458,4.983,5.978V87.014l-3.856,3.856
						c-6.178,0.004-72.878,0.045-104.718,0.001l0.065-107.58h69.153c0.277,2.793,2.64,4.983,5.505,4.983
						c3.051,0,5.533-2.482,5.533-5.533s-2.482-5.533-5.533-5.533c-2.865,0-5.228,2.19-5.505,4.983h-69.152l0.01-15.78h69.143
						c0.277,2.793,2.64,4.982,5.505,4.982c3.051,0,5.533-2.482,5.533-5.532c0-3.051-2.482-5.533-5.533-5.533
						c-2.865,0-5.228,2.19-5.505,4.983h-69.142l0.009-15.781h69.132c0.277,2.793,2.64,4.983,5.505,4.983
						c3.051,0,5.533-2.482,5.533-5.533c0-3.051-2.482-5.533-5.533-5.533c-2.865,0-5.228,2.19-5.505,4.983h-69.132l0.01-15.78h69.122
						c0.277,2.793,2.64,4.983,5.505,4.983c3.051,0,5.533-2.483,5.533-5.533c0-3.051-2.482-5.533-5.533-5.533
						c-2.865,0-5.228,2.19-5.505,4.983h-69.122l0.01-15.78h69.112c0.277,2.793,2.64,4.983,5.505,4.983
						c3.051,0,5.533-2.483,5.533-5.533c0-3.051-2.482-5.533-5.533-5.533c-2.865,0-5.228,2.19-5.505,4.983h-69.111l0.01-17.165
						c19.709-0.351,46.952-0.344,66.723,0.02c0.008,0,0.014,0,0.021,0c0.142,0,0.285-0.028,0.419-0.083
						c0.133-0.055,0.253-0.135,0.354-0.235c0.002-0.002,0.004-0.002,0.006-0.004l14.954-14.954h30.324l8.801,8.8
						c-0.678,0.981-1.078,2.169-1.078,3.449c0,3.355,2.729,6.083,6.084,6.083s6.083-2.728,6.083-6.083
						c0-3.354-2.729-6.083-6.083-6.083c-1.28,0-2.467,0.399-3.448,1.077l-9.123-9.122c-0.027-0.027-0.063-0.037-0.092-0.061
						c-0.082-0.067-0.166-0.134-0.265-0.176c-0.135-0.056-0.278-0.085-0.421-0.085H63.902c-0.144,0-0.287,0.029-0.422,0.085
						c-0.097,0.04-0.178,0.106-0.259,0.171c-0.031,0.025-0.069,0.036-0.098,0.065L48.177-104.687z M52.056-84.783
						c0-2.444,1.989-4.432,4.433-4.432c2.444,0,4.433,1.989,4.433,4.432s-1.989,4.433-4.433,4.433
						C54.045-80.35,52.056-82.339,52.056-84.783z M52.056-67.902c0-2.444,1.989-4.432,4.433-4.432c2.444,0,4.433,1.989,4.433,4.432
						c0,2.444-1.989,4.433-4.433,4.433C54.045-63.47,52.056-65.458,52.056-67.902z M52.056-51.021c0-2.444,1.989-4.433,4.433-4.433
						c2.444,0,4.433,1.989,4.433,4.433c0,2.444-1.989,4.432-4.433,4.432C54.045-46.589,52.056-48.577,52.056-51.021z M52.056-34.14
						c0-2.444,1.989-4.433,4.433-4.433c2.444,0,4.433,1.989,4.433,4.433c0,2.444-1.989,4.432-4.433,4.432
						C54.045-29.708,52.056-31.696,52.056-34.14z M52.056-17.259c0-2.444,1.989-4.433,4.433-4.433c2.444,0,4.433,1.989,4.433,4.433
						s-1.989,4.432-4.433,4.432C54.045-12.827,52.056-14.815,52.056-17.259z M91.44-73.791c-2.14,0-3.882-1.741-3.882-3.881
						s1.742-3.882,3.882-3.882s3.882,1.742,3.882,3.882S93.58-73.791,91.44-73.791z M104.608-105.505
						c0-2.14,1.742-3.882,3.882-3.882s3.882,1.742,3.882,3.882c0,2.14-1.742,3.881-3.882,3.881S104.608-103.365,104.608-105.505z"/>
					<path d="M79.889-82.144V76.564l-3.856,3.855H-6.91c-0.717,0-1.3-0.583-1.3-1.299v-5.65
						c0-0.716,0.583-1.299,1.3-1.299h72.95v0c0.282,0,0.564-0.107,0.779-0.322l4.5-4.5c0.206-0.207,0.322-0.486,0.322-0.779V-92.594
						c2.83-0.52,4.983-3,4.983-5.979c0-3.354-2.729-6.083-6.083-6.083c-3.354,0-6.083,2.729-6.083,6.083
						c0,2.978,2.153,5.459,4.983,5.979V66.114l-3.856,3.855H-6.91c-1.931,0-3.501,1.571-3.501,3.501v5.65
						c0,1.93,1.57,3.501,3.501,3.501h83.4v0c0.282,0,0.563-0.108,0.779-0.322l4.5-4.5c0.206-0.207,0.322-0.486,0.322-0.778V-82.144
						c2.83-0.52,4.983-3,4.983-5.979c0-3.354-2.729-6.083-6.083-6.083c-3.355,0-6.084,2.729-6.084,6.083
						C74.906-85.144,77.059-82.664,79.889-82.144z M70.54-94.69c-2.14,0-3.882-1.742-3.882-3.882s1.742-3.882,3.882-3.882
						c2.14,0,3.882,1.742,3.882,3.882S72.68-94.69,70.54-94.69z M80.99-84.24c-2.14,0-3.882-1.742-3.882-3.882
						c0-2.14,1.742-3.882,3.882-3.882c2.14,0,3.882,1.742,3.882,3.882C84.872-85.982,83.13-84.24,80.99-84.24z"/>
					<path d="M40.489,38.437V21.819c0-1.658-1.35-3.008-3.008-3.008H13.127c-1.659,0-3.009,1.35-3.009,3.008v16.618
						c0,1.658,1.35,3.008,3.009,3.008h24.354C39.139,41.446,40.489,40.096,40.489,38.437z M39.389,38.437
						c0,1.052-0.856,1.908-1.908,1.908H13.127c-1.053,0-1.909-0.856-1.909-1.908V21.819c0-1.052,0.856-1.908,1.909-1.908h24.354
						c1.052,0,1.908,0.856,1.908,1.908V38.437z"/>
					<path d="M47.645,34.845v-1.764h3.387c1.629,0,2.954-1.324,2.954-2.953c0-1.629-1.324-2.954-2.954-2.954h-3.387
						v-1.764h3.387c1.629,0,2.954-1.324,2.954-2.954c0-1.629-1.324-2.954-2.954-2.954h-3.387v-2.108
						c0-3.165-2.576-5.741-5.741-5.741h-2.14V8.267c0-1.629-1.324-2.954-2.954-2.954s-2.954,1.324-2.954,2.954v3.387h-1.764V8.267
						c0-1.629-1.324-2.954-2.953-2.954c-1.629,0-2.954,1.324-2.954,2.954v3.387h-1.764V8.267c0-1.629-1.324-2.954-2.954-2.954
						c-1.629,0-2.954,1.324-2.954,2.954v3.387h-1.763V8.267c0-1.629-1.324-2.954-2.954-2.954c-1.629,0-2.954,1.324-2.954,2.954
						v3.387h-2.14c-3.165,0-5.741,2.576-5.741,5.741v2.108h-3.388c-1.628,0-2.953,1.324-2.953,2.954
						c0,1.629,1.324,2.954,2.953,2.954h3.388v1.764h-3.388c-1.628,0-2.953,1.324-2.953,2.954c0,1.628,1.324,2.953,2.953,2.953h3.388
						v1.764h-3.388c-1.628,0-2.953,1.324-2.953,2.954c0,1.629,1.324,2.954,2.953,2.954h3.388v2.108c0,3.165,2.576,5.741,5.741,5.741
						h2.14v3.387c0,1.629,1.324,2.954,2.954,2.954c1.629,0,2.954-1.324,2.954-2.954v-3.387h1.763v3.387
						c0,1.629,1.324,2.954,2.954,2.954c1.629,0,2.954-1.324,2.954-2.954v-3.387h1.764v3.387c0,1.629,1.324,2.954,2.954,2.954
						c1.628,0,2.953-1.324,2.953-2.954v-3.387h1.764v3.387c0,1.629,1.324,2.954,2.954,2.954s2.954-1.324,2.954-2.954v-3.387h2.14
						c3.165,0,5.741-2.576,5.741-5.741v-2.108h3.387c1.629,0,2.954-1.324,2.954-2.954c0-1.629-1.324-2.954-2.954-2.954H47.645z
						 M47.645,38.551v-1.505h3.387c0.415,0,0.753,0.338,0.753,0.753c0,0.415-0.338,0.753-0.753,0.753H47.645z M36.058,48.602h1.505
						v3.387c0,0.415-0.338,0.753-0.753,0.753s-0.753-0.338-0.753-0.753V48.602z M28.387,48.602h1.504v3.387
						c0,0.415-0.338,0.753-0.752,0.753c-0.415,0-0.753-0.338-0.753-0.753V48.602z M20.716,48.602h1.505v3.387
						c0,0.415-0.338,0.753-0.753,0.753c-0.415,0-0.753-0.338-0.753-0.753V48.602z M13.046,48.602h1.505v3.387
						c0,0.415-0.338,0.753-0.753,0.753c-0.415,0-0.753-0.338-0.753-0.753V48.602z M2.963,37.046v1.505h-3.388
						c-0.414,0-0.752-0.338-0.752-0.753c0-0.415,0.338-0.753,0.752-0.753H2.963z M2.963,29.376v1.504h-3.388
						c-0.414,0-0.752-0.338-0.752-0.752c0-0.415,0.338-0.753,0.752-0.753H2.963z M2.963,21.704v1.505h-3.388
						c-0.414,0-0.752-0.338-0.752-0.753c0-0.415,0.338-0.753,0.752-0.753H2.963z M14.551,11.654h-1.505V8.267
						c0-0.415,0.338-0.753,0.753-0.753c0.415,0,0.753,0.338,0.753,0.753V11.654z M22.221,11.654h-1.505V8.267
						c0-0.415,0.338-0.753,0.753-0.753c0.415,0,0.753,0.338,0.753,0.753V11.654z M29.892,11.654h-1.504V8.267
						c0-0.415,0.338-0.753,0.753-0.753c0.414,0,0.752,0.338,0.752,0.753V11.654z M37.563,11.654h-1.505V8.267
						c0-0.415,0.338-0.753,0.753-0.753s0.753,0.338,0.753,0.753V11.654z M47.645,23.21v-1.505h3.387
						c0.415,0,0.753,0.338,0.753,0.753c0,0.415-0.338,0.753-0.753,0.753H47.645z M47.645,30.88v-1.504h3.387
						c0.415,0,0.753,0.338,0.753,0.753c0,0.414-0.338,0.752-0.753,0.752H47.645z M45.444,34.845v5.908v2.108
						c0,1.952-1.588,3.54-3.54,3.54h-2.14h-5.908h-1.764h-5.907h-1.764h-5.908h-1.763h-5.908h-2.14c-1.952,0-3.54-1.588-3.54-3.54
						v-2.108v-5.908v-1.764v-5.907v-1.764v-5.908v-2.108c0-1.952,1.588-3.54,3.54-3.54h2.14h5.908h1.763h5.908h1.764h5.907h1.764
						h5.908h2.14c1.952,0,3.54,1.588,3.54,3.54v2.108v5.908v1.764v5.907V34.845z"/>
				</g>
			</g>
		</g>
	</g>
	<path fill-rule="evenodd" clip-rule="evenodd" d="M20,0H2.5C1.119,0,0,1.119,0,2.5V20c0,1.381,1.119,2.5,2.5,2.5H20
		c1.381,0,2.5-1.119,2.5-2.5V2.5C22.5,1.119,21.381,0,20,0z M6.803,19.375H3.448V8.542h3.355V19.375z M5.109,7.123
		c-1.096,0-1.984-0.895-1.984-1.999c0-1.104,0.888-1.999,1.984-1.999c1.096,0,1.984,0.895,1.984,1.999
		C7.093,6.228,6.205,7.123,5.109,7.123z M19.375,19.375h-3.339v-5.687c0-1.559-0.592-2.43-1.827-2.43
		c-1.343,0-2.044,0.907-2.044,2.43v5.687H8.948V8.542h3.218v1.459c0,0,0.968-1.79,3.266-1.79c2.298,0,3.943,1.403,3.943,4.305
		V19.375z"/>
</g>
<g id="Layer_3" display="none" opacity="0.4">
	<rect x="-717.303" y="-532.936" display="inline" width="1920" height="1080"/>
</g>
<g id="GUIDES" display="none">
</g>
</svg>
