<?xml version="1.0" encoding="utf-8"?>
<!-- Generator: Adobe Illustrator 28.0.0, SVG Export Plug-In . SVG Version: 6.00 Build 0)  -->
<svg version="1.1" id="Layer_1" xmlns="http://www.w3.org/2000/svg" xmlns:xlink="http://www.w3.org/1999/xlink" x="0px" y="0px"
	 width="137.5px" height="80.1px" viewBox="0 0 137.5 80.1" style="enable-background:new 0 0 137.5 80.1;" xml:space="preserve">
<style type="text/css">
	.st0{fill:#DA1F26;}
	.st1{fill:#FFFFFF;}
</style>
<g>
	<g id="g13180_3_" transform="matrix(1.25,0,0,-1.25,-199.72719,130.46357)">
		<g id="g13311_3_" transform="matrix(1.4359451,0,0,1.4359451,-133.65952,-17.865494)">
			<g id="g13214_3_" transform="translate(238.5811,62.266059)">
				<path id="path13216_3_" class="st1" d="M-8.6,6.1c-0.6,2-2.5,3.5-4.8,3.5c-2.2,0-4.1-1.5-4.8-3.4L-8.6,6.1z M-18.3,4.7
					c0-2.7,2.2-4.9,5-4.9c1.5,0,2.8,0.6,3.7,1.6h2c-1.1-1.9-3.3-3.2-5.8-3.2C-17-1.7-20,1.2-20,4.7c0,3.6,3,6.5,6.7,6.5
					c3.7,0,6.6-2.9,6.6-6.5"/>
			</g>
			<g id="g13218_3_" transform="translate(219.5981,62.266059)">
				<path id="path13220_3_" class="st1" d="M-3.8,6.1c-0.6,2-2.5,3.5-4.8,3.5c-2.2,0-4.1-1.5-4.8-3.4L-3.8,6.1z M-13.6,4.7
					c0-2.7,2.2-4.9,5-4.9c1.5,0,2.8,0.6,3.7,1.6h2C-4-0.4-6.1-1.7-8.6-1.7c-3.7,0-6.6,2.9-6.6,6.5c0,3.6,3,6.5,6.6,6.5
					c3.7,0,6.7-2.9,6.7-6.5"/>
			</g>
			<g id="g13222_3_" transform="translate(286.2591,62.266059)">
				<path id="path13224_3_" class="st1" d="M-20.5,6.1c-0.6,2-2.5,3.5-4.8,3.5c-2.2,0-4.1-1.5-4.8-3.4L-20.5,6.1z M-30.3,4.7
					c0-2.7,2.2-4.9,5-4.9c1.5,0,2.8,0.6,3.7,1.6h2c-1.1-1.9-3.3-3.2-5.8-3.2c-3.7,0-6.7,2.9-6.7,6.5c0,3.6,3,6.5,6.7,6.5
					c3.7,0,6.7-2.9,6.7-6.5"/>
			</g>
			<g id="g13226_3_" transform="translate(263.1231,55.932059)">
				<path id="path13228_3_" class="st1" d="M-14.7,7.8c0-0.9,0.8-1.7,1.7-1.7c1.9,0,3.5,0.5,4,1.2l1-1.1c-1-1-2.8-1.7-4.9-1.7
					c-1.8,0-3.3,1.4-3.3,3.2h0l0,8.1v0h-4.7v1.6h4.7V24h1.7v-6.5h2.6v-1.6h-2.6l0,0L-14.7,7.8"/>
			</g>
			<g id="g13230_3_" transform="translate(290.0011,60.362059)">
				<path id="path13232_3_" class="st1" d="M-21.5,6.6c0,3.6,3,6.5,6.6,6.5c2.5,0,4.6-1.3,5.8-3.3h-2c-0.9,1-2.3,1.6-3.7,1.6
					c-2.8,0-5-2.2-5-4.9l0,0c0-2.7,2.2-4.9,5-4.9c1.5,0,2.8,0.6,3.7,1.6h2c-1.2-1.9-3.3-3.2-5.8-3.2C-18.5,0.2-21.5,3.1-21.5,6.6"/>
			</g>
			<g id="g13234_3_" transform="translate(246.1811,40.983059)">
				<path id="path13236_3_" class="st1" d="M-10.5,11.8c0.7,0.6,1.6,1.2,2.4,1.8c3.1,2.2,6.2,4.6,6.2,7.5c0,2.9-3.2,5.2-6.2,7.4
					c-2.8,2-5.7,4.1-5.7,6.3c0,2.2,2.9,4.3,5.6,6.3c1.3,1,2.6,1.9,3.7,2.9l-2.2,0c-0.8-0.6-1.6-1.2-2.4-1.8
					c-3.1-2.2-6.2-4.6-6.2-7.4c0-2.9,3.2-5.2,6.2-7.5c2.8-2,5.6-4.1,5.6-6.3c0-2.2-2.9-4.3-5.7-6.3c-1.3-0.9-2.6-1.9-3.7-2.9"/>
			</g>
		</g>
	</g>
	<g id="XMLID_55_">
		<path id="XMLID_74_" class="st1" d="M22.3,62.6H25v11.1h3.8v2.5h-6.5V62.6z"/>
		<path id="XMLID_72_" class="st1" d="M43.5,65l-1.8,1.7c-1.3-1.3-2.7-1.9-4.2-1.9c-1.3,0-2.4,0.4-3.3,1.3c-0.9,0.9-1.4,2-1.4,3.3
			c0,0.9,0.2,1.7,0.6,2.4c0.4,0.7,1,1.2,1.7,1.6c0.7,0.4,1.6,0.6,2.4,0.6c0.8,0,1.5-0.1,2.1-0.4c0.6-0.3,1.3-0.8,2.1-1.5l1.8,1.8
			c-1,1-2,1.7-2.9,2c-0.9,0.4-2,0.6-3.1,0.6c-2.2,0-3.9-0.7-5.3-2c-1.4-1.3-2.1-3-2.1-5.1c0-1.3,0.3-2.5,0.9-3.6
			c0.6-1,1.5-1.9,2.7-2.5c1.2-0.6,2.4-1,3.8-1c1.1,0,2.2,0.2,3.3,0.7C41.9,63.5,42.8,64.1,43.5,65z"/>
		<path id="XMLID_70_" class="st1" d="M50.5,62.6h8.4L54,73.7h4.6v2.5h-8.5l4.9-11h-4.5V62.6z"/>
		<path id="XMLID_67_" class="st1" d="M68.2,66.2h2.6v10h-2.6v-1.1c-0.5,0.5-1,0.8-1.5,1c-0.5,0.2-1.1,0.3-1.6,0.3
			c-1.3,0-2.5-0.5-3.4-1.5c-1-1-1.4-2.2-1.4-3.7c0-1.5,0.5-2.8,1.4-3.8c0.9-1,2.1-1.5,3.4-1.5c0.6,0,1.2,0.1,1.7,0.3
			c0.5,0.2,1,0.6,1.5,1V66.2z M65.5,68.2c-0.8,0-1.5,0.3-2,0.8c-0.5,0.5-0.8,1.3-0.8,2.1c0,0.9,0.3,1.6,0.8,2.1
			c0.5,0.6,1.2,0.8,2,0.8c0.8,0,1.5-0.3,2-0.8c0.5-0.5,0.8-1.3,0.8-2.2c0-0.9-0.3-1.6-0.8-2.1C67,68.5,66.3,68.2,65.5,68.2z"/>
		<path id="XMLID_64_" class="st1" d="M80.9,66.2h2.6v8.6c0,1.7-0.3,2.9-1,3.7c-0.9,1.1-2.3,1.6-4.2,1.6c-1,0-1.9-0.1-2.5-0.4
			s-1.3-0.6-1.7-1.1c-0.5-0.5-0.8-1.1-1-1.7h2.8c0.3,0.3,0.6,0.5,1,0.6c0.4,0.1,0.9,0.2,1.4,0.2c0.7,0,1.2-0.1,1.7-0.3
			c0.4-0.2,0.7-0.5,0.9-0.8c0.2-0.3,0.3-0.9,0.3-1.7c-0.5,0.4-0.9,0.8-1.4,1c-0.5,0.2-1.1,0.3-1.7,0.3c-1.4,0-2.5-0.5-3.5-1.5
			c-0.9-1-1.4-2.2-1.4-3.7c0-1.6,0.5-2.9,1.5-3.8c0.9-0.9,2-1.3,3.3-1.3c0.6,0,1.1,0.1,1.7,0.3c0.5,0.2,1.1,0.6,1.6,1V66.2z
			 M78.3,68.2c-0.8,0-1.5,0.3-2,0.8c-0.5,0.5-0.8,1.2-0.8,2c0,0.8,0.3,1.5,0.8,2.1c0.5,0.5,1.2,0.8,2,0.8c0.8,0,1.5-0.3,2-0.8
			c0.5-0.5,0.8-1.2,0.8-2.1c0-0.8-0.3-1.5-0.8-2C79.8,68.5,79.1,68.2,78.3,68.2z"/>
		<path id="XMLID_62_" class="st1" d="M85.5,66.2h2.2v1.3c0.2-0.5,0.6-0.9,1-1.1c0.4-0.3,0.8-0.4,1.3-0.4c0.3,0,0.7,0.1,1,0.3
			l-0.8,2.2c-0.3-0.1-0.5-0.2-0.7-0.2c-0.4,0-0.7,0.2-1,0.7c-0.3,0.5-0.4,1.4-0.4,2.8l0,0.5v4h-2.6V66.2z"/>
		<path id="XMLID_59_" class="st1" d="M102.5,71.9h-8.3c0.1,0.7,0.4,1.3,1,1.7c0.5,0.4,1.2,0.6,2,0.6c1,0,1.8-0.3,2.5-1l2.2,1
			c-0.5,0.7-1.2,1.3-1.9,1.7c-0.8,0.4-1.6,0.5-2.7,0.5c-1.6,0-2.9-0.5-3.9-1.5c-1-1-1.5-2.2-1.5-3.7c0-1.5,0.5-2.8,1.5-3.8
			c1-1,2.3-1.5,3.8-1.5c1.6,0,2.9,0.5,3.9,1.5c1,1,1.5,2.3,1.5,4L102.5,71.9z M100,69.9c-0.2-0.6-0.5-1-1-1.4
			c-0.5-0.3-1.1-0.5-1.7-0.5c-0.7,0-1.3,0.2-1.9,0.6c-0.3,0.2-0.7,0.7-0.9,1.3H100z"/>
		<path id="XMLID_56_" class="st1" d="M107.2,62.3v5c0.5-0.5,1-0.8,1.5-1c0.5-0.2,1.1-0.3,1.7-0.3c1.3,0,2.5,0.5,3.4,1.5
			c0.9,1,1.4,2.3,1.4,3.8c0,1.5-0.5,2.7-1.5,3.7c-1,1-2.1,1.5-3.4,1.5c-0.6,0-1.1-0.1-1.6-0.3c-0.5-0.2-1-0.5-1.5-1v1.1h-2.6V62.3
			H107.2z M109.9,68.2c-0.8,0-1.5,0.3-2,0.8c-0.5,0.5-0.8,1.2-0.8,2.1c0,0.9,0.3,1.6,0.8,2.2c0.5,0.5,1.2,0.8,2,0.8
			c0.8,0,1.4-0.3,2-0.8c0.5-0.6,0.8-1.3,0.8-2.1c0-0.9-0.3-1.6-0.8-2.1C111.3,68.5,110.7,68.2,109.9,68.2z"/>
	</g>
</g>
</svg>
