<?xml version="1.0" encoding="utf-8"?>
<!-- Generator: Adobe Illustrator 28.0.0, SVG Export Plug-In . SVG Version: 6.00 Build 0)  -->
<svg version="1.1" id="Layer_1" xmlns="http://www.w3.org/2000/svg" xmlns:xlink="http://www.w3.org/1999/xlink" x="0px" y="0px"
	 width="1133.9px" height="1133.9px" viewBox="0 0 1133.9 1133.9" style="enable-background:new 0 0 1133.9 1133.9;"
	 xml:space="preserve">
<style type="text/css">
	.st0{display:none;}
	.st1{fill:#EFB427;}
</style>
<g>
	<path class="st1" d="M0.5,511.4v34.3c0,19,15.4,34.3,34.3,34.3c19,0,34.3-15.4,34.3-34.3v-34.3h68.6v-68.6H69.1
		C31.2,442.8,0.5,473.5,0.5,511.4z"/>
	<path class="st1" d="M0.5,695.6V730c0,19,15.4,34.3,34.3,34.3c19,0,34.3-15.4,34.3-34.3v-34.3h68.6V627H69.1
		C31.2,627,0.5,657.7,0.5,695.6z"/>
	<path class="st1" d="M0.5,327.2v34.3c0,19,15.4,34.3,34.3,34.3c19,0,34.3-15.4,34.3-34.3v-34.3h68.6v-68.6H69.1
		C31.2,258.5,0.5,289.3,0.5,327.2z"/>
	<path class="st1" d="M292,1114c0,11,8.9,19.9,19.9,19.9h28.8c11,0,19.9-8.9,19.9-19.9V996.6H292V1114z"/>
	<path class="st1" d="M452.1,1114c0,11,8.9,19.9,19.9,19.9h28.8c11,0,19.9-8.9,19.9-19.9V996.6h-68.6V1114z"/>
	<path class="st1" d="M841.1,19.9c0-11-8.9-19.9-19.9-19.9h-28.8c-11,0-19.9,8.9-19.9,19.9v117.4h68.6V19.9z"/>
	<path class="st1" d="M680.9,19.9C680.9,8.9,672,0,661,0h-28.8c-11,0-19.9,8.9-19.9,19.9v117.4h68.6V19.9z"/>
	<path class="st1" d="M69.1,811.2c-37.9,0-68.6,30.7-68.6,68.6v34.3c0,19,15.4,34.3,34.3,34.3c19,0,34.3-15.4,34.3-34.3v-34.3h68.6
		v-68.6L69.1,811.2L69.1,811.2z"/>
	<path class="st1" d="M360.6,19.9c0-11-8.9-19.9-19.9-19.9h-28.8c-11,0-19.9,8.9-19.9,19.9v117.4h68.6V19.9z"/>
	<path class="st1" d="M520.7,19.9c0-11-8.9-19.9-19.9-19.9H472c-11,0-19.9,8.9-19.9,19.9v117.4h68.6V19.9z"/>
	<path class="st1" d="M863.4,171.6H269.6c-54,0-97.7,43.8-97.7,97.7v593.9c0,54,43.8,97.7,97.7,97.7h593.9c54,0,97.7-43.8,97.7-97.7
		V269.3C961.2,215.4,917.4,171.6,863.4,171.6z M469.5,673.4h-69.6l-25.8-184l-26.1,184h-69.6l-44.7-212.8h48L315,632l24.9-171.5
		h67.8L432.7,632l33.4-171.5h48L469.5,673.4z M706,502.8H586.8v45.9h107.9v36.5H586.8v45.9H706v42.3H538.2V460.5H706V502.8z
		 M894.1,641.3c-4.2,7.6-10,14.2-17.5,19.9c-7.5,5.7-16.5,10.1-26.9,13.2c-10.4,3.1-21.9,4.7-34.5,4.7c-14.2,0-26.9-2-38.2-6.1
		c-11.3-4.1-20.8-9.5-28.7-16.4c-7.9-6.9-13.9-14.9-18.1-24.2c-4.2-9.2-6.2-19-6.2-29.3h48.7c0,4.5,0.9,9,2.6,13.5
		c1.7,4.6,4.4,8.7,8.1,12.3c3.6,3.6,8.2,6.6,13.5,9c5.4,2.3,11.5,3.5,18.4,3.5c10.7,0,19.5-2.5,26.3-7.6
		c6.8-5.1,10.2-11.4,10.2-19.2c0-4.9-1.2-8.8-3.5-11.9c-2.3-3-5.5-5.6-9.4-7.6c-4-2-8.5-3.7-13.7-5.2c-5.2-1.4-10.5-2.7-16-4
		c-13-3-24.4-6.6-34.2-10.8c-9.8-4.2-17.9-9-24.3-14.6c-6.4-5.6-11.2-12-14.4-19.3c-3.2-7.3-4.9-15.8-4.9-25.5
		c0-8.9,2-17.1,6.1-24.6c4.1-7.5,9.7-13.9,16.9-19.3c7.2-5.4,15.8-9.6,25.8-12.6c10-3,20.9-4.6,32.7-4.6c12.8,0,24.2,1.8,34.2,5.5
		c10,3.6,18.5,8.6,25.5,14.9c7,6.3,12.4,13.7,16.1,22.2c3.7,8.5,5.6,17.5,5.6,27.1h-48.7c0-3.8-0.7-7.7-2-11.6
		c-1.3-3.8-3.3-7.3-6.1-10.3c-2.7-3-6.2-5.5-10.3-7.3c-4.2-1.8-9-2.7-14.4-2.7c-10.5,0-18.7,2.5-24.3,7.4c-5.7,5-8.5,10.7-8.5,17.2
		c0,4.5,1.1,8.1,3.3,10.9c2.2,2.8,5.2,5.2,8.8,7.1c3.6,1.9,7.9,3.5,12.6,4.7c4.8,1.2,9.7,2.4,14.7,3.6c12,2.6,22.9,5.9,32.7,9.7
		c9.8,3.9,18.3,8.7,25.5,14.4c7.2,5.8,12.8,12.6,16.7,20.5c4,7.9,5.9,17.2,5.9,28C900.3,625.3,898.3,633.7,894.1,641.3z"/>
	<path class="st1" d="M1064.8,627h-68.6v68.6h68.6V730c0,19,15.4,34.3,34.3,34.3s34.3-15.4,34.3-34.3v-34.3
		C1133.4,657.7,1102.7,627,1064.8,627z"/>
	<path class="st1" d="M1064.8,811.2h-68.6v68.6h68.6v34.3c0,19,15.4,34.3,34.3,34.3s34.3-15.4,34.3-34.3v-34.3
		C1133.4,842,1102.7,811.2,1064.8,811.2z"/>
	<path class="st1" d="M1064.8,258.5h-68.6v68.6h68.6v34.3c0,19,15.4,34.3,34.3,34.3s34.3-15.4,34.3-34.3v-34.3
		C1133.4,289.3,1102.7,258.5,1064.8,258.5z"/>
	<path class="st1" d="M1064.8,442.8h-68.6v68.6h68.6v34.3c0,19,15.4,34.3,34.3,34.3s34.3-15.4,34.3-34.3v-34.3
		C1133.4,473.5,1102.7,442.8,1064.8,442.8z"/>
	<path class="st1" d="M612.3,1114c0,11,8.9,19.9,19.9,19.9H661c11,0,19.9-8.9,19.9-19.9V996.6h-68.6V1114z"/>
	<path class="st1" d="M772.4,1114c0,11,8.9,19.9,19.9,19.9h28.8c11,0,19.9-8.9,19.9-19.9V996.6h-68.6V1114z"/>
</g>
</svg>
