<?xml version="1.0" encoding="iso-8859-1"?>
<!-- Generator: Adobe Illustrator 28.0.0, SVG Export Plug-In . SVG Version: 6.00 Build 0)  -->
<svg version="1.1" xmlns="http://www.w3.org/2000/svg" xmlns:xlink="http://www.w3.org/1999/xlink" x="0px" y="0px" width="22.5px"
	 height="22.5px" viewBox="0 0 22.5 22.5" enable-background="new 0 0 22.5 22.5" xml:space="preserve">
<g id="Layer_4">
	<g>
		<defs>
			<rect id="SVGID_1_" x="-86.559" y="-2259.304" width="576" height="2225.994"/>
		</defs>
		<clipPath id="SVGID_00000088832832178348473850000000846721507438697384_">
			<use xlink:href="#SVGID_1_"  overflow="visible"/>
		</clipPath>
		<g opacity="0.05" clip-path="url(#SVGID_00000088832832178348473850000000846721507438697384_)">
			<g>
			</g>
		</g>
	</g>
</g>
<g id="Layer_1">
	<g>
		<g>
			<defs>
				<path id="SVGID_00000106132045822629000000000001648071897209825471_" d="M457.581-47.838H-54.698
					c-9.444,0-17.1-7.656-17.1-17.1v-492.001c0-9.444,7.656-17.1,17.1-17.1h512.279c9.444,0,17.1,7.656,17.1,17.1v492.001
					C474.681-55.494,467.025-47.838,457.581-47.838z"/>
			</defs>
			<clipPath id="SVGID_00000005963956480700144800000007698656587976625309_">
				<use xlink:href="#SVGID_00000106132045822629000000000001648071897209825471_"  overflow="visible"/>
			</clipPath>
			<g clip-path="url(#SVGID_00000005963956480700144800000007698656587976625309_)">
				<g opacity="0.05">
					<path fill="none" d="M9.416,21.704c0.415,0,0.753,0.338,0.753,0.753c0,0.415-0.338,0.753-0.753,0.753H6.028v-1.505H9.416z"/>
					<path fill="none" d="M3.827,40.752v-5.908v-1.764v-5.907v-1.764v-5.908v-2.108c0-1.952-1.588-3.54-3.54-3.54h-2.14h-5.908
						h-1.764h-5.907h-1.764h-5.908h-1.763h-5.908h-2.14c-1.952,0-3.54,1.588-3.54,3.54v2.108v5.908v1.764v5.907v1.764v5.908v2.108
						c0,1.952,1.588,3.54,3.54,3.54h2.14h5.908h1.763h5.908h1.764h5.907h1.764h5.908h2.14c1.952,0,3.54-1.588,3.54-3.54V40.752z
						 M-1.128,38.437c0,1.658-1.35,3.008-3.008,3.008H-28.49c-1.659,0-3.009-1.35-3.009-3.008V21.819
						c0-1.658,1.35-3.008,3.009-3.008h24.354c1.658,0,3.008,1.35,3.008,3.008V38.437z"/>
					<path d="M6.56-104.687c-9.984-0.181-21.813-0.271-33.605-0.271c-11.977,0-23.906,0.093-33.811,0.279
						c-0.599,0.011-1.08,0.5-1.08,1.1l-0.118,195.55c-0.001,0.608,0.491,1.101,1.099,1.102c32.737,0.045,105.547,0,106.278,0
						c0.292,0,0.571-0.116,0.778-0.323l4.5-4.501c0.206-0.206,0.322-0.486,0.322-0.778V-71.694c2.83-0.52,4.983-2.999,4.983-5.978
						c0-3.355-2.729-6.084-6.083-6.084s-6.083,2.729-6.083,6.084c0,2.978,2.153,5.458,4.983,5.978V87.014l-3.856,3.856
						c-6.178,0.004-72.878,0.045-104.718,0.001l0.065-107.58H9.366c0.277,2.793,2.64,4.983,5.505,4.983
						c3.051,0,5.533-2.482,5.533-5.533s-2.482-5.533-5.533-5.533c-2.865,0-5.228,2.19-5.505,4.983h-69.152l0.01-15.78H9.366
						c0.277,2.793,2.64,4.982,5.505,4.982c3.051,0,5.533-2.482,5.533-5.532c0-3.051-2.482-5.533-5.533-5.533
						c-2.865,0-5.228,2.19-5.505,4.983h-69.142l0.009-15.781H9.366c0.277,2.793,2.64,4.983,5.505,4.983
						c3.051,0,5.533-2.482,5.533-5.533c0-3.051-2.482-5.533-5.533-5.533c-2.865,0-5.228,2.19-5.505,4.983h-69.132l0.01-15.78H9.366
						c0.277,2.793,2.64,4.983,5.505,4.983c3.051,0,5.533-2.483,5.533-5.533c0-3.051-2.482-5.533-5.533-5.533
						c-2.865,0-5.228,2.19-5.505,4.983h-69.122l0.01-15.78H9.366c0.277,2.793,2.64,4.983,5.505,4.983
						c3.051,0,5.533-2.483,5.533-5.533c0-3.051-2.482-5.533-5.533-5.533c-2.865,0-5.228,2.19-5.505,4.983h-69.111l0.01-17.165
						c19.709-0.351,46.952-0.344,66.723,0.02c0.008,0,0.014,0,0.021,0c0.142,0,0.285-0.028,0.419-0.083
						c0.133-0.055,0.253-0.135,0.354-0.235c0.002-0.002,0.004-0.002,0.006-0.004l14.954-14.954h30.324l8.801,8.8
						c-0.678,0.981-1.078,2.169-1.078,3.449c0,3.355,2.729,6.083,6.084,6.083s6.083-2.728,6.083-6.083
						c0-3.354-2.729-6.083-6.083-6.083c-1.28,0-2.467,0.399-3.448,1.077l-9.123-9.122c-0.027-0.027-0.063-0.037-0.092-0.061
						c-0.082-0.067-0.166-0.134-0.265-0.176c-0.135-0.056-0.278-0.085-0.421-0.085H22.285c-0.144,0-0.287,0.029-0.422,0.085
						c-0.097,0.04-0.178,0.106-0.259,0.171c-0.031,0.025-0.069,0.036-0.098,0.065L6.56-104.687z M10.439-84.783
						c0-2.444,1.989-4.432,4.433-4.432s4.433,1.989,4.433,4.432s-1.989,4.433-4.433,4.433S10.439-82.339,10.439-84.783z
						 M10.439-67.902c0-2.444,1.989-4.432,4.433-4.432s4.433,1.989,4.433,4.432c0,2.444-1.989,4.433-4.433,4.433
						S10.439-65.458,10.439-67.902z M10.439-51.021c0-2.444,1.989-4.433,4.433-4.433s4.433,1.989,4.433,4.433
						c0,2.444-1.989,4.432-4.433,4.432S10.439-48.577,10.439-51.021z M10.439-34.14c0-2.444,1.989-4.433,4.433-4.433
						s4.433,1.989,4.433,4.433c0,2.444-1.989,4.432-4.433,4.432S10.439-31.696,10.439-34.14z M10.439-17.259
						c0-2.444,1.989-4.433,4.433-4.433s4.433,1.989,4.433,4.433s-1.989,4.432-4.433,4.432S10.439-14.815,10.439-17.259z
						 M49.823-73.791c-2.14,0-3.882-1.741-3.882-3.881s1.742-3.882,3.882-3.882s3.882,1.742,3.882,3.882
						S51.963-73.791,49.823-73.791z M62.991-105.505c0-2.14,1.742-3.882,3.882-3.882s3.882,1.742,3.882,3.882
						c0,2.14-1.742,3.881-3.882,3.881S62.991-103.365,62.991-105.505z"/>
					<path d="M38.272-82.144V76.564l-3.856,3.855h-82.944c-0.717,0-1.3-0.583-1.3-1.299v-5.65
						c0-0.716,0.583-1.299,1.3-1.299h72.95v0c0.282,0,0.564-0.107,0.779-0.322l4.5-4.5c0.206-0.207,0.322-0.486,0.322-0.779V-92.594
						c2.83-0.52,4.983-3,4.983-5.979c0-3.354-2.729-6.083-6.083-6.083c-3.354,0-6.083,2.729-6.083,6.083
						c0,2.978,2.153,5.459,4.983,5.979V66.114l-3.856,3.855h-72.494c-1.931,0-3.501,1.571-3.501,3.501v5.65
						c0,1.93,1.57,3.501,3.501,3.501h83.4v0c0.282,0,0.563-0.108,0.779-0.322l4.5-4.5c0.206-0.207,0.322-0.486,0.322-0.778V-82.144
						c2.83-0.52,4.983-3,4.983-5.979c0-3.354-2.729-6.083-6.083-6.083c-3.355,0-6.084,2.729-6.084,6.083
						C33.289-85.144,35.442-82.664,38.272-82.144z M28.923-94.69c-2.14,0-3.882-1.742-3.882-3.882s1.742-3.882,3.882-3.882
						s3.882,1.742,3.882,3.882S31.063-94.69,28.923-94.69z M39.373-84.24c-2.14,0-3.882-1.742-3.882-3.882
						c0-2.14,1.742-3.882,3.882-3.882c2.14,0,3.882,1.742,3.882,3.882C43.255-85.982,41.513-84.24,39.373-84.24z"/>
					<path d="M6.028,34.845v-1.764h3.387c1.629,0,2.954-1.324,2.954-2.953c0-1.629-1.324-2.954-2.954-2.954H6.028
						v-1.764h3.387c1.629,0,2.954-1.324,2.954-2.954c0-1.629-1.324-2.954-2.954-2.954H6.028v-2.108c0-3.165-2.576-5.741-5.741-5.741
						h-2.14V8.267c0-1.629-1.324-2.954-2.954-2.954s-2.954,1.324-2.954,2.954v3.387h-1.764V8.267c0-1.629-1.324-2.954-2.953-2.954
						c-1.629,0-2.954,1.324-2.954,2.954v3.387h-1.764V8.267c0-1.629-1.324-2.954-2.954-2.954c-1.629,0-2.954,1.324-2.954,2.954
						v3.387h-1.763V8.267c0-1.629-1.324-2.954-2.954-2.954c-1.629,0-2.954,1.324-2.954,2.954v3.387h-2.14
						c-3.165,0-5.741,2.576-5.741,5.741v2.108h-3.388c-1.628,0-2.953,1.324-2.953,2.954c0,1.629,1.324,2.954,2.953,2.954h3.388
						v1.764h-3.388c-1.628,0-2.953,1.324-2.953,2.954c0,1.628,1.324,2.953,2.953,2.953h3.388v1.764h-3.388
						c-1.628,0-2.953,1.324-2.953,2.954c0,1.629,1.324,2.954,2.953,2.954h3.388v2.108c0,3.165,2.576,5.741,5.741,5.741h2.14v3.387
						c0,1.629,1.324,2.954,2.954,2.954c1.629,0,2.954-1.324,2.954-2.954v-3.387h1.763v3.387c0,1.629,1.324,2.954,2.954,2.954
						c1.629,0,2.954-1.324,2.954-2.954v-3.387h1.764v3.387c0,1.629,1.324,2.954,2.954,2.954c1.628,0,2.953-1.324,2.953-2.954v-3.387
						h1.764v3.387c0,1.629,1.324,2.954,2.954,2.954s2.954-1.324,2.954-2.954v-3.387h2.14c3.165,0,5.741-2.576,5.741-5.741v-2.108
						h3.387c1.629,0,2.954-1.324,2.954-2.954c0-1.629-1.324-2.954-2.954-2.954H6.028z M6.028,38.551v-1.505h3.387
						c0.415,0,0.753,0.338,0.753,0.753c0,0.415-0.338,0.753-0.753,0.753H6.028z M-5.559,48.602h1.505v3.387
						c0,0.415-0.338,0.753-0.753,0.753c-0.415,0-0.753-0.338-0.753-0.753V48.602z M-13.23,48.602h1.504v3.387
						c0,0.415-0.338,0.753-0.752,0.753c-0.415,0-0.753-0.338-0.753-0.753V48.602z M-20.901,48.602h1.505v3.387
						c0,0.415-0.338,0.753-0.753,0.753c-0.415,0-0.753-0.338-0.753-0.753V48.602z M-28.571,48.602h1.505v3.387
						c0,0.415-0.338,0.753-0.753,0.753c-0.415,0-0.753-0.338-0.753-0.753V48.602z M-38.654,37.046v1.505h-3.388
						c-0.414,0-0.752-0.338-0.752-0.753c0-0.415,0.338-0.753,0.752-0.753H-38.654z M-38.654,29.376v1.504h-3.388
						c-0.414,0-0.752-0.338-0.752-0.752c0-0.415,0.338-0.753,0.752-0.753H-38.654z M-38.654,21.704v1.505h-3.388
						c-0.414,0-0.752-0.338-0.752-0.753c0-0.415,0.338-0.753,0.752-0.753H-38.654z M-27.066,11.654h-1.505V8.267
						c0-0.415,0.338-0.753,0.753-0.753c0.415,0,0.753,0.338,0.753,0.753V11.654z M-19.396,11.654h-1.505V8.267
						c0-0.415,0.338-0.753,0.753-0.753c0.415,0,0.753,0.338,0.753,0.753V11.654z M-11.726,11.654h-1.504V8.267
						c0-0.415,0.338-0.753,0.753-0.753c0.414,0,0.752,0.338,0.752,0.753V11.654z M-4.054,11.654h-1.505V8.267
						c0-0.415,0.338-0.753,0.753-0.753c0.415,0,0.753,0.338,0.753,0.753V11.654z M6.028,23.21v-1.505h3.387
						c0.415,0,0.753,0.338,0.753,0.753c0,0.415-0.338,0.753-0.753,0.753H6.028z M6.028,30.88v-1.504h3.387
						c0.415,0,0.753,0.338,0.753,0.753c0,0.414-0.338,0.752-0.753,0.752H6.028z M3.827,34.845v5.908v2.108
						c0,1.952-1.588,3.54-3.54,3.54h-2.14h-5.908h-1.764h-5.907h-1.764h-5.908h-1.763h-5.908h-2.14c-1.952,0-3.54-1.588-3.54-3.54
						v-2.108v-5.908v-1.764v-5.907v-1.764v-5.908v-2.108c0-1.952,1.588-3.54,3.54-3.54h2.14h5.908h1.763h5.908h1.764h5.907h1.764
						h5.908h2.14c1.952,0,3.54,1.588,3.54,3.54v2.108v5.908v1.764v5.907V34.845z"/>
				</g>
			</g>
		</g>
	</g>
	<path fill-rule="evenodd" clip-rule="evenodd" d="M20,0H2.5C1.119,0,0,1.119,0,2.5V20c0,1.381,1.119,2.5,2.5,2.5H20
		c1.381,0,2.5-1.119,2.5-2.5V2.5C22.5,1.119,21.381,0,20,0z M12.275,19.677v-5.811h2.288l0.475-2.585h-2.763v-0.914
		c0-1.366,0.536-1.891,1.923-1.891c0.431,0,0.777,0.011,0.977,0.031V6.165c-0.378-0.105-1.303-0.21-1.839-0.21
		c-2.826,0-4.129,1.334-4.129,4.213v1.114H7.463v2.585h1.744v5.624c-3.684-0.914-6.414-4.242-6.414-8.209
		c0-4.671,3.787-8.457,8.457-8.457s8.457,3.787,8.457,8.457C19.707,15.605,16.462,19.171,12.275,19.677z"/>
</g>
<g id="Layer_3" display="none" opacity="0.4">
	<rect x="-758.92" y="-532.936" display="inline" width="1920" height="1080"/>
</g>
<g id="GUIDES" display="none">
</g>
</svg>
