<?xml version="1.0" encoding="utf-8"?>
<!-- Generator: Adobe Illustrator 28.0.0, SVG Export Plug-In . SVG Version: 6.00 Build 0)  -->
<svg version="1.1" id="Layer_1" xmlns="http://www.w3.org/2000/svg" xmlns:xlink="http://www.w3.org/1999/xlink" x="0px" y="0px"
	 width="224.4px" height="641.6px" viewBox="0 0 224.4 641.6" style="enable-background:new 0 0 224.4 641.6;" xml:space="preserve"
	>
<style type="text/css">
	path {
		fill: oklch(62.95% 0.1371 65.58);
	}
</style>
<g>
	<path d="M0,613.6l201.6-47.1L0,527.5v-45l201.6-38.9L0,396.5v-28l212.8,49.6v50.8L19.5,505l193.4,36.2V592L0,641.6V613.6z"/>
	<path d="M0,340.9V184h23.1v129.5h71.8V195.2H118v118.3h71.8V184h23.1v156.9H0z"/>
	<path d="M61.1,158.1c-8.5,0-16.5-2-23.9-5.9c-7.4-4-13.9-9.4-19.5-16.3C12.2,129,7.9,121,4.7,111.7C1.6,102.5,0,92.6,0,82.1
		C0,69.5,2,58.5,5.9,49c4-9.5,9.1-17.5,15.5-23.9c6.4-6.4,13.6-11.1,21.7-14.3c8.1-3.1,16.4-4.7,24.9-4.7v27.4
		c-4.9,0-9.9,1-15.2,2.9c-5.3,1.9-10.1,4.9-14.6,8.8c-4.5,4-8.1,9-10.9,15.1c-2.8,6.1-4.3,13.4-4.3,21.9c0,7.9,1.1,14.9,3.2,21
		c2.1,6.1,5,11.2,8.5,15.2c3.5,4.1,7.6,7.1,12,9.3c4.5,2.1,9.1,3.2,14,3.2c6.3,0,11.5-1.8,15.7-5.3c4.2-3.5,7.5-8,10-13.2
		c2.5-5.3,4.6-11.1,6.2-17.5c1.6-6.4,3-12.3,4.3-17.8c2-8.9,4.5-17.9,7.3-27.1c2.8-9.1,6.7-17.4,11.6-24.8
		c4.9-7.4,10.9-13.4,18.2-18.1c7.3-4.7,16.4-7,27.4-7c8.7,0,16.9,2,24.5,5.9s14.2,9.5,19.9,16.6c5.7,7.1,10.2,15.5,13.5,25.2
		c3.3,9.7,5,20.4,5,31.9c0,13.8-2.2,26-6.7,36.6c-4.5,10.6-10.2,19.6-17.3,26.9c-7.1,7.3-15.1,12.8-24,16.6
		c-8.9,3.8-17.7,5.6-26.5,5.6V138c5.1,0,10.6-1.2,16.6-3.5c6-2.3,11.6-5.9,16.7-10.8c5.2-4.9,9.5-10.9,12.9-18.2
		c3.4-7.3,5.2-15.9,5.2-25.8c0-7.5-1-14.4-3-20.8c-2-6.4-4.9-11.9-8.5-16.6c-3.6-4.7-7.9-8.3-12.8-10.9c-4.9-2.6-10-4-15.5-4
		c-6.9,0-12.5,1.8-16.9,5.3c-4.4,3.5-7.9,8-10.6,13.4c-2.7,5.4-4.9,11.4-6.5,17.9c-1.6,6.6-3.1,12.9-4.6,19
		c-2.8,11.8-5.9,22.3-9.3,31.6c-3.3,9.3-7.3,17.2-12,23.6c-4.7,6.4-10.3,11.3-16.9,14.7C78.1,156.4,70.2,158.1,61.1,158.1z"/>
</g>
</svg>
