<?xml version="1.0" encoding="iso-8859-1"?>
<!-- Generator: Adobe Illustrator 28.0.0, SVG Export Plug-In . SVG Version: 6.00 Build 0)  -->
<svg version="1.1" xmlns="http://www.w3.org/2000/svg" xmlns:xlink="http://www.w3.org/1999/xlink" x="0px" y="0px" width="22.5px"
	 height="22.5px" viewBox="0 0 22.5 22.5" enable-background="new 0 0 22.5 22.5" xml:space="preserve">
<g id="Layer_4">
	<g>
		<defs>
			<rect id="SVGID_1_" x="-2.303" y="-2259.304" width="576" height="2225.994"/>
		</defs>
		<clipPath id="SVGID_00000173148956263110972020000004902932100258833809_">
			<use xlink:href="#SVGID_1_"  overflow="visible"/>
		</clipPath>
		<g opacity="0.05" clip-path="url(#SVGID_00000173148956263110972020000004902932100258833809_)">
			<g>
			</g>
		</g>
	</g>
</g>
<g id="Layer_1">
	<g>
		<g>
			<defs>
				<path id="SVGID_00000106132045822629000000000001648071897209825471_" d="M541.836-47.838H29.557c-9.444,0-17.1-7.656-17.1-17.1
					v-492.001c0-9.444,7.656-17.1,17.1-17.1h512.279c9.444,0,17.1,7.656,17.1,17.1v492.001
					C558.936-55.494,551.28-47.838,541.836-47.838z"/>
			</defs>
			<clipPath id="SVGID_00000088126316491970110660000007581583522833465262_">
				<use xlink:href="#SVGID_00000106132045822629000000000001648071897209825471_"  overflow="visible"/>
			</clipPath>
			<g clip-path="url(#SVGID_00000088126316491970110660000007581583522833465262_)">
				<g opacity="0.05">
					<path d="M90.815-104.687c-9.984-0.181-21.813-0.271-33.605-0.271c-11.977,0-23.906,0.093-33.811,0.279
						c-0.599,0.011-1.08,0.5-1.08,1.1L22.202,91.97c-0.001,0.608,0.491,1.101,1.099,1.102c32.737,0.045,105.547,0,106.278,0
						c0.292,0,0.571-0.116,0.778-0.323l4.5-4.501c0.206-0.206,0.322-0.486,0.322-0.778V-71.694c2.83-0.52,4.983-2.999,4.983-5.978
						c0-3.355-2.729-6.084-6.083-6.084c-3.354,0-6.083,2.729-6.083,6.084c0,2.978,2.153,5.458,4.983,5.978V87.014l-3.856,3.856
						c-6.178,0.004-72.878,0.045-104.718,0.001l0.065-107.58h69.153c0.277,2.793,2.64,4.983,5.505,4.983
						c3.051,0,5.533-2.482,5.533-5.533s-2.482-5.533-5.533-5.533c-2.865,0-5.228,2.19-5.505,4.983H24.47l0.01-15.78h69.143
						c0.277,2.793,2.64,4.982,5.505,4.982c3.051,0,5.533-2.482,5.533-5.532c0-3.051-2.482-5.533-5.533-5.533
						c-2.865,0-5.228,2.19-5.505,4.983H24.48l0.009-15.781h69.132c0.277,2.793,2.64,4.983,5.505,4.983
						c3.051,0,5.533-2.482,5.533-5.533c0-3.051-2.482-5.533-5.533-5.533c-2.865,0-5.228,2.19-5.505,4.983H24.49l0.01-15.78h69.122
						c0.277,2.793,2.64,4.983,5.505,4.983c3.051,0,5.533-2.483,5.533-5.533c0-3.051-2.482-5.533-5.533-5.533
						c-2.865,0-5.228,2.19-5.505,4.983H24.5l0.01-15.78h69.112c0.277,2.793,2.64,4.983,5.505,4.983c3.051,0,5.533-2.483,5.533-5.533
						c0-3.051-2.482-5.533-5.533-5.533c-2.865,0-5.228,2.19-5.505,4.983H24.51l0.01-17.165c19.709-0.351,46.952-0.344,66.723,0.02
						c0.008,0,0.014,0,0.021,0c0.142,0,0.285-0.028,0.419-0.083c0.133-0.055,0.253-0.135,0.354-0.235
						c0.002-0.002,0.004-0.002,0.006-0.004l14.954-14.954h30.324l8.801,8.8c-0.678,0.981-1.078,2.169-1.078,3.449
						c0,3.355,2.729,6.083,6.084,6.083c3.354,0,6.083-2.728,6.083-6.083c0-3.354-2.729-6.083-6.083-6.083
						c-1.28,0-2.467,0.399-3.448,1.077l-9.123-9.122c-0.027-0.027-0.063-0.037-0.092-0.061c-0.082-0.067-0.166-0.134-0.265-0.176
						c-0.135-0.056-0.278-0.085-0.421-0.085H106.54c-0.144,0-0.287,0.029-0.422,0.085c-0.097,0.04-0.178,0.106-0.259,0.171
						c-0.031,0.025-0.069,0.036-0.098,0.065L90.815-104.687z M94.694-84.783c0-2.444,1.989-4.432,4.433-4.432
						c2.444,0,4.433,1.989,4.433,4.432s-1.989,4.433-4.433,4.433C96.683-80.35,94.694-82.339,94.694-84.783z M94.694-67.902
						c0-2.444,1.989-4.432,4.433-4.432c2.444,0,4.433,1.989,4.433,4.432c0,2.444-1.989,4.433-4.433,4.433
						C96.683-63.47,94.694-65.458,94.694-67.902z M94.694-51.021c0-2.444,1.989-4.433,4.433-4.433c2.444,0,4.433,1.989,4.433,4.433
						c0,2.444-1.989,4.432-4.433,4.432C96.683-46.589,94.694-48.577,94.694-51.021z M94.694-34.14c0-2.444,1.989-4.433,4.433-4.433
						c2.444,0,4.433,1.989,4.433,4.433c0,2.444-1.989,4.432-4.433,4.432C96.683-29.708,94.694-31.696,94.694-34.14z M94.694-17.259
						c0-2.444,1.989-4.433,4.433-4.433c2.444,0,4.433,1.989,4.433,4.433s-1.989,4.432-4.433,4.432
						C96.683-12.827,94.694-14.815,94.694-17.259z M134.078-73.791c-2.14,0-3.882-1.741-3.882-3.881s1.742-3.882,3.882-3.882
						s3.882,1.742,3.882,3.882S136.218-73.791,134.078-73.791z M147.246-105.505c0-2.14,1.742-3.882,3.882-3.882
						s3.882,1.742,3.882,3.882c0,2.14-1.742,3.881-3.882,3.881S147.246-103.365,147.246-105.505z"/>
				</g>
			</g>
		</g>
	</g>
	<g>
		<path fill-rule="evenodd" clip-rule="evenodd" d="M17.789,7.989c-0.037-0.784-0.169-1.209-0.279-1.492
			c-0.147-0.376-0.321-0.643-0.604-0.924s-0.55-0.455-0.926-0.6c-0.283-0.11-0.71-0.239-1.493-0.273
			c-0.848-0.037-1.103-0.045-3.25-0.041C9.09,4.664,8.836,4.672,7.988,4.712c-0.784,0.037-1.209,0.169-1.493,0.28
			C6.12,5.138,5.852,5.312,5.572,5.595c-0.281,0.283-0.455,0.55-0.6,0.926c-0.109,0.284-0.24,0.71-0.273,1.493
			c-0.037,0.848-0.045,1.102-0.041,3.249s0.013,2.402,0.053,3.249c0.037,0.784,0.169,1.209,0.28,1.493
			c0.147,0.375,0.32,0.644,0.603,0.924c0.283,0.28,0.55,0.455,0.926,0.6c0.284,0.109,0.71,0.239,1.494,0.273h0
			c0.848,0.037,1.102,0.045,3.249,0.041c2.148-0.005,2.402-0.013,3.25-0.053c0.783-0.037,1.209-0.169,1.492-0.28
			c0.375-0.147,0.643-0.321,0.924-0.603c0.281-0.282,0.455-0.55,0.6-0.926c0.109-0.284,0.239-0.71,0.273-1.494
			c0.037-0.848,0.045-1.102,0.041-3.249S17.83,8.837,17.789,7.989z M11.258,15.379c-2.28,0.004-4.133-1.84-4.137-4.121
			C7.116,8.977,8.961,7.125,11.242,7.12c2.281-0.005,4.134,1.841,4.138,4.122C15.384,13.523,13.538,15.375,11.258,15.379z
			 M15.536,7.915c-0.533,0.001-0.966-0.43-0.967-0.964C14.569,6.419,15,5.986,15.533,5.985c0,0,0,0,0,0
			c0.533-0.001,0.966,0.43,0.967,0.963C16.501,7.481,16.069,7.914,15.536,7.915z"/>
		<path fill-rule="evenodd" clip-rule="evenodd" d="M11.245,8.569c-1.481,0.003-2.679,1.206-2.676,2.686
			c0,0,0,0,0,0.001c0.003,1.48,1.206,2.678,2.686,2.675c1.481-0.003,2.679-1.206,2.676-2.686
			C13.928,9.764,12.725,8.566,11.245,8.569z"/>
		<path fill-rule="evenodd" clip-rule="evenodd" d="M20,0H2.5C1.119,0,0,1.119,0,2.5V20c0,1.381,1.119,2.5,2.5,2.5
			H20c1.381,0,2.5-1.119,2.5-2.5V2.5C22.5,1.119,21.381,0,20,0z M19.249,14.551c-0.037,0.855-0.172,1.44-0.37,1.952
			c-0.204,0.53-0.479,0.979-0.925,1.426c-0.446,0.448-0.894,0.724-1.423,0.93c-0.511,0.2-1.092,0.337-1.95,0.378
			c-0.858,0.041-1.133,0.05-3.316,0.055c-2.183,0.004-2.459-0.005-3.315-0.042s-1.441-0.172-1.953-0.37
			c-0.531-0.205-0.979-0.479-1.427-0.925s-0.724-0.894-0.93-1.423c-0.201-0.511-0.337-1.095-0.378-1.951
			c-0.041-0.858-0.051-1.132-0.055-3.316C3.204,9.081,3.213,8.806,3.25,7.95c0.038-0.856,0.172-1.441,0.37-1.953
			C3.825,5.467,4.1,5.019,4.545,4.571c0.446-0.448,0.894-0.724,1.423-0.93c0.511-0.201,1.095-0.337,1.951-0.378
			c0.858-0.042,1.131-0.051,3.316-0.055c2.184-0.004,2.46,0.005,3.316,0.042c0.856,0.037,1.441,0.172,1.953,0.37
			c0.53,0.204,0.979,0.478,1.426,0.925c0.447,0.446,0.723,0.894,0.93,1.423c0.201,0.511,0.337,1.094,0.378,1.951
			c0.041,0.858,0.051,1.131,0.055,3.315C19.296,13.418,19.287,13.692,19.249,14.551z"/>
	</g>
</g>
<g id="Layer_3" display="none" opacity="0.4">
	<rect x="-674.665" y="-532.936" display="inline" width="1920" height="1080"/>
</g>
<g id="GUIDES" display="none">
</g>
</svg>
