<?xml version="1.0" encoding="iso-8859-1"?>
<!-- Generator: Adobe Illustrator 28.0.0, SVG Export Plug-In . SVG Version: 6.00 Build 0)  -->
<svg version="1.1" xmlns="http://www.w3.org/2000/svg" xmlns:xlink="http://www.w3.org/1999/xlink" x="0px" y="0px"
	 width="3985.512px" height="1133.858px" viewBox="0 0 3985.512 1133.858" enable-background="new 0 0 3985.512 1133.858"
	 xml:space="preserve">
<g id="Layer_1">
	<path fill="#EFB427" d="M430.395,19.907v117.369h-68.638V19.907C361.757,8.913,370.67,0,381.664,0l28.824,0
		C421.483,0,430.395,8.913,430.395,19.907z M570.643,0l-28.824,0c-10.994,0-19.907,8.913-19.907,19.907v117.369h68.638V19.907
		C590.55,8.913,581.638,0,570.643,0z M730.798,0l-28.824,0c-10.994,0-19.907,8.913-19.907,19.907v117.369h68.638V19.907
		C750.705,8.913,741.793,0,730.798,0z M890.953,0l-28.824,0c-10.994,0-19.907,8.913-19.907,19.907v117.369h68.638V19.907
		C910.86,8.913,901.948,0,890.953,0z M430.395,1113.951V996.583h-68.638v117.369c0,10.994,8.913,19.907,19.907,19.907h28.824
		C421.483,1133.858,430.395,1124.946,430.395,1113.951z M590.55,1113.951V996.583h-68.638v117.369
		c0,10.994,8.913,19.907,19.907,19.907h28.824C581.638,1133.858,590.55,1124.946,590.55,1113.951z M750.705,1113.951V996.583
		h-68.638v117.369c0,10.994,8.913,19.907,19.907,19.907h28.824C741.793,1133.858,750.705,1124.946,750.705,1113.951z
		 M910.86,1113.951V996.583h-68.638v117.369c0,10.994,8.913,19.907,19.907,19.907h28.824
		C901.948,1133.858,910.86,1124.946,910.86,1113.951z M138.895,258.537c-37.908,0-68.638,30.73-68.638,68.638v0v34.319
		c0,18.954,15.365,34.319,34.319,34.319h0c18.954,0,34.319-15.365,34.319-34.319v-34.319h68.638v-68.638H138.895z M138.895,442.77
		c-37.908,0-68.638,30.73-68.638,68.638v0v34.319c0,18.954,15.365,34.319,34.319,34.319h0c18.954,0,34.319-15.365,34.319-34.319
		v-34.319h68.638V442.77H138.895z M138.895,811.235c-37.908,0-68.638,30.73-68.638,68.638v0v34.319
		c0,18.954,15.365,34.319,34.319,34.319h0c18.954,0,34.319-15.365,34.319-34.319v-34.319h68.638v-68.638H138.895z M138.895,627.002
		c-37.908,0-68.638,30.73-68.638,68.638v0v34.319c0,18.954,15.365,34.319,34.319,34.319h0c18.954,0,34.319-15.365,34.319-34.319
		v-34.319h68.638v-68.638H138.895z M1065.928,258.537v68.638h68.638v34.319c0,18.954,15.365,34.319,34.319,34.319l0,0
		c18.954,0,34.319-15.365,34.319-34.319v-34.319v0c0-37.908-30.73-68.638-68.638-68.638H1065.928z M1065.928,442.77v68.638h68.638
		v34.319c0,18.954,15.365,34.319,34.319,34.319l0,0c18.954,0,34.319-15.365,34.319-34.319v-34.319v0
		c0-37.908-30.73-68.638-68.638-68.638H1065.928z M1065.928,811.235v68.638h68.638v34.319c0,18.954,15.365,34.319,34.319,34.319l0,0
		c18.954,0,34.319-15.365,34.319-34.319v-34.319v0c0-37.908-30.73-68.638-68.638-68.638H1065.928z M1065.928,627.002v68.638h68.638
		v34.319c0,18.954,15.365,34.319,34.319,34.319l0,0c18.954,0,34.319-15.365,34.319-34.319v-34.319v0
		c0-37.908-30.73-68.638-68.638-68.638H1065.928z M1030.976,269.331v593.862c0,53.978-43.758,97.737-97.737,97.737H339.378
		c-53.978,0-97.737-43.758-97.737-97.737V269.331c0-53.978,43.758-97.737,97.737-97.737H933.24
		C987.218,171.595,1030.976,215.353,1030.976,269.331z M588.462,462.879h-32.491l-42.239,188.748l-33.969-188.748h-49.919
		l-33.968,188.748l-41.944-188.748h-32.787l46.966,206.765h54.349l32.493-185.498l32.195,185.498h54.645L588.462,462.879z
		 M769.824,462.879H614.456v206.765h155.368v-27.765H646.947v-62.62h111.949v-25.994H646.947v-62.62h122.877V462.879z
		 M951.48,614.113c0-10.633-2.168-19.592-6.499-26.88c-4.333-7.283-10.042-13.389-17.132-18.314
		c-7.089-4.919-15.166-8.908-24.221-11.963c-9.059-3.051-18.312-5.657-27.765-7.827c-5.317-1.182-10.832-2.46-16.541-3.84
		c-5.714-1.375-10.928-3.249-15.655-5.611c-4.726-2.364-8.616-5.364-11.667-9.009c-3.056-3.642-4.578-8.317-4.578-14.031
		c0-4.136,0.931-8.169,2.805-12.112c1.87-3.936,4.625-7.43,8.271-10.485c3.642-3.051,8.123-5.51,13.44-7.384
		c5.317-1.87,11.418-2.807,18.314-2.807c7.48,0,13.928,1.232,19.348,3.692c5.413,2.465,9.894,5.664,13.438,9.6
		c3.546,3.941,6.153,8.224,7.829,12.849c1.67,4.63,2.51,9.207,2.51,13.736h32.196c0-8.465-1.625-16.689-4.874-24.664
		c-3.249-7.977-8.026-15.065-14.325-21.268c-6.305-6.202-14.132-11.174-23.482-14.916c-9.356-3.738-20.233-5.611-32.639-5.611
		c-10.633,0-20.529,1.527-29.686,4.578c-9.157,3.056-17.132,7.238-23.925,12.554c-6.795,5.317-12.112,11.62-15.95,18.903
		c-3.84,7.288-5.761,15.065-5.761,23.336c0,9.059,1.625,16.886,4.874,23.482c3.249,6.6,8.022,12.309,14.325,17.132
		c6.3,4.827,14.031,8.963,23.188,12.406c9.157,3.448,19.644,6.549,31.457,9.303c5.711,1.381,11.566,2.807,17.576,4.283
		c6.004,1.478,11.468,3.448,16.393,5.908c4.919,2.465,8.908,5.664,11.963,9.6c3.051,3.943,4.578,8.963,4.578,15.065
		c0,4.924-1.182,9.504-3.544,13.736c-2.364,4.236-5.613,7.928-9.748,11.076c-4.135,3.152-9.059,5.611-14.768,7.384
		c-5.714,1.773-11.918,2.658-18.61,2.658c-8.861,0-16.541-1.522-23.04-4.578c-6.499-3.051-11.962-6.84-16.393-11.372
		c-4.431-4.527-7.68-9.499-9.748-14.916c-2.067-5.414-3.101-10.487-3.101-15.213h-32.491c0,8.862,1.869,17.677,5.611,26.437
		c3.739,8.765,9.255,16.541,16.541,23.334c7.283,6.795,16.145,12.31,26.585,16.541c10.435,4.232,22.449,6.352,36.035,6.352
		c11.418,0,21.955-1.579,31.606-4.727c9.647-3.147,17.967-7.48,24.961-12.995c6.987-5.512,12.452-12.009,16.393-19.496
		C949.509,630.557,951.48,622.582,951.48,614.113z M1426.165,322.108l42.028,189.126l34.036-189.126h50.02l34.037,189.126
		l42.323-189.126h32.558l-46.764,207.181h-54.755l-32.261-185.87l-32.558,185.87h-54.458l-47.06-207.181H1426.165z M1732.199,532.84
		c-10.655,0-20.376-1.924-29.153-5.771c-8.782-3.848-16.278-9.272-22.493-16.278c-6.216-7.002-11.002-15.437-14.355-25.306
		c-3.357-9.864-5.031-20.718-5.031-32.557s1.674-22.688,5.031-32.558c3.354-9.864,8.14-18.299,14.355-25.306
		c6.215-7.001,13.711-12.431,22.493-16.278c8.777-3.848,18.498-5.771,29.153-5.771s20.371,1.924,29.153,5.771
		c8.777,3.848,16.278,9.277,22.494,16.278c6.215,7.007,10.997,15.441,14.354,25.306c3.353,9.869,5.031,20.719,5.031,32.558
		s-1.679,22.642-5.031,32.408c-3.357,9.768-8.14,18.156-14.354,25.158c-6.216,7.006-13.717,12.481-22.494,16.426
		C1752.57,530.865,1742.854,532.84,1732.199,532.84z M1692.243,452.928c0,7.894,0.985,15.146,2.96,21.754
		c1.97,6.612,4.735,12.282,8.287,17.018c3.552,4.736,7.792,8.39,12.727,10.951c4.93,2.566,10.258,3.848,15.982,3.848
		c5.721,0,11.048-1.281,15.982-3.848c4.93-2.562,9.176-6.215,12.727-10.951c3.552-4.735,6.312-10.405,8.288-17.018
		c1.97-6.608,2.959-13.86,2.959-21.754c0-7.89-0.989-15.142-2.959-21.754c-1.976-6.608-4.736-12.283-8.288-17.019
		c-3.551-4.735-7.797-8.385-12.727-10.951c-4.935-2.562-10.262-3.848-15.982-3.848c-5.725,0-11.053,1.286-15.982,3.848
		c-4.935,2.566-9.175,6.216-12.727,10.951s-6.317,10.41-8.287,17.019C1693.228,437.786,1692.243,445.038,1692.243,452.928z
		 M1856.506,376.567v50.611c0.393-7.695,1.378-14.845,2.959-21.458c1.577-6.608,3.797-12.329,6.66-17.166
		c2.857-4.833,6.312-8.63,10.358-11.396c4.042-2.761,8.731-4.144,14.059-4.144c6.312,0,12.528,1.185,18.646,3.552v29.006
		c-1.383-0.593-3.062-1.185-5.031-1.776c-1.776-0.393-3.898-0.786-6.363-1.184c-2.47-0.394-5.379-0.592-8.731-0.592
		c-5.92,0-10.904,0.989-14.946,2.959c-4.047,1.976-7.399,4.639-10.063,7.992c-2.664,3.357-4.588,7.153-5.771,11.395
		c-1.184,4.245-1.775,8.634-1.775,13.171v91.751h-31.077V376.567H1856.506z M1968.084,322.108v119.869l60.97-65.41h38.181
		l-90.863,92.936c9.864-7.496,19.238-11.048,28.117-10.655c8.879,0.397,16.87,5.327,23.974,14.799l42.324,55.643h-33.445
		c-4.144-5.327-8.189-10.554-12.135-15.687c-3.357-4.338-6.71-8.777-10.062-13.318c-3.357-4.537-6.119-8.186-8.287-10.951
		c-13.421-16.968-25.454-21.606-36.109-13.911l-2.663,2.664v51.203h-31.077V322.108H1968.084z M2205.747,486.668
		c0,7.695-1.73,14.503-5.18,20.422c-3.455,5.92-8.042,10.804-13.763,14.651c-5.726,3.848-12.431,6.71-20.126,8.583
		s-15.687,2.71-23.974,2.516c-10.461-0.199-19.733-1.878-27.821-5.031c-8.094-3.154-14.947-7.15-20.57-11.987
		c-5.624-4.833-9.869-10.405-12.727-16.723c-2.863-6.312-4.292-12.727-4.292-19.238h31.077c0,3.552,0.786,7.007,2.367,10.359
		c1.577,3.357,3.848,6.363,6.808,9.027s6.558,4.837,10.803,6.512c4.241,1.679,9.027,2.617,14.355,2.812
		c10.257,0.397,18.151-1.577,23.678-5.92c5.521-4.338,8.287-9.665,8.287-15.982c0-2.562-0.546-4.832-1.628-6.808
		c-1.087-1.97-2.914-3.796-5.476-5.475c-2.566-1.675-6.021-3.256-10.359-4.736c-4.342-1.479-9.868-2.908-16.574-4.291
		c-7.695-1.378-15.095-3.154-22.198-5.328c-7.103-2.169-13.369-5.077-18.794-8.73c-5.429-3.649-9.767-8.236-13.022-13.763
		c-3.256-5.522-4.884-12.329-4.884-20.422c0-6.114,1.526-11.839,4.588-17.167c3.057-5.327,7.251-10.012,12.578-14.059
		c5.328-4.042,11.691-7.2,19.091-9.471c7.399-2.267,15.34-3.404,23.825-3.404c9.666,0,18.202,1.383,25.602,4.144
		c7.399,2.766,13.615,6.415,18.646,10.951c5.031,4.542,8.879,9.573,11.543,15.095c2.664,5.526,3.996,11.149,3.996,16.87h-31.077
		c0-7.103-2.618-12.727-7.844-16.87c-5.23-4.144-12.186-6.216-20.866-6.216c-3.949,0-7.695,0.495-11.246,1.48
		c-3.552,0.989-6.66,2.367-9.323,4.144c-2.664,1.775-4.787,3.848-6.363,6.215c-1.582,2.368-2.368,5.032-2.368,7.991
		c0,2.368,0.49,4.542,1.479,6.512c0.985,1.975,2.812,3.802,5.476,5.476c2.664,1.679,6.216,3.256,10.655,4.735
		c4.439,1.48,10.012,2.914,16.723,4.292c7.496,1.581,14.798,3.552,21.901,5.919c7.104,2.368,13.365,5.43,18.794,9.176
		c5.425,3.75,9.813,8.389,13.171,13.91C2204.068,472.364,2205.747,478.973,2205.747,486.668z M2258.133,322.108v100.927
		c0.592-7.298,2.22-14.008,4.883-20.126c2.664-6.113,6.067-11.395,10.212-15.835c4.144-4.439,8.925-7.889,14.354-10.358
		c5.424-2.465,11.293-3.7,17.61-3.7c6.904,0,13.318,1.434,19.237,4.292c5.92,2.862,10.998,6.808,15.243,11.839
		c4.24,5.031,7.594,11.002,10.062,17.906c2.465,6.909,3.7,14.405,3.7,22.494v99.742h-31.077v-99.742
		c0-8.88-2.516-16.473-7.547-22.79c-5.032-6.312-13.171-9.471-24.418-9.471c-9.67,0-17.463,2.714-23.382,8.139
		c-5.92,5.43-8.879,13.467-8.879,24.122v99.742h-31.077V322.108H2258.133z M2445.48,532.84c-10.655,0-20.376-1.924-29.153-5.771
		c-8.782-3.848-16.278-9.272-22.493-16.278c-6.216-7.002-11.002-15.437-14.355-25.306c-3.357-9.864-5.031-20.718-5.031-32.557
		s1.674-22.688,5.031-32.558c3.354-9.864,8.14-18.299,14.355-25.306c6.215-7.001,13.711-12.431,22.493-16.278
		c8.777-3.848,18.498-5.771,29.153-5.771s20.371,1.924,29.153,5.771c8.777,3.848,16.278,9.277,22.494,16.278
		c6.215,7.007,10.997,15.441,14.354,25.306c3.353,9.869,5.031,20.719,5.031,32.558s-1.679,22.642-5.031,32.408
		c-3.357,9.768-8.14,18.156-14.354,25.158c-6.216,7.006-13.717,12.481-22.494,16.426
		C2465.851,530.865,2456.135,532.84,2445.48,532.84z M2405.524,452.928c0,7.894,0.985,15.146,2.96,21.754
		c1.97,6.612,4.735,12.282,8.287,17.018c3.552,4.736,7.792,8.39,12.727,10.951c4.93,2.566,10.258,3.848,15.982,3.848
		c5.721,0,11.048-1.281,15.982-3.848c4.93-2.562,9.176-6.215,12.727-10.951c3.552-4.735,6.312-10.405,8.288-17.018
		c1.97-6.608,2.959-13.86,2.959-21.754c0-7.89-0.989-15.142-2.959-21.754c-1.976-6.608-4.736-12.283-8.288-17.019
		c-3.551-4.735-7.797-8.385-12.727-10.951c-4.935-2.562-10.262-3.848-15.982-3.848c-5.725,0-11.053,1.286-15.982,3.848
		c-4.935,2.566-9.175,6.216-12.727,10.951s-6.317,10.41-8.287,17.019C2406.51,437.786,2405.524,445.038,2405.524,452.928z
		 M2532.495,376.567h31.077v62.154c1.775-20.32,7.052-36.303,15.834-47.947c8.777-11.64,19.979-17.56,33.593-17.759
		c7.89,0,15.539,2.123,22.938,6.363c7.399,4.246,13.957,9.967,19.683,17.167c5.721,7.205,10.308,15.687,13.763,25.453
		c3.45,9.768,5.18,20.08,5.18,30.93c0,11.246-1.729,21.707-5.18,31.373c-3.455,9.67-8.241,18.104-14.354,25.306
		c-6.118,7.204-13.222,12.874-21.311,17.018c-8.093,4.144-16.772,6.216-26.045,6.216c-10.063,0-18.748-2.174-26.046-6.512
		c-7.302-4.338-13.318-10.257-18.054-17.758v75.177h-31.077V376.567z M2563.572,453.224c0,16.972,3.745,29.994,11.246,39.068
		c7.497,9.078,17.264,13.614,29.302,13.614c5.129,0,10.062-1.429,14.799-4.292c4.735-2.857,8.925-6.705,12.578-11.542
		c3.649-4.833,6.558-10.457,8.731-16.871c2.169-6.409,3.256-13.171,3.256-20.273c0-7.104-1.087-13.86-3.256-20.274
		c-2.174-6.409-5.082-12.033-8.731-16.87c-3.653-4.833-7.843-8.681-12.578-11.543c-4.736-2.858-9.67-4.292-14.799-4.292
		c-12.038,0-21.805,4.542-29.302,13.615c-7.501,9.078-11.246,22.101-11.246,39.068V453.224z M2840.595,532.84
		c-10.655,0-20.376-1.924-29.153-5.771c-8.782-3.848-16.278-9.272-22.493-16.278c-6.216-7.002-11.002-15.437-14.355-25.306
		c-3.357-9.864-5.031-20.718-5.031-32.557s1.674-22.688,5.031-32.558c3.354-9.864,8.14-18.299,14.355-25.306
		c6.215-7.001,13.711-12.431,22.493-16.278c8.777-3.848,18.498-5.771,29.153-5.771s20.371,1.924,29.153,5.771
		c8.777,3.848,16.278,9.277,22.494,16.278c6.215,7.007,10.997,15.441,14.354,25.306c3.353,9.869,5.031,20.719,5.031,32.558
		s-1.679,22.642-5.031,32.408c-3.357,9.768-8.14,18.156-14.354,25.158c-6.216,7.006-13.717,12.481-22.494,16.426
		C2860.967,530.865,2851.251,532.84,2840.595,532.84z M2800.639,452.928c0,7.894,0.985,15.146,2.96,21.754
		c1.97,6.612,4.735,12.282,8.287,17.018c3.552,4.736,7.792,8.39,12.727,10.951c4.93,2.566,10.258,3.848,15.982,3.848
		c5.721,0,11.048-1.281,15.982-3.848c4.93-2.562,9.176-6.215,12.727-10.951c3.552-4.735,6.312-10.405,8.288-17.018
		c1.97-6.608,2.959-13.86,2.959-21.754c0-7.89-0.989-15.142-2.959-21.754c-1.976-6.608-4.736-12.283-8.288-17.019
		c-3.551-4.735-7.797-8.385-12.727-10.951c-4.935-2.562-10.262-3.848-15.982-3.848c-5.725,0-11.053,1.286-15.982,3.848
		c-4.935,2.566-9.175,6.216-12.727,10.951s-6.317,10.41-8.287,17.019C2801.625,437.786,2800.639,445.038,2800.639,452.928z
		 M2958.983,376.567v46.468c0.592-7.298,2.22-14.008,4.883-20.126c2.664-6.113,6.067-11.395,10.212-15.835
		c4.144-4.439,8.925-7.889,14.354-10.358c5.424-2.465,11.293-3.7,17.61-3.7c6.904,0,13.318,1.434,19.237,4.292
		c5.92,2.862,10.998,6.808,15.243,11.839c4.24,5.031,7.594,11.002,10.062,17.906c2.465,6.909,3.7,14.405,3.7,22.494v99.742h-31.077
		v-99.742c0-8.88-2.516-16.473-7.547-22.79c-5.032-6.312-13.171-9.471-24.418-9.471c-9.67,0-17.463,2.714-23.382,8.139
		c-5.92,5.43-8.879,13.467-8.879,24.122v99.742h-31.077V376.567H2958.983z M1418.469,601.917h155.681v27.822h-123.124v62.745H1563.2
		v26.046h-112.174v62.746h123.124v27.821h-155.681V601.917z M1625.647,656.376v46.172c0.592-7.298,2.118-13.957,4.587-19.979
		c2.465-6.017,5.624-11.246,9.472-15.687c3.848-4.439,8.287-7.889,13.318-10.358c5.031-2.465,10.405-3.7,16.131-3.7
		c6.511,0,12.477,1.235,17.906,3.7c5.425,2.47,10.16,5.919,14.206,10.358c4.042,4.44,7.252,9.869,9.619,16.279
		c2.368,6.414,3.746,13.466,4.144,21.161c0.394-7.496,1.776-14.354,4.144-20.569c2.368-6.216,5.476-11.641,9.323-16.278
		c3.848-4.634,8.385-8.236,13.615-10.804c5.226-2.562,10.803-3.848,16.722-3.848c6.905,0,13.12,1.383,18.646,4.144
		c5.521,2.766,10.309,6.613,14.354,11.543c4.042,4.935,7.149,10.854,9.323,17.759c2.169,6.909,3.256,14.604,3.256,23.086v99.742
		h-31.077v-99.742c0-4.537-0.495-8.731-1.479-12.579c-0.99-3.848-2.618-7.251-4.884-10.211c-2.271-2.96-5.281-5.276-9.027-6.955
		c-3.75-1.675-8.486-2.516-14.206-2.516c-3.552,0-7.058,0.592-10.508,1.775c-3.454,1.184-6.511,3.011-9.175,5.476
		c-2.664,2.47-4.837,5.771-6.512,9.915c-1.679,4.144-2.516,9.175-2.516,15.095v99.742h-31.077v-99.742
		c0-4.537-0.494-8.731-1.479-12.579c-0.989-3.848-2.617-7.251-4.884-10.211c-2.271-2.96-5.281-5.276-9.026-6.955
		c-3.751-1.675-8.486-2.516-14.207-2.516c-3.552,0-7.057,0.592-10.507,1.775c-3.455,1.184-6.512,3.011-9.176,5.476
		c-2.663,2.47-4.837,5.771-6.511,9.915c-1.679,4.144-2.516,9.175-2.516,15.095v99.742h-31.077V656.376H1625.647z M1855.023,601.917
		v75.178c4.735-7.497,10.752-13.416,18.054-17.759c7.298-4.338,15.982-6.512,26.046-6.512c9.272,0,17.952,2.072,26.045,6.216
		c8.089,4.144,15.192,9.818,21.311,17.019c6.113,7.205,10.899,15.64,14.354,25.306c3.45,9.67,5.18,20.126,5.18,31.373
		c0,10.854-1.729,21.162-5.18,30.929c-3.455,9.767-8.042,18.253-13.763,25.453c-5.726,7.205-12.283,12.926-19.683,17.167
		c-7.398,4.24-15.048,6.363-22.938,6.363c-13.614-0.199-24.815-6.113-33.593-17.759c-8.782-11.64-14.059-27.622-15.834-47.947
		v62.154h-31.077V601.917H1855.023z M1855.023,733.033c0,16.972,3.745,29.994,11.246,39.068
		c7.497,9.078,17.264,13.614,29.302,13.614c5.129,0,10.062-1.429,14.799-4.292c4.735-2.857,8.925-6.705,12.578-11.542
		c3.649-4.833,6.558-10.457,8.731-16.871c2.169-6.409,3.256-13.171,3.256-20.273c0-7.104-1.087-13.86-3.256-20.274
		c-2.174-6.409-5.082-12.033-8.731-16.87c-3.653-4.833-7.843-8.681-12.578-11.543c-4.736-2.858-9.67-4.292-14.799-4.292
		c-12.038,0-21.805,4.542-29.302,13.615c-7.501,9.078-11.246,22.101-11.246,39.068V733.033z M1976.664,732.737
		c0-11.839,1.726-22.688,5.18-32.558c3.45-9.864,8.287-18.299,14.503-25.306c6.215-7.001,13.712-12.431,22.493-16.278
		c8.777-3.848,18.596-5.771,29.449-5.771c11.641,0,21.948,2.072,30.93,6.216c8.976,4.144,16.523,10.017,22.642,17.61
		c6.113,7.598,10.655,16.676,13.614,27.229c2.96,10.558,4.241,22.346,3.848,35.368h-111.285c0.985,14.799,5.18,26.592,12.579,35.369
		c7.399,8.782,16.62,13.171,27.673,13.171c8.287,0,15.539-2.517,21.754-7.548c6.216-5.031,10.997-12.181,14.354-21.458h31.966
		c-4.343,16.381-12.432,29.449-24.271,39.217c-11.839,9.767-26.442,14.65-43.804,14.65c-10.854,0-20.672-1.924-29.449-5.771
		c-8.781-3.848-16.278-9.272-22.493-16.278c-6.216-7.002-11.053-15.437-14.503-25.306
		C1978.389,755.43,1976.664,744.576,1976.664,732.737z M2087.061,716.459c-2.174-11.839-6.71-21.26-13.614-28.266
		c-6.909-7.002-15.294-10.507-25.158-10.507c-9.868,0-18.253,3.454-25.157,10.358c-6.909,6.909-11.543,16.381-13.911,28.414
		H2087.061z M2271.154,809.098h-31.077v-61.858c-1.775,20.126-7.006,36.012-15.687,47.651c-8.685,11.646-19.83,17.56-33.444,17.759
		c-7.895,0-15.539-2.123-22.938-6.363c-7.398-4.241-14.012-9.962-19.83-17.167c-5.822-7.2-10.46-15.687-13.91-25.453
		c-3.455-9.767-5.18-20.075-5.18-30.929c0-11.247,1.776-21.703,5.327-31.373c3.552-9.666,8.334-18.101,14.355-25.306
		c6.017-7.2,13.119-12.875,21.31-17.019c8.186-4.144,16.917-6.216,26.193-6.216c10.063,0,18.692,2.174,25.897,6.512
		c7.2,4.343,13.171,10.262,17.906,17.759v-75.178h31.077V809.098z M2160.165,732.737c0,7.103,1.082,13.864,3.256,20.273
		c2.169,6.414,5.077,12.038,8.73,16.871c3.649,4.837,7.844,8.685,12.579,11.542c4.735,2.863,9.665,4.292,14.799,4.292
		c12.033,0,21.8-4.536,29.301-13.614c7.497-9.074,11.247-22.097,11.247-39.068v-0.592c0-16.968-3.75-29.99-11.247-39.068
		c-7.501-9.073-17.268-13.615-29.301-13.615c-5.134,0-10.063,1.434-14.799,4.292c-4.735,2.862-8.93,6.71-12.579,11.543
		c-3.653,4.837-6.562,10.461-8.73,16.87C2161.247,718.877,2160.165,725.634,2160.165,732.737z M2429.201,809.098h-31.077v-61.858
		c-1.775,20.126-7.006,36.012-15.687,47.651c-8.685,11.646-19.83,17.56-33.444,17.759c-7.895,0-15.539-2.123-22.938-6.363
		c-7.398-4.241-14.012-9.962-19.83-17.167c-5.822-7.2-10.46-15.687-13.91-25.453c-3.455-9.767-5.18-20.075-5.18-30.929
		c0-11.247,1.776-21.703,5.327-31.373c3.552-9.666,8.334-18.101,14.355-25.306c6.017-7.2,13.119-12.875,21.31-17.019
		c8.186-4.144,16.917-6.216,26.193-6.216c10.063,0,18.692,2.174,25.897,6.512c7.2,4.343,13.171,10.262,17.906,17.759v-75.178h31.077
		V809.098z M2318.212,732.737c0,7.103,1.082,13.864,3.256,20.273c2.169,6.414,5.077,12.038,8.73,16.871
		c3.649,4.837,7.844,8.685,12.579,11.542c4.735,2.863,9.665,4.292,14.799,4.292c12.033,0,21.8-4.536,29.301-13.614
		c7.497-9.074,11.247-22.097,11.247-39.068v-0.592c0-16.968-3.75-29.99-11.247-39.068c-7.501-9.073-17.268-13.615-29.301-13.615
		c-5.134,0-10.063,1.434-14.799,4.292c-4.735,2.862-8.93,6.71-12.579,11.543c-3.653,4.837-6.562,10.461-8.73,16.87
		C2319.294,718.877,2318.212,725.634,2318.212,732.737z M2445.476,732.737c0-11.839,1.726-22.688,5.18-32.558
		c3.45-9.864,8.287-18.299,14.503-25.306c6.215-7.001,13.712-12.431,22.493-16.278c8.777-3.848,18.596-5.771,29.449-5.771
		c11.641,0,21.948,2.072,30.93,6.216c8.976,4.144,16.523,10.017,22.642,17.61c6.113,7.598,10.655,16.676,13.614,27.229
		c2.96,10.558,4.241,22.346,3.848,35.368h-111.285c0.985,14.799,5.18,26.592,12.579,35.369c7.399,8.782,16.62,13.171,27.673,13.171
		c8.287,0,15.539-2.517,21.754-7.548c6.216-5.031,10.997-12.181,14.354-21.458h31.966c-4.343,16.381-12.432,29.449-24.271,39.217
		c-11.839,9.767-26.442,14.65-43.804,14.65c-10.854,0-20.672-1.924-29.449-5.771c-8.781-3.848-16.278-9.272-22.493-16.278
		c-6.216-7.002-11.053-15.437-14.503-25.306C2447.202,755.43,2445.476,744.576,2445.476,732.737z M2555.874,716.459
		c-2.174-11.839-6.71-21.26-13.614-28.266c-6.909-7.002-15.294-10.507-25.158-10.507c-9.868,0-18.253,3.454-25.157,10.358
		c-6.909,6.909-11.543,16.381-13.911,28.414H2555.874z M2739.967,809.098h-31.077v-61.858c-1.775,20.126-7.006,36.012-15.687,47.651
		c-8.685,11.646-19.83,17.56-33.444,17.759c-7.895,0-15.539-2.123-22.938-6.363c-7.398-4.241-14.012-9.962-19.83-17.167
		c-5.822-7.2-10.46-15.687-13.91-25.453c-3.455-9.767-5.18-20.075-5.18-30.929c0-11.247,1.776-21.703,5.327-31.373
		c3.552-9.666,8.334-18.101,14.355-25.306c6.017-7.2,13.119-12.875,21.31-17.019c8.186-4.144,16.917-6.216,26.193-6.216
		c10.063,0,18.692,2.174,25.897,6.512c7.2,4.343,13.171,10.262,17.906,17.759v-75.178h31.077V809.098z M2628.977,732.737
		c0,7.103,1.082,13.864,3.256,20.273c2.169,6.414,5.077,12.038,8.73,16.871c3.649,4.837,7.844,8.685,12.579,11.542
		c4.735,2.863,9.665,4.292,14.799,4.292c12.033,0,21.8-4.536,29.301-13.614c7.497-9.074,11.247-22.097,11.247-39.068v-0.592
		c0-16.968-3.75-29.99-11.247-39.068c-7.501-9.073-17.268-13.615-29.301-13.615c-5.134,0-10.063,1.434-14.799,4.292
		c-4.735,2.862-8.93,6.71-12.579,11.543c-3.653,4.837-6.562,10.461-8.73,16.87C2630.059,718.877,2628.977,725.634,2628.977,732.737z
		 M2847.103,655.784c0-8.287,1.924-16.079,5.771-23.382c3.848-7.297,9.175-13.614,15.982-18.942
		c6.807-5.327,14.798-9.517,23.974-12.578c9.175-3.057,19.09-4.588,29.745-4.588c12.431,0,23.331,1.878,32.705,5.623
		c9.369,3.751,17.212,8.731,23.529,14.947c6.312,6.215,11.099,13.318,14.354,21.31s4.884,16.232,4.884,24.714h-32.261
		c0-4.537-0.842-9.124-2.516-13.763c-1.679-4.634-4.292-8.926-7.844-12.875c-3.552-3.944-8.042-7.149-13.467-9.619
		c-5.429-2.465-11.89-3.699-19.386-3.699c-6.909,0-13.023,0.938-18.351,2.812c-5.327,1.878-9.818,4.343-13.467,7.399
		c-3.653,3.062-6.414,6.562-8.287,10.507c-1.878,3.949-2.812,7.991-2.812,12.135c0,5.726,1.526,10.41,4.587,14.059
		c3.058,3.653,6.956,6.659,11.691,9.027s9.961,4.245,15.687,5.623c5.721,1.383,11.247,2.664,16.574,3.848
		c9.472,2.174,18.743,4.787,27.821,7.844c9.073,3.062,17.167,7.057,24.27,11.986c7.104,4.935,12.824,11.053,17.167,18.351
		c4.338,7.302,6.511,16.278,6.511,26.934c0,8.486-1.975,16.478-5.919,23.974c-3.949,7.501-9.425,14.013-16.427,19.534
		c-7.006,5.526-15.344,9.869-25.01,13.022c-9.67,3.154-20.228,4.735-31.669,4.735c-13.614,0-25.652-2.122-36.108-6.363
		c-10.461-4.24-19.34-9.767-26.638-16.574c-7.302-6.808-12.828-14.6-16.574-23.382c-3.75-8.777-5.623-17.61-5.623-26.489h32.557
		c0,4.735,1.036,9.818,3.107,15.242c2.072,5.43,5.328,10.41,9.768,14.947c4.439,4.541,9.915,8.338,16.426,11.395
		c6.512,3.062,14.207,4.588,23.086,4.588c6.706,0,12.921-0.889,18.646-2.664c5.721-1.775,10.655-4.24,14.799-7.399
		c4.144-3.154,7.399-6.854,9.767-11.099c2.368-4.241,3.552-8.828,3.552-13.763c0-6.114-1.53-11.146-4.588-15.095
		c-3.061-3.944-7.057-7.149-11.986-9.619c-4.935-2.465-10.41-4.439-16.427-5.919c-6.021-1.48-11.89-2.909-17.61-4.292
		c-11.839-2.761-22.346-5.868-31.521-9.323c-9.175-3.45-16.922-7.594-23.234-12.431c-6.316-4.833-11.099-10.554-14.354-17.166
		C2848.73,672.705,2847.103,664.862,2847.103,655.784z M3038.89,837.215c8.287,0,14.896-2.071,19.83-6.215
		c4.93-4.144,9.568-11.446,13.911-21.902h-2.072l-59.194-152.722h33.149l41.436,116.613l42.324-116.613h32.853l-57.418,150.058
		c-4.144,10.85-8.338,19.928-12.579,27.229c-4.245,7.298-8.879,13.171-13.911,17.61c-5.031,4.439-10.654,7.594-16.87,9.472
		c-6.215,1.872-13.369,2.812-21.458,2.812V837.215z M3293.423,766.478c0,7.695-1.73,14.503-5.18,20.422
		c-3.455,5.92-8.042,10.804-13.763,14.651c-5.726,3.848-12.431,6.71-20.126,8.583s-15.687,2.71-23.974,2.516
		c-10.461-0.199-19.733-1.878-27.821-5.031c-8.094-3.154-14.947-7.15-20.57-11.987c-5.624-4.833-9.869-10.405-12.727-16.723
		c-2.863-6.312-4.292-12.727-4.292-19.238h31.077c0,3.552,0.786,7.007,2.367,10.359c1.577,3.357,3.848,6.363,6.808,9.027
		s6.558,4.837,10.803,6.512c4.241,1.679,9.027,2.617,14.355,2.812c10.257,0.397,18.151-1.577,23.678-5.92
		c5.521-4.338,8.287-9.665,8.287-15.982c0-2.562-0.546-4.832-1.628-6.808c-1.087-1.97-2.914-3.796-5.476-5.475
		c-2.566-1.675-6.021-3.256-10.359-4.736c-4.342-1.479-9.868-2.908-16.574-4.291c-7.695-1.378-15.095-3.154-22.198-5.328
		c-7.103-2.169-13.369-5.077-18.794-8.73c-5.429-3.649-9.767-8.236-13.022-13.763c-3.256-5.522-4.884-12.329-4.884-20.422
		c0-6.114,1.526-11.839,4.588-17.167c3.057-5.327,7.251-10.012,12.578-14.059c5.328-4.042,11.691-7.2,19.091-9.471
		c7.399-2.267,15.34-3.404,23.825-3.404c9.666,0,18.202,1.383,25.602,4.144c7.399,2.766,13.615,6.415,18.646,10.951
		c5.031,4.542,8.879,9.573,11.543,15.095c2.664,5.526,3.996,11.149,3.996,16.87h-31.077c0-7.103-2.618-12.727-7.844-16.87
		c-5.23-4.144-12.186-6.216-20.866-6.216c-3.949,0-7.695,0.495-11.246,1.48c-3.552,0.989-6.66,2.367-9.323,4.144
		c-2.664,1.775-4.787,3.848-6.363,6.215c-1.582,2.368-2.368,5.032-2.368,7.991c0,2.368,0.49,4.542,1.479,6.512
		c0.985,1.975,2.812,3.802,5.476,5.476c2.664,1.679,6.216,3.256,10.655,4.735c4.439,1.48,10.012,2.914,16.723,4.292
		c7.496,1.581,14.798,3.552,21.901,5.919c7.104,2.368,13.365,5.43,18.794,9.176c5.425,3.75,9.813,8.389,13.171,13.91
		C3291.744,752.174,3293.423,758.782,3293.423,766.478z M3358.535,767.069c0,10.461,4.833,15.687,14.503,15.687h11.543v26.342
		h-13.615c-14.013,0-24.765-3.403-32.261-10.211c-7.501-6.808-11.247-16.621-11.247-29.449v-60.971
		c0-10.062-1.878-17.115-5.623-21.161c-3.751-4.042-10.559-6.067-20.422-6.067v-24.862h26.045v-33.74h31.077v33.74h26.046v24.862
		h-67.186c27.423,1.775,41.14,10.854,41.14,27.229V767.069z M3393.164,732.737c0-11.839,1.726-22.688,5.18-32.558
		c3.45-9.864,8.287-18.299,14.503-25.306c6.215-7.001,13.712-12.431,22.493-16.278c8.777-3.848,18.596-5.771,29.449-5.771
		c11.641,0,21.948,2.072,30.93,6.216c8.976,4.144,16.523,10.017,22.642,17.61c6.113,7.598,10.655,16.676,13.614,27.229
		c2.96,10.558,4.241,22.346,3.848,35.368h-111.285c0.985,14.799,5.18,26.592,12.579,35.369c7.399,8.782,16.62,13.171,27.673,13.171
		c8.287,0,15.539-2.517,21.754-7.548c6.216-5.031,10.997-12.181,14.354-21.458h31.966c-4.343,16.381-12.432,29.449-24.271,39.217
		c-11.839,9.767-26.442,14.65-43.804,14.65c-10.854,0-20.672-1.924-29.449-5.771c-8.781-3.848-16.278-9.272-22.493-16.278
		c-6.216-7.002-11.053-15.437-14.503-25.306C3394.889,755.43,3393.164,744.576,3393.164,732.737z M3503.561,716.459
		c-2.174-11.839-6.71-21.26-13.614-28.266c-6.909-7.002-15.294-10.507-25.158-10.507c-9.868,0-18.253,3.454-25.157,10.358
		c-6.909,6.909-11.543,16.381-13.911,28.414H3503.561z M3588.504,656.376v46.172c0.592-7.298,2.118-13.957,4.587-19.979
		c2.465-6.017,5.624-11.246,9.472-15.687c3.848-4.439,8.287-7.889,13.318-10.358c5.031-2.465,10.405-3.7,16.131-3.7
		c6.511,0,12.477,1.235,17.906,3.7c5.425,2.47,10.16,5.919,14.206,10.358c4.042,4.44,7.252,9.869,9.619,16.279
		c2.368,6.414,3.746,13.466,4.144,21.161c0.394-7.496,1.776-14.354,4.144-20.569c2.368-6.216,5.476-11.641,9.323-16.278
		c3.848-4.634,8.385-8.236,13.615-10.804c5.226-2.562,10.803-3.848,16.722-3.848c6.905,0,13.12,1.383,18.646,4.144
		c5.521,2.766,10.309,6.613,14.354,11.543c4.042,4.935,7.149,10.854,9.323,17.759c2.169,6.909,3.256,14.604,3.256,23.086v99.742
		h-31.077v-99.742c0-4.537-0.495-8.731-1.479-12.579c-0.99-3.848-2.618-7.251-4.884-10.211c-2.271-2.96-5.281-5.276-9.027-6.955
		c-3.75-1.675-8.486-2.516-14.206-2.516c-3.552,0-7.058,0.592-10.508,1.775c-3.454,1.184-6.511,3.011-9.175,5.476
		c-2.664,2.47-4.837,5.771-6.512,9.915c-1.679,4.144-2.516,9.175-2.516,15.095v99.742h-31.077v-99.742
		c0-4.537-0.494-8.731-1.479-12.579c-0.989-3.848-2.617-7.251-4.884-10.211c-2.271-2.96-5.281-5.276-9.026-6.955
		c-3.751-1.675-8.486-2.516-14.207-2.516c-3.552,0-7.057,0.592-10.507,1.775c-3.455,1.184-6.512,3.011-9.176,5.476
		c-2.663,2.47-4.837,5.771-6.511,9.915c-1.679,4.144-2.516,9.175-2.516,15.095v99.742h-31.077V656.376H3588.504z M3915.255,766.478
		c0,7.695-1.73,14.503-5.18,20.422c-3.455,5.92-8.042,10.804-13.763,14.651c-5.726,3.848-12.431,6.71-20.126,8.583
		s-15.687,2.71-23.974,2.516c-10.461-0.199-19.733-1.878-27.821-5.031c-8.094-3.154-14.947-7.15-20.57-11.987
		c-5.624-4.833-9.869-10.405-12.727-16.723c-2.863-6.312-4.292-12.727-4.292-19.238h31.077c0,3.552,0.786,7.007,2.367,10.359
		c1.577,3.357,3.848,6.363,6.808,9.027s6.558,4.837,10.803,6.512c4.241,1.679,9.027,2.617,14.355,2.812
		c10.257,0.397,18.151-1.577,23.678-5.92c5.521-4.338,8.287-9.665,8.287-15.982c0-2.562-0.546-4.832-1.628-6.808
		c-1.087-1.97-2.914-3.796-5.476-5.475c-2.566-1.675-6.021-3.256-10.359-4.736c-4.342-1.479-9.868-2.908-16.574-4.291
		c-7.695-1.378-15.095-3.154-22.198-5.328c-7.103-2.169-13.369-5.077-18.794-8.73c-5.429-3.649-9.767-8.236-13.022-13.763
		c-3.256-5.522-4.884-12.329-4.884-20.422c0-6.114,1.526-11.839,4.588-17.167c3.057-5.327,7.251-10.012,12.578-14.059
		c5.328-4.042,11.691-7.2,19.091-9.471c7.399-2.267,15.34-3.404,23.825-3.404c9.666,0,18.202,1.383,25.602,4.144
		c7.399,2.766,13.615,6.415,18.646,10.951c5.031,4.542,8.879,9.573,11.543,15.095c2.664,5.526,3.996,11.149,3.996,16.87h-31.077
		c0-7.103-2.618-12.727-7.844-16.87c-5.23-4.144-12.186-6.216-20.866-6.216c-3.949,0-7.695,0.495-11.246,1.48
		c-3.552,0.989-6.66,2.367-9.323,4.144c-2.664,1.775-4.787,3.848-6.363,6.215c-1.582,2.368-2.368,5.032-2.368,7.991
		c0,2.368,0.49,4.542,1.479,6.512c0.985,1.975,2.812,3.802,5.476,5.476c2.664,1.679,6.216,3.256,10.655,4.735
		c4.439,1.48,10.012,2.914,16.723,4.292c7.496,1.581,14.798,3.552,21.901,5.919c7.104,2.368,13.365,5.43,18.794,9.176
		c5.425,3.75,9.813,8.389,13.171,13.91C3913.576,752.174,3915.255,758.782,3915.255,766.478z"/>
</g>
<g id="Layer_3">
</g>
<g id="Layer_2" display="none">
</g>
</svg>
