<?xml version="1.0" encoding="iso-8859-1"?>
<!-- Generator: Adobe Illustrator 28.0.0, SVG Export Plug-In . SVG Version: 6.00 Build 0)  -->
<svg version="1.1" xmlns="http://www.w3.org/2000/svg" xmlns:xlink="http://www.w3.org/1999/xlink" x="0px" y="0px"
	 width="1133.858px" height="1133.858px" viewBox="0 0 1133.858 1133.858" enable-background="new 0 0 1133.858 1133.858"
	 xml:space="preserve">
<g id="Layer_1">
	<path fill="oklch(21.78% 0 0)" d="M360.594,19.907v117.369h-68.638V19.907C291.956,8.913,300.869,0,311.863,0l28.824,0
		C351.682,0,360.594,8.913,360.594,19.907z M500.842,0l-28.824,0c-10.994,0-19.907,8.913-19.907,19.907v117.369h68.638V19.907
		C520.749,8.913,511.837,0,500.842,0z M660.997,0l-28.824,0c-10.994,0-19.907,8.913-19.907,19.907v117.369h68.638V19.907
		C680.904,8.913,671.992,0,660.997,0z M821.152,0l-28.824,0c-10.994,0-19.907,8.913-19.907,19.907v117.369h68.638V19.907
		C841.059,8.913,832.146,0,821.152,0z M360.594,1113.951V996.583h-68.638v117.369c0,10.994,8.913,19.907,19.907,19.907h28.824
		C351.682,1133.858,360.594,1124.946,360.594,1113.951z M520.749,1113.951V996.583h-68.638v117.369
		c0,10.994,8.913,19.907,19.907,19.907h28.824C511.837,1133.858,520.749,1124.946,520.749,1113.951z M680.904,1113.951V996.583
		h-68.638v117.369c0,10.994,8.913,19.907,19.907,19.907h28.824C671.992,1133.858,680.904,1124.946,680.904,1113.951z
		 M841.059,1113.951V996.583h-68.638v117.369c0,10.994,8.913,19.907,19.907,19.907h28.824
		C832.146,1133.858,841.059,1124.946,841.059,1113.951z M69.094,258.537c-37.908,0-68.638,30.73-68.638,68.638v0v34.319
		c0,18.954,15.365,34.319,34.319,34.319h0c18.954,0,34.319-15.365,34.319-34.319v-34.319h68.638v-68.638H69.094z M69.094,442.77
		c-37.908,0-68.638,30.73-68.638,68.638v0v34.319c0,18.954,15.365,34.319,34.319,34.319h0c18.954,0,34.319-15.365,34.319-34.319
		v-34.319h68.638V442.77H69.094z M69.094,811.235c-37.908,0-68.638,30.73-68.638,68.638v0l0,34.319
		c0,18.954,15.365,34.319,34.319,34.319h0c18.954,0,34.319-15.365,34.319-34.319v-34.319h68.638v-68.638H69.094z M69.094,627.002
		c-37.908,0-68.638,30.73-68.638,68.638v0v34.319c0,18.954,15.365,34.319,34.319,34.319h0c18.954,0,34.319-15.365,34.319-34.319
		v-34.319h68.638v-68.638H69.094z M996.127,258.537v68.638h68.638v34.319c0,18.954,15.365,34.319,34.319,34.319h0
		c18.954,0,34.319-15.365,34.319-34.319v-34.319v0c0-37.908-30.73-68.638-68.638-68.638H996.127z M996.127,442.77v68.638h68.638
		v34.319c0,18.954,15.365,34.319,34.319,34.319h0c18.954,0,34.319-15.365,34.319-34.319v-34.319v0
		c0-37.908-30.73-68.638-68.638-68.638H996.127z M996.127,811.235v68.638h68.638v34.319c0,18.954,15.365,34.319,34.319,34.319h0
		c18.954,0,34.319-15.365,34.319-34.319v-34.319v0c0-37.908-30.73-68.638-68.638-68.638H996.127z M996.127,627.002v68.638h68.638
		v34.319c0,18.954,15.365,34.319,34.319,34.319h0c18.954,0,34.319-15.365,34.319-34.319v-34.319v0
		c0-37.908-30.73-68.638-68.638-68.638H996.127z M961.175,269.331v593.862c0,53.978-43.758,97.737-97.737,97.737H269.577
		c-53.978,0-97.737-43.758-97.737-97.737V269.331c0-53.978,43.758-97.737,97.737-97.737h593.862
		C917.417,171.595,961.175,215.353,961.175,269.331z M518.661,462.879h-32.491l-42.239,188.748l-33.969-188.748h-49.919
		l-33.968,188.748L284.13,462.879h-32.787l46.966,206.765h54.349l32.493-185.498l32.195,185.498h54.645L518.661,462.879z
		 M700.022,462.879H544.655v206.765h155.368v-27.765H577.146v-62.62h111.949v-25.994H577.146v-62.62h122.877V462.879z
		 M881.679,614.113c0-10.633-2.168-19.592-6.499-26.88c-4.333-7.283-10.042-13.389-17.132-18.314
		c-7.089-4.919-15.166-8.908-24.221-11.963c-9.059-3.051-18.312-5.657-27.765-7.827c-5.317-1.182-10.832-2.46-16.541-3.84
		c-5.714-1.375-10.928-3.249-15.655-5.611c-4.726-2.364-8.616-5.364-11.667-9.009c-3.056-3.642-4.578-8.317-4.578-14.031
		c0-4.136,0.931-8.169,2.805-12.112c1.87-3.936,4.625-7.43,8.271-10.485c3.642-3.051,8.123-5.51,13.44-7.384
		c5.317-1.87,11.418-2.807,18.314-2.807c7.48,0,13.928,1.232,19.348,3.692c5.413,2.465,9.894,5.664,13.438,9.6
		c3.546,3.941,6.153,8.224,7.829,12.849c1.67,4.63,2.51,9.207,2.51,13.736h32.196c0-8.465-1.625-16.689-4.874-24.664
		c-3.249-7.977-8.026-15.065-14.325-21.268c-6.305-6.202-14.132-11.174-23.482-14.916c-9.356-3.738-20.233-5.611-32.639-5.611
		c-10.633,0-20.529,1.527-29.686,4.578c-9.157,3.056-17.132,7.238-23.925,12.554c-6.795,5.317-12.112,11.62-15.95,18.903
		c-3.84,7.288-5.761,15.065-5.761,23.336c0,9.059,1.625,16.886,4.874,23.482c3.249,6.6,8.022,12.309,14.325,17.132
		c6.3,4.827,14.031,8.963,23.188,12.406c9.157,3.448,19.644,6.549,31.457,9.303c5.711,1.381,11.566,2.807,17.576,4.283
		c6.004,1.478,11.468,3.448,16.393,5.908c4.919,2.465,8.908,5.664,11.963,9.6c3.051,3.943,4.578,8.963,4.578,15.065
		c0,4.924-1.182,9.504-3.544,13.736c-2.364,4.236-5.613,7.928-9.748,11.076c-4.135,3.152-9.059,5.611-14.768,7.384
		c-5.714,1.773-11.918,2.658-18.61,2.658c-8.861,0-16.541-1.522-23.04-4.578c-6.499-3.051-11.962-6.84-16.393-11.372
		c-4.431-4.527-7.68-9.499-9.748-14.916c-2.067-5.414-3.101-10.487-3.101-15.213H718.04c0,8.862,1.869,17.677,5.611,26.437
		c3.739,8.765,9.255,16.541,16.541,23.334c7.283,6.795,16.145,12.31,26.585,16.541c10.435,4.232,22.449,6.352,36.035,6.352
		c11.418,0,21.955-1.579,31.606-4.727c9.647-3.147,17.967-7.48,24.961-12.995c6.987-5.512,12.452-12.009,16.393-19.496
		C879.708,630.557,881.679,622.582,881.679,614.113z"/>
</g>
<g id="Layer_3">
</g>
<g id="Layer_2" display="none">
</g>
</svg>
