<?xml version="1.0" encoding="utf-8"?>
<!-- Generator: Adobe Illustrator 28.0.0, SVG Export Plug-In . SVG Version: 6.00 Build 0)  -->
<svg version="1.1" xmlns="http://www.w3.org/2000/svg" xmlns:xlink="http://www.w3.org/1999/xlink" x="0px" y="0px" width="500px"
	 height="500px" viewBox="0 0 500 500" style="enable-background:new 0 0 500 500;" xml:space="preserve">
<style type="text/css">
	.st0{display:none;}
	.st1{display:inline;opacity:0.66;}
	.st2{fill:#51C2BE;}
	.st3{fill:#FFFFFF;}
	.st4{fill:#3DCD58;}
	.st5{fill:#009530;}
	.st6{fill:none;}
	.st7{fill:#1A1A1A;}
</style>
<g id="Layer_2" class="st0">
	<rect x="-185.7" y="-562.8" class="st1" width="3630.6" height="658.7"/>
</g>
<g id="Layer_1">
	<path class="st6" d="M301.4,202.1c-0.3,0.3-0.7,0.7-1,1"/>
	<rect class="st7" width="500" height="500"/>
	<g>
		<g>
			<path class="st3" d="M276.4,117.9c-3-5.6-8.7-9.1-14.8-10.3c-6.7-1.3-13.3-0.2-19.5,2.6c-7.1,3.2-13.1,8.3-19,13.3
				c-5.6,4.7-11.4,9.1-16.9,13.8c-5.5,4.7-10.7,9.8-14.8,15.8c-4.4,6.6-6.8,14.2-7.5,22.1c-1.4,15,2.6,30.6,9.5,43.8
				c6.8,13,16.9,24.3,29.2,32.3c12.8,8.4,27.9,13.2,43.1,14.1c3.8,0.2,7.6,0.2,11.4-0.1c4-0.3,8.3-0.9,11.7-3.2
				c3.3-2.3,5.5-5.6,7.7-8.9c2.2-3.3,4.2-6.6,6.1-10.1c7.7-13.9,13.2-29.2,15.5-44.9c2.2-15.2,1.4-30.7-2.9-45.4
				c-2.1-7.2-5-14.2-8.7-20.7c-3.6-6.4-8.1-12.6-13.3-17.8c-2.7-2.7-6.1-4.9-10.1-4.8c-3.2,0.1-3.2,5.1,0,5c3.3-0.1,5.9,2.6,7.9,4.8
				c2.3,2.5,4.5,5.2,6.5,8c4,5.6,7.3,11.8,9.9,18.2c5.2,13.1,7.4,27.2,6.8,41.2c-0.7,14.9-4.5,29.6-10.6,43.1
				c-3.1,6.9-6.7,13.5-10.8,19.9c-1.8,2.8-3.7,6-6.5,8c-3,2-6.7,2.3-10.2,2.6c-14.2,1-28.7-1.8-41.6-8c-12.5-6-23.2-15.2-31.1-26.6
				c-7.7-11.1-12.9-24.2-14.3-37.7c-0.8-7.6-0.5-15.3,1.9-22.6c2.1-6.5,6-12.1,10.6-17c4.7-5,10.1-9.3,15.4-13.5
				c5.5-4.4,10.9-9.1,16.5-13.4c5.3-4.1,11.3-7.9,18-9.1c5.2-1,11.1-0.2,15.6,2.6c2.2,1.3,3.9,3.2,5.1,5.4
				C273.6,123.3,277.9,120.7,276.4,117.9L276.4,117.9z"/>
		</g>
	</g>
	<g>
		<g>
			<path class="st3" d="M199.9,237.7c-5.9-3.2-12.7-2.6-18.6,0.2c-6.1,2.9-10.6,8.3-13.6,14.2c-3.3,6.4-5.4,13.4-7.5,20.3
				c-2.3,7.5-4.4,15.1-6.3,22.8c-7.5,30.5-11.8,61.7-12.8,93.1c-0.6,17.6,0,35.3,1.5,52.8c0.1,1.3,1.1,2.5,2.5,2.5
				c1.3,0,2.6-1.1,2.5-2.5c-2.7-30.3-2.2-60.8,1.3-90.9c1.8-15.1,4.4-30.1,7.7-44.9c3.2-14.4,7-28.9,12-42.9
				c2.3-6.4,5.4-13.3,11-17.6c4.9-3.8,12-5.8,17.7-2.7C200.2,243.6,202.7,239.3,199.9,237.7L199.9,237.7z"/>
		</g>
	</g>
	<g>
		<g>
			<path class="st3" d="M314.8,236.9c1.1,13.2,6.2,25.4,11.4,37.5c4.9,11.5,9.4,23.1,13,35.1c7.1,23.5,11.4,48.2,9.3,72.7
				c-1.1,13.4-4.3,26.8-9.7,39.1c-0.5,1.2-0.4,2.7,0.9,3.4c1.1,0.6,2.9,0.3,3.4-0.9c10.1-22.8,12.6-48,10-72.7
				c-2.7-25.1-10.1-49.6-19.8-72.9c-5.6-13.3-12.2-26.8-13.4-41.4c-0.1-1.3-1.1-2.5-2.5-2.5C316,234.4,314.7,235.5,314.8,236.9
				L314.8,236.9z"/>
		</g>
	</g>
	<g>
		<g>
			<path class="st3" d="M232.7,164.3c-2,4.9-1.3,10.8,1.6,15.2c0.9,1.3,2.7,1.7,3.9,0.5c1.7-1.7,3.3-3.7,4.3-5.9
				c1.1-2.1,2.2-4.8,1.9-7.2c-0.3-2.8-2.5-5-5.4-4.7c-2.4,0.2-4.7,1.9-5.2,4.4c-0.5,2.9,1.2,6.1,3.9,7.3c1.2,0.5,2.7,0.4,3.4-0.9
				c0.6-1.1,0.4-2.9-0.9-3.4c-0.2-0.1-0.4-0.2-0.7-0.3c-0.1-0.1-0.2-0.1-0.3-0.2c0.3,0.2,0.3,0.2,0.1,0c-0.1-0.1-0.7-0.6-0.2-0.2
				c-0.2-0.2-0.3-0.4-0.4-0.6c-0.1-0.3-0.1-0.2,0,0.1c0-0.1-0.1-0.2-0.1-0.3c0-0.1-0.1-0.2-0.1-0.3c0,0.4,0.1,0.4,0,0.1
				c0-0.1,0-0.1,0-0.2c0-0.3,0-0.2,0,0.1c0-0.1,0.1-0.2,0.1-0.3c0.1-0.3,0.1-0.2-0.1,0.2c0-0.1,0.1-0.2,0.2-0.3
				c-0.2,0.3-0.3,0.4-0.1,0.2c0.5-0.5-0.3,0.1,0.1-0.1c0.1-0.1,0.2-0.1,0.3-0.2c0.2-0.1,0.2-0.1-0.2,0.1c0.1,0,0.5-0.1,0.6-0.2
				c-0.4,0-0.5,0.1-0.2,0c0,0,0.1,0,0.1,0c0.7,0-0.3-0.1,0,0c0.6,0.2-0.3-0.2,0.1,0c0.2,0.1,0.2,0.1-0.2-0.1
				c0.2,0.2,0.1,0.1-0.1-0.1c0.1,0.1,0.1,0.2,0.2,0.3c-0.1-0.3-0.1-0.3,0-0.1c0.1,0.3,0.1,0.2,0-0.1c0,0.1,0,0.3,0,0.4
				c0,0.1,0,0.8,0,0.5c0-0.4-0.1,0.4-0.1,0.5c-0.1,0.6-0.3,1.1-0.5,1.6c-0.1,0.3-0.2,0.6-0.3,0.8c0.2-0.5-0.2,0.3-0.2,0.4
				c-0.5,1-1,2-1.7,2.9c-0.1,0.1-0.6,0.8-0.3,0.4c-0.2,0.2-0.4,0.5-0.6,0.7c-0.4,0.4-0.8,0.9-1.2,1.3c1.3,0.2,2.6,0.3,3.9,0.5
				c-0.3-0.5-0.6-0.9-0.9-1.5c0-0.1-0.4-0.9-0.2-0.4c-0.1-0.3-0.2-0.5-0.3-0.8c-0.2-0.5-0.3-1.1-0.5-1.6c-0.1-0.3-0.1-0.6-0.2-0.8
				c0-0.3,0-0.3,0,0c0-0.1,0-0.2,0-0.3c0-0.5-0.1-1.1-0.1-1.6c0-0.3,0-0.6,0-0.8c0-0.1,0.1-1,0-0.4c0.2-1.1,0.5-2.2,0.9-3.2
				c0.5-1.2-0.5-2.8-1.7-3.1C234.3,162.2,233.2,163,232.7,164.3L232.7,164.3z"/>
		</g>
	</g>
	<g>
		<g>
			<path class="st3" d="M274.5,166.8c-0.4,1-0.4,2.1-0.2,3.1c0.2,1,0.8,1.9,1.5,2.7c0.6,0.6,1.3,1.2,2.1,1.6c0.9,0.4,2,0.8,3,0.7
				c1.3-0.1,2.4-0.5,3.4-1.4c0.8-0.6,1.3-1.5,1.6-2.5c0.6-1.7,0.2-3.7-0.7-5.2c-1-1.8-3.1-3.3-5.2-3.1c-0.7,0-1.3,0.2-1.8,0.7
				c-0.4,0.4-0.8,1.1-0.7,1.8c0,0.6,0.2,1.3,0.7,1.8c0.5,0.4,1.1,0.8,1.8,0.7c0.2,0,0.4,0,0.6,0c-0.2,0-0.4-0.1-0.7-0.1
				c0.2,0,0.5,0.1,0.7,0.2c-0.2-0.1-0.4-0.2-0.6-0.3c0.3,0.1,0.5,0.3,0.7,0.4c-0.2-0.1-0.3-0.3-0.5-0.4c0.2,0.2,0.5,0.4,0.7,0.7
				c-0.1-0.2-0.3-0.3-0.4-0.5c0.2,0.3,0.4,0.6,0.6,1c-0.1-0.2-0.2-0.4-0.3-0.6c0.2,0.4,0.3,0.8,0.3,1.2c0-0.2-0.1-0.4-0.1-0.7
				c0,0.4,0.1,0.7,0,1.1c0-0.2,0.1-0.4,0.1-0.7c0,0.3-0.1,0.6-0.2,0.9c0.1-0.2,0.2-0.4,0.3-0.6c-0.1,0.2-0.2,0.4-0.4,0.6
				c0.1-0.2,0.3-0.3,0.4-0.5c-0.1,0.2-0.3,0.3-0.5,0.5c0.2-0.1,0.3-0.3,0.5-0.4c-0.2,0.2-0.4,0.3-0.6,0.4c0.2-0.1,0.4-0.2,0.6-0.3
				c-0.2,0.1-0.5,0.2-0.8,0.2c0.2,0,0.4-0.1,0.7-0.1c-0.3,0-0.5,0-0.8,0c0.2,0,0.4,0.1,0.7,0.1c-0.3,0-0.7-0.1-1-0.3
				c0.2,0.1,0.4,0.2,0.6,0.3c-0.4-0.2-0.7-0.4-1-0.6c0.2,0.1,0.3,0.3,0.5,0.4c-0.3-0.2-0.6-0.5-0.8-0.8c0.1,0.2,0.3,0.3,0.4,0.5
				c-0.2-0.3-0.4-0.6-0.5-0.9c0.1,0.2,0.2,0.4,0.3,0.6c-0.1-0.3-0.2-0.5-0.2-0.8c0,0.2,0.1,0.4,0.1,0.7c0-0.3,0-0.5,0-0.8
				c0,0.2-0.1,0.4-0.1,0.7c0-0.3,0.1-0.5,0.2-0.7c0.2-0.6,0-1.4-0.3-1.9c-0.3-0.5-0.9-1-1.5-1.1c-0.6-0.1-1.4-0.1-1.9,0.3
				c-0.2,0.1-0.3,0.3-0.5,0.4C274.8,166,274.6,166.3,274.5,166.8L274.5,166.8z"/>
		</g>
	</g>
	<g>
		<g>
			<path class="st3" d="M228.6,195c-1.1,11.6,3.3,23.4,11.3,31.8c2,2.1,4.2,3.9,6.6,5.5c2.6,1.8,5.7,3.5,8.8,4
				c3.8,0.6,7.1-0.8,10.2-2.9c3-2,5.8-4.1,8.7-6.3c6.1-4.8,11.8-10,17-15.8c2.2-2.4-1.4-5.9-3.5-3.5c-4.3,4.7-9,9.2-13.9,13.3
				c-2.4,2-4.9,3.9-7.5,5.7c-2.4,1.7-5,4-7.9,4.6c-2.8,0.6-5.6-1-7.9-2.4c-2.2-1.3-4.3-2.9-6.1-4.7c-3.6-3.5-6.5-7.7-8.4-12.3
				c-2.2-5.4-3.1-11.2-2.5-17c0.1-1.3-1.2-2.5-2.5-2.5C229.6,192.5,228.7,193.7,228.6,195L228.6,195z"/>
		</g>
	</g>
	<g>
		<g>
			<path class="st3" d="M152.4,291.4c-4.9-0.3-9.8-0.7-14.6-1c-3.7-0.2-7.3-0.4-10.9,0.1c-3.2,0.5-6.5,1.7-8.8,4.1
				c-2.8,3-3.6,7.3-2.5,11.2c1.1,4,3.9,7.3,7.1,9.9c3.3,2.7,6.9,5,10.6,7.2c7.3,4.3,15.2,7.7,23.4,10.2c9.2,2.8,18.8,4.2,28.4,4.4
				c3.2,0.1,3.2-4.9,0-5c-15.4-0.3-30.7-4.1-44.4-11.2c-3.4-1.8-6.8-3.7-10-5.9c-3-2-6.2-4.1-8.4-7c-1.8-2.4-3.1-6-1.6-8.9
				c1.2-2.3,3.6-3.3,6.1-3.8c3.3-0.7,6.8-0.4,10.1-0.2c5.1,0.3,10.3,0.7,15.4,1c1.3,0.1,2.5-1.2,2.5-2.5
				C154.9,292.5,153.7,291.5,152.4,291.4L152.4,291.4z"/>
		</g>
	</g>
	<g>
		<g>
			<path class="st3" d="M342.3,299.6c7.9-0.3,15.8,0,23.6,1.2c2.9,0.4,5.8,0.9,8.5,2c2,0.8,4.1,2.1,5.2,3.8c1.6,2.5,0.6,5.3-0.4,8.2
				c-1.1,3.4-2.5,6.8-4,10.1c-0.8,1.7-1.6,3.3-2.4,5c-0.7,1.4-1.4,2.9-2.5,4.1c-2.1,2.2-6.2,1.9-8.9,2.2c-9.1,0.8-18.2,1.7-27.3,2.5
				c-1.3,0.1-2.5,1.1-2.5,2.5c0,1.3,1.1,2.6,2.5,2.5c8.8-0.8,17.5-1.6,26.3-2.4c3.8-0.3,8.2-0.2,11.5-2.2c3.4-2,5-6.1,6.6-9.4
				c1.8-3.7,3.4-7.6,4.8-11.4c1.3-3.6,2.9-7.7,1.7-11.6c-1.9-6-8.5-8.8-14.2-9.9c-9.3-1.9-19.1-2.4-28.6-2
				C339.1,294.8,339.1,299.8,342.3,299.6L342.3,299.6z"/>
		</g>
	</g>
</g>
</svg>
