<?xml version="1.0" encoding="iso-8859-1"?>
<!-- Generator: Adobe Illustrator 28.0.0, SVG Export Plug-In . SVG Version: 6.00 Build 0)  -->
<svg version="1.1" id="Layer_1" xmlns="http://www.w3.org/2000/svg" xmlns:xlink="http://www.w3.org/1999/xlink" x="0px" y="0px"
	 width="793.622px" height="250.993px" viewBox="0 0 793.622 250.993" enable-background="new 0 0 793.622 250.993"
	 xml:space="preserve">
<g>
	<path fill="#51C2BE" d="M135.457,47.091c1.552,0,2.979-0.634,4.021-1.676c1.038-1.016,1.671-2.443,1.671-4.021
		c0-1.578-0.634-3.003-1.671-4.022c-1.042-1.039-2.469-1.675-4.021-1.675c-1.58,0-3.003,0.636-4.042,1.675
		c-1.017,1.02-1.652,2.444-1.652,4.022c0,1.578,0.635,3.005,1.652,4.021C132.455,46.456,133.878,47.091,135.457,47.091"/>
	<path fill="#51C2BE" d="M191.916,156.286c1.579,0,3.004-0.68,4.044-1.696c1.016-1.017,1.653-2.466,1.653-4.044
		c0-1.536-0.637-2.983-1.653-4.004c-1.04-1.055-2.466-1.688-4.044-1.688c-1.579,0-3.007,0.634-4.021,1.688
		c-1.039,1.021-1.673,2.468-1.673,4.004c0,1.578,0.634,3.027,1.673,4.044C188.912,155.606,190.337,156.286,191.916,156.286"/>
	<path fill="#51C2BE" d="M42.489,128.738c-1.58,0-3.004,0.635-4.019,1.676c-1.04,1.039-1.674,2.464-1.674,4.023
		c0,1.581,0.631,3.003,1.674,4.045c1.017,1.022,2.439,1.676,4.019,1.676c1.579,0,3.001-0.653,4.019-1.676
		c1.044-1.042,1.676-2.464,1.676-4.045c0-1.559-0.633-2.983-1.676-4.023C45.49,129.375,44.068,128.738,42.489,128.738"/>
	<path fill="#51C2BE" d="M175.122,96.377c1.579,0,3.002-0.635,4.041-1.676c1.018-1.04,1.674-2.464,1.674-4.02
		c0-1.578-0.656-3.006-1.674-4.043c-1.039-1.019-2.462-1.677-4.041-1.677c-1.556,0-2.978,0.659-4.019,1.677
		c-1.04,1.037-1.677,2.464-1.677,4.043c0,1.556,0.637,2.98,1.677,4.02C172.144,95.742,173.566,96.377,175.122,96.377"/>
	<path fill="#51C2BE" d="M89.158,74.158c0-1.58-0.659-3.006-1.677-4.044c-1.039-1.017-2.462-1.677-4.041-1.677
		c-1.554,0-2.979,0.66-4.019,1.677c-1.02,1.038-1.674,2.464-1.674,4.044c0,1.556,0.654,2.984,1.674,4.022
		c1.04,1.016,2.464,1.674,4.019,1.67c1.579,0,3.002-0.654,4.041-1.67C88.499,77.141,89.158,75.713,89.158,74.158"/>
	<path fill="#51C2BE" d="M246.37,113.617L137.753,4.999c-6.665-6.665-17.472-6.665-24.136,0L4.999,113.617
		c-6.665,6.665-6.665,17.472-0.002,24.138l108.62,108.616c2.202,2.203,4.859,3.66,7.667,4.407v-50.442
		c-0.018,0.002-0.035,0.004-0.055,0.004v-0.123H108.77v-29.176H79.48v-32.685H55.363c-0.639,2.141-1.807,4.065-3.356,5.602
		c-2.436,2.455-5.815,3.934-9.519,3.934c-3.701,0-7.081-1.479-9.519-3.934c-2.433-2.426-3.948-5.789-3.948-9.521
		c0-3.705,1.515-7.064,3.948-9.499c2.438-2.439,5.817-3.955,9.519-3.955c3.703,0,7.082,1.516,9.519,3.955
		c1.552,1.552,2.724,3.486,3.386,5.665H79.48V87.01c-2.115-0.637-4.015-1.806-5.559-3.326c-2.411-2.462-3.928-5.819-3.928-9.525
		c0-3.728,1.517-7.088,3.928-9.522c2.457-2.438,5.815-3.952,9.518-3.952c3.729,0,7.086,1.515,9.521,3.952
		c2.435,2.435,3.95,5.794,3.95,9.522c0,3.707-1.516,7.063-3.95,9.525c-1.581,1.556-3.516,2.753-5.723,3.386v76.19h29.308v29.231
		h17.113v-42.589h-25.36V90.232h22.266V53.955c-1.744-0.693-3.324-1.738-4.623-3.036c-2.434-2.438-3.95-5.818-3.95-9.526
		c0-3.729,1.516-7.086,3.95-9.523c2.433-2.434,5.794-3.954,9.521-3.954c3.703,0,7.079,1.52,9.492,3.954
		c2.46,2.438,3.949,5.794,3.949,9.523c0,3.71-1.489,7.088-3.949,9.526c-1.776,1.775-4.057,3.068-6.613,3.636v43.457h-22.295v44.112
		h17.613v-18.957h36.879v-19.832c-1.872-0.69-3.544-1.768-4.909-3.132c-2.46-2.463-3.95-5.82-3.95-9.524
		c0-3.728,1.489-7.086,3.95-9.522c2.408-2.437,5.79-3.952,9.495-3.952c3.726,0,7.081,1.516,9.518,3.952
		c2.436,2.436,3.952,5.794,3.952,9.522c0,3.705-1.517,7.06-3.952,9.524c-1.714,1.71-3.894,2.976-6.358,3.552v27.169h-36.878v38.861
		h19.187v-23.047h18.421c0.635-2.165,1.832-4.127,3.383-5.691c2.434-2.438,5.818-3.956,9.521-3.956c3.727,0,7.083,1.518,9.518,3.956
		c2.435,2.418,3.949,5.808,3.95,9.499c0,3.729-1.515,7.085-3.948,9.546c-2.434,2.41-5.79,3.928-9.519,3.928
		c-3.703,0-7.086-1.518-9.518-3.928c-1.523-1.527-2.692-3.472-3.354-5.572h-10.699v23.039h-26.94v22.658h-12.2v50.776
		c3.132-0.657,6.115-2.191,8.547-4.622l108.615-108.616C253.036,131.089,253.036,120.28,246.37,113.617"/>
	<path fill="#FFFFFF" d="M470.021,176.132c-19.467,0-30.771-7.325-30.771-26.163V96.382h-13.814v-24.28h13.814V47.613l30.142-4.188
		v28.677h23.234l-1.674,24.28h-21.56v49.399c0,4.188,2.513,5.652,6.279,5.652c3.351,0,8.165-0.419,12.56-1.886l3.559,22.817
		C485.092,174.666,476.929,176.132,470.021,176.132"/>
	<path fill="#FFFFFF" d="M553.913,106.639c0-7.117-2.093-12.978-12.559-12.978c-10.466,0-13.815,5.861-13.815,12.978v4.396h26.373
		V106.639z M527.54,133.64v2.931c0,11.725,4.605,14.862,18.42,14.862c9.42,0,21.978-1.674,30.979-4.397l4.394,22.608
		c-9.209,3.348-24.069,6.487-38.304,6.487c-33.071,0-45.63-16.325-45.63-41.443v-23.863c0-21.978,9.838-40.816,43.746-40.816
		s41.235,20.094,41.235,42.281v21.35H527.54z"/>
	<polygon fill="#FFFFFF" points="595.568,174.038 595.568,30.448 607.709,28.774 607.709,174.038 	"/>
	<path fill="#FFFFFF" d="M685.824,130.294h-29.723c-14.023,0-18.21,4.185-18.21,17.581c0,11.932,2.512,17.374,16.746,17.374
		c10.047,0,21.977-3.979,31.186-10.465V130.294z M697.966,174.038H687.5l-0.837-7.952c-9.839,6.068-21.142,10.046-34.537,10.046
		c-18.002,0-26.374-10.255-26.374-28.466c0-21.56,9.838-28.258,29.932-28.258h30.141V99.523c0-14.025-7.325-18.629-24.07-18.629
		c-10.047,0-20.722,1.465-30.141,3.349l-1.884-10.257c8.162-2.303,20.931-3.976,31.397-3.976c26.373,0,36.839,10.465,36.839,29.513
		V174.038z"/>
	<path fill="#FFFFFF" d="M730.829,162.946c7.952,1.464,16.115,2.094,23.442,2.094c21.977,0,27.21-9.21,27.21-24.49V99.522
		c0-12.14-5.441-17.792-18.838-17.792c-12.349,0-22.187,3.35-31.814,8.793V162.946z M793.622,140.131
		c0,22.815-10.046,36.001-40.816,36.001c-8.79,0-24.699-1.466-34.119-3.767V30.448l12.143-1.673v48.978
		c8.371-4.395,19.675-7.744,33.49-7.744c20.511,0,29.303,11.721,29.303,29.723V140.131z"/>
	<path fill="#FFFFFF" d="M288.585,70.01c-11.093,0-20.722,2.511-28.886,5.651V26.262l-30.14,4.186v41.186l30.173,30.175
		c5.647-2.925,12.749-5.636,19.226-5.636c7.953,0,10.884,4.187,10.884,10.884v26.374c0,9.631-2.721,16.539-17.79,16.539
		c-4.187,0-7.955,0-12.352-0.423v-0.213l-24.315,24.316c12.583,1.697,26.211,2.48,35.619,2.48c42.073,0,48.98-18.629,48.98-42.909
		v-26.374C319.982,84.033,311.191,70.01,288.585,70.01"/>
	<path fill="#FFFFFF" d="M400.191,72.285h-7.074l-6.966,24.281l-9.192,32.031l-4.563,15.903l-20.722-72.216h-4.856h-13.814h-11.89
		l26.845,87.16l0.46,1.491c2.27,6.597,6.915,10.824,13.577,13.146l0.145,0.14l-11.931,41.236h28.466l12.822-40.742l0.154-0.494
		l5.322-16.939l26.704-84.999H400.191z"/>
</g>
<g>
</g>
<g>
</g>
<g>
</g>
<g>
</g>
<g>
</g>
<g>
</g>
</svg>
