<?xml version="1.0" encoding="UTF-8"?>
<svg id="a" data-name="Layer 1" xmlns="http://www.w3.org/2000/svg" width="766.789" height="97.549" xmlns:xlink="http://www.w3.org/1999/xlink" viewBox="0 0 766.789 97.549">
  <g>
    <g id="b" data-name="g13180">
      <g id="c" data-name="g13311">
        <g id="d" data-name="g13214">
          <path id="e" data-name="path13216" d="m28.068,29.707c-.623-2.075-2.594-3.632-4.981-3.632-2.283,0-4.255,1.557-4.981,3.528l9.962.104Zm-10.066,1.453c0,2.802,2.283,5.085,5.189,5.085,1.557,0,2.906-.623,3.84-1.66h2.075c-1.141,1.972-3.424,3.321-6.019,3.321-3.736-.104-6.849-3.113-6.849-6.745,0-3.736,3.113-6.745,6.953-6.745s6.849,3.009,6.849,6.745" fill="#da1f26" stroke-width="0"/>
        </g>
        <g id="f" data-name="g13218">
          <path id="g" data-name="path13220" d="m13.35,29.707c-.623-2.075-2.594-3.632-4.981-3.632-2.283,0-4.255,1.557-4.981,3.528l9.962.104Zm-10.17,1.453c0,2.802,2.283,5.085,5.189,5.085,1.557,0,2.906-.623,3.84-1.66h2.075c-1.141,1.868-3.321,3.217-5.915,3.217-3.84,0-6.849-3.009-6.849-6.745s3.113-6.745,6.849-6.745c3.84,0,6.953,3.009,6.953,6.745" fill="#da1f26" stroke-width="0"/>
        </g>
        <g id="h" data-name="g13222">
          <path id="i" data-name="path13224" d="m65.195,29.707c-.623-2.075-2.594-3.632-4.981-3.632-2.283,0-4.255,1.557-4.981,3.528l9.962.104Zm-10.17,1.453c0,2.802,2.283,5.085,5.189,5.085,1.557,0,2.906-.623,3.84-1.66h2.075c-1.141,1.972-3.424,3.321-6.019,3.321-3.84,0-6.953-3.009-6.953-6.745s3.113-6.745,6.953-6.745,6.953,3.009,6.953,6.745" fill="#da1f26" stroke-width="0"/>
        </g>
        <g id="j" data-name="g13226">
          <path id="k" data-name="path13228" d="m47.205,34.516c0,.934.83,1.764,1.764,1.764,1.972,0,3.632-.519,4.151-1.245l1.038,1.141c-1.038,1.038-2.906,1.764-5.085,1.764-1.868,0-3.424-1.453-3.424-3.321h0v-8.405h-4.877v-1.66h4.877v-6.849h1.764v6.745h2.698v1.66h-2.698l-.208,8.405" fill="#da1f26" stroke-width="0"/>
        </g>
        <g id="l" data-name="g13230">
          <path id="m" data-name="path13232" d="m68.04,31.164c0-3.736,3.113-6.745,6.849-6.745,2.594,0,4.773,1.349,6.019,3.424h-2.075c-.934-1.038-2.387-1.66-3.84-1.66-2.906,0-5.189,2.283-5.189,5.085h0c0,2.802,2.283,5.085,5.189,5.085,1.557,0,2.906-.623,3.84-1.66h2.075c-1.245,1.972-3.424,3.321-6.019,3.321-3.736-.208-6.849-3.217-6.849-6.849" fill="#da1f26" stroke-width="0"/>
        </g>
        <g id="n" data-name="g13234">
          <path id="o" data-name="path13236" d="m33.983,45.878c.726-.623,1.66-1.245,2.49-1.868,3.217-2.283,6.434-4.773,6.434-7.783s-3.321-5.396-6.434-7.679c-2.906-2.075-5.915-4.255-5.915-6.538s3.009-4.462,5.811-6.538c1.349-1.038,2.698-1.972,3.84-3.009h-2.283c-.83.623-1.66,1.245-2.49,1.868-3.217,2.283-6.434,4.773-6.434,7.679,0,3.009,3.321,5.396,6.434,7.783,2.906,2.075,5.811,4.255,5.811,6.538s-3.009,4.462-5.915,6.538c-1.349.934-2.698,1.972-3.84,3.009" fill="#da1f26" stroke-width="0"/>
        </g>
      </g>
    </g>
    <g>
      <path d="m14.367,48.506h1.561v6.417h2.197v1.445h-3.758v-7.863Z" fill="#da1f26" stroke-width="0"/>
      <path d="m26.623,49.894l-1.041.983c-.752-.752-1.561-1.098-2.428-1.098-.752,0-1.388.231-1.908.752-.52.52-.809,1.156-.809,1.908,0,.52.116.983.347,1.388.231.405.578.694.983.925s.925.347,1.388.347.867-.058,1.214-.231.752-.463,1.214-.867l1.041,1.041c-.578.578-1.156.983-1.677,1.156-.52.231-1.156.347-1.792.347-1.272,0-2.255-.405-3.064-1.156-.809-.752-1.214-1.734-1.214-2.948,0-.752.173-1.445.52-2.081.347-.578.867-1.098,1.561-1.445s1.388-.578,2.197-.578c.636,0,1.272.116,1.908.405.636.289,1.156.636,1.561,1.156Z" fill="#da1f26" stroke-width="0"/>
      <path d="m30.67,48.506h4.856l-2.833,6.417h2.659v1.445h-4.914l2.833-6.359h-2.602v-1.503Z" fill="#da1f26" stroke-width="0"/>
      <path d="m40.903,50.587h1.503v5.781h-1.503v-.636c-.289.289-.578.463-.867.578s-.636.173-.925.173c-.752,0-1.445-.289-1.966-.867-.578-.578-.809-1.272-.809-2.139s.289-1.619.809-2.197,1.214-.867,1.966-.867c.347,0,.694.058.983.173.289.116.578.347.867.578v-.578h-.058Zm-1.561,1.156c-.463,0-.867.173-1.156.463s-.463.752-.463,1.214c0,.52.173.925.463,1.214.289.347.694.463,1.156.463s.867-.173,1.156-.463.463-.752.463-1.272-.173-.925-.463-1.214c-.289-.231-.694-.405-1.156-.405Z" fill="#da1f26" stroke-width="0"/>
      <path d="m48.245,50.587h1.503v4.972c0,.983-.173,1.677-.578,2.139-.52.636-1.33.925-2.428.925-.578,0-1.098-.058-1.445-.231s-.752-.347-.983-.636c-.289-.289-.463-.636-.578-.983h1.619c.173.173.347.289.578.347s.52.116.809.116c.405,0,.694-.058.983-.173.231-.116.405-.289.52-.463.116-.173.173-.52.173-.983-.289.231-.52.463-.809.578s-.636.173-.983.173c-.809,0-1.445-.289-2.023-.867-.52-.578-.809-1.272-.809-2.139,0-.925.289-1.677.867-2.197.52-.52,1.156-.752,1.908-.752.347,0,.636.058.983.173.289.116.636.347.925.578v-.578h-.231Zm-1.503,1.156c-.463,0-.867.173-1.156.463s-.463.694-.463,1.156.173.867.463,1.214c.289.289.694.463,1.156.463s.867-.173,1.156-.463.463-.694.463-1.214c0-.463-.173-.867-.463-1.156s-.694-.463-1.156-.463Z" fill="#da1f26" stroke-width="0"/>
      <path d="m50.905,50.587h1.272v.752c.116-.289.347-.52.578-.636.231-.173.463-.231.752-.231.173,0,.405.058.578.173l-.463,1.272c-.173-.058-.289-.116-.405-.116-.231,0-.405.116-.578.405s-.231.809-.231,1.619v2.602h-1.503v-5.839Z" fill="#da1f26" stroke-width="0"/>
      <path d="m60.733,53.883h-4.798c.058.405.231.752.578.983.289.231.694.347,1.156.347.578,0,1.041-.173,1.445-.578l1.272.578c-.289.405-.694.752-1.098.983-.463.231-.925.289-1.561.289-.925,0-1.677-.289-2.255-.867s-.867-1.272-.867-2.139.289-1.619.867-2.197,1.33-.867,2.197-.867c.925,0,1.677.289,2.255.867s.867,1.33.867,2.313l-.058.289Zm-1.445-1.156c-.116-.347-.289-.578-.578-.809-.289-.173-.636-.289-.983-.289-.405,0-.752.116-1.098.347-.173.116-.405.405-.52.752h3.18Z" fill="#da1f26" stroke-width="0"/>
      <path d="m63.45,48.333v2.891c.289-.289.578-.463.867-.578s.636-.173.983-.173c.752,0,1.445.289,1.966.867s.809,1.33.809,2.197-.289,1.561-.867,2.139-1.214.867-1.966.867c-.347,0-.636-.058-.925-.173-.289-.116-.578-.289-.867-.578v.636h-1.503v-8.094h1.503Zm1.561,3.411c-.463,0-.867.173-1.156.463s-.463.694-.463,1.214.173.925.463,1.272c.289.289.694.463,1.156.463s.809-.173,1.156-.463c.289-.347.463-.752.463-1.214,0-.52-.173-.925-.463-1.214-.347-.347-.694-.52-1.156-.52Z" fill="#da1f26" stroke-width="0"/>
    </g>
  </g>
  <g>
    <path d="m108.207,24.973c.209,0,.402-.085.542-.226.14-.137.225-.329.225-.542s-.085-.405-.225-.542c-.14-.14-.333-.226-.542-.226-.213,0-.405.086-.545.226-.137.138-.223.329-.223.542s.086.405.223.542c.14.14.332.226.545.226" fill="#53c3be" stroke-width="0"/>
    <path d="m115.819,39.694c.213,0,.405-.092.545-.229.137-.137.223-.332.223-.545,0-.207-.086-.402-.223-.54-.14-.142-.332-.228-.545-.228s-.405.085-.542.228c-.14.138-.226.333-.226.54,0,.213.085.408.226.545.137.137.329.229.542.229" fill="#53c3be" stroke-width="0"/>
    <path d="m95.674,35.98c-.213,0-.405.086-.542.226-.14.14-.226.332-.226.542,0,.213.085.405.226.545.137.138.329.226.542.226s.405-.088.542-.226c.141-.14.226-.332.226-.545,0-.21-.085-.402-.226-.542-.137-.14-.329-.226-.542-.226" fill="#53c3be" stroke-width="0"/>
    <path d="m113.554,31.618c.213,0,.405-.086.545-.226.137-.14.226-.332.226-.542,0-.213-.088-.405-.226-.545-.14-.137-.332-.226-.545-.226-.21,0-.401.089-.542.226-.14.14-.226.332-.226.545,0,.21.086.402.226.542.14.14.332.226.542.226" fill="#53c3be" stroke-width="0"/>
    <path d="m101.965,28.622c0-.213-.089-.405-.226-.545-.14-.137-.332-.226-.545-.226-.21,0-.402.089-.542.226-.138.14-.226.332-.226.545,0,.21.088.402.226.542.14.137.332.226.542.225.213,0,.405-.088.545-.225.137-.14.226-.333.226-.542" fill="#53c3be" stroke-width="0"/>
    <path d="m123.16,33.942l-14.643-14.643c-.899-.899-2.355-.899-3.254,0l-14.643,14.643c-.899.899-.899,2.355,0,3.254l14.644,14.643c.297.297.655.493,1.034.594v-6.8s-.005,0-.007,0v-.017h-1.68v-3.933h-3.949v-4.406h-3.251c-.086.289-.244.548-.452.755-.328.331-.784.53-1.283.53s-.955-.199-1.283-.53c-.328-.327-.532-.78-.532-1.284,0-.499.204-.952.532-1.281.329-.329.784-.533,1.283-.533s.955.204,1.283.533c.209.209.367.47.456.764h3.247v-5.877c-.285-.086-.541-.243-.749-.448-.325-.332-.53-.784-.53-1.284,0-.503.205-.956.53-1.284.331-.329.784-.533,1.283-.533.503,0,.955.204,1.284.533.328.328.533.781.533,1.284,0,.5-.204.952-.533,1.284-.213.21-.474.371-.772.456v10.272h3.951v3.941h2.307v-5.742h-3.419v-8.044h3.002v-4.891c-.235-.093-.448-.234-.623-.409-.328-.329-.533-.784-.533-1.284,0-.503.204-.955.533-1.284.328-.328.781-.533,1.284-.533.499,0,.954.205,1.28.533.332.329.532.781.532,1.284,0,.5-.201.956-.532,1.284-.239.239-.547.414-.892.49v5.859h-3.006v5.947h2.374v-2.556h4.972v-2.674c-.252-.093-.478-.238-.662-.422-.332-.332-.533-.785-.533-1.284,0-.503.201-.955.533-1.284.325-.329.781-.533,1.28-.533.502,0,.955.204,1.283.533.328.328.533.781.533,1.284,0,.499-.205.952-.533,1.284-.231.231-.525.401-.857.479v3.663h-4.972v5.239h2.587v-3.107h2.483c.086-.292.247-.556.456-.767.328-.329.784-.533,1.284-.533.502,0,.955.205,1.283.533.328.326.532.783.533,1.281,0,.503-.204.955-.532,1.287-.328.325-.781.53-1.283.53-.499,0-.955-.205-1.283-.53-.205-.206-.363-.468-.452-.751h-1.442v3.106h-3.632v3.055h-1.645v6.845c.422-.089.824-.295,1.152-.623l14.643-14.643c.899-.899.899-2.356,0-3.254" fill="#53c3be" stroke-width="0"/>
    <path d="m153.311,42.37c-2.624,0-4.148-.988-4.148-3.527v-7.224h-1.862v-3.273h1.862v-3.301l4.064-.565v3.866h3.132l-.226,3.273h-2.907v6.66c0,.565.339.762.846.762.452,0,1.101-.056,1.693-.254l.48,3.076c-.903.31-2.003.508-2.935.508" fill="#fff" stroke-width="0"/>
    <path d="m164.621,33.001c0-.959-.282-1.75-1.693-1.75s-1.862.79-1.862,1.75v.593h3.555v-.593h0Zm-3.555,3.64v.395c0,1.581.621,2.004,2.483,2.004,1.27,0,2.963-.226,4.176-.593l.592,3.048c-1.242.451-3.245.875-5.164.875-4.458,0-6.152-2.201-6.152-5.587v-3.217c0-2.963,1.326-5.503,5.898-5.503s5.559,2.709,5.559,5.7v2.878h-7.393Z" fill="#fff" stroke-width="0"/>
    <polygon points="170.237 42.087 170.237 22.729 171.873 22.504 171.873 42.087 170.237 42.087" fill="#fff" stroke-width="0"/>
    <path d="m182.404,36.19h-4.007c-1.891,0-2.455.564-2.455,2.37,0,1.609.339,2.342,2.258,2.342,1.354,0,2.963-.536,4.204-1.411v-3.302h0Zm1.637,5.897h-1.411l-.113-1.072c-1.326.818-2.85,1.354-4.656,1.354-2.427,0-3.556-1.383-3.556-3.838,0-2.907,1.326-3.81,4.035-3.81h4.063v-2.681c0-1.891-.988-2.511-3.245-2.511-1.354,0-2.794.198-4.063.451l-.254-1.383c1.1-.31,2.822-.536,4.233-.536,3.555,0,4.966,1.411,4.966,3.979v10.046Z" fill="#fff" stroke-width="0"/>
    <path d="m188.472,40.592c1.072.197,2.173.282,3.16.282,2.963,0,3.668-1.242,3.668-3.302v-5.531c0-1.637-.734-2.399-2.54-2.399-1.665,0-2.991.452-4.289,1.185v9.764Zm8.465-3.076c0,3.076-1.354,4.853-5.503,4.853-1.185,0-3.33-.198-4.6-.508v-19.132l1.637-.226v6.603c1.129-.593,2.652-1.044,4.515-1.044,2.765,0,3.95,1.58,3.95,4.007v5.446h0Z" fill="#fff" stroke-width="0"/>
    <path d="m128.851,28.063c-1.495,0-2.794.339-3.894.762v-6.66l-4.063.564v5.552l4.068,4.068c.761-.394,1.719-.76,2.592-.76,1.072,0,1.467.564,1.467,1.467v3.556c0,1.298-.367,2.23-2.398,2.23-.564,0-1.072,0-1.665-.057v-.029l-3.278,3.278c1.696.229,3.534.334,4.802.334,5.672,0,6.603-2.511,6.603-5.785v-3.556c0-3.076-1.185-4.966-4.233-4.966" fill="#fff" stroke-width="0"/>
    <path d="m143.897,28.37h-.954l-.939,3.273-1.239,4.318-.615,2.144-2.794-9.736h-4.12l3.619,11.75.062.201c.306.889.932,1.459,1.83,1.772l.02.019-1.608,5.559h3.838l1.729-5.493.021-.067.717-2.284,3.6-11.459h-3.166Z" fill="#fff" stroke-width="0"/>
  </g>
  <g>
    <path d="m16.093,69.188h-4.97v8.656h-.054c-.627-.855-1.352-1.468-2.176-1.839-.824-.314-1.742-.47-2.754-.47-1.979.048-3.492.856-4.54,2.426C.533,79.503,0,81.258,0,83.228,0,85.531.569,87.462,1.706,89.023c1.101,1.589,2.718,2.407,4.849,2.455,1.173-.019,2.207-.321,3.103-.908.887-.581,1.491-1.3,1.814-2.157h.067v2.714h4.554v-21.938h0Zm-10.979,14.154c0-1.048.269-1.934.806-2.658.493-.724,1.227-1.096,2.204-1.115.932.019,1.662.391,2.191,1.115.538.724.816,1.681.834,2.872-.018,1.124-.313,2.039-.887,2.744-.565.743-1.277,1.124-2.137,1.143-.941,0-1.667-.391-2.177-1.172-.555-.724-.833-1.7-.833-2.929Z" fill="#d41f35" fill-rule="evenodd" stroke-width="0"/>
    <path d="m18.356,90.545c2.087.642,4.214.964,6.382.964,2.497.021,4.669-.493,6.516-1.543,1.878-1.059,2.846-2.992,2.906-5.798,0-1.028-.137-1.891-.409-2.587-.283-.706-.672-1.293-1.167-1.761-.475-.467-1.016-.862-1.622-1.184-.596-.312-1.227-.566-1.894-.764-.61-.206-1.222-.408-1.834-.608-.616-.187-1.172-.369-1.667-.545-.495-.187-.889-.42-1.182-.701-.313-.27-.47-.628-.47-1.075.041-.956.518-1.553,1.43-1.792.416-.125.842-.208,1.278-.249.436-.021.831-.031,1.187-.031,1.684,0,3.297.338,4.839,1.014l.365-4.59c-1.53-.529-3.37-.804-5.52-.825-1.09,0-2.175.094-3.255.281-1.09.218-2.095.582-3.015,1.091-.9.509-1.63,1.21-2.19,2.104-.59.893-.885,2.01-.885,3.35.02,1.963.57,3.402,1.651,4.317.495.467,1.05.857,1.666,1.169.606.322,1.217.592,1.832.81.667.208,1.298.411,1.894.608.595.187,1.131.39,1.605.608.505.208.899.483,1.181.826.273.343.409.779.409,1.309-.02.873-.385,1.455-1.093,1.746-.678.301-1.508.442-2.49.421-2.439-.042-4.428-.53-5.966-1.466l-.484,4.902Z" fill="#194891" fill-rule="evenodd" stroke-width="0"/>
    <path d="m35.629,91.126h5.585v-7.789h2.23c5.652-.062,8.518-2.453,8.599-7.172.021-4.896-3.182-7.333-9.608-7.312h-6.805v22.273Zm5.585-18.064h1.545c1.051,0,1.933.203,2.648.608.683.468,1.035,1.264,1.056,2.387-.021,1.133-.373,1.934-1.056,2.403-.715.468-1.597.692-2.648.671h-1.545v-6.069Zm9.026,18.064h5.675l1.657-4.751h7.875l1.554,4.751h6.13l-8.08-22.273h-6.849l-7.963,22.273Zm14.323-8.964h-5.424l2.787-8.718h.076l2.561,8.718Zm26.017,3.793c-1.586.748-3.334,1.132-5.243,1.153-2.085,0-3.759-.629-5.022-1.887-1.302-1.237-1.963-2.952-1.983-5.146.02-2.121.622-3.842,1.807-5.162,1.165-1.341,2.746-2.022,4.744-2.043,1.889,0,3.715.522,5.477,1.567l.455-4.814c-2.006-.727-4.082-1.111-6.224-1.153-3.524,0-6.391.956-8.603,2.866-2.241,1.942-3.381,4.855-3.421,8.739.079,4.154,1.39,7.103,3.935,8.848,1.185.893,2.486,1.542,3.905,1.947,1.41.426,2.814.639,4.213.639,1.419-.021,2.623-.129,3.611-.327.979-.165,1.85-.357,2.613-.575l-.264-4.653Zm16.987.962h-9.533v-5.048h8.697v-4.206h-8.697v-4.601h9.196v-4.209h-14.774v22.273h15.112v-4.209Z" fill="#194891" fill-rule="evenodd" stroke-width="0"/>
  </g>
  <g>
    <g>
      <path d="m325.404,90.597h1.25l2.071,5.539h-1.264l-.42-1.234h-2.071l-.434,1.234h-1.234l2.101-5.539Zm-.115,3.397h1.436l-.698-2.032h-.018l-.721,2.032Z" fill="#fff" stroke-width="0"/>
      <path d="m331.363,90.597h1.218v2.126h2.243v-2.126h1.218v5.539h-1.218v-2.39h-2.243v2.39h-1.218v-5.539Z" fill="#fff" stroke-width="0"/>
      <path d="m338.049,91.504h-1.101v-.908h1.101v.908Zm-1.101.621h1.101v4.012h-1.101v-4.012Z" fill="#fff" stroke-width="0"/>
      <path d="m340.471,92.125h.807v.738h-.807v1.986c0,.372.094.466.466.466.124,0,.241-.007.342-.03v.86c-.186.032-.427.039-.644.039-.683,0-1.264-.147-1.264-.954v-2.367h-.667v-.738h.667v-1.202h1.101v1.202Z" fill="#fff" stroke-width="0"/>
      <path d="m341.914,93.359c.062-1.025.986-1.342,1.885-1.342.798,0,1.761.179,1.761,1.14v2.087c0,.365.039.729.14.892h-1.117c-.039-.124-.071-.257-.078-.388-.349.365-.853.496-1.351.496-.768,0-1.365-.381-1.365-1.202.016-1.823,2.716-.846,2.67-1.746,0-.466-.326-.543-.713-.543-.427,0-.69.17-.729.605h-1.103Zm2.544.814c-.186.163-.574.17-.915.234-.342.062-.651.186-.651.59s.319.512.674.512c.862,0,.892-.674.892-.924v-.411Z" fill="#fff" stroke-width="0"/>
      <path d="m349.066,93.538c-.069-.459-.342-.69-.814-.69-.706,0-.938.713-.938,1.303,0,.582.225,1.264.915,1.264.52,0,.807-.319.876-.814h1.064c-.147,1.062-.869,1.645-1.931,1.645-1.211,0-2.025-.853-2.025-2.055,0-1.25.745-2.172,2.048-2.172.947,0,1.823.496,1.885,1.521h-1.08Z" fill="#fff" stroke-width="0"/>
      <path d="m350.865,90.597h1.101v2.087h.023c.28-.459.759-.667,1.172-.667,1.172,0,1.466.66,1.466,1.653v2.468h-1.101v-2.266c0-.66-.186-.986-.706-.986-.598,0-.853.333-.853,1.149v2.103h-1.101v-5.541Z" fill="#fff" stroke-width="0"/>
      <path d="m356.521,91.504h-1.101v-.908h1.101v.908Zm-1.101.621h1.101v4.012h-1.101v-4.012Z" fill="#fff" stroke-width="0"/>
      <path d="m363.356,95.508c-.434.559-.986.759-1.521.759-1.707,0-2.723-1.28-2.723-2.879,0-1.645,1.016-2.925,2.723-2.925,1.133,0,2.211.69,2.335,1.956h-1.163c-.147-.621-.59-.931-1.172-.931-1.094,0-1.505.931-1.505,1.901,0,.924.411,1.854,1.505,1.854.798,0,1.25-.418,1.319-1.195h-1.227v-.908h2.328v2.995h-.775l-.124-.628Z" fill="#fff" stroke-width="0"/>
      <path d="m365.125,92.125h1.048v.745h.016c.209-.505.729-.853,1.28-.853.085,0,.163.016.241.039v1.025c-.101-.023-.264-.039-.395-.039-.814,0-1.087.574-1.087,1.289v1.807h-1.101v-4.013h-.002Z" fill="#fff" stroke-width="0"/>
      <path d="m369.935,92.017c1.264,0,2.08.837,2.08,2.117,0,1.273-.814,2.11-2.08,2.11-1.257,0-2.071-.837-2.071-2.11,0-1.28.814-2.117,2.071-2.117Zm0,3.397c.752,0,.977-.636.977-1.28s-.225-1.287-.977-1.287c-.745,0-.97.644-.97,1.287s.225,1.28.97,1.28Z" fill="#fff" stroke-width="0"/>
      <path d="m376.258,96.137h-1.048v-.559h-.023c-.28.459-.761.667-1.225.667-1.172,0-1.466-.659-1.466-1.652v-2.468h1.101v2.266c0,.66.186.986.706.986.597,0,.853-.335.853-1.149v-2.103h1.101v4.012h0Z" fill="#fff" stroke-width="0"/>
      <path d="m376.94,92.125h1.048v.512h.016c.271-.434.698-.621,1.195-.621,1.257,0,1.823,1.016,1.823,2.156,0,1.071-.582,2.071-1.761,2.071-.489,0-.931-.209-1.202-.605h-.016v1.908h-1.101v-5.421h-.002Zm2.979,2.018c0-.644-.257-1.296-.961-1.296-.722,0-.954.644-.954,1.296s.248,1.273.961,1.273c.721-.002.954-.621.954-1.273Z" fill="#fff" stroke-width="0"/>
      <path d="m386.947,92.458c-.085-.551-.613-.97-1.211-.97-1.094,0-1.505.931-1.505,1.901,0,.924.411,1.854,1.505,1.854.745,0,1.163-.505,1.257-1.241h1.179c-.124,1.39-1.071,2.266-2.436,2.266-1.707,0-2.723-1.28-2.723-2.879,0-1.645,1.016-2.925,2.723-2.925,1.211,0,2.243.713,2.39,1.993h-1.179Z" fill="#fff" stroke-width="0"/>
      <path d="m390.679,92.017c1.266,0,2.08.837,2.08,2.117,0,1.273-.814,2.11-2.08,2.11-1.257,0-2.071-.837-2.071-2.11-.002-1.28.814-2.117,2.071-2.117Zm0,3.397c.752,0,.977-.636.977-1.28s-.225-1.287-.977-1.287c-.745,0-.97.644-.97,1.287,0,.644.225,1.28.97,1.28Z" fill="#fff" stroke-width="0"/>
      <path d="m393.037,92.125h1.039v.543h.016c.287-.411.698-.651,1.227-.651.505,0,.954.179,1.172.667.241-.349.651-.667,1.211-.667.853,0,1.466.395,1.466,1.436v2.686h-1.101v-2.273c0-.535-.046-.977-.674-.977-.621,0-.736.52-.736,1.016v2.234h-1.101v-2.25c0-.466.032-1-.667-1-.218,0-.745.14-.745.924v2.328h-1.101v-4.015h-.004Z" fill="#fff" stroke-width="0"/>
      <path d="m399.802,92.125h1.048v.512h.016c.271-.434.698-.621,1.195-.621,1.257,0,1.823,1.016,1.823,2.156,0,1.071-.582,2.071-1.761,2.071-.489,0-.931-.209-1.202-.605h-.016v1.908h-1.101v-5.421h-.002Zm2.979,2.018c0-.644-.257-1.296-.961-1.296-.722,0-.954.644-.954,1.296s.248,1.273.961,1.273c.721-.002.954-.621.954-1.273Z" fill="#fff" stroke-width="0"/>
      <path d="m404.339,93.359c.062-1.025.984-1.342,1.885-1.342.798,0,1.761.179,1.761,1.14v2.087c0,.365.039.729.14.892h-1.117c-.039-.124-.069-.257-.078-.388-.349.365-.853.496-1.351.496-.768,0-1.365-.381-1.365-1.202.016-1.823,2.716-.846,2.67-1.746,0-.466-.326-.543-.713-.543-.427,0-.69.17-.729.605h-1.103Zm2.546.814c-.186.163-.574.17-.915.234-.342.062-.651.186-.651.59s.319.512.674.512c.86,0,.892-.674.892-.924v-.411Z" fill="#fff" stroke-width="0"/>
      <path d="m408.683,92.125h1.048v.559h.023c.28-.459.759-.667,1.225-.667,1.172,0,1.466.66,1.466,1.653v2.468h-1.101v-2.266c0-.66-.186-.986-.706-.986-.597,0-.853.333-.853,1.149v2.103h-1.101v-4.013h0Z" fill="#fff" stroke-width="0"/>
      <path d="m415.108,96.641c-.241.644-.628.908-1.381.908-.225,0-.45-.016-.674-.039v-.908c.209.023.427.046.644.039.287-.032.427-.257.427-.505,0-.085-.016-.172-.046-.248l-1.413-3.764h1.179l.908,2.748h.016l.876-2.748h1.14l-1.676,4.516Z" fill="#fff" stroke-width="0"/>
    </g>
    <g>
      <g>
        <path d="m332.176,76.909h6.228c-.807,2.864-3.436,4.971-6.555,4.971-3.751,0-6.809-3.056-6.809-6.814s3.059-6.812,6.809-6.812c2.84,0,5.276,1.747,6.299,4.222h1.848c-1.099-3.454-4.334-5.957-8.147-5.957-4.709,0-8.547,3.833-8.547,8.547s3.838,8.551,8.547,8.551c2.693,0,5.198-1.351,6.662-3.305v2.937h1.583v-8.048h-7.917v1.708Z" fill="#fff" stroke-width="0"/>
        <rect x="342.983" y="67.05" width="1.705" height="16.197" fill="#fff" stroke-width="0"/>
        <rect x="393.356" y="67.05" width="1.707" height="16.177" fill="#fff" stroke-width="0"/>
        <path d="m353.575,82.075c-2.622,0-4.748-2.252-4.748-4.865s2.126-4.852,4.748-4.852,4.748,2.232,4.748,4.852-2.133,4.865-4.748,4.865m0-11.337c-3.571,0-6.474,2.902-6.474,6.472s2.902,6.469,6.474,6.469,6.474-2.905,6.474-6.471c-.002-3.571-2.907-6.471-6.474-6.471" fill="#fff" stroke-width="0"/>
        <path d="m368.499,82.075c-2.624,0-4.75-2.252-4.75-4.867s2.128-4.852,4.75-4.852,4.744,2.232,4.744,4.852-2.128,4.867-4.744,4.867m.073-11.457c-1.915,0-3.633.844-4.824,2.177v-5.745h-1.703v16.198h1.703v-1.629c1.191,1.333,2.909,2.172,4.824,2.172,3.596,0,6.515-2.946,6.515-6.584,0-3.64-2.919-6.591-6.515-6.591" fill="#fff" stroke-width="0"/>
        <path d="m383.892,82.068c-2.617,0-4.748-2.252-4.748-4.87s2.131-4.852,4.748-4.852,4.746,2.234,4.746,4.852-2.126,4.87-4.746,4.87m4.76-9.25c-1.207-1.349-2.953-2.201-4.906-2.201-3.64,0-6.589,2.951-6.589,6.591s2.949,6.584,6.589,6.586c1.953,0,3.698-.853,4.906-2.197v1.652h1.723v-11.861h-1.723v1.43Z" fill="#fff" stroke-width="0"/>
        <rect x="439.935" y="65.402" width="3.024" height="2.864" fill="#fff" stroke-width="0"/>
        <polygon points="401.142 67.05 398.373 67.05 398.373 80.631 398.373 83.233 407.448 83.233 407.448 80.631 401.142 80.631 401.142 67.05" fill="#fff" stroke-width="0"/>
        <rect x="439.935" y="70.499" width="3.024" height="12.711" fill="#fff" stroke-width="0"/>
        <path d="m415.124,81.025c-2.022,0-3.666-1.76-3.666-3.928s1.645-3.927,3.666-3.927,3.665,1.758,3.665,3.927-1.643,3.928-3.665,3.928m0-10.569c-3.666,0-6.642,2.974-6.642,6.64s2.976,6.639,6.642,6.639,6.637-2.971,6.637-6.639-2.972-6.64-6.637-6.64" fill="#fff" stroke-width="0"/>
        <path d="m455.563,78.885c-.605,1.289-1.845,2.172-3.279,2.172-2.023,0-3.666-1.765-3.666-3.934,0-2.369,1.643-3.93,3.666-3.93,1.365,0,2.558.8,3.188,1.983h3.165c-.829-2.719-3.362-4.698-6.355-4.698-3.666,0-6.648,2.976-6.648,6.651s2.983,6.642,6.648,6.642c3.061,0,5.631-2.069,6.405-4.884h-3.125v-.002Z" fill="#fff" stroke-width="0"/>
        <path d="m429.886,87.627c-1.353,0-2.648-.71-3.434-1.776l-2.686,1.308c1.268,1.988,3.385,3.31,6.12,3.307,3.541,0,6.439-2.799,6.725-6.193h-3.038c-.26,1.894-1.811,3.353-3.688,3.353" fill="#fff" stroke-width="0"/>
        <path d="m430.026,81.087c-2.015,0-3.649-1.758-3.649-3.916s1.636-3.912,3.649-3.912,3.657,1.751,3.657,3.912c0,2.158-1.638,3.916-3.657,3.916m3.884-9.264c-1.094-.79-2.431-1.264-3.884-1.264-3.649,0-6.614,2.96-6.614,6.616s2.964,6.61,6.614,6.61,6.6-2.944,6.616-6.582v-6.692h-2.732v1.312Z" fill="#fff" stroke-width="0"/>
      </g>
      <path d="m461.235,68.268c0-1.053.798-1.827,1.795-1.827s1.79.774,1.79,1.827c0,1.048-.791,1.82-1.79,1.82s-1.795-.772-1.795-1.82Zm3.309,0c0-.917-.641-1.59-1.515-1.59-.866,0-1.508.673-1.508,1.59,0,.91.643,1.577,1.508,1.577.875,0,1.515-.667,1.515-1.577Zm-2.225-.991h.905c.356,0,.623.218.623.549,0,.225-.117.398-.391.467v.007c.225.057.299.168.324.405.032.267.032.467.094.492v.032h-.374c-.057-.025-.064-.23-.081-.455-.012-.211-.131-.329-.368-.329h-.349v.786h-.381v-1.954h-.002Zm.381.873h.437c.218,0,.331-.112.331-.28,0-.163-.106-.274-.324-.274h-.443v.554h-.002Z" fill="#fff" stroke-width="0"/>
    </g>
  </g>
  <image width="2127" height="1507" transform="translate(721.626 19.272) scale(.021)" xlink:href="partneri logo_pago.png"/>
  <path d="m580.686,31.259v-6.451h-53.723v15.196h22.065v7.828h-18.227v-2.686h-3.837v6.523h53.723v-6.632h-3.837v2.795h-20.146v-19.187h20.146v2.614h3.837Zm-49.885,4.907v-7.521h18.227v2.379h3.837v5.142h-22.065Z" fill="#0676b3" stroke-width="0"/>
  <g>
    <path d="m502.765,23.178c.585.109,1.174.197,1.753.33,3.563.822,6.109,3.551,6.705,7.173.551,3.347-1.122,6.784-4.212,8.655-.257.156-.511.319-.823.514,1.94,3.848,3.86,7.656,5.869,11.641-2.264,0-4.354.03-6.44-.035-.287-.009-.661-.433-.825-.752-1.555-3.026-3.11-6.053-4.581-9.12-.423-.883-.904-1.309-1.904-1.171-.636.088-1.295.016-2.023.016v-6.013c.302-.029.627-.087.953-.088,1.61-.01,3.223-.075,4.828.013,2.146.117,3.068-1.196,3.091-2.456.028-1.549-1.114-2.467-3.059-2.468-8.508-.001-17.016,0-25.525,0-.456,0-.911,0-1.403,0v-6.239c9.199,0,18.397,0,27.596,0Z" fill="#fff" stroke-width="0"/>
    <path d="m468.96,23.178v6.173h-17.899v22.113h-6.247v-28.286h24.146Z" fill="#fff" stroke-width="0"/>
    <path d="m460.025,51.41v-5.872h36.228v5.872h-36.228Z" fill="#fff" stroke-width="0"/>
    <path d="m490.185,34.492v5.867h-35.664v-5.867h35.664Z" fill="#fff" stroke-width="0"/>
  </g>
  <g>
    <path d="m233.307,17.326s1.132-2.624,2.624-5.361c1.493-2.737,2.997-4.726,3.868-7.476.871-2.748.995-4.49.995-4.49,0,0-1.505,3.868-2.5,5.983-.995,2.115-2.475,2.985-3.732,5.983-1.256,2.997-1.878,4.987-1.878,4.987l-1.244.746s-1.617-1.866-4.117-2.612c-2.5-.746-3.868-1.629-4.863-2.127s-2.5-1.742-2.5-1.742c0,0,.871,2.5,3.495,3.371,2.624.871,4.863,1.368,5.361,1.866.498.498,1.38,1.368,1.38,1.368,0,0,.373,3.246,2.115,3.122,1.742-.125,1.368-1.368,1.119-1.99-.249-.622-.124-1.629-.124-1.629" fill="#cb2329" stroke-width="0"/>
    <path d="m225.947,26.906c-1.204-1.351-2.71-2.026-4.52-2.026-1.571,0-2.977.644-4.217,1.93v-6.891h-3.101v18.756h3.101v-1.406c1.222,1.195,2.609,1.791,4.162,1.791,1.837,0,3.358-.671,4.562-2.012,1.212-1.351,1.819-3.059,1.819-5.127,0-2.002-.602-3.674-1.806-5.016Zm-2.439,8.186c-.707.799-1.599,1.199-2.674,1.199-1.139,0-2.058-.399-2.756-1.199-.699-.781-1.047-1.824-1.047-3.128,0-1.268.354-2.296,1.061-3.087.717-.799,1.644-1.199,2.784-1.199,1.065,0,1.952.413,2.66,1.24.698.809,1.047,1.856,1.047,3.142,0,1.214-.358,2.223-1.075,3.032Z" fill="#fff" stroke-width="0"/>
    <rect x="230.924" y="25.253" width="3.101" height="13.423" fill="#fff" stroke-width="0"/>
    <path d="m237.92,25.252h3.101v1.199c.57-.597,1.075-1.006,1.516-1.227.45-.23.983-.344,1.599-.345.817,0,1.672.267,2.563.799l-1.42,2.839c-.589-.422-1.162-.633-1.723-.634-1.691,0-2.536,1.277-2.536,3.831v6.96h-3.101v-13.423h0Z" fill="#fff" stroke-width="0"/>
    <path d="m258.183,19.919v6.89c-1.24-1.286-2.646-1.93-4.217-1.93-1.81,0-3.312.676-4.506,2.026-1.204,1.341-1.805,3.013-1.805,5.016,0,2.049.602,3.758,1.805,5.127,1.213,1.341,2.738,2.012,4.575,2.012,1.544,0,2.926-.597,4.148-1.791v1.406h3.115v-18.756h-3.115Zm-.868,15.186c-.707.791-1.635,1.185-2.784,1.185-1.075,0-1.966-.409-2.673-1.226-.689-.808-1.034-1.856-1.034-3.142,0-1.203.353-2.214,1.061-3.032.717-.808,1.607-1.213,2.674-1.213,1.13,0,2.049.4,2.756,1.199.707.818,1.061,1.857,1.061,3.114,0,1.259-.354,2.297-1.061,3.115Z" fill="#fff" stroke-width="0"/>
    <g>
      <path d="m214.13,45.378c0-.139.048-.257.146-.354.097-.097.215-.145.354-.145s.256.05.354.149c.097.099.146.216.146.351,0,.139-.05.257-.149.354-.099.097-.216.145-.351.145-.139,0-.257-.049-.354-.145-.097-.097-.146-.215-.146-.354Zm.22,7.505v-5.625h.547v5.625h-.547Z" fill="#fff" stroke-width="0"/>
      <path d="m217.21,52.883v-5.625h.547v.874h.024c.163-.309.389-.553.681-.731s.621-.268.99-.268c.365,0,.664.056.898.167s.422.268.565.47.243.447.3.735c.057.287.086.615.086.984v3.395h-.547v-3.395c0-.25-.013-.487-.039-.714-.026-.226-.085-.421-.178-.586-.093-.164-.229-.296-.407-.395s-.422-.149-.731-.149c-.357,0-.642.075-.856.226s-.379.344-.494.58c-.115.236-.192.5-.232.791-.04.291-.059.58-.059.865v2.777h-.547Z" fill="#fff" stroke-width="0"/>
      <path d="m222.846,50.058c0-.404.072-.786.217-1.145.145-.359.347-.67.606-.933.26-.264.567-.471.922-.621s.738-.226,1.151-.226c.365,0,.711.057,1.041.172.329.115.636.289.922.523v.731c-.27-.293-.567-.519-.892-.678-.325-.158-.69-.238-1.094-.238-.333,0-.642.066-.925.196-.284.131-.529.308-.738.532-.208.224-.371.481-.488.773-.117.291-.176.595-.176.913s.058.623.176.919c.117.295.279.555.488.779.208.224.452.403.731.535.279.133.586.2.919.2.404,0,.785-.091,1.142-.274s.666-.428.928-.738v.743c-.285.25-.603.44-.951.571-.349.131-.714.196-1.094.196-.412,0-.796-.074-1.151-.223-.355-.148-.66-.355-.916-.619-.256-.263-.456-.575-.601-.933-.144-.359-.216-.744-.216-1.157Z" fill="#fff" stroke-width="0"/>
      <path d="m229.327,50.629v-3.372h.553v3.175c0,.27.014.53.042.782.028.251.09.47.187.657.097.187.243.336.437.449.194.112.462.169.803.169s.61-.057.806-.169c.196-.113.343-.263.44-.449.097-.187.159-.405.187-.657.028-.252.042-.513.042-.782v-3.175h.547v3.372c0,.285-.012.568-.036.847-.024.279-.125.538-.303.776-.194.261-.444.45-.749.565-.306.115-.616.172-.933.172s-.627-.058-.931-.176c-.303-.117-.552-.304-.746-.562-.178-.234-.28-.491-.306-.773-.026-.282-.039-.565-.039-.85Z" fill="#fff" stroke-width="0"/>
      <path d="m235.38,52.883v-10.05h.547v5.399h.024c.234-.357.544-.629.931-.818.386-.188.798-.282,1.234-.282.42,0,.799.073,1.139.22.338.147.628.35.868.609.24.26.424.566.553.919s.193.738.193,1.154c0,.412-.065.797-.193,1.154s-.313.67-.553.94c-.24.27-.532.481-.877.634-.345.153-.73.229-1.154.229-.21,0-.418-.024-.624-.071-.206-.048-.405-.12-.597-.217-.192-.097-.367-.215-.523-.354-.157-.139-.288-.297-.395-.476h-.024v1.011h-.547Zm.511-2.837c0,.333.051.645.152.936.101.292.247.551.437.779.19.228.421.406.693.535.272.129.582.193.931.193.341,0,.65-.067.928-.2.277-.133.512-.313.702-.541.19-.228.336-.49.437-.785.101-.296.152-.606.152-.931,0-.309-.053-.607-.158-.895-.105-.287-.255-.541-.449-.761-.194-.22-.426-.397-.696-.532-.27-.135-.565-.202-.886-.202-.357,0-.674.063-.951.19-.278.127-.512.297-.702.511s-.336.468-.437.761-.152.607-.152.94Z" fill="#fff" stroke-width="0"/>
      <path d="m241.867,50.034c0-.412.064-.796.193-1.151.129-.355.311-.662.547-.922.236-.26.524-.463.865-.609.341-.147.722-.22,1.142-.22.44,0,.854.094,1.24.282.386.188.696.461.931.818h.024v-.975h.547v5.625h-.547v-1.011h-.024c-.107.178-.24.337-.399.476-.158.139-.333.257-.523.354-.19.097-.39.169-.6.217-.211.048-.418.071-.625.071-.432,0-.817-.076-1.157-.229-.339-.153-.628-.364-.868-.634s-.424-.583-.553-.94c-.129-.356-.193-.741-.193-1.153Zm.547,0c0,.325.051.635.152.931.101.295.249.557.443.785.194.228.427.408.699.541.272.133.578.2.918.2.357,0,.674-.067.951-.2.278-.133.509-.315.696-.547.186-.231.328-.5.425-.802.097-.304.146-.625.146-.966,0-.325-.053-.63-.158-.916-.105-.285-.257-.531-.455-.738-.198-.206-.436-.371-.714-.494-.277-.123-.587-.184-.928-.184-.325,0-.621.067-.889.202s-.496.314-.687.538c-.19.224-.338.48-.443.767-.105.288-.158.582-.158.883Z" fill="#fff" stroke-width="0"/>
      <path d="m248.883,47.769v-.511h.624v-2.01h.547v2.01h.987v.511h-.987v5.114h-.547v-5.114h-.624Z" fill="#fff" stroke-width="0"/>
      <path d="m251.665,50.082c0-.404.074-.786.223-1.145.148-.359.355-.672.619-.94.263-.267.575-.479.933-.633s.74-.232,1.145-.232c.412,0,.8.075,1.162.226.363.151.676.356.94.615.264.26.473.57.628.931s.232.749.232,1.166c0,.412-.077.798-.232,1.157-.155.359-.364.67-.628.933-.264.264-.576.468-.936.613-.361.144-.749.217-1.166.217-.404,0-.784-.076-1.139-.229-.355-.153-.664-.362-.928-.628s-.472-.575-.625-.928-.229-.727-.229-1.124Zm.547,0c0,.317.058.621.176.913.117.292.281.549.493.773.212.224.46.4.744.53.283.129.591.193.924.193.341,0,.661-.061.96-.181.299-.121.559-.292.779-.511.22-.22.393-.476.52-.768.127-.291.19-.607.19-.948,0-.349-.063-.672-.19-.969s-.301-.555-.52-.773c-.22-.218-.478-.389-.773-.511-.296-.123-.618-.184-.966-.184-.333,0-.643.066-.931.196s-.535.308-.743.532c-.208.224-.371.484-.488.779-.117.296-.176.606-.176.931Z" fill="#fff" stroke-width="0"/>
      <path d="m259.092,52.883v-5.625h.547v.731h.024c.115-.261.272-.47.47-.624.198-.155.448-.232.749-.232.115,0,.219.013.312.039.093.025.187.058.283.098l-.292.487c-.063-.039-.126-.068-.187-.086-.062-.018-.13-.027-.205-.027-.309,0-.542.085-.698.256-.157.17-.27.378-.339.621-.069.244-.106.501-.11.773-.004.272-.006.511-.006.717v2.872h-.547Z" fill="#fff" stroke-width="0"/>
    </g>
  </g>
  <g>
    <path d="m681.039,40.371h0c-3.675-2.508-6.213-3.033-8.021-1.342-1.692,1.604-.7,4.579.7,6.65,1.517,1.983,4.054,3.85,6.096,2.742,2.188-1.196,2.479-3.792,1.225-8.05m-2.858,6.884c-.963.758-3.588-1.721-3.821-2.071h0c-.233-.321-1.808-3.588-.788-4.259,1.429-.963,4.959.992,5.075,1.138.117.175.875,4.142-.467,5.192" fill="#fff" fill-rule="evenodd" stroke-width="0"/>
    <path d="m684.335,37.979h0c-3.267-1.517-5.338-1.429-6.621-1.196-.117.029-.204.058-.175.117.029.029.058.029.175.088,1.721.642,3.354,1.488,4.55,2.508h0c.613,1.458.904,3.267.992,5.104,0,.117,0,.146.029.175s.088-.029.146-.117c.613-1.167,1.342-3.121.904-6.68h0" fill="#fff" fill-rule="evenodd" stroke-width="0"/>
    <path d="m686.989,36.054h0c-1.313-.817-3.588-.933-5.104-.496-.146.029-.175.088-.175.117.029.029.058.058.146.058,1.925.467,2.858.875,3.704,1.342.175.963.321,1.954.146,3.938,0,.088,0,.117.029.146s.088,0,.146-.117c.875-1.283,1.488-3.471,1.108-4.988h0" fill="#fff" fill-rule="evenodd" stroke-width="0"/>
    <path d="m692.794,44.192h0c-3.529,2.713-4.813,4.959-3.763,7.205.992,2.1,4.142,2.1,6.534,1.371h0c2.363-.817,4.929-2.654,4.492-4.959-.438-2.421-2.8-3.5-7.263-3.617m5.688,4.842c.438,1.138-2.742,2.858-3.121,2.975-.379.117-3.967.613-4.288-.583-.467-1.633,2.479-4.404,2.654-4.463.146-.029,4.171.467,4.754,2.071" fill="#fff" fill-rule="evenodd" stroke-width="0"/>
    <path d="m691.54,40.313h0c-2.45,2.625-3.004,4.638-3.179,5.921,0,.117,0,.204.058.175.029,0,.058-.029.117-.146,1.138-1.429,2.45-2.713,3.792-3.559h0c1.575-.117,3.384.146,5.163.642.117.029.146.058.175.029.058,0,0-.088-.058-.175-.904-.904-2.538-2.217-6.067-2.888h0" fill="#fff" fill-rule="evenodd" stroke-width="0"/>
    <path d="m690.548,37.221h0c-1.196.992-1.983,3.15-2.042,4.696,0,.146,0,.204.058.204.029,0,.058-.058.117-.117,1.021-1.692,1.721-2.421,2.421-3.092.963.117,1.954.321,3.792,1.079.088.029.117.029.146.029s.029-.088-.058-.175c-.992-1.283-2.888-2.538-4.434-2.625h0" fill="#fff" fill-rule="evenodd" stroke-width="0"/>
    <path d="m700.086,34.187h0c1.488,4.2,3.238,6.096,5.717,5.804,2.333-.292,3.267-3.296,3.325-5.804h0c-.058-2.508-1.021-5.513-3.325-5.804-2.479-.321-4.229,1.604-5.717,5.804m6.359-3.909c1.225-.058,1.867,3.5,1.867,3.909h0c0,.408-.642,3.938-1.867,3.909-1.692-.058-3.413-3.734-3.442-3.909.029-.175,1.75-3.85,3.442-3.909" fill="#fff" fill-rule="evenodd" stroke-width="0"/>
    <path d="m696.002,34.187h0c1.75,3.15,3.471,4.288,4.667,4.871.088.058.204.058.204,0,0-.029-.029-.058-.088-.175-1.021-1.546-1.838-3.179-2.217-4.696h0c.379-1.546,1.196-3.179,2.217-4.696.058-.088.088-.117.088-.175s-.088-.029-.204,0c-1.196.583-2.917,1.721-4.667,4.871h0" fill="#fff" fill-rule="evenodd" stroke-width="0"/>
    <path d="m692.735,34.187h0c.583,1.429,2.363,2.858,3.85,3.384.117.058.204.058.204,0,0-.029-.029-.058-.088-.146-1.283-1.517-1.779-2.392-2.188-3.267.408-.875.904-1.75,2.188-3.267.058-.058.088-.117.088-.146s-.058-.029-.204,0c-1.488.583-3.267,2.013-3.85,3.442h0" fill="#fff" fill-rule="evenodd" stroke-width="0"/>
    <path d="m692.794,24.183h0c4.463-.146,6.825-1.196,7.292-3.646.438-2.304-2.129-4.142-4.492-4.959h0c-2.392-.729-5.542-.729-6.534,1.371-1.079,2.275.233,4.521,3.734,7.234m-1.721-7.263c.321-1.167,3.909-.7,4.288-.583h0c.379.117,3.559,1.838,3.15,2.975-.583,1.604-4.609,2.1-4.784,2.071-.175-.058-3.121-2.829-2.654-4.463" fill="#fff" fill-rule="evenodd" stroke-width="0"/>
    <path d="m691.54,28.062h0c3.529-.671,5.163-1.983,6.067-2.917.088-.088.117-.175.058-.175-.029,0-.058,0-.175.029-1.779.496-3.588.758-5.163.642h0c-1.342-.817-2.654-2.1-3.792-3.559-.088-.088-.088-.117-.117-.146-.058-.029-.058.088-.058.175.175,1.313.729,3.325,3.179,5.95h0" fill="#fff" fill-rule="evenodd" stroke-width="0"/>
    <path d="m690.548,31.154h0c1.546-.117,3.471-1.371,4.404-2.596.088-.117.117-.175.088-.175s-.088,0-.146.029c-1.838.758-2.829.963-3.792,1.079-.7-.671-1.4-1.4-2.421-3.092-.058-.058-.088-.117-.117-.117s-.058.058-.058.175c.029,1.575.846,3.704,2.042,4.696h0" fill="#fff" fill-rule="evenodd" stroke-width="0"/>
    <path d="m681.039,28.004h0c1.254-4.259.963-6.855-1.225-8.05-2.042-1.138-4.579.729-6.096,2.742-1.429,2.071-2.421,5.046-.7,6.65,1.808,1.692,4.346,1.167,8.021-1.342m-7.438-.583c-1.021-.671.554-3.938.788-4.259h0c.233-.321,2.858-2.829,3.821-2.071,1.342,1.05.583,5.017.496,5.163-.146.175-3.704,2.1-5.104,1.167" fill="#fff" fill-rule="evenodd" stroke-width="0"/>
    <path d="m684.335,30.395h0c.438-3.559-.292-5.513-.904-6.68-.058-.088-.117-.146-.146-.117s-.029.058-.029.175c-.088,1.838-.379,3.646-.992,5.104h0c-1.196,1.021-2.829,1.867-4.55,2.508-.117.029-.146.058-.175.088s.058.088.175.117c1.283.233,3.354.321,6.621-1.196h0" fill="#fff" fill-rule="evenodd" stroke-width="0"/>
    <path d="m686.989,32.321h0c.379-1.517-.233-3.704-1.108-4.988-.088-.117-.146-.146-.146-.117-.029.029-.029.058-.029.146.175,1.983.029,2.975-.146,3.938-.846.467-1.779.904-3.704,1.371-.088.029-.117.029-.146.058-.029.029.029.058.175.117,1.488.408,3.792.292,5.104-.525h0" fill="#fff" fill-rule="evenodd" stroke-width="0"/>
    <path d="m625.24,40.05c-.963-2.246-6.096-14.263-6.096-14.263h-4.492l9.859,23.043h1.546l9.713-23.043h-4.492c.029.029-5.075,12.017-6.038,14.263m19.572,4.725v-18.959h-4.375v23.043h16.509v-4.084h-12.134" fill="#fff" fill-rule="evenodd" stroke-width="0"/>
    <path d="m606.719,25.816h-3.033l-9.83,23.043h4.55s1.983-4.696,2.246-5.338h9.363c.292.642,2.421,5.338,2.421,5.338h4.55l-10.267-23.043Zm1.517,13.651h-5.863c.496-1.196,2.1-5.017,2.829-6.709.758,1.692,2.479,5.513,3.033,6.709h0Z" fill="#fff" fill-rule="evenodd" stroke-width="0"/>
  </g>
  <g>
    <path d="m314.413,45.905c-1.243-.004-2.475-.226-3.641-.656-1.221-.445-2.336-1.139-3.275-2.038l2.382-2.92c1.314,1.072,2.951,1.669,4.646,1.694.615.044,1.23-.092,1.769-.393.186-.123.338-.292.44-.491.102-.199.15-.421.141-.644.008-.156-.017-.312-.072-.459-.056-.146-.141-.279-.251-.391-.263-.238-.565-.429-.893-.565-.382-.172-.834-.36-1.361-.57l-2.35-.99c-.664-.266-1.285-.629-1.845-1.076-.57-.461-1.037-1.037-1.371-1.689-.366-.725-.551-1.527-.538-2.339-.009-1.006.293-1.991.866-2.818.606-.867,1.425-1.565,2.377-2.027,1.091-.525,2.29-.787,3.501-.764,1.103.001,2.196.203,3.227.597,1.036.376,1.986.958,2.791,1.71l-2.35,2.947c-.569-.422-1.193-.764-1.855-1.016-.576-.213-1.187-.321-1.801-.317-.548-.028-1.093.101-1.57.371-.185.11-.337.268-.439.457-.102.189-.151.403-.142.618-.003.153.026.305.084.447.058.142.145.27.255.376.283.261.616.463.979.591l1.457.597,2.296.909c.706.272,1.362.659,1.941,1.145.529.451.953,1.013,1.242,1.646.311.708.461,1.475.441,2.248.007,1.018-.279,2.017-.823,2.877-.587.926-1.419,1.671-2.404,2.151-1.205.562-2.527.83-3.856.78Z" fill="#fff" stroke-width="0"/>
    <path d="m331.328,45.905c-1.555.031-3.088-.367-4.431-1.151-1.295-.786-2.33-1.936-2.974-3.307-.751-1.619-1.119-3.389-1.076-5.173-.051-1.774.318-3.536,1.076-5.141.651-1.346,1.686-2.468,2.974-3.227,1.363-.734,2.886-1.119,4.434-1.119s3.071.384,4.434,1.119c1.287.76,2.321,1.882,2.974,3.227.758,1.605,1.126,3.367,1.076,5.141.044,1.784-.325,3.554-1.076,5.173-.639,1.366-1.663,2.516-2.947,3.307-1.353.789-2.898,1.187-4.463,1.151Zm0-3.915c.745.02,1.473-.226,2.054-.694.627-.525,1.09-1.219,1.334-2.001.325-.983.479-2.014.457-3.049.027-1.025-.128-2.046-.457-3.017-.247-.747-.705-1.406-1.318-1.898-.597-.434-1.316-.667-2.054-.667s-1.457.234-2.054.667c-.61.496-1.067,1.154-1.317,1.898-.325.972-.477,1.993-.452,3.017-.021,1.034.132,2.065.452,3.049.246.77.703,1.455,1.317,1.979.575.468,1.297.719,2.038.71v.005Z" fill="#fff" stroke-width="0"/>
    <path d="m355.751,45.558v-18.446h5.377c1.688-.037,3.363.288,4.916.952,1.381.61,2.53,1.649,3.275,2.963.839,1.614,1.239,3.42,1.162,5.238.072,1.824-.329,3.635-1.162,5.259-.735,1.324-1.862,2.387-3.227,3.044-1.478.683-3.093,1.021-4.722.99h-5.619Zm4.533-3.625h.538c.887.014,1.766-.16,2.581-.511.776-.361,1.406-.976,1.785-1.742.483-1.071.707-2.241.651-3.415.059-1.16-.164-2.317-.651-3.372-.388-.743-1.018-1.331-1.785-1.667-.82-.33-1.698-.493-2.581-.479h-.538v11.186Z" fill="#fff" stroke-width="0"/>
    <path d="m372.53,45.556v-18.446h11.755v3.797h-7.222v3.291h6.147v3.797h-6.147v3.764h7.528v3.797h-12.062Z" fill="#fff" stroke-width="0"/>
    <path d="m402.054,45.559l-4.098-7.287c.849-.413,1.586-1.024,2.151-1.78.709-1.03,1.062-2.263,1.005-3.512.076-1.261-.279-2.511-1.005-3.544-.681-.854-1.606-1.481-2.651-1.796-1.165-.364-2.378-.546-3.598-.538h-6.83v18.446h4.534v-6.389h2.097l3.345,6.399h5.05Zm-10.487-14.869h1.957c.807-.048,1.613.119,2.334.484.285.196.511.466.654.78.143.315.198.662.158,1.005.025.362-.035.725-.177,1.06-.141.334-.359.631-.636.866-.68.478-1.504.708-2.334.651h-1.957v-4.845Z" fill="#fff" stroke-width="0"/>
    <path d="m403.805,45.556v-18.446h11.761v3.797h-7.227v3.291h6.152v3.797h-6.152v3.764h7.528v3.797h-12.062Z" fill="#fff" stroke-width="0"/>
    <path d="m418.031,45.558v-18.446h5.377c1.675-.032,3.338.293,4.878.952,1.383.608,2.532,1.647,3.275,2.963.839,1.614,1.239,3.42,1.162,5.238.072,1.824-.328,3.635-1.162,5.259-.733,1.325-1.861,2.389-3.227,3.044-1.476.683-3.089,1.022-4.716.99h-5.588Zm4.533-3.625h.538c.887.015,1.767-.159,2.581-.511.776-.361,1.406-.976,1.785-1.742.486-1.07.71-2.241.651-3.415.062-1.16-.162-2.318-.651-3.372-.387-.743-1.018-1.331-1.785-1.667-.82-.33-1.697-.493-2.581-.479h-.538v11.186Z" fill="#fff" stroke-width="0"/>
    <path d="m348.77,41.318l-2.484-2.479v-11.729h-4.533v13.686l4.711,4.711h7.104v-4.189h-4.797Z" fill="#fff" stroke-width="0"/>
    <path d="m298.272,25.048c-.58.004-1.151-.144-1.656-.43l-7.039-4.055-10.535,6.077v10.218l11.078,6.399.258-.134c.485-.255.896-.632,1.191-1.094s.465-.993.492-1.541c-.011-.567-.165-1.123-.446-1.615-.282-.492-.683-.906-1.167-1.203l-6.684-3.581v-4.792l5.776-3.377,4.84,2.839c.448.276.818.661,1.076,1.119.274.458.657.84,1.115,1.114.458.273.976.429,1.509.453s1.063-.084,1.544-.316c.481-.231.896-.578,1.21-1.009.056-.074.108-.151.156-.231v-.032c.274-.488.417-1.039.414-1.598-.003-.56-.151-1.109-.431-1.594-.279-.485-.68-.889-1.163-1.172-.483-.283-1.031-.436-1.59-.444h.054Z" fill="#fff" stroke-width="0"/>
    <path d="m289.159,29.076c-.486.253-.896.63-1.192,1.091-.295.461-.465.992-.492,1.539.01.568.162,1.124.444,1.616.282.493.684.906,1.169,1.202l6.69,3.603v4.792l-5.797,3.366-4.84-2.839c-.445-.276-.815-.659-1.076-1.113-.268-.465-.648-.855-1.106-1.134-.458-.279-.979-.438-1.515-.463-.536-.025-1.069.086-1.551.322-.482.236-.896.589-1.206,1.027-.056.075-.107.154-.151.237v.032c-.285.49-.434,1.047-.43,1.613,0,.851.336,1.668.936,2.272.599.604,1.413.947,2.264.955.58-.004,1.151.144,1.656.43l6.996,4.039,10.535-6.077v-10.218l-11.078-6.416-.258.124Z" fill="#fff" stroke-width="0"/>
  </g>
  <g>
    <path d="m639.362,69.512h-2.004s-1.209,0-1.209,0h-1.813v6.874s3.021-.146,3.021-.146v-4.859s3.045,4.711,3.045,4.711l3.115-.151-4.157-6.431Zm-20.315,0v1.604s0,5.47,0,5.47v1.545s0,5.859,0,5.859v1.604h2.358s10.733,0,10.733,0v-1.604h-10.733s0-5.859,0-5.859h8.792v-1.545h-8.792s0-5.47,0-5.47h10.733v-1.604h-10.733s-2.358,0-2.358,0Zm29.364,6.194l3.08-.149v-6.045h-3.08v6.194Zm0,7.807l-3.009-4.655-3.315-.158,4.457,6.896h1.866s1.346,0,1.346,0h1.734v-6.447s-3.08-.147-3.08-.147v4.511Zm-14.075,2.083h3.021v-7.122s-3.021-.144-3.021-.144v7.266Zm19.46-16.083v2.954h5.979s0,2.69,0,2.69l4.428-.214v-2.476s5.965,0,5.965,0v-2.954h-16.372Zm5.979,16.083h4.428v-5.84s-4.428-.211-4.428-.211v6.051Z" fill="#fff" stroke-width="0"/>
    <g>
      <path d="m679.806,69.515h4.312v.587h-3.451v1.749h3.241v.563h-3.241v1.868h3.451v.587h-4.312v-5.355Z" fill="#fff" stroke-width="0"/>
      <path d="m685.384,70.189h.674l.178,1.027v3.653h-.853v-4.681Zm3.57,2.094c0-.558-.106-.957-.317-1.198s-.524-.361-.936-.361c-.415,0-.768.138-1.059.413-.291.275-.436.627-.436,1.055l-.412-.301c0-.407.205-.801.615-1.182.41-.381.939-.571,1.587-.571.621,0,1.079.183,1.373.547.293.365.44.889.44,1.571v2.614h-.853v-2.586Z" fill="#fff" stroke-width="0"/>
      <path d="m691.235,68.642h.857v6.228h-.857v-6.228Z" fill="#fff" stroke-width="0"/>
      <path d="m694.475,68.864v.734h-.857v-.734h.857Zm-.857,1.317h.857v4.689h-.857v-4.689Z" fill="#fff" stroke-width="0"/>
      <path d="m696.332,74.314c-.368-.394-.551-.993-.551-1.797s.182-1.401.547-1.791c.365-.39.869-.585,1.511-.585.614,0,1.129.145,1.547.436.418.291.627.573.627.845l-.365.456c0-.291-.15-.555-.45-.793-.3-.238-.663-.357-1.089-.357-.439,0-.793.134-1.061.403-.268.268-.402.732-.402,1.39,0,.664.134,1.129.402,1.394.269.266.622.399,1.061.399.426,0,.789-.118,1.089-.355.3-.237.45-.502.45-.795l.373.476c0,.278-.208.558-.625.841-.417.283-.932.424-1.545.424-.645,0-1.152-.197-1.519-.591Zm.282,2.037c-.418-.245-.654-.649-.71-1.212h.845c.024.246.096.444.218.593.122.149.287.262.496.337.209.075.446.113.71.113.447,0,.805-.109,1.073-.325s.403-.598.403-1.142v-3.443l.226-1.083h.631v4.431c0,.521-.109.935-.327,1.244-.218.308-.493.528-.825.658-.332.131-.737.196-1.216.196-.598,0-1.105-.122-1.523-.367Z" fill="#fff" stroke-width="0"/>
      <path d="m701.882,68.642h.857v6.228h-.857v-6.228Zm3.586,3.642c0-.558-.111-.957-.331-1.198s-.537-.361-.95-.361c-.418,0-.766.138-1.045.413-.279.275-.419.627-.419,1.055l-.417-.301c0-.407.2-.801.601-1.182.401-.381.925-.571,1.573-.571.621,0,1.084.18,1.388.54s.456.879.456,1.559v2.634h-.857v-2.586Z" fill="#fff" stroke-width="0"/>
      <path d="m708.929,74.675c-.274-.167-.411-.472-.411-.916v-2.983h-1.365v-.587h1.365v-1.095h.853v1.095h1.932v.587h-1.932v2.777c0,.32.075.534.224.641.15.107.356.161.621.161.238,0,.468-.036.69-.107v.563c-.307.077-.629.115-.968.115-.399,0-.736-.083-1.009-.25Z" fill="#fff" stroke-width="0"/>
      <path d="m712.731,74.293c-.418-.414-.627-1.004-.627-1.771,0-.793.214-1.388.641-1.783.427-.395,1.027-.593,1.799-.593.796,0,1.398.199,1.805.597.407.398.611.986.611,1.763,0,.095-.007.184-.02.266h-4.106v-.524h3.32l-.04.091c0-.579-.141-.999-.422-1.259-.282-.26-.663-.391-1.144-.391-.474,0-.862.138-1.164.413-.303.275-.454.748-.454,1.42,0,.643.147,1.11.44,1.402.293.292.69.438,1.19.438v.551c-.801,0-1.411-.207-1.829-.621Zm2.586-.048c.217-.078.386-.203.508-.375.122-.172.21-.365.266-.579l.75.25c-.055.288-.185.538-.389.75s-.458.368-.762.47c-.304.102-.681.153-1.131.153v-.551c.288,0,.541-.039.758-.117Z" fill="#fff" stroke-width="0"/>
      <path d="m718.181,70.189h.674l.178,1.027v3.653h-.853v-4.681Zm3.57,2.094c0-.558-.106-.957-.317-1.198s-.524-.361-.936-.361c-.415,0-.768.138-1.059.413-.291.275-.436.627-.436,1.055l-.412-.301c0-.407.205-.801.615-1.182.41-.381.939-.571,1.587-.571.621,0,1.079.183,1.373.547.293.365.44.889.44,1.571v2.614h-.853v-2.586Z" fill="#fff" stroke-width="0"/>
      <path d="m724.909,68.864v.734h-.857v-.734h.857Zm-.857,1.317h.857v4.689h-.857v-4.689Z" fill="#fff" stroke-width="0"/>
      <path d="m726.404,70.189h.674l.178,1.027v3.653h-.853v-4.681Zm3.57,2.094c0-.558-.106-.957-.317-1.198s-.524-.361-.936-.361c-.415,0-.768.138-1.059.413-.291.275-.436.627-.436,1.055l-.412-.301c0-.407.205-.801.615-1.182.41-.381.939-.571,1.587-.571.621,0,1.079.183,1.373.547.293.365.44.889.44,1.571v2.614h-.853v-2.586Z" fill="#fff" stroke-width="0"/>
      <path d="m732.501,74.314c-.368-.394-.551-.993-.551-1.797s.182-1.401.547-1.791c.365-.39.869-.585,1.511-.585.614,0,1.129.145,1.547.436.418.291.627.573.627.845l-.365.456c0-.291-.15-.555-.45-.793-.3-.238-.663-.357-1.089-.357-.439,0-.793.134-1.061.403-.268.268-.402.732-.402,1.39,0,.664.134,1.129.402,1.394.269.266.622.399,1.061.399.426,0,.789-.118,1.089-.355.3-.237.45-.502.45-.795l.373.476c0,.278-.208.558-.625.841-.417.283-.932.424-1.545.424-.645,0-1.152-.197-1.519-.591Zm.282,2.037c-.418-.245-.654-.649-.71-1.212h.845c.024.246.096.444.218.593.122.149.287.262.496.337.209.075.446.113.71.113.447,0,.805-.109,1.073-.325s.403-.598.403-1.142v-3.443l.226-1.083h.631v4.431c0,.521-.109.935-.327,1.244-.218.308-.493.528-.825.658-.332.131-.737.196-1.216.196-.598,0-1.105-.122-1.523-.367Z" fill="#fff" stroke-width="0"/>
      <path d="m679.81,80.278h1.42l3.269,4.998h-.147v-4.998h.865v5.355h-1.4l-3.273-5.002h.127v5.002h-.861v-5.355Z" fill="#fff" stroke-width="0"/>
      <path d="m687.054,85.056c-.418-.414-.627-1.004-.627-1.771,0-.793.214-1.388.641-1.783.427-.395,1.027-.593,1.799-.593.796,0,1.398.199,1.805.597.407.398.611.986.611,1.763,0,.095-.007.184-.02.266h-4.106v-.524h3.32l-.04.091c0-.579-.141-.999-.422-1.259-.282-.26-.663-.391-1.144-.391-.474,0-.862.138-1.164.413-.303.275-.454.748-.454,1.42,0,.643.147,1.11.44,1.402.293.292.69.438,1.19.438v.551c-.801,0-1.411-.207-1.829-.621Zm2.586-.048c.217-.078.386-.203.508-.375.122-.172.21-.365.266-.579l.75.25c-.055.288-.185.538-.389.75s-.458.368-.762.47c-.304.102-.681.153-1.131.153v-.551c.288,0,.541-.039.758-.117Z" fill="#fff" stroke-width="0"/>
      <path d="m692.234,80.952h.885l.952,4.185h-.036l1.218-4.185h.658l-1.309,4.681h-1.166l-1.202-4.681Zm3.193,0h.678l1.23,4.177h-.036l.924-4.177h.877l-1.186,4.681h-1.15l-1.337-4.681Z" fill="#fff" stroke-width="0"/>
      <path d="m703.952,80.865h-2.043v-.587h4.943v.587h-2.035v4.768h-.865v-4.768Z" fill="#fff" stroke-width="0"/>
      <path d="m707.804,85.056c-.418-.414-.627-1.004-.627-1.771,0-.793.214-1.388.641-1.783.427-.395,1.027-.593,1.799-.593.796,0,1.398.199,1.805.597.407.398.611.986.611,1.763,0,.095-.007.184-.02.266h-4.106v-.524h3.32l-.04.091c0-.579-.141-.999-.422-1.259-.282-.26-.663-.391-1.144-.391-.474,0-.862.138-1.164.413-.303.275-.454.748-.454,1.42,0,.643.147,1.11.44,1.402.293.292.69.438,1.19.438v.551c-.801,0-1.411-.207-1.829-.621Zm2.586-.048c.217-.078.386-.203.508-.375.122-.172.21-.365.266-.579l.75.25c-.055.288-.185.538-.389.75s-.458.368-.762.47c-.304.102-.681.153-1.131.153v-.551c.288,0,.541-.039.758-.117Z" fill="#fff" stroke-width="0"/>
      <path d="m713.582,85.074c-.419-.402-.629-.994-.629-1.777,0-.807.21-1.406.629-1.799.419-.393,1.025-.589,1.819-.589.711,0,1.248.159,1.611.476.362.317.561.664.595,1.039l-.742.306c-.016-.344-.153-.635-.411-.873-.258-.238-.61-.357-1.057-.357-.455,0-.83.137-1.125.411s-.442.736-.442,1.386c0,.624.149,1.078.446,1.363.298.284.671.426,1.121.426s.803-.124,1.059-.371.393-.531.409-.851l.742.321c-.034.347-.233.682-.597,1.006-.364.324-.9.486-1.609.486-.793,0-1.4-.201-1.819-.603Z" fill="#fff" stroke-width="0"/>
      <path d="m718.8,79.405h.857v6.228h-.857v-6.228Zm3.586,3.642c0-.558-.111-.957-.331-1.198s-.537-.361-.95-.361c-.418,0-.766.138-1.045.413-.279.275-.419.627-.419,1.055l-.417-.301c0-.407.2-.801.601-1.182.401-.381.925-.571,1.573-.571.621,0,1.084.18,1.388.54s.456.879.456,1.559v2.634h-.857v-2.586Z" fill="#fff" stroke-width="0"/>
      <path d="m724.504,80.952h.674l.178,1.027v3.653h-.853v-4.681Zm3.57,2.094c0-.558-.106-.957-.317-1.198s-.524-.361-.936-.361c-.415,0-.768.138-1.059.413-.291.275-.436.627-.436,1.055l-.412-.301c0-.407.205-.801.615-1.182.41-.381.939-.571,1.587-.571.621,0,1.079.183,1.373.547.293.365.44.889.44,1.571v2.614h-.853v-2.586Z" fill="#fff" stroke-width="0"/>
      <path d="m730.661,85.084c-.439-.393-.658-.995-.658-1.807s.219-1.407.658-1.793c.439-.386,1.041-.579,1.805-.579s1.367.193,1.807.579.661.984.661,1.793-.22,1.414-.661,1.807-1.043.589-1.807.589-1.366-.196-1.805-.589Zm2.951-.395c.309-.267.464-.738.464-1.412,0-.666-.155-1.133-.464-1.398-.309-.266-.692-.399-1.146-.399-.452,0-.833.133-1.142.399-.309.266-.464.732-.464,1.398,0,.674.155,1.145.464,1.412.309.267.69.401,1.142.401.455,0,.837-.134,1.146-.401Z" fill="#fff" stroke-width="0"/>
      <path d="m736.19,79.405h.857v6.228h-.857v-6.228Z" fill="#fff" stroke-width="0"/>
      <path d="m738.86,85.084c-.439-.393-.658-.995-.658-1.807s.219-1.407.658-1.793c.439-.386,1.041-.579,1.805-.579s1.367.193,1.807.579.661.984.661,1.793-.22,1.414-.661,1.807-1.043.589-1.807.589-1.366-.196-1.805-.589Zm2.951-.395c.309-.267.464-.738.464-1.412,0-.666-.155-1.133-.464-1.398-.309-.266-.692-.399-1.146-.399-.452,0-.833.133-1.142.399-.309.266-.464.732-.464,1.398,0,.674.155,1.145.464,1.412.309.267.69.401,1.142.401.455,0,.837-.134,1.146-.401Z" fill="#fff" stroke-width="0"/>
      <path d="m744.636,85.078c-.368-.394-.551-.993-.551-1.797s.182-1.401.547-1.791c.365-.39.869-.585,1.511-.585.614,0,1.129.145,1.547.436.418.291.627.573.627.845l-.365.456c0-.291-.15-.555-.45-.793-.3-.238-.663-.357-1.089-.357-.439,0-.793.134-1.061.403-.268.268-.402.732-.402,1.39,0,.664.134,1.129.402,1.394.269.266.622.399,1.061.399.426,0,.789-.118,1.089-.355.3-.237.45-.502.45-.795l.373.476c0,.278-.208.558-.625.841-.417.283-.932.424-1.545.424-.645,0-1.152-.197-1.519-.591Zm.282,2.037c-.418-.245-.654-.649-.71-1.212h.845c.024.246.096.444.218.593.122.149.287.262.496.337.209.075.446.113.71.113.447,0,.805-.109,1.073-.325s.403-.598.403-1.142v-3.443l.226-1.083h.631v4.431c0,.521-.109.935-.327,1.244-.218.308-.493.528-.825.658-.332.131-.737.196-1.216.196-.598,0-1.105-.122-1.523-.367Z" fill="#fff" stroke-width="0"/>
      <path d="m751.129,79.627v.734h-.857v-.734h.857Zm-.857,1.317h.857v4.689h-.857v-4.689Z" fill="#fff" stroke-width="0"/>
      <path d="m753.021,85.056c-.418-.414-.627-1.004-.627-1.771,0-.793.214-1.388.641-1.783.427-.395,1.027-.593,1.799-.593.796,0,1.398.199,1.805.597.407.398.611.986.611,1.763,0,.095-.007.184-.02.266h-4.106v-.524h3.32l-.04.091c0-.579-.141-.999-.422-1.259-.282-.26-.663-.391-1.144-.391-.474,0-.862.138-1.164.413-.303.275-.454.748-.454,1.42,0,.643.147,1.11.44,1.402.293.292.69.438,1.19.438v.551c-.801,0-1.411-.207-1.829-.621Zm2.586-.048c.217-.078.386-.203.508-.375.122-.172.21-.365.266-.579l.75.25c-.055.288-.185.538-.389.75s-.458.368-.762.47c-.304.102-.681.153-1.131.153v-.551c.288,0,.541-.039.758-.117Z" fill="#fff" stroke-width="0"/>
      <path d="m759.095,85.367c-.423-.204-.689-.536-.797-.996l.734-.317c.058.354.233.62.524.797.291.177.677.266,1.158.266.455,0,.798-.065,1.029-.196.231-.131.347-.303.347-.518,0-.275-.173-.461-.518-.559-.345-.098-.766-.19-1.263-.278-.561-.1-1.027-.246-1.398-.436s-.557-.509-.557-.956c0-.413.199-.726.597-.94s.928-.321,1.589-.321c.656,0,1.184.098,1.585.295.401.197.65.507.748.93l-.73.313c-.058-.312-.227-.555-.506-.73-.279-.175-.65-.262-1.113-.262-.444,0-.778.065-1,.194-.222.13-.333.304-.333.524,0,.257.164.436.492.538s.731.195,1.21.28c.566.095,1.047.229,1.444.403.397.173.595.49.595.95,0,.442-.193.773-.579.994-.386.221-.938.331-1.654.331-.645,0-1.179-.102-1.603-.305Z" fill="#fff" stroke-width="0"/>
    </g>
  </g>
  <g>
    <path d="m142.904,65.79c7.838,0,14.199,6.361,14.199,14.199s-6.361,14.199-14.199,14.199c-7.838-.03-14.199-6.361-14.199-14.199s6.361-14.199,14.199-14.199" fill="#06a64f" stroke-width="0"/>
    <path d="m142.904,76.221c2.11,0,3.829,1.688,3.829,3.768s-1.718,3.768-3.829,3.768-3.829-1.688-3.829-3.768c0-2.08,1.718-3.768,3.829-3.768" fill="#ec2227" stroke-width="0"/>
    <polygon points="264.971 91.265 260.69 79.99 264.76 69.107 262.499 69.107 258.339 80.02 262.71 91.265 264.971 91.265" fill="#fff" stroke-width="0"/>
    <polygon points="261.866 69.107 259.575 69.107 256.59 76.734 256.59 69.107 254.6 69.107 254.6 79.749 257.826 79.749 261.866 69.107" fill="#fff" stroke-width="0"/>
    <polygon points="254.6 91.265 256.59 91.265 256.59 82.884 259.725 91.265 262.077 91.265 257.856 80.352 254.6 80.352 254.6 91.265" fill="#fff" stroke-width="0"/>
    <polygon points="252.008 91.265 253.997 91.265 253.997 69.107 252.008 69.107 252.008 91.265" fill="#fff" stroke-width="0"/>
    <polygon points="240.883 88.009 240.883 85.326 236.783 85.326 236.783 69.107 234.703 69.107 234.703 88.009 240.883 88.009" fill="#fff" stroke-width="0"/>
    <polygon points="234.13 69.107 232.05 69.107 232.05 91.265 240.883 91.265 240.883 88.582 234.432 88.582 234.13 88.582 234.13 88.311 234.13 69.107" fill="#fff" stroke-width="0"/>
    <polygon points="207.51 69.107 207.51 91.144 207.51 91.265 209.5 91.265 209.5 69.107 207.51 69.107" fill="#fff" stroke-width="0"/>
    <polygon points="204.526 91.265 206.937 91.265 206.937 91.235 199.189 72.453 198.406 70.584 198.406 91.265 200.425 91.265 200.456 80.291 204.526 91.265" fill="#fff" stroke-width="0"/>
    <polygon points="206.907 69.107 204.676 69.107 204.676 80.291 200.606 69.107 198.436 69.107 206.907 89.637 206.907 69.107" fill="#fff" stroke-width="0"/>
    <polygon points="195.572 69.107 195.542 91.265 197.803 91.265 197.803 69.107 195.572 69.107" fill="#fff" stroke-width="0"/>
    <polygon points="218.212 74.895 221.016 74.895 221.016 72.242 216.223 72.242 216.223 91.265 218.212 91.265 218.212 74.895" fill="#fff" stroke-width="0"/>
    <polygon points="221.016 69.107 210.766 69.107 210.766 71.669 221.016 71.669 221.016 69.107" fill="#fff" stroke-width="0"/>
    <polygon points="210.766 72.242 210.766 74.895 213.479 74.895 213.479 91.265 215.65 91.265 215.65 72.242 210.766 72.242" fill="#fff" stroke-width="0"/>
    <polygon points="272.87 74.895 275.673 74.895 275.673 72.242 270.88 72.242 270.88 91.265 272.87 91.265 272.87 74.895" fill="#fff" stroke-width="0"/>
    <polygon points="275.673 69.107 265.423 69.107 265.423 71.669 275.673 71.669 275.673 69.107" fill="#fff" stroke-width="0"/>
    <polygon points="265.423 72.242 265.423 74.895 268.136 74.895 268.136 91.265 270.277 91.265 270.277 72.242 265.423 72.242" fill="#fff" stroke-width="0"/>
    <polygon points="281.673 81.105 278.869 81.105 278.869 91.265 280.919 91.265 280.919 84.633 283.27 91.265 285.441 91.265 281.673 81.105" fill="#fff" stroke-width="0"/>
    <path d="m294.666,88.733c-2.382,0-4.311-3.829-4.311-8.562s1.929-8.562,4.311-8.562,4.311,3.829,4.311,8.562-1.929,8.562-4.311,8.562m0-20.048c-3.708,0-6.029,4.673-6.029,11.486s2.321,11.486,6.029,11.486,6.029-4.673,6.029-11.486-2.321-11.486-6.029-11.486" fill="#fff" stroke-width="0"/>
    <path d="m294.666,85.356c-1.507,0-2.231-2.713-2.231-5.185,0-2.502.724-5.185,2.231-5.185s2.231,2.683,2.231,5.185-.724,5.185-2.231,5.185m0-13.144c-2.05,0-3.799,3.648-3.799,7.959s1.749,7.959,3.799,7.959,3.799-3.648,3.799-7.959-1.749-7.959-3.799-7.959" fill="#fff" stroke-width="0"/>
    <polygon points="166.299 69.107 163.947 91.265 165.997 91.265 168.68 69.107 166.299 69.107" fill="#fff" stroke-width="0"/>
    <polygon points="177.544 70.674 173.293 90.451 169.042 70.674 166.57 91.265 168.891 91.265 169.705 82.01 171.514 91.265 175.072 91.265 176.85 82.01 177.694 91.265 179.986 91.265 177.544 70.674" fill="#fff" stroke-width="0"/>
    <polygon points="173.293 87.497 173.293 87.497 173.293 87.497 173.293 87.497 177.302 69.107 175.132 69.107 173.293 79.869 171.424 69.107 169.283 69.107 173.293 87.497 173.293 87.497" fill="#fff" stroke-width="0"/>
    <polygon points="180.257 69.107 177.905 69.107 180.588 91.265 182.639 91.265 180.257 69.107" fill="#fff" stroke-width="0"/>
    <path d="m188.698,88.733c-2.382,0-4.311-3.829-4.311-8.562s1.929-8.562,4.311-8.562,4.311,3.829,4.311,8.562c-.03,4.733-1.96,8.562-4.311,8.562m0-20.048c-3.708,0-6.029,4.673-6.029,11.486s2.321,11.486,6.029,11.486,6.029-4.673,6.029-11.486c-.03-6.813-2.321-11.486-6.029-11.486" fill="#fff" stroke-width="0"/>
    <path d="m188.698,85.356c-1.507,0-2.231-2.713-2.231-5.185,0-2.502.724-5.185,2.231-5.185s2.231,2.683,2.231,5.185c-.03,2.502-.754,5.185-2.231,5.185m0-13.144c-2.05,0-3.799,3.648-3.799,7.959s1.749,7.959,3.799,7.959,3.799-3.648,3.799-7.959-1.749-7.959-3.799-7.959" fill="#fff" stroke-width="0"/>
    <polygon points="230.663 71.669 230.663 69.107 222.222 69.107 222.222 91.265 230.663 91.265 230.663 88.612 224.483 88.612 224.242 88.612 224.242 71.669 230.663 71.669" fill="#fff" stroke-width="0"/>
    <polygon points="250.651 71.669 250.651 69.107 242.21 69.107 242.21 91.265 250.651 91.265 250.651 88.612 244.471 88.612 244.23 88.612 244.23 71.669 250.651 71.669" fill="#fff" stroke-width="0"/>
    <polygon points="230.663 85.326 226.654 85.326 226.654 82.975 230.422 82.975 230.422 80.352 224.785 80.352 224.785 88.039 230.663 88.039 230.663 85.326" fill="#fff" stroke-width="0"/>
    <polygon points="250.651 85.326 246.641 85.326 246.641 82.975 250.41 82.975 250.41 80.352 244.772 80.352 244.772 88.039 250.651 88.039 250.651 85.326" fill="#fff" stroke-width="0"/>
    <polygon points="226.744 77.126 226.744 74.895 230.663 74.895 230.663 72.242 224.785 72.242 224.785 79.749 230.422 79.749 230.422 77.126 226.744 77.126" fill="#fff" stroke-width="0"/>
    <polygon points="246.732 77.126 246.732 74.895 250.651 74.895 250.651 72.242 244.772 72.242 244.772 79.749 250.41 79.749 250.41 77.126 246.732 77.126" fill="#fff" stroke-width="0"/>
    <path d="m284.657,82.372s3.226-1.839,3.226-6.331c0-3.979-1.568-6.934-6.753-6.934h-4.643v22.128h1.839v-19.626h3.346c.754,0,1.99.271,2.894,1.025.543.452,1.085,1.266,1.266,2.261.09.452.121.844.121,1.296,0,2.321-.784,4.462-3.708,4.854l3.829,10.22h2.14l-3.557-8.893h0Z" fill="#fff" stroke-width="0"/>
    <path d="m280.919,78.513v-4.251s.935-.09,1.779.301c.513.271.874.874.874,1.809,0,1.809-1.176,2.201-2.653,2.14m4.582-1.96c0-1.357-.211-2.653-1.206-3.467-.03-.03-.06-.03-.06-.06-.874-.633-1.869-.814-2.864-.814h-2.472v8.381h2.563s1.387.09,2.563-.693c.663-.452,1.477-1.598,1.477-3.346" fill="#fff" stroke-width="0"/>
  </g>
  <g>
    <g>
      <path d="m493.923,63.451c.075.007.151.016.226.02.333.018.663.057.993.108.44.069.873.171,1.299.3.515.155,1.018.345,1.502.578.421.203.839.412,1.244.644.621.356,1.228.733,1.842,1.101.649.389,1.3.774,1.947,1.167.473.287.958.553,1.455.797.528.259,1.066.495,1.624.683.386.13.778.237,1.183.29.186.024.374.043.56.007.127-.024.251-.068.376-.104.097-.028.194-.057.3-.089.009.08.018.151.026.222.061.577.051,1.156.047,1.735-.002.273-.01.547-.029.819-.038.551-.091,1.1-.164,1.648-.092.687-.207,1.369-.346,2.048-.203.991-.457,1.968-.757,2.934-.353,1.139-.769,2.255-1.243,3.349-.29.671-.6,1.334-.933,1.985-.48.941-1.001,1.858-1.573,2.747-.432.672-.888,1.327-1.37,1.964-.472.624-.964,1.232-1.486,1.814-.289.322-.583.638-.877.954-.163.175-.327.348-.497.515-.752.741-1.53,1.454-2.35,2.119-.707.573-1.435,1.117-2.196,1.617-.377.248-.76.487-1.16.698-.016.009-.03.021-.045.032h-.038c-.096-.055-.192-.111-.288-.165-.639-.365-1.248-.774-1.844-1.205-.657-.476-1.293-.978-1.905-1.51-.297-.258-.594-.519-.879-.79-.415-.394-.826-.794-1.229-1.201-.279-.282-.543-.58-.811-.874-.433-.474-.843-.968-1.242-1.471-.46-.581-.898-1.178-1.316-1.79-.486-.712-.941-1.444-1.366-2.194-.342-.603-.662-1.218-.965-1.842-.383-.789-.738-1.592-1.059-2.409-.29-.737-.555-1.482-.792-2.237-.202-.643-.383-1.292-.544-1.946-.178-.722-.33-1.45-.449-2.184-.078-.482-.142-.967-.2-1.453-.043-.365-.07-.733-.097-1.1-.02-.269-.015-.54-.042-.809-.027-.273-.023-.546-.015-.819.008-.288.043-.575.069-.862.01-.107.026-.213.041-.328.033.007.06.011.087.019.146.043.294.081.438.131.168.058.34.054.51.041.475-.038.932-.161,1.381-.314.482-.163.948-.365,1.409-.581.707-.331,1.378-.724,2.044-1.128.949-.576,1.898-1.151,2.851-1.72.363-.216.736-.416,1.107-.618.456-.247.927-.461,1.411-.649.672-.261,1.361-.457,2.074-.565.276-.042.554-.067.832-.098.129-.014.258-.023.388-.034.28,0,.561,0,.841,0Zm13.604,6.76c-.034-.004-.05-.007-.065-.008-.248-.014-.493-.045-.736-.095-.569-.116-1.115-.303-1.653-.52-.652-.264-1.283-.573-1.899-.91-.282-.154-.556-.322-.832-.486-.62-.369-1.242-.736-1.858-1.112-.763-.465-1.519-.942-2.311-1.356-.541-.283-1.097-.533-1.674-.735-.954-.333-1.937-.488-2.945-.5-.108-.001-.216.006-.324.012-.212.012-.425.022-.637.038-.422.031-.837.107-1.248.207-.735.178-1.436.45-2.115.781-.515.251-1.014.531-1.505.826-.474.285-.944.578-1.418.863-.719.433-1.439.865-2.162,1.291-.444.262-.903.495-1.368.716-.514.245-1.037.467-1.577.648-.513.173-1.034.313-1.573.373-.046.005-.092.015-.137.023-.003.021-.007.033-.007.045.003.149.007.299.012.448.006.184.009.369.02.553.016.269.031.539.057.807.039.401.078.803.135,1.201.076.528.156,1.056.258,1.579.103.533.229,1.062.355,1.591.146.612.323,1.216.514,1.816.225.709.474,1.41.748,2.102.27.683.558,1.358.881,2.018.258.525.52,1.048.794,1.565.32.604.673,1.19,1.041,1.767.385.604.792,1.192,1.219,1.767.429.577.874,1.141,1.348,1.681.373.425.755.842,1.141,1.257.208.224.428.436.647.649.253.246.506.492.768.729.351.317.707.63,1.067.937.455.388.928.754,1.41,1.107.5.367,1.011.718,1.541,1.042.052.032.089.03.137-.001.171-.111.346-.215.515-.327.816-.538,1.596-1.124,2.349-1.747.59-.489,1.164-.997,1.713-1.53.463-.45.922-.906,1.352-1.388.277-.311.558-.618.827-.936.808-.955,1.555-1.956,2.238-3.005.556-.854,1.07-1.732,1.53-2.64.267-.527.522-1.062.767-1.6.48-1.054.891-2.135,1.248-3.236.247-.762.465-1.532.652-2.311.149-.618.284-1.239.382-1.867.079-.505.157-1.01.221-1.517.05-.4.084-.802.114-1.204.023-.32.028-.641.041-.962.003-.067.006-.133.006-.2,0-.079-.001-.158-.002-.244Z" fill="#fff" stroke-width="0"/>
      <path d="m480.492,71.105c.185-.048.361-.091.535-.139.583-.162,1.148-.374,1.7-.62.354-.158.704-.326,1.052-.497.529-.259,1.03-.567,1.534-.872.794-.481,1.588-.962,2.385-1.439.439-.263.879-.525,1.325-.775.606-.339,1.234-.631,1.893-.852.48-.161.971-.28,1.474-.34.224-.027.448-.047.673-.058.251-.012.503-.021.753-.012.508.018,1.012.083,1.508.197.641.148,1.253.375,1.848.654.683.321,1.334.699,1.978,1.091.41.25.822.497,1.233.745.664.401,1.324.809,1.995,1.2.384.224.781.427,1.18.624.787.389,1.597.724,2.445.961.138.038.277.071.415.106.03.008.06.016.098.025-.006.115-.008.226-.018.336-.032.376-.058.753-.101,1.128-.045.394-.105.787-.162,1.179-.094.638-.223,1.27-.367,1.899-.161.703-.351,1.399-.562,2.088-.274.893-.589,1.773-.948,2.635-.201.484-.416.963-.634,1.44-.147.324-.304.644-.465.961-.438.862-.915,1.703-1.438,2.517-.416.648-.856,1.279-1.321,1.893-.426.563-.873,1.109-1.34,1.639-.254.289-.518.569-.781.849-.187.2-.374.4-.571.589-.421.402-.845.8-1.275,1.192-.642.585-1.317,1.131-2.017,1.644-.31.228-.632.44-.946.662-.053.037-.088.025-.135-.006-.655-.424-1.279-.89-1.881-1.385-.397-.327-.786-.664-1.175-1.002-.398-.347-.779-.712-1.154-1.084-.422-.419-.83-.851-1.227-1.294-.59-.658-1.148-1.343-1.675-2.053-.536-.72-1.037-1.464-1.502-2.232-.336-.555-.654-1.12-.953-1.696-.319-.615-.619-1.24-.9-1.874-.269-.607-.522-1.221-.746-1.847-.193-.539-.376-1.081-.545-1.628-.157-.51-.296-1.026-.428-1.544-.178-.696-.326-1.399-.436-2.109-.074-.474-.143-.948-.203-1.424-.039-.312-.059-.626-.086-.939-.011-.13-.022-.259-.031-.389-.003-.047,0-.095,0-.148Zm13.009,21.924c.025-.015.045-.024.062-.037.412-.304.833-.597,1.233-.915.455-.362.897-.741,1.335-1.123.333-.29.657-.591.975-.898.405-.391.801-.792,1.176-1.213.294-.33.59-.658.874-.996.744-.885,1.428-1.813,2.057-2.783.511-.788.981-1.599,1.409-2.434.29-.566.566-1.139.824-1.721.494-1.118.924-2.259,1.281-3.428.275-.9.504-1.811.692-2.734.129-.636.223-1.276.294-1.92.034-.306.072-.611.107-.917.012-.103.02-.206.03-.307-.036-.012-.06-.02-.085-.027-.429-.121-.849-.267-1.262-.433-.537-.216-1.062-.458-1.575-.726-.2-.104-.403-.204-.598-.317-.404-.235-.804-.477-1.204-.718-.885-.533-1.769-1.068-2.655-1.601-.507-.305-1.023-.593-1.559-.846-.606-.286-1.233-.51-1.89-.645-.336-.069-.676-.115-1.018-.135-.221-.013-.444-.012-.666-.007-.219.005-.438.018-.656.037-.537.048-1.06.168-1.571.338-.703.233-1.365.558-2.006.925-.458.262-.909.536-1.362.808-.728.437-1.455.875-2.18,1.317-.516.315-1.036.621-1.578.889-.288.142-.577.282-.869.415-.538.245-1.089.458-1.656.63-.103.031-.205.061-.299.089.167,2.126.57,4.195,1.221,6.214.84,2.604,1.982,5.068,3.481,7.36,1.484,2.269,3.262,4.28,5.312,6.052.743.643,1.509,1.257,2.324,1.808Z" fill="#fff" stroke-width="0"/>
      <path d="m483.102,77.613c-.375-1.173-.673-2.358-.89-3.564-.115-.634-.184-1.274-.271-1.917.079-.028.15-.054.222-.079.549-.193,1.084-.419,1.611-.667.841-.395,1.652-.846,2.446-1.327.77-.466,1.534-.941,2.303-1.409.562-.343,1.131-.673,1.722-.965.651-.321,1.326-.567,2.043-.689.262-.045.529-.061.794-.09.028-.003.056.002.09.003v10.693s-.003.005-.005.007c-.002.002-.005.004-.008.005-.012.002-.025.005-.038.005-3.324,0-6.648,0-9.973,0-.012,0-.025-.004-.045-.007Z" fill="#c1272d" stroke-width="0"/>
      <path d="m503.69,78.272c-1.103,3.158-2.647,6.059-4.742,8.658-1.501,1.861-3.203,3.515-5.132,4.958v-13.615h9.874Z" fill="#c1272d" stroke-width="0"/>
      <path d="m493.816,77.614v-4.97c.067-.02,4.772-.027,4.932-.008.018.07.024,4.853.005,4.978h-4.937Z" fill="#fff" stroke-width="0"/>
      <path d="m488.233,83.19v-4.905s.006-.006.008-.008c.002-.002.005-.005.007-.006.013-.002.025-.004.038-.004,1.617,0,3.235,0,4.852,0,.009,0,.018.005.032.009v4.908s-.003.004-.005.006c-.002.002-.005.005-.007.005-.016.002-.031.005-.047.005-1.614,0-3.228,0-4.842-.001-.009,0-.018-.005-.035-.01Z" fill="#fff" stroke-width="0"/>
    </g>
    <g>
      <path d="m538.399,72.466c.265.007.53.016.796.022.854.017,1.707.041,2.555.155.488.065.965.172,1.403.414.5.276.838.681,1.026,1.217.161.459.233.935.278,1.416.098,1.038.098,2.079.081,3.12-.013.792-.04,1.585-.189,2.367-.081.425-.201.837-.446,1.199-.295.435-.715.706-1.205.874-.429.147-.874.227-1.323.253-.83.049-1.662.077-2.493.114-.147.007-.293.013-.44.019h-3.45c-.028-.004-.057-.01-.085-.011-.896-.033-1.793-.054-2.689-.102-.552-.03-1.1-.107-1.623-.301-.521-.193-.945-.506-1.221-.999-.249-.445-.363-.933-.412-1.431-.065-.66-.115-1.323-.128-1.985-.016-.786.004-1.573.027-2.359.019-.624.087-1.244.238-1.853.222-.895.758-1.489,1.642-1.765.471-.147.956-.217,1.444-.25.666-.045,1.333-.064,2-.092.254-.011.509-.015.763-.022,1.15,0,2.3,0,3.45,0Zm-1.558,2.835s0-.009,0-.013c-.596,0-1.193-.004-1.789.001-.556.005-1.112.016-1.662.11-.384.066-.665.258-.83.619-.122.266-.184.547-.196.833-.026.624-.043,1.249-.045,1.873,0,.304.027.609.067.911.056.418.25.759.658.924.2.081.418.145.632.161.676.048,1.354.091,2.031.097,1.052.009,2.105-.005,3.157-.031.392-.01.786-.06,1.172-.131.374-.069.694-.26.83-.639.085-.237.144-.492.158-.743.029-.533.028-1.069.027-1.604-.001-.434-.031-.867-.128-1.292-.123-.537-.418-.911-.994-.984-.345-.044-.692-.082-1.039-.089-.682-.014-1.365-.004-2.047-.004Z" fill="#fff" stroke-width="0"/>
      <path d="m595.865,83.636c-.298-.008-.595-.013-.893-.025-.86-.034-1.722-.061-2.569-.235-.558-.115-1.075-.322-1.531-.671-.34-.261-.556-.603-.677-1.008-.168-.564-.223-1.146-.238-1.729-.023-.915-.042-1.831-.037-2.747.005-.782.043-1.564.212-2.332.077-.352.19-.691.384-.997.29-.457.705-.754,1.212-.927.476-.163.969-.245,1.466-.305,1.005-.121,2.016-.161,3.027-.175.125-.002.25-.012.375-.018.798,0,1.596,0,2.394,0,.125.006.25.012.375.019.802.044,1.606.075,2.407.137.601.047,1.195.156,1.763.371.746.283,1.223.795,1.39,1.588.087.412.118.829.133,1.248.007.181.001.362.001.543-.017.003-.027.006-.038.006-1.118,0-2.235,0-3.353.002-.065,0-.088-.023-.09-.088-.004-.133-.012-.265-.024-.397-.018-.198-.099-.367-.289-.442-.178-.07-.365-.141-.553-.156-.636-.05-1.274-.098-1.912-.106-1.049-.013-2.098.003-3.147.013-.412.004-.823.038-1.227.128-.486.109-.824.376-.928.881-.043.21-.076.425-.081.639-.014.603-.014,1.207-.014,1.81,0,.452.021.903.106,1.349.064.333.201.618.521.782.212.108.44.157.674.168.613.027,1.226.057,1.84.061,1.092.006,2.184.002,3.276-.018.407-.007.814-.055,1.218-.112.298-.042.532-.198.599-.52.026-.126.039-.256.045-.384.008-.163.002-.326.002-.498h-4.565v-2.16c.583,0,1.157,0,1.732,0,2.037,0,4.075,0,6.112,0,.043,0,.085.006.128.01v.992c-.004.035-.01.071-.011.106-.033.832-.06,1.664-.1,2.495-.02.427-.124.836-.338,1.211-.312.546-.797.87-1.38,1.061-.526.173-1.073.25-1.621.294-.7.057-1.404.08-2.106.114-.24.012-.48.015-.72.023h-2.954Z" fill="#fff" stroke-width="0"/>
      <path d="m512.588,83.485v-10.846c1.193,0,2.386-.002,3.579,0,2.364.005,4.728.012,7.092.018.681.002,1.354.073,2.018.223.667.151,1.242.456,1.665,1.01.328.429.484.928.589,1.447.119.586.137,1.182.145,1.777.008.643-.002,1.286-.015,1.928-.013.639-.062,1.276-.195,1.903-.075.352-.18.695-.367,1.005-.403.668-1.007,1.061-1.752,1.251-.611.156-1.236.209-1.863.232-.811.03-1.622.046-2.434.047-2.821.006-5.642.002-8.463.002Zm3.438-8.13v5.367c.052,0,.098,0,.143,0,1.896-.005,3.793-.009,5.689-.017.448-.002.895-.026,1.334-.131.338-.082.646-.224.805-.55.094-.193.156-.411.185-.624.043-.315.05-.636.06-.955.019-.62.014-1.241-.096-1.854-.064-.356-.194-.682-.496-.911-.232-.176-.508-.237-.787-.256-.486-.034-.974-.063-1.462-.065-1.746-.008-3.492-.003-5.238-.003h-.138Z" fill="#fff" stroke-width="0"/>
      <path d="m605.094,83.636h-6.275c.24-.007.48-.011.72-.023.702-.035,1.405-.058,2.106-.114.548-.044,1.095-.121,1.621-.294.583-.192,1.068-.516,1.38-1.061.214-.375.318-.784.338-1.211.04-.831.067-1.663.1-2.495.001-.035.007-.071.011-.106" fill="#fff" stroke-width="0"/>
      <path d="m576.196,83.479h-3.548v-10.84h.118c1.959,0,3.917,0,5.876-.002.081,0,.129.026.176.09,1.946,2.628,3.894,5.254,5.839,7.882.065.088.13.131.238.117.063-.008.129-.002.211-.002-.029-2.695-.058-5.383-.087-8.079h3.548v10.839h-.113c-1.944,0-3.888,0-5.832.002-.081,0-.129-.026-.176-.09-1.948-2.622-3.898-5.242-5.844-7.865-.081-.109-.16-.173-.299-.151-.059.009-.12.002-.193.002.029,2.703.058,5.393.087,8.097Z" fill="#fff" stroke-width="0"/>
      <path d="m549.409,79.342v4.134h-3.479v-10.827h3.478v3.925c.048.002.086.006.124.006.561,0,1.121.002,1.682-.003.058,0,.127-.027.17-.066,1.459-1.285,2.916-2.572,4.371-3.861.06-.053.119-.077.201-.077,1.693.002,3.385.002,5.078.002.036,0,.072,0,.144,0-2.22,1.805-4.417,3.59-6.623,5.384,2.388,1.84,4.766,3.672,7.163,5.519-.053.004-.083.008-.113.008-1.689,0-3.378,0-5.067-.002-.055,0-.121-.023-.164-.057-1.657-1.334-3.312-2.671-4.966-4.009-.065-.053-.129-.077-.214-.076-.553.003-1.107.002-1.66.002h-.126Z" fill="#fff" stroke-width="0"/>
      <path d="m571.037,83.48h-3.651v-10.835h3.651v10.835Z" fill="#fff" stroke-width="0"/>
      <path d="m565.582,79.296h-4.787v-2.185h4.787v2.185Z" fill="#fff" stroke-width="0"/>
    </g>
  </g>
</svg>