<?xml version="1.0" encoding="iso-8859-1"?>
<!-- Generator: Adobe Illustrator 28.0.0, SVG Export Plug-In . SVG Version: 6.00 Build 0)  -->
<svg version="1.1" id="Layer_1" xmlns="http://www.w3.org/2000/svg" xmlns:xlink="http://www.w3.org/1999/xlink" x="0px" y="0px"
	 width="2887.015px" height="234.638px" viewBox="0 0 2887.015 234.638" enable-background="new 0 0 2887.015 234.638"
	 xml:space="preserve">
<g>
	<path fill="#FFFFFF" d="M144.32,195.795v34.738H0V9.473h143.689v34.738H36.001v54.634h97.582v34.738H36.001v62.213H144.32z"/>
	<path fill="#FFFFFF" d="M241.744,75.791c9.365-4.42,19.313-6.735,29.843-6.947v36.001c-9.898,0.632-19.421,3.001-28.58,7.106
		c-9.159,4.106-16.476,10.476-21.948,19.107v99.476h-34.738V70.423h31.896v24.001C224.533,86.425,232.373,80.213,241.744,75.791z"/>
	<path fill="#FFFFFF" d="M305.218,37.263c-4.318-4.209-6.474-9.262-6.474-15.157c0-5.893,2.156-10.945,6.474-15.159
		c4.312-4.209,9.42-6.317,15.316-6.317c6.104,0,11.26,2.107,15.474,6.317c4.209,4.213,6.316,9.266,6.316,15.159
		c0,5.896-2.107,10.948-6.316,15.157c-4.214,4.215-9.37,6.317-15.474,6.317C314.638,43.58,309.531,41.478,305.218,37.263z
		 M303.165,70.423h34.738v160.11h-34.738V70.423z"/>
	<path fill="#FFFFFF" d="M409.274,223.901c-11.369-6.947-19.95-16.421-25.738-28.421c-5.793-12.001-8.684-25.368-8.684-40.107v-9.79
		c0-14.735,2.892-28.106,8.684-40.107c5.788-12,14.369-21.474,25.738-28.421c11.369-6.949,25.052-10.422,41.054-10.422
		c7.999,0,15.681,0.843,23.053,2.526c7.367,1.688,13.155,3.79,17.369,6.317v33.79c-5.265-2.734-11.211-4.944-17.843-6.632
		c-6.632-1.682-13.214-2.526-19.737-2.526c-14.739,0-25.58,4.159-32.528,12.473c-6.947,8.32-10.421,19.633-10.421,33.949v7.895
		c0,14.32,3.474,25.635,10.421,33.949c6.948,8.318,17.788,12.473,32.528,12.473c6.523,0,13.106-0.839,19.737-2.526
		c6.632-1.684,12.578-3.894,17.843-6.632v33.79c-4.214,2.526-10.002,4.633-17.369,6.315c-7.372,1.684-15.055,2.527-23.053,2.527
		C434.325,234.323,420.642,230.848,409.274,223.901z"/>
	<path fill="#FFFFFF" d="M542.224,230.374c-9.474-2.63-16.95-5.946-22.422-9.947v-33.792c17.261,10.53,35.054,15.791,53.37,15.791
		c9.05,0,15.681-1.471,19.895-4.422c4.209-2.945,6.316-6.947,6.316-12c0-4.629-1.579-8.26-4.737-10.895
		c-3.158-2.63-8.423-5.211-15.79-7.738l-12.948-4.737c-15.79-5.472-27.317-11.63-34.58-18.473
		c-7.263-6.839-10.895-16.471-10.895-28.896c0-14.946,5.472-26.789,16.421-35.527c10.945-8.734,25.787-13.106,44.528-13.106
		c8.418,0,16.421,0.789,24.001,2.369c7.579,1.578,13.786,3.74,18.632,6.474v33.79c-13.476-7.154-28.002-10.737-43.58-10.737
		c-8.211,0-14.477,1.371-18.79,4.105c-4.318,2.739-6.474,6.528-6.474,11.369c0,4.213,1.628,7.475,4.895,9.79
		c3.261,2.32,8.891,4.845,16.895,7.579l12.316,4.422c15.158,5.052,26.419,11.106,33.79,18.158
		c7.367,7.056,11.053,17.211,11.053,30.474c0,15.159-5.319,27.267-15.948,36.317c-10.633,9.055-25.738,13.579-45.317,13.579
		C561.907,234.323,551.698,233.006,542.224,230.374z"/>
	<path fill="#FFFFFF" d="M681.489,230.374c-9.474-2.63-16.95-5.946-22.422-9.947v-33.792c17.261,10.53,35.054,15.791,53.37,15.791
		c9.05,0,15.681-1.471,19.895-4.422c4.209-2.945,6.316-6.947,6.316-12c0-4.629-1.579-8.26-4.737-10.895
		c-3.158-2.63-8.423-5.211-15.79-7.738l-12.948-4.737c-15.79-5.472-27.317-11.63-34.58-18.473
		c-7.263-6.839-10.895-16.471-10.895-28.896c0-14.946,5.472-26.789,16.421-35.527c10.945-8.734,25.787-13.106,44.528-13.106
		c8.418,0,16.421,0.789,24.001,2.369c7.579,1.578,13.787,3.74,18.632,6.474v33.79c-13.476-7.154-28.002-10.737-43.58-10.737
		c-8.211,0-14.477,1.371-18.79,4.105c-4.318,2.739-6.474,6.528-6.474,11.369c0,4.213,1.628,7.475,4.895,9.79
		c3.261,2.32,8.891,4.845,16.895,7.579l12.316,4.422c15.158,5.052,26.419,11.106,33.79,18.158
		c7.367,7.056,11.053,17.211,11.053,30.474c0,15.159-5.319,27.267-15.948,36.317c-10.633,9.055-25.738,13.579-45.317,13.579
		C701.172,234.323,690.963,233.006,681.489,230.374z"/>
	<path fill="#FFFFFF" d="M830.071,224.216c-11.265-6.947-19.737-16.421-25.422-28.421c-5.685-12.001-8.527-25.472-8.527-40.422
		v-9.79c0-14.946,2.842-28.423,8.527-40.422c5.684-12.001,14.156-21.475,25.422-28.423c11.26-6.947,24.791-10.422,40.58-10.422
		c15.998,0,29.577,3.474,40.738,10.422c11.156,6.947,19.58,16.421,25.264,28.423c5.684,12,8.526,25.476,8.526,40.422v9.79
		c0,14.95-2.842,28.421-8.526,40.422c-5.685,12-14.108,21.474-25.264,28.421c-11.161,6.949-24.741,10.422-40.738,10.422
		C854.861,234.638,841.331,231.165,830.071,224.216z M900.02,188.848c6.524-8.631,9.79-20.103,9.79-34.422v-7.895
		c0-14.315-3.267-25.787-9.79-34.422c-6.528-8.63-16.318-12.947-29.369-12.947c-13.056,0-22.846,4.318-29.369,12.947
		c-6.528,8.635-9.79,20.107-9.79,34.422v7.895c0,14.32,3.262,25.791,9.79,34.422c6.524,8.635,16.313,12.947,29.369,12.947
		C883.702,201.795,893.492,197.483,900.02,188.848z"/>
	<path fill="#FFFFFF" d="M1102.445,81.634c9.474,9.79,14.211,23.108,14.211,39.949v108.951h-34.738V130.109
		c0-9.894-2.052-17.315-6.158-22.264c-4.106-4.944-11.004-7.421-20.685-7.421c-6.947,0-13.737,1.475-20.369,4.42
		c-6.632,2.952-12.582,7.264-17.843,12.949v112.74h-34.738V70.423h31.896v16.105c5.685-5.892,12.681-10.629,21-14.21
		c8.315-3.579,17.419-5.369,27.317-5.369C1079.6,66.949,1092.972,71.844,1102.445,81.634z"/>
	<path fill="#FFFFFF" d="M1401.188,9.473v221.06h-38.211l-96.003-164.847v164.847h-34.739V9.473h39.475l94.74,162.637V9.473
		H1401.188z"/>
	<path fill="#FFFFFF" d="M1455.03,37.263c-4.318-4.209-6.474-9.262-6.474-15.157c0-5.893,2.157-10.945,6.474-15.159
		c4.313-4.209,9.419-6.317,15.316-6.317c6.103,0,11.26,2.107,15.474,6.317c4.208,4.213,6.316,9.266,6.316,15.159
		c0,5.896-2.107,10.948-6.316,15.157c-4.214,4.215-9.371,6.317-15.474,6.317C1464.449,43.58,1459.343,41.478,1455.03,37.263z
		 M1452.978,70.423h34.738v160.11h-34.738V70.423z"/>
	<path fill="#FFFFFF" d="M1634.562,230.533l-63.16-79.265v79.265h-34.738V0h34.738v139.267l59.686-68.844h43.58l-65.686,73.581
		l70.107,86.529H1634.562z"/>
	<path fill="#FFFFFF" d="M1723.46,224.216c-11.265-6.947-19.738-16.421-25.422-28.421c-5.685-12.001-8.526-25.472-8.526-40.422
		v-9.79c0-14.946,2.842-28.423,8.526-40.422c5.684-12.001,14.157-21.475,25.422-28.423c11.26-6.947,24.791-10.422,40.58-10.422
		c15.998,0,29.577,3.474,40.738,10.422c11.156,6.947,19.58,16.421,25.264,28.423c5.684,12,8.526,25.476,8.526,40.422v9.79
		c0,14.95-2.842,28.421-8.526,40.422c-5.685,12-14.108,21.474-25.264,28.421c-11.161,6.949-24.74,10.422-40.738,10.422
		C1748.251,234.638,1734.72,231.165,1723.46,224.216z M1793.41,188.848c6.524-8.631,9.79-20.103,9.79-34.422v-7.895
		c0-14.315-3.267-25.787-9.79-34.422c-6.528-8.63-16.318-12.947-29.369-12.947c-13.056,0-22.846,4.318-29.369,12.947
		c-6.528,8.635-9.79,20.107-9.79,34.422v7.895c0,14.32,3.262,25.791,9.79,34.422c6.524,8.635,16.313,12.947,29.369,12.947
		C1777.092,201.795,1786.882,197.483,1793.41,188.848z"/>
	<path fill="#FFFFFF" d="M1875.516,0h34.738v230.533h-34.738V0z"/>
	<path fill="#FFFFFF" d="M2090.26,70.423v160.11h-31.896v-16.421c-5.052,6.108-11.265,10.845-18.632,14.211
		c-7.372,3.365-15.687,5.052-24.948,5.052c-14.32,0-26.527-3.474-36.633-10.422c-10.106-6.947-17.793-16.313-23.053-28.106
		c-5.265-11.789-7.895-24.948-7.895-39.475v-9.79c0-14.527,2.63-27.682,7.895-39.475c5.26-11.789,12.948-21.159,23.053-28.106
		c10.106-6.949,22.313-10.422,36.633-10.422c9.262,0,17.576,1.688,24.948,5.052c7.367,3.37,13.579,8.107,18.632,14.211V70.423
		H2090.26z M2055.522,180.636V120.32c-8.211-12.633-20.211-18.948-36.001-18.948c-12.213,0-21.425,4.105-27.633,12.316
		c-6.212,8.21-9.316,19.16-9.316,32.843v7.895c0,13.688,3.104,24.633,9.316,32.843c6.208,8.211,15.42,12.316,27.633,12.316
		C2035.311,199.585,2047.311,193.268,2055.522,180.636z"/>
	<path fill="#FFFFFF" d="M2252.264,230.848V44.211h-66.949V9.473h169.584v34.738h-66.633v186.638H2252.264z"/>
	<path fill="#FFFFFF" d="M2495.426,161.688h-102.635c2.527,26.108,18.736,39.16,48.633,39.16c16.209,0,30.949-3.997,44.212-12
		v33.474c-4.633,3.583-11.107,6.475-19.421,8.685c-8.319,2.21-17.108,3.316-26.369,3.316c-25.476,0-45.529-7.051-60.16-21.159
		c-14.635-14.103-21.948-33.367-21.948-57.791v-9.79c0-15.159,2.787-28.738,8.368-40.739c5.575-12,13.738-21.42,24.475-28.263
		c10.737-6.839,23.369-10.265,37.896-10.265c21.474,0,37.999,6.425,49.581,19.264c11.576,12.844,17.369,30.741,17.369,53.686
		V161.688z M2404.318,107.371c-5.793,6.108-9.424,14.739-10.895,25.896h67.897c-1.263-23.369-12.425-35.053-33.475-35.053
		C2417.947,98.214,2410.106,101.267,2404.318,107.371z"/>
	<path fill="#FFFFFF" d="M2545.637,230.374c-9.474-2.63-16.949-5.946-22.422-9.947v-33.792c17.26,10.53,35.054,15.791,53.37,15.791
		c9.05,0,15.682-1.471,19.895-4.422c4.209-2.945,6.316-6.947,6.316-12c0-4.629-1.579-8.26-4.737-10.895
		c-3.158-2.63-8.423-5.211-15.79-7.738l-12.948-4.737c-15.79-5.472-27.317-11.63-34.58-18.473
		c-7.263-6.839-10.895-16.471-10.895-28.896c0-14.946,5.473-26.789,16.422-35.527c10.944-8.734,25.787-13.106,44.527-13.106
		c8.418,0,16.422,0.789,24.001,2.369c7.579,1.578,13.787,3.74,18.632,6.474v33.79c-13.476-7.154-28.003-10.737-43.581-10.737
		c-8.211,0-14.477,1.371-18.79,4.105c-4.318,2.739-6.474,6.528-6.474,11.369c0,4.213,1.628,7.475,4.895,9.79
		c3.262,2.32,8.891,4.845,16.895,7.579l12.316,4.422c15.159,5.052,26.419,11.106,33.791,18.158
		c7.367,7.056,11.053,17.211,11.053,30.474c0,15.159-5.319,27.267-15.948,36.317c-10.634,9.055-25.738,13.579-45.318,13.579
		C2565.321,234.323,2555.111,233.006,2545.637,230.374z"/>
	<path fill="#FFFFFF" d="M2672.271,0h34.738v230.533h-34.738V0z"/>
	<path fill="#FFFFFF" d="M2887.015,70.423v160.11h-31.896v-16.421c-5.052,6.108-11.265,10.845-18.632,14.211
		c-7.372,3.365-15.687,5.052-24.948,5.052c-14.32,0-26.527-3.474-36.633-10.422c-10.105-6.947-17.793-16.313-23.053-28.106
		c-5.265-11.789-7.895-24.948-7.895-39.475v-9.79c0-14.527,2.63-27.682,7.895-39.475c5.26-11.789,12.948-21.159,23.053-28.106
		c10.105-6.949,22.313-10.422,36.633-10.422c9.262,0,17.576,1.688,24.948,5.052c7.367,3.37,13.579,8.107,18.632,14.211V70.423
		H2887.015z M2852.277,180.636V120.32c-8.211-12.633-20.211-18.948-36.001-18.948c-12.213,0-21.425,4.105-27.633,12.316
		c-6.212,8.21-9.316,19.16-9.316,32.843v7.895c0,13.688,3.103,24.633,9.316,32.843c6.208,8.211,15.42,12.316,27.633,12.316
		C2832.066,199.585,2844.066,193.268,2852.277,180.636z"/>
</g>
<g>
</g>
<g>
</g>
<g>
</g>
<g>
</g>
<g>
</g>
<g>
</g>
</svg>
