<?xml version="1.0" encoding="iso-8859-1"?>
<!-- Generator: Adobe Illustrator 28.0.0, SVG Export Plug-In . SVG Version: 6.00 Build 0)  -->
<svg version="1.1" id="Logo" xmlns="http://www.w3.org/2000/svg" xmlns:xlink="http://www.w3.org/1999/xlink" x="0px" y="0px"
	 width="283.465px" height="41.59px" viewBox="0 0 283.465 41.59" enable-background="new 0 0 283.465 41.59" xml:space="preserve">
<g id="JH_1_">
	<path fill="#FFFFFF" d="M27.269,31.399c-0.394,1.338-0.669,2.754-0.669,3.816c0,3.935,3.03,6.374,9.286,6.374
		c8.303,0,11.45-3.029,13.339-9.443l5.43-18.492h-7.712l-5.43,18.335c-0.59,2.046-1.771,2.912-4.21,2.912
		c-2.243,0-3.03-1.101-2.479-2.951l5.39-18.296h-7.712L27.269,31.399z"/>
	<polygon fill="#FFFFFF" points="131.186,41.196 149.365,41.196 151.332,34.704 140.788,34.704 142.007,30.533 151.254,30.533 
		153.143,24.199 143.896,24.199 145.155,19.949 155.7,19.949 157.55,13.654 139.331,13.654 	"/>
	<path fill="#FFFFFF" d="M250.371,13.26c-7.514,0-13.102,0.865-16.801,14.756c-0.63,2.36-1.023,4.485-1.023,6.335
		c0,4.446,2.361,7.239,9.955,7.239c1.928,0,4.408-0.275,6.139-0.865l1.889-6.374c0,0-2.006,0.512-5.193,0.512
		c-3.502,0-4.447-1.103-4.447-2.873c0-1.062,0.314-2.321,0.67-3.737c1.889-7.359,3.975-8.185,7.791-8.185
		c3.186,0,5.035,0.512,5.035,0.512l1.969-6.57C255.249,13.654,252.3,13.26,250.371,13.26z"/>
	<path fill="#FFFFFF" d="M1.259,41c1.062,0.275,3.817,0.59,5.981,0.59c9.837,0,13.771-2.675,16.015-10.19l5.273-17.745h-7.713
		l-4.643,15.816c-0.157,0.512-0.433,1.535-0.865,2.322c-1.259,2.282-3.777,2.911-6.689,2.911c-2.872,0-5.352-0.354-5.352-0.354
		L1.259,41z"/>
	<path fill="#FFFFFF" d="M192.884,41.196h7.633l2.715-9.246h2.086l2.283,9.246h8.262l-3.068-10.466
		c2.321-0.67,4.958-1.496,6.768-7.635c0.473-1.611,0.669-3.305,0.669-4.17c0-3.344-1.967-5.272-6.886-5.272h-12.316L192.884,41.196z
		 M204.925,26.166l1.809-6.217h3.463c1.338,0,2.008,0.668,2.008,1.77c0,2.559-1.26,4.447-3.896,4.447H204.925z"/>
	<path fill="#FFFFFF" d="M103.839,25.34H93.531l-1.574,5.076h3.266l-1.298,4.367c0,0-1.102,0.196-2.361,0.196
		c-2.795,0-3.227-1.22-3.227-2.99c0-1.062,0.275-2.36,0.63-3.778c1.889-7.357,4.092-8.301,7.909-8.301
		c3.974,0,7.122,0.787,7.122,0.787l2.006-6.414c-1.102-0.354-4.643-1.024-8.105-1.024c-7.516,0-13.143,0.826-16.841,14.717
		c-0.63,2.359-0.905,4.445-0.905,6.295c0,4.446,2.597,7.318,10.074,7.318c3.62,0,7.437-0.59,9.168-1.18L103.839,25.34z"/>
	<polygon fill="#FFFFFF" points="161.602,13.654 169.314,13.654 161.17,41.196 153.457,41.196 	"/>
	<path fill="#FFFFFF" d="M59.062,13.654h6.452l4.015,14.676h0.117c0,0,0.63-2.4,1.22-4.447l3.03-10.228h7.594l-8.145,27.542h-6.453
		l-4.093-14.479h-0.117c0,0-0.552,2.242-1.221,4.525l-2.951,9.954h-7.594L59.062,13.654z"/>
	<path fill="#FFFFFF" d="M173.878,13.654h6.454l4.014,14.676h0.117c0,0,0.63-2.4,1.22-4.447l3.03-10.228h7.595l-8.145,27.542h-6.453
		l-4.092-14.479h-0.118c0,0-0.551,2.242-1.22,4.525l-2.952,9.954h-7.594L173.878,13.654z"/>
	<polygon fill="#FFFFFF" points="226.29,13.654 234.002,13.654 225.858,41.196 218.146,41.196 	"/>
	<polygon fill="#FFFFFF" points="111.552,13.654 119.264,13.654 116.077,24.355 123.632,24.355 126.819,13.654 134.531,13.654 
		126.386,41.196 118.674,41.196 121.782,30.691 114.228,30.691 111.119,41.196 103.407,41.196 	"/>
	<polygon fill="#FFFFFF" points="260.484,13.654 268.197,13.654 265.009,24.355 272.564,24.355 275.751,13.654 283.465,13.654 
		275.318,41.196 267.607,41.196 270.714,30.691 263.16,30.691 260.052,41.196 252.339,41.196 	"/>
	<path fill="#FFFFFF" d="M29.629,11.293L17.864,0L0,11.293h10.113l-6.1,20.539c0,0,2.047,0.314,4.84,0.314
		c2.204,0,3.463-0.669,4.053-1.691c0.315-0.551,0.433-0.826,0.708-1.771l5.233-17.391H29.629z"/>
</g>
</svg>
