<?xml version="1.0" encoding="UTF-8"?>
<svg id="a" data-name="Layer 1" xmlns="http://www.w3.org/2000/svg" width="613.349" height="492.486" xmlns:xlink="http://www.w3.org/1999/xlink" viewBox="0 0 613.349 492.486">
  <g>
    <g id="b" data-name="g13180">
      <g id="c" data-name="g13311">
        <g id="d" data-name="g13214">
          <path id="e" data-name="path13216" d="m64.703,71.347c-1.494-4.98-6.225-8.715-11.951-8.715-5.478,0-10.208,3.735-11.951,8.466l23.903.249Zm-24.152,3.486c0,6.723,5.478,12.2,12.449,12.2,3.735,0,6.972-1.494,9.213-3.984h4.98c-2.739,4.731-8.217,7.968-14.441,7.968-8.964-.249-16.433-7.47-16.433-16.184,0-8.964,7.47-16.184,16.682-16.184s16.433,7.221,16.433,16.184" fill="#da1f26" stroke-width="0"/>
        </g>
        <g id="f" data-name="g13218">
          <path id="g" data-name="path13220" d="m29.389,71.347c-1.494-4.98-6.225-8.715-11.951-8.715-5.478,0-10.208,3.735-11.951,8.466l23.903.249Zm-24.401,3.486c0,6.723,5.478,12.2,12.449,12.2,3.735,0,6.972-1.494,9.213-3.984h4.98c-2.739,4.482-7.968,7.719-14.192,7.719-9.213,0-16.433-7.221-16.433-16.184s7.47-16.184,16.433-16.184c9.213,0,16.682,7.221,16.682,16.184" fill="#da1f26" stroke-width="0"/>
        </g>
        <g id="h" data-name="g13222">
          <path id="i" data-name="path13224" d="m153.786,71.347c-1.494-4.98-6.225-8.715-11.951-8.715-5.478,0-10.208,3.735-11.951,8.466l23.903.249Zm-24.401,3.486c0,6.723,5.478,12.2,12.449,12.2,3.735,0,6.972-1.494,9.213-3.984h4.98c-2.739,4.731-8.217,7.968-14.441,7.968-9.213,0-16.682-7.221-16.682-16.184s7.47-16.184,16.682-16.184,16.682,7.221,16.682,16.184" fill="#da1f26" stroke-width="0"/>
        </g>
        <g id="j" data-name="g13226">
          <path id="k" data-name="path13228" d="m110.622,82.885c0,2.241,1.992,4.233,4.233,4.233,4.731,0,8.715-1.245,9.959-2.988l2.49,2.739c-2.49,2.49-6.972,4.233-12.2,4.233-4.482,0-8.217-3.486-8.217-7.968h0v-20.168h-11.702v-3.984h11.702v-16.433h4.233v16.184h6.474v3.984h-6.474l-.498,20.168" fill="#da1f26" stroke-width="0"/>
        </g>
        <g id="l" data-name="g13230">
          <path id="m" data-name="path13232" d="m160.613,74.843c0-8.964,7.47-16.184,16.433-16.184,6.225,0,11.453,3.237,14.441,8.217h-4.98c-2.241-2.49-5.727-3.984-9.213-3.984-6.972,0-12.449,5.478-12.449,12.2h0c0,6.723,5.478,12.2,12.449,12.2,3.735,0,6.972-1.494,9.213-3.984h4.98c-2.988,4.731-8.217,7.968-14.441,7.968-8.964-.498-16.433-7.719-16.433-16.433" fill="#da1f26" stroke-width="0"/>
        </g>
        <g id="n" data-name="g13234">
          <path id="o" data-name="path13236" d="m78.896,110.147c1.743-1.494,3.984-2.988,5.976-4.482,7.719-5.478,15.437-11.453,15.437-18.674s-7.968-12.947-15.437-18.425c-6.972-4.98-14.192-10.208-14.192-15.686s7.221-10.706,13.943-15.686c3.237-2.49,6.474-4.731,9.213-7.221h-5.478c-1.992,1.494-3.984,2.988-5.976,4.482-7.719,5.478-15.437,11.453-15.437,18.425,0,7.221,7.968,12.947,15.437,18.674,6.972,4.98,13.943,10.208,13.943,15.686s-7.221,10.706-14.192,15.686c-3.237,2.241-6.474,4.731-9.213,7.221" fill="#da1f26" stroke-width="0"/>
        </g>
      </g>
    </g>
    <g>
      <path d="m31.829,116.454h3.745v15.398h5.271v3.468h-9.017v-18.865Z" fill="#da1f26" stroke-width="0"/>
      <path d="m61.237,119.783l-2.497,2.358c-1.803-1.803-3.745-2.636-5.826-2.636-1.803,0-3.329.555-4.578,1.803-1.248,1.248-1.942,2.774-1.942,4.578,0,1.248.277,2.358.832,3.329.555.971,1.387,1.665,2.358,2.219.971.555,2.219.832,3.329.832s2.081-.139,2.913-.555,1.803-1.11,2.913-2.081l2.497,2.497c-1.387,1.387-2.774,2.358-4.023,2.774-1.248.555-2.774.832-4.3.832-3.052,0-5.41-.971-7.352-2.774-1.942-1.803-2.913-4.162-2.913-7.075,0-1.803.416-3.468,1.248-4.994.832-1.387,2.081-2.636,3.745-3.468s3.329-1.387,5.271-1.387c1.526,0,3.052.277,4.578.971,1.526.694,2.774,1.526,3.745,2.774Z" fill="#da1f26" stroke-width="0"/>
      <path d="m70.947,116.454h11.652l-6.797,15.398h6.381v3.468h-11.791l6.797-15.259h-6.242v-3.607Z" fill="#da1f26" stroke-width="0"/>
      <path d="m95.5,121.448h3.607v13.872h-3.607v-1.526c-.694.694-1.387,1.11-2.081,1.387s-1.526.416-2.219.416c-1.803,0-3.468-.694-4.716-2.081-1.387-1.387-1.942-3.052-1.942-5.133s.694-3.884,1.942-5.271c1.248-1.387,2.913-2.081,4.716-2.081.832,0,1.665.139,2.358.416.694.277,1.387.832,2.081,1.387v-1.387h-.139Zm-3.745,2.774c-1.11,0-2.081.416-2.774,1.11-.694.694-1.11,1.803-1.11,2.913,0,1.248.416,2.219,1.11,2.913.694.832,1.665,1.11,2.774,1.11s2.081-.416,2.774-1.11c.694-.694,1.11-1.803,1.11-3.052s-.416-2.219-1.11-2.913c-.694-.555-1.665-.971-2.774-.971Z" fill="#da1f26" stroke-width="0"/>
      <path d="m113.117,121.448h3.607v11.93c0,2.358-.416,4.023-1.387,5.133-1.248,1.526-3.19,2.219-5.826,2.219-1.387,0-2.636-.139-3.468-.555-.832-.416-1.803-.832-2.358-1.526-.694-.694-1.11-1.526-1.387-2.358h3.884c.416.416.832.694,1.387.832s1.248.277,1.942.277c.971,0,1.665-.139,2.358-.416.555-.277.971-.694,1.248-1.11.277-.416.416-1.248.416-2.358-.694.555-1.248,1.11-1.942,1.387s-1.526.416-2.358.416c-1.942,0-3.468-.694-4.855-2.081-1.248-1.387-1.942-3.052-1.942-5.133,0-2.219.694-4.023,2.081-5.271,1.248-1.248,2.774-1.803,4.578-1.803.832,0,1.526.139,2.358.416.694.277,1.526.832,2.219,1.387v-1.387h-.555Zm-3.607,2.774c-1.11,0-2.081.416-2.774,1.11-.694.694-1.11,1.665-1.11,2.774s.416,2.081,1.11,2.913c.694.694,1.665,1.11,2.774,1.11s2.081-.416,2.774-1.11c.694-.694,1.11-1.665,1.11-2.913,0-1.11-.416-2.081-1.11-2.774-.694-.694-1.665-1.11-2.774-1.11Z" fill="#da1f26" stroke-width="0"/>
      <path d="m119.498,121.448h3.052v1.803c.277-.694.832-1.248,1.387-1.526.555-.416,1.11-.555,1.803-.555.416,0,.971.139,1.387.416l-1.11,3.052c-.416-.139-.694-.277-.971-.277-.555,0-.971.277-1.387.971-.416.694-.555,1.942-.555,3.884v6.242h-3.607v-14.01Z" fill="#da1f26" stroke-width="0"/>
      <path d="m143.08,129.354h-11.514c.139.971.555,1.803,1.387,2.358.694.555,1.665.832,2.774.832,1.387,0,2.497-.416,3.468-1.387l3.052,1.387c-.694.971-1.665,1.803-2.636,2.358-1.11.555-2.219.694-3.745.694-2.219,0-4.023-.694-5.41-2.081-1.387-1.387-2.081-3.052-2.081-5.133s.694-3.884,2.081-5.271c1.387-1.387,3.19-2.081,5.271-2.081,2.219,0,4.023.694,5.41,2.081,1.387,1.387,2.081,3.19,2.081,5.549l-.139.694Zm-3.468-2.774c-.277-.832-.694-1.387-1.387-1.942-.694-.416-1.526-.694-2.358-.694-.971,0-1.803.277-2.636.832-.416.277-.971.971-1.248,1.803h7.629Z" fill="#da1f26" stroke-width="0"/>
      <path d="m149.6,116.038v6.936c.694-.694,1.387-1.11,2.081-1.387s1.526-.416,2.358-.416c1.803,0,3.468.694,4.716,2.081s1.942,3.19,1.942,5.271-.694,3.745-2.081,5.133c-1.387,1.387-2.913,2.081-4.716,2.081-.832,0-1.526-.139-2.219-.416-.694-.277-1.387-.694-2.081-1.387v1.526h-3.607v-19.42h3.607Zm3.745,8.184c-1.11,0-2.081.416-2.774,1.11-.694.694-1.11,1.665-1.11,2.913s.416,2.219,1.11,3.052c.694.694,1.665,1.11,2.774,1.11s1.942-.416,2.774-1.11c.694-.832,1.11-1.803,1.11-2.913,0-1.248-.416-2.219-1.11-2.913-.832-.832-1.665-1.248-2.774-1.248Z" fill="#da1f26" stroke-width="0"/>
    </g>
  </g>
  <g>
    <path d="m257.784,53.727c.502,0,.964-.205,1.301-.542.336-.329.541-.79.541-1.301s-.205-.971-.541-1.301c-.337-.336-.799-.542-1.301-.542-.511,0-.971.206-1.307.542-.329.33-.534.791-.534,1.301s.205.972.534,1.301c.336.337.797.542,1.307.542" fill="#53c3be" stroke-width="0"/>
    <path d="m276.047,89.049c.511,0,.972-.22,1.308-.549.329-.329.535-.798.535-1.308,0-.497-.206-.965-.535-1.295-.336-.341-.798-.546-1.308-.546s-.973.205-1.301.546c-.336.33-.541.798-.541,1.295,0,.51.205.979.541,1.308.329.329.79.549,1.301.549" fill="#53c3be" stroke-width="0"/>
    <path d="m227.711,80.138c-.511,0-.972.205-1.3.542-.336.336-.541.797-.541,1.301,0,.511.204.971.541,1.308.329.331.789.542,1.3.542s.971-.211,1.3-.542c.338-.337.542-.797.542-1.308,0-.504-.205-.965-.542-1.301-.329-.336-.789-.542-1.3-.542" fill="#53c3be" stroke-width="0"/>
    <path d="m270.615,69.67c.511,0,.971-.205,1.307-.542.329-.336.541-.797.541-1.3,0-.51-.212-.972-.541-1.308-.336-.33-.796-.542-1.307-.542-.503,0-.963.213-1.3.542-.336.335-.542.797-.542,1.308,0,.503.206.964.542,1.3.337.337.797.542,1.3.542" fill="#53c3be" stroke-width="0"/>
    <path d="m242.807,62.483c0-.511-.213-.972-.542-1.308-.336-.329-.796-.542-1.307-.542-.503,0-.964.213-1.3.542-.33.336-.541.797-.541,1.308,0,.503.212.965.541,1.301.336.329.797.541,1.3.54.511,0,.971-.212,1.307-.54.329-.336.542-.798.542-1.301" fill="#53c3be" stroke-width="0"/>
    <path d="m293.661,75.247l-35.135-35.135c-2.156-2.156-5.652-2.156-7.807,0l-35.135,35.135c-2.156,2.156-2.156,5.652,0,7.808l35.136,35.134c.712.713,1.572,1.184,2.48,1.426v-16.317c-.006,0-.011.001-.018.001v-.04h-4.03v-9.438h-9.475v-10.573h-7.801c-.207.693-.585,1.315-1.086,1.812-.788.794-1.881,1.273-3.079,1.273s-2.291-.478-3.079-1.273c-.787-.785-1.277-1.873-1.277-3.08,0-1.198.49-2.285,1.277-3.073.789-.789,1.882-1.279,3.079-1.279s2.291.49,3.079,1.279c.502.502.881,1.128,1.095,1.832h7.792v-14.101c-.684-.206-1.299-.584-1.798-1.076-.78-.796-1.271-1.882-1.271-3.081,0-1.206.491-2.293,1.271-3.08.795-.789,1.881-1.278,3.079-1.278,1.206,0,2.292.49,3.08,1.278.788.788,1.278,1.874,1.278,3.08,0,1.199-.49,2.285-1.278,3.081-.511.503-1.137.891-1.851,1.095v24.645h9.48v9.455h5.536v-13.776h-8.203v-19.302h7.202v-11.735c-.564-.224-1.075-.562-1.495-.982-.787-.789-1.278-1.882-1.278-3.081,0-1.206.49-2.292,1.278-3.08.787-.787,1.874-1.279,3.08-1.279,1.198,0,2.29.492,3.07,1.279.796.789,1.277,1.874,1.277,3.08,0,1.2-.482,2.293-1.277,3.081-.574.574-1.312.992-2.139,1.176v14.057h-7.212v14.269h5.697v-6.132h11.929v-6.415c-.606-.223-1.146-.572-1.588-1.013-.796-.797-1.278-1.883-1.278-3.081,0-1.206.482-2.292,1.278-3.08.779-.788,1.873-1.278,3.071-1.278,1.205,0,2.291.49,3.079,1.278.788.788,1.278,1.874,1.278,3.08,0,1.198-.491,2.284-1.278,3.081-.554.553-1.26.963-2.057,1.149v8.788h-11.929v12.571h6.206v-7.455h5.959c.205-.7.593-1.335,1.094-1.841.787-.789,1.882-1.28,3.08-1.28,1.206,0,2.291.491,3.079,1.28.788.782,1.277,1.879,1.278,3.073,0,1.206-.49,2.292-1.277,3.088-.787.78-1.873,1.271-3.079,1.271-1.198,0-2.292-.491-3.079-1.271-.493-.494-.871-1.123-1.085-1.802h-3.461v7.453h-8.714v7.329h-3.946v16.425c1.013-.213,1.978-.709,2.765-1.495l35.134-35.134c2.156-2.156,2.156-5.653,0-7.808" fill="#53c3be" stroke-width="0"/>
    <path d="m366.007,95.469c-6.297,0-9.954-2.369-9.954-8.463v-17.334h-4.468v-7.854h4.468v-7.922l9.75-1.355v9.276h7.516l-.541,7.854h-6.974v15.979c0,1.355.813,1.828,2.031,1.828,1.084,0,2.641-.136,4.063-.61l1.151,7.381c-2.167.745-4.807,1.219-7.042,1.219" fill="#fff" stroke-width="0"/>
    <path d="m393.143,72.99c0-2.302-.677-4.198-4.063-4.198s-4.469,1.896-4.469,4.198v1.422h8.531v-1.422h0Zm-8.531,8.734v.948c0,3.793,1.49,4.807,5.958,4.807,3.047,0,7.109-.541,10.021-1.422l1.421,7.313c-2.979,1.083-7.786,2.098-12.39,2.098-10.698,0-14.76-5.281-14.76-13.406v-7.719c0-7.109,3.182-13.203,14.151-13.203s13.338,6.5,13.338,13.677v6.906h-17.739Z" fill="#fff" stroke-width="0"/>
    <polygon points="406.618 94.791 406.618 48.344 410.545 47.802 410.545 94.791 406.618 94.791" fill="#fff" stroke-width="0"/>
    <path d="m435.813,80.641h-9.615c-4.536,0-5.89,1.354-5.89,5.687,0,3.86.813,5.62,5.417,5.62,3.25,0,7.109-1.287,10.088-3.385v-7.922h0Zm3.928,14.15h-3.385l-.271-2.572c-3.183,1.963-6.839,3.25-11.172,3.25-5.823,0-8.531-3.317-8.531-9.208,0-6.974,3.182-9.141,9.682-9.141h9.75v-6.432c0-4.537-2.369-6.026-7.786-6.026-3.25,0-6.703.474-9.75,1.083l-.609-3.318c2.64-.745,6.771-1.286,10.156-1.286,8.531,0,11.916,3.385,11.916,9.547v24.104Z" fill="#fff" stroke-width="0"/>
    <path d="m450.371,91.203c2.572.474,5.213.677,7.583.677,7.109,0,8.802-2.979,8.802-7.922v-13.271c0-3.927-1.76-5.755-6.094-5.755-3.995,0-7.177,1.084-10.291,2.844v23.427Zm20.312-7.38c0,7.38-3.25,11.645-13.203,11.645-2.843,0-7.989-.474-11.037-1.219v-45.906l3.928-.541v15.843c2.708-1.422,6.364-2.505,10.833-2.505,6.635,0,9.479,3.791,9.479,9.615v13.068h0Z" fill="#fff" stroke-width="0"/>
    <path d="m307.317,61.141c-3.588,0-6.703.812-9.344,1.828v-15.979l-9.749,1.354v13.323l9.76,9.761c1.827-.946,4.124-1.823,6.219-1.823,2.573,0,3.521,1.354,3.521,3.521v8.531c0,3.115-.88,5.35-5.755,5.35-1.354,0-2.573,0-3.996-.137v-.069l-7.865,7.866c4.07.549,8.479.802,11.522.802,13.61,0,15.844-6.026,15.844-13.88v-8.531c0-7.38-2.844-11.916-10.157-11.916" fill="#fff" stroke-width="0"/>
    <path d="m343.418,61.877h-2.288l-2.253,7.854-2.973,10.361-1.476,5.144-6.703-23.36h-9.885l8.684,28.194.149.482c.734,2.134,2.237,3.501,4.392,4.252l.047.045-3.859,13.339h9.208l4.148-13.179.05-.16,1.722-5.479,8.638-27.495h-7.597Z" fill="#fff" stroke-width="0"/>
  </g>
  <g>
    <path d="m33.329,265.398h-9.534v16.604h-.103c-1.202-1.641-2.594-2.816-4.174-3.527-1.58-.602-3.341-.902-5.282-.902-3.796.091-6.699,1.642-8.709,4.654-2.044,2.957-3.066,6.324-3.066,10.102,0,4.417,1.091,8.121,3.273,11.115,2.112,3.048,5.213,4.617,9.302,4.708,2.251-.036,4.234-.616,5.952-1.742,1.701-1.114,2.86-2.494,3.479-4.137h.129v5.206h8.736v-42.082h0Zm-21.059,27.15c0-2.01.515-3.71,1.546-5.099.945-1.389,2.354-2.102,4.228-2.139,1.788.037,3.188.749,4.202,2.139,1.031,1.389,1.565,3.225,1.599,5.509-.034,2.157-.601,3.911-1.702,5.264-1.083,1.425-2.45,2.156-4.1,2.193-1.804,0-3.197-.75-4.177-2.248-1.065-1.389-1.598-3.261-1.598-5.619Z" fill="#d41f35" fill-rule="evenodd" stroke-width="0"/>
    <path d="m37.67,306.366c4.004,1.232,8.084,1.849,12.242,1.849,4.789.04,8.955-.946,12.5-2.96,3.602-2.032,5.46-5.74,5.575-11.121,0-1.972-.262-3.626-.785-4.961-.542-1.355-1.288-2.481-2.238-3.378-.911-.896-1.948-1.653-3.11-2.271-1.143-.598-2.354-1.086-3.634-1.465-1.171-.395-2.343-.783-3.518-1.166-1.182-.359-2.248-.707-3.198-1.046-.949-.358-1.706-.806-2.268-1.345-.601-.518-.901-1.205-.901-2.063.078-1.834.993-2.979,2.743-3.437.798-.239,1.615-.399,2.452-.478.836-.04,1.595-.06,2.276-.06,3.23,0,6.324.648,9.282,1.945l.7-8.804c-2.934-1.015-6.464-1.542-10.588-1.582-2.091,0-4.172.18-6.243.539-2.091.418-4.018,1.116-5.783,2.093-1.726.976-3.126,2.321-4.201,4.035-1.131,1.714-1.697,3.856-1.697,6.427.038,3.766,1.094,6.526,3.166,8.281.949.897,2.014,1.644,3.196,2.242,1.162.618,2.334,1.136,3.515,1.554,1.279.4,2.489.788,3.633,1.166,1.142.359,2.169.747,3.079,1.166.969.399,1.724.926,2.266,1.585.523.657.785,1.494.785,2.51-.039,1.674-.738,2.791-2.097,3.349-1.301.578-2.893.847-4.777.807-4.679-.08-8.494-1.017-11.444-2.812l-.929,9.404Z" fill="#194891" fill-rule="evenodd" stroke-width="0"/>
    <path d="m70.804,307.48h10.713v-14.941h4.277c10.841-.12,16.339-4.706,16.494-13.757.04-9.391-6.104-14.066-18.43-14.027h-13.053v42.724Zm10.712-34.65h2.963c2.016,0,3.708.389,5.08,1.167,1.31.898,1.986,2.424,2.026,4.579-.04,2.174-.715,3.711-2.026,4.609-1.371.898-3.064,1.327-5.08,1.286h-2.963v-11.641Zm17.314,34.65h10.886l3.179-9.114h15.106l2.981,9.114h11.758l-15.498-42.724h-13.138l-15.274,42.724Zm27.475-17.194h-10.404l5.347-16.722h.146l4.912,16.722Zm49.905,7.275c-3.043,1.435-6.395,2.172-10.058,2.212-4,0-7.211-1.206-9.633-3.62-2.497-2.373-3.766-5.663-3.804-9.871.038-4.069,1.193-7.369,3.465-9.902,2.234-2.572,5.267-3.878,9.099-3.918,3.624,0,7.126,1.002,10.507,3.005l.873-9.235c-3.848-1.394-7.829-2.132-11.939-2.211-6.759,0-12.259,1.833-16.502,5.498-4.299,3.725-6.486,9.312-6.562,16.763.151,7.967,2.666,13.625,7.547,16.972,2.272,1.714,4.769,2.959,7.491,3.735,2.704.817,5.398,1.225,8.082,1.225,2.722-.04,5.031-.248,6.927-.627,1.877-.317,3.548-.685,5.012-1.102l-.506-8.924Zm32.583,1.845h-18.286v-9.682h16.682v-8.068h-16.682v-8.825h17.639v-8.074h-28.339v42.724h28.987v-8.074Z" fill="#194891" fill-rule="evenodd" stroke-width="0"/>
  </g>
  <g>
    <g>
      <path d="m315.381,477.744h2.65l4.392,11.746h-2.68l-.89-2.616h-4.392l-.92,2.616h-2.616l4.456-11.746Zm-.244,7.204h3.044l-1.479-4.309h-.038l-1.528,4.309Z" fill="#fff" stroke-width="0"/>
      <path d="m328.016,477.744h2.583v4.508h4.756v-4.508h2.583v11.746h-2.583v-5.068h-4.756v5.068h-2.583v-11.746Z" fill="#fff" stroke-width="0"/>
      <path d="m342.195,479.666h-2.335v-1.926h2.335v1.926Zm-2.335,1.318h2.335v8.506h-2.335v-8.506Z" fill="#fff" stroke-width="0"/>
      <path d="m347.33,480.984h1.712v1.565h-1.712v4.212c0,.788.199.987.987.987.263,0,.511-.015.725-.064v1.824c-.394.068-.905.083-1.366.083-1.449,0-2.68-.312-2.68-2.023v-5.019h-1.415v-1.565h1.415v-2.549h2.335v2.549Z" fill="#fff" stroke-width="0"/>
      <path d="m350.39,483.6c.131-2.174,2.091-2.845,3.998-2.845,1.693,0,3.735.379,3.735,2.418v4.426c0,.773.083,1.547.297,1.892h-2.369c-.083-.263-.15-.544-.165-.822-.74.773-1.809,1.051-2.864,1.051-1.629,0-2.894-.807-2.894-2.549.034-3.867,5.758-1.794,5.661-3.701,0-.987-.691-1.152-1.513-1.152-.905,0-1.464.36-1.547,1.284h-2.339Zm5.394,1.727c-.394.345-1.216.36-1.941.496-.725.131-1.381.394-1.381,1.25s.676,1.085,1.43,1.085c1.828,0,1.892-1.43,1.892-1.96v-.871Z" fill="#fff" stroke-width="0"/>
      <path d="m365.555,483.98c-.146-.972-.724-1.464-1.727-1.464-1.498,0-1.99,1.513-1.99,2.763,0,1.235.477,2.68,1.941,2.68,1.104,0,1.712-.676,1.858-1.727h2.256c-.312,2.252-1.843,3.487-4.096,3.487-2.568,0-4.294-1.809-4.294-4.358,0-2.65,1.58-4.606,4.343-4.606,2.008,0,3.867,1.051,3.998,3.225h-2.29Z" fill="#fff" stroke-width="0"/>
      <path d="m369.369,477.744h2.335v4.426h.049c.593-.972,1.61-1.415,2.485-1.415,2.485,0,3.108,1.4,3.108,3.506v5.233h-2.335v-4.805c0-1.4-.394-2.091-1.498-2.091-1.269,0-1.809.706-1.809,2.436v4.46h-2.335v-11.75Z" fill="#fff" stroke-width="0"/>
      <path d="m381.363,479.666h-2.335v-1.926h2.335v1.926Zm-2.335,1.318h2.335v8.506h-2.335v-8.506Z" fill="#fff" stroke-width="0"/>
      <path d="m395.857,488.158c-.92,1.186-2.091,1.61-3.225,1.61-3.619,0-5.773-2.714-5.773-6.104,0-3.487,2.155-6.201,5.773-6.201,2.402,0,4.689,1.464,4.951,4.148h-2.466c-.312-1.318-1.25-1.975-2.485-1.975-2.32,0-3.191,1.975-3.191,4.032,0,1.96.871,3.93,3.191,3.93,1.693,0,2.65-.886,2.797-2.534h-2.601v-1.926h4.936v6.352h-1.644l-.263-1.333Z" fill="#fff" stroke-width="0"/>
      <path d="m399.607,480.984h2.222v1.58h.034c.443-1.07,1.547-1.809,2.714-1.809.18,0,.345.034.511.083v2.174c-.214-.049-.559-.083-.837-.083-1.727,0-2.305,1.216-2.305,2.733v3.833h-2.335v-8.51h-.004Z" fill="#fff" stroke-width="0"/>
      <path d="m409.806,480.755c2.68,0,4.411,1.776,4.411,4.49,0,2.699-1.727,4.475-4.411,4.475-2.665,0-4.392-1.776-4.392-4.475,0-2.714,1.727-4.49,4.392-4.49Zm0,7.204c1.595,0,2.072-1.348,2.072-2.714s-.477-2.729-2.072-2.729c-1.58,0-2.057,1.366-2.057,2.729s.477,2.714,2.057,2.714Z" fill="#fff" stroke-width="0"/>
      <path d="m423.215,489.49h-2.222v-1.186h-.049c-.593.972-1.614,1.415-2.598,1.415-2.485,0-3.108-1.396-3.108-3.502v-5.233h2.335v4.805c0,1.4.394,2.091,1.498,2.091,1.265,0,1.809-.709,1.809-2.436v-4.46h2.335v8.506h0Z" fill="#fff" stroke-width="0"/>
      <path d="m424.66,480.984h2.222v1.085h.034c.574-.92,1.479-1.318,2.534-1.318,2.665,0,3.867,2.155,3.867,4.572,0,2.271-1.235,4.392-3.735,4.392-1.036,0-1.975-.443-2.549-1.284h-.034v4.047h-2.335v-11.494h-.004Zm6.318,4.279c0-1.366-.544-2.748-2.038-2.748-1.532,0-2.023,1.366-2.023,2.748s.526,2.699,2.038,2.699c1.528-.004,2.023-1.318,2.023-2.699Z" fill="#fff" stroke-width="0"/>
      <path d="m445.881,481.69c-.18-1.167-1.299-2.057-2.568-2.057-2.32,0-3.191,1.975-3.191,4.032,0,1.96.871,3.93,3.191,3.93,1.58,0,2.466-1.07,2.665-2.631h2.5c-.263,2.947-2.271,4.805-5.165,4.805-3.619,0-5.773-2.714-5.773-6.104,0-3.487,2.155-6.201,5.773-6.201,2.568,0,4.756,1.513,5.068,4.227h-2.5Z" fill="#fff" stroke-width="0"/>
      <path d="m453.794,480.755c2.684,0,4.411,1.776,4.411,4.49,0,2.699-1.727,4.475-4.411,4.475-2.665,0-4.392-1.776-4.392-4.475-.004-2.714,1.727-4.49,4.392-4.49Zm0,7.204c1.595,0,2.072-1.348,2.072-2.714s-.477-2.729-2.072-2.729c-1.58,0-2.057,1.366-2.057,2.729,0,1.366.477,2.714,2.057,2.714Z" fill="#fff" stroke-width="0"/>
      <path d="m458.795,480.984h2.204v1.152h.034c.608-.871,1.479-1.381,2.601-1.381,1.07,0,2.023.379,2.485,1.415.511-.74,1.381-1.415,2.568-1.415,1.809,0,3.108.837,3.108,3.044v5.695h-2.335v-4.82c0-1.134-.098-2.072-1.43-2.072-1.318,0-1.562,1.104-1.562,2.155v4.737h-2.335v-4.771c0-.987.068-2.121-1.415-2.121-.462,0-1.58.297-1.58,1.96v4.936h-2.335v-8.514h-.008Z" fill="#fff" stroke-width="0"/>
      <path d="m473.138,480.984h2.222v1.085h.034c.574-.92,1.479-1.318,2.534-1.318,2.665,0,3.867,2.155,3.867,4.572,0,2.271-1.235,4.392-3.735,4.392-1.036,0-1.975-.443-2.549-1.284h-.034v4.047h-2.335v-11.494h-.004Zm6.318,4.279c0-1.366-.544-2.748-2.038-2.748-1.532,0-2.023,1.366-2.023,2.748s.526,2.699,2.038,2.699c1.528-.004,2.023-1.318,2.023-2.699Z" fill="#fff" stroke-width="0"/>
      <path d="m482.759,483.6c.131-2.174,2.087-2.845,3.998-2.845,1.693,0,3.735.379,3.735,2.418v4.426c0,.773.083,1.547.297,1.892h-2.369c-.083-.263-.146-.544-.165-.822-.74.773-1.809,1.051-2.864,1.051-1.629,0-2.894-.807-2.894-2.549.034-3.867,5.758-1.794,5.661-3.701,0-.987-.691-1.152-1.513-1.152-.905,0-1.464.36-1.547,1.284h-2.339Zm5.398,1.727c-.394.345-1.216.36-1.941.496-.724.131-1.381.394-1.381,1.25s.676,1.085,1.43,1.085c1.824,0,1.892-1.43,1.892-1.96v-.871Z" fill="#fff" stroke-width="0"/>
      <path d="m491.972,480.984h2.222v1.186h.049c.593-.972,1.61-1.415,2.598-1.415,2.485,0,3.108,1.4,3.108,3.506v5.233h-2.335v-4.805c0-1.4-.394-2.091-1.498-2.091-1.265,0-1.809.706-1.809,2.436v4.46h-2.335v-8.51h0Z" fill="#fff" stroke-width="0"/>
      <path d="m505.594,490.56c-.511,1.366-1.333,1.926-2.928,1.926-.477,0-.953-.034-1.43-.083v-1.926c.443.049.905.098,1.366.083.608-.068.905-.544.905-1.07,0-.18-.034-.364-.098-.526l-2.996-7.981h2.5l1.926,5.826h.034l1.858-5.826h2.418l-3.555,9.576Z" fill="#fff" stroke-width="0"/>
    </g>
    <g>
      <g>
        <path d="m329.739,448.719h13.206c-1.712,6.074-7.286,10.541-13.901,10.541-7.955,0-14.437-6.479-14.437-14.449s6.487-14.445,14.437-14.445c6.021,0,11.187,3.705,13.356,8.953h3.919c-2.331-7.324-9.19-12.632-17.275-12.632-9.985,0-18.124,8.127-18.124,18.124s8.138,18.131,18.124,18.131c5.71,0,11.021-2.864,14.126-7.009v6.228h3.356v-17.065h-16.787v3.623Z" fill="#fff" stroke-width="0"/>
        <rect x="352.657" y="427.814" width="3.615" height="34.344" fill="#fff" stroke-width="0"/>
        <rect x="459.47" y="427.814" width="3.619" height="34.303" fill="#fff" stroke-width="0"/>
        <path d="m375.116,459.673c-5.56,0-10.068-4.775-10.068-10.316s4.508-10.289,10.068-10.289,10.068,4.734,10.068,10.289-4.523,10.316-10.068,10.316m0-24.04c-7.572,0-13.728,6.153-13.728,13.724s6.153,13.717,13.728,13.717,13.728-6.16,13.728-13.72c-.004-7.572-6.164-13.721-13.728-13.721" fill="#fff" stroke-width="0"/>
        <path d="m406.762,459.673c-5.563,0-10.072-4.775-10.072-10.319s4.512-10.289,10.072-10.289,10.06,4.734,10.06,10.289-4.512,10.319-10.06,10.319m.154-24.295c-4.062,0-7.703,1.791-10.229,4.617v-12.181h-3.611v34.348h3.611v-3.454c2.526,2.827,6.168,4.606,10.229,4.606,7.624,0,13.814-6.246,13.814-13.961,0-7.718-6.19-13.976-13.814-13.976" fill="#fff" stroke-width="0"/>
        <path d="m439.402,459.658c-5.548,0-10.068-4.775-10.068-10.327s4.52-10.289,10.068-10.289,10.064,4.737,10.064,10.289-4.508,10.327-10.064,10.327m10.094-19.614c-2.56-2.86-6.261-4.666-10.402-4.666-7.718,0-13.972,6.258-13.972,13.976s6.254,13.961,13.972,13.964c4.141,0,7.842-1.809,10.402-4.659v3.502h3.653v-25.151h-3.653v3.033Z" fill="#fff" stroke-width="0"/>
        <rect x="558.239" y="424.319" width="6.412" height="6.074" fill="#fff" stroke-width="0"/>
        <polygon points="475.98 427.814 470.109 427.814 470.109 456.61 470.109 462.128 489.351 462.128 489.351 456.61 475.98 456.61 475.98 427.814" fill="#fff" stroke-width="0"/>
        <rect x="558.239" y="435.126" width="6.412" height="26.953" fill="#fff" stroke-width="0"/>
        <path d="m505.628,457.447c-4.287,0-7.774-3.731-7.774-8.33s3.487-8.326,7.774-8.326,7.771,3.728,7.771,8.326-3.484,8.33-7.771,8.33m0-22.411c-7.774,0-14.085,6.307-14.085,14.081s6.31,14.077,14.085,14.077,14.073-6.299,14.073-14.077-6.303-14.081-14.073-14.081" fill="#fff" stroke-width="0"/>
        <path d="m591.379,452.909c-1.284,2.733-3.912,4.606-6.952,4.606-4.291,0-7.774-3.743-7.774-8.341,0-5.023,3.484-8.334,7.774-8.334,2.894,0,5.424,1.697,6.761,4.204h6.712c-1.757-5.766-7.129-9.963-13.477-9.963-7.774,0-14.096,6.31-14.096,14.103s6.325,14.085,14.096,14.085c6.49,0,11.941-4.388,13.582-10.357h-6.626v-.004Z" fill="#fff" stroke-width="0"/>
        <path d="m536.932,471.445c-2.868,0-5.616-1.505-7.283-3.765l-5.695,2.774c2.688,4.216,7.177,7.02,12.977,7.012,7.508,0,13.653-5.935,14.261-13.131h-6.442c-.552,4.017-3.84,7.11-7.819,7.11" fill="#fff" stroke-width="0"/>
        <path d="m537.229,457.578c-4.272,0-7.737-3.728-7.737-8.304s3.469-8.296,7.737-8.296,7.756,3.713,7.756,8.296c0,4.576-3.472,8.304-7.756,8.304m8.236-19.644c-2.32-1.674-5.154-2.68-8.236-2.68-7.737,0-14.025,6.277-14.025,14.028s6.284,14.017,14.025,14.017,13.995-6.243,14.028-13.957v-14.19h-5.792v2.782Z" fill="#fff" stroke-width="0"/>
      </g>
      <path d="m603.406,430.396c0-2.234,1.693-3.874,3.806-3.874s3.795,1.64,3.795,3.874c0,2.222-1.678,3.859-3.795,3.859s-3.806-1.637-3.806-3.859Zm7.016,0c0-1.945-1.359-3.371-3.213-3.371-1.836,0-3.198,1.426-3.198,3.371,0,1.93,1.363,3.345,3.198,3.345,1.854,0,3.213-1.415,3.213-3.345Zm-4.719-2.102h1.918c.755,0,1.321.462,1.321,1.164,0,.477-.248.845-.83.991v.015c.477.12.634.357.687.86.068.567.068.991.199,1.044v.068h-.792c-.12-.053-.135-.488-.173-.965-.026-.447-.278-.698-.781-.698h-.74v1.667h-.807v-4.144h-.004Zm.807,1.851h.927c.462,0,.702-.236.702-.593,0-.345-.225-.582-.687-.582h-.938v1.175h-.004Z" fill="#fff" stroke-width="0"/>
    </g>
  </g>
  <image width="2127" height="1507" transform="translate(220.441 429.616) scale(.032)" xlink:href="partneri logo_pago.png"/>
  <path d="m286.554,187.214v-14.323h-119.28v33.739h48.99v17.381h-40.47v-5.964h-8.52v14.484h119.28v-14.726h-8.52v6.205h-44.73v-42.6h44.73v5.803h8.52Zm-110.76,10.896v-16.699h40.47v5.282h8.52v11.417h-48.99Z" fill="#0676b3" stroke-width="0"/>
  <g>
    <path d="m107.089,178.924c1.074.2,2.156.362,3.219.607,6.544,1.51,11.22,6.522,12.315,13.173,1.012,6.147-2.06,12.459-7.736,15.895-.473.286-.938.585-1.511.943,3.563,7.067,7.089,14.061,10.778,21.38-4.158,0-7.996.055-11.828-.064-.528-.016-1.213-.795-1.515-1.381-2.857-5.557-5.712-11.117-8.413-16.75-.778-1.621-1.661-2.404-3.498-2.15-1.169.162-2.378.03-3.716.03v-11.043c.554-.054,1.152-.159,1.751-.162,2.956-.018,5.92-.138,8.867.023,3.941.215,5.635-2.197,5.677-4.51.052-2.845-2.046-4.531-5.619-4.532-15.626-.002-31.252,0-46.878,0-.837,0-1.674,0-2.576,0v-11.459c16.894,0,33.787,0,50.681,0Z" fill="#fff" stroke-width="0"/>
    <path d="m45.004,178.924v11.337H12.131v40.611H.658v-51.948h44.346Z" fill="#fff" stroke-width="0"/>
    <path d="m28.595,230.775v-10.785h66.535v10.785H28.595Z" fill="#fff" stroke-width="0"/>
    <path d="m83.986,199.703v10.774H18.486v-10.774h65.5Z" fill="#fff" stroke-width="0"/>
  </g>
  <g>
    <path d="m545.76,41.572s2.715-6.295,6.296-12.863c3.581-6.566,7.192-11.34,9.28-17.937,2.09-6.595,2.388-10.772,2.388-10.772,0,0-3.611,9.281-5.998,14.355-2.388,5.074-5.94,7.163-8.954,14.355-3.013,7.192-4.505,11.967-4.505,11.967l-2.985,1.791s-3.88-4.477-9.879-6.268c-5.998-1.79-9.281-3.909-11.669-5.103-2.388-1.194-5.998-4.179-5.998-4.179,0,0,2.089,5.998,8.386,8.087,6.297,2.089,11.669,3.283,12.863,4.477,1.194,1.194,3.311,3.283,3.311,3.283,0,0,.896,7.789,5.074,7.491,4.179-.299,3.283-3.283,2.686-4.776-.596-1.492-.298-3.909-.298-3.909" fill="#cb2329" stroke-width="0"/>
    <path d="m528.101,64.559c-2.888-3.241-6.503-4.861-10.845-4.861-3.77,0-7.142,1.544-10.118,4.63v-16.533h-7.439v45.003h7.44v-3.372c2.932,2.866,6.26,4.298,9.986,4.298,4.408,0,8.056-1.609,10.945-4.828,2.909-3.241,4.364-7.341,4.364-12.301-.002-4.804-1.445-8.816-4.332-12.035Zm-5.852,19.641c-1.697,1.917-3.836,2.877-6.415,2.877-2.734,0-4.938-.958-6.613-2.877-1.677-1.874-2.513-4.376-2.513-7.506,0-3.042.848-5.51,2.546-7.407,1.72-1.917,3.945-2.877,6.68-2.877,2.556,0,4.684.991,6.381,2.976,1.675,1.941,2.513,4.454,2.513,7.538,0,2.912-.859,5.335-2.579,7.275Z" fill="#fff" stroke-width="0"/>
    <rect x="540.041" y="60.591" width="7.439" height="32.206" fill="#fff" stroke-width="0"/>
    <path d="m556.829,60.59h7.439v2.877c1.367-1.432,2.578-2.413,3.637-2.944,1.079-.551,2.357-.826,3.836-.827,1.96,0,4.011.64,6.15,1.918l-3.406,6.811c-1.412-1.013-2.789-1.52-4.133-1.52-4.058,0-6.085,3.063-6.085,9.191v16.699h-7.439v-32.206h0Z" fill="#fff" stroke-width="0"/>
    <path d="m605.447,47.794v16.532c-2.976-3.085-6.349-4.63-10.117-4.63-4.343,0-7.947,1.621-10.813,4.861-2.888,3.219-4.332,7.231-4.332,12.036,0,4.917,1.444,9.017,4.332,12.301,2.91,3.219,6.569,4.828,10.978,4.828,3.704,0,7.021-1.432,9.952-4.298v3.372h7.473v-45.003h-7.473Zm-2.083,36.438c-1.697,1.897-3.923,2.844-6.679,2.844-2.58,0-4.718-.981-6.414-2.943-1.654-1.94-2.48-4.453-2.48-7.539,0-2.886.847-5.312,2.546-7.274,1.72-1.94,3.856-2.91,6.415-2.91,2.712,0,4.916.959,6.613,2.877,1.697,1.962,2.547,4.455,2.547,7.473,0,3.021-.849,5.512-2.547,7.473Z" fill="#fff" stroke-width="0"/>
    <g>
      <path d="m499.746,108.88c0-.333.116-.616.35-.849.233-.233.516-.349.849-.349s.615.119.849.357c.233.237.35.519.35.841,0,.333-.119.616-.357.849-.238.233-.519.349-.841.349-.333,0-.616-.117-.849-.349-.234-.233-.351-.516-.351-.849Zm.529,18.006v-13.498h1.312v13.498h-1.312Z" fill="#fff" stroke-width="0"/>
      <path d="m507.136,126.887v-13.498h1.312v2.097h.057c.39-.742.934-1.327,1.634-1.755.7-.428,1.491-.642,2.376-.642.875,0,1.593.133,2.155.4.561.266,1.013.642,1.355,1.128s.583,1.073.72,1.763c.138.689.207,1.477.207,2.361v8.147h-1.312v-8.147c0-.599-.031-1.17-.093-1.712-.062-.542-.205-1.011-.428-1.406-.223-.394-.549-.711-.977-.949s-1.013-.357-1.755-.357c-.856,0-1.541.18-2.055.542s-.908.825-1.184,1.391c-.276.566-.462,1.199-.556,1.899-.095.699-.143,1.391-.143,2.076v6.663h-1.312Z" fill="#fff" stroke-width="0"/>
      <path d="m520.66,120.109c0-.97.174-1.886.521-2.747.347-.86.832-1.607,1.455-2.239.623-.633,1.361-1.129,2.211-1.491.851-.362,1.771-.542,2.761-.542.875,0,1.707.138,2.497.413.789.276,1.526.694,2.211,1.256v1.755c-.647-.704-1.361-1.246-2.14-1.627-.78-.38-1.655-.571-2.626-.571-.799,0-1.539.157-2.219.471-.681.314-1.27.739-1.77,1.277-.499.537-.89,1.155-1.17,1.855-.281.699-.421,1.428-.421,2.19s.14,1.495.421,2.204c.28.708.67,1.331,1.17,1.868.499.538,1.085.966,1.755,1.284.67.319,1.405.479,2.204.479.97,0,1.883-.219,2.74-.657.857-.437,1.598-1.027,2.226-1.77v1.783c-.685.599-1.446,1.056-2.283,1.37-.837.314-1.712.471-2.626.471-.989,0-1.91-.178-2.761-.535-.852-.356-1.584-.851-2.198-1.484-.614-.632-1.094-1.379-1.441-2.239-.345-.86-.519-1.785-.519-2.775Z" fill="#fff" stroke-width="0"/>
      <path d="m536.21,121.479v-8.09h1.327v7.619c0,.647.034,1.272.1,1.877.066.603.216,1.128.449,1.576.233.448.583.806,1.049,1.078.466.27,1.108.407,1.926.407s1.463-.136,1.934-.407c.471-.272.822-.63,1.056-1.078.233-.448.382-.973.449-1.576.066-.604.1-1.23.1-1.877v-7.619h1.312v8.09c0,.685-.028,1.362-.086,2.033-.057.67-.3,1.291-.728,1.862-.466.627-1.066,1.079-1.798,1.355-.733.276-1.479.413-2.24.413s-1.505-.14-2.233-.421c-.728-.28-1.325-.73-1.79-1.348-.428-.561-.673-1.179-.735-1.855-.062-.676-.093-1.355-.093-2.04Z" fill="#fff" stroke-width="0"/>
      <path d="m550.734,126.887v-24.114h1.312v12.955h.057c.561-.856,1.306-1.51,2.233-1.962.927-.451,1.914-.677,2.961-.677,1.008,0,1.918.176,2.733.528.812.352,1.507.84,2.083,1.462.575.624,1.018,1.358,1.326,2.204.309.847.464,1.77.464,2.768,0,.989-.156,1.912-.464,2.768-.309.856-.751,1.607-1.326,2.254-.576.647-1.277,1.153-2.105,1.52-.828.366-1.751.549-2.768.549-.504,0-1.004-.057-1.498-.171-.495-.114-.973-.288-1.434-.52-.462-.233-.88-.517-1.256-.849-.376-.333-.692-.713-.949-1.141h-.057v2.425h-1.313Zm1.226-6.806c0,.799.121,1.549.364,2.247.242.7.592,1.323,1.049,1.87.456.547,1.011.975,1.662,1.284.651.309,1.396.463,2.233.463.817,0,1.559-.16,2.226-.479.665-.318,1.227-.751,1.684-1.298.456-.547.806-1.175,1.049-1.883.242-.709.364-1.453.364-2.234,0-.742-.126-1.458-.378-2.148-.252-.689-.611-1.298-1.077-1.826-.466-.527-1.023-.953-1.669-1.276-.647-.323-1.355-.485-2.126-.485-.856,0-1.617.152-2.283.456-.666.304-1.227.713-1.684,1.227-.456.514-.806,1.122-1.049,1.826-.242.704-.364,1.456-.364,2.254Z" fill="#fff" stroke-width="0"/>
      <path d="m566.298,120.052c0-.989.155-1.91.464-2.761.309-.852.746-1.589,1.312-2.212.566-.623,1.258-1.11,2.076-1.462.818-.352,1.732-.528,2.74-.528,1.056,0,2.048.226,2.975.677.927.452,1.671,1.106,2.234,1.962h.057v-2.34h1.312v13.498h-1.312v-2.425h-.057c-.257.428-.576.808-.957,1.141-.38.333-.799.616-1.256.849-.456.233-.937.407-1.44.52-.505.114-1.004.171-1.499.171-1.036,0-1.961-.183-2.775-.549-.813-.367-1.507-.873-2.083-1.52-.576-.647-1.018-1.398-1.327-2.254-.309-.854-.464-1.777-.464-2.767Zm1.312,0c0,.78.122,1.524.364,2.234.242.708.596,1.336,1.062,1.883.467.547,1.025.98,1.677,1.298.651.319,1.386.479,2.204.479.856,0,1.617-.16,2.283-.479.666-.318,1.222-.755,1.67-1.312.447-.555.786-1.199,1.02-1.925.233-.729.35-1.501.35-2.319,0-.78-.126-1.513-.378-2.198-.253-.685-.616-1.275-1.092-1.77-.475-.494-1.046-.89-1.712-1.184-.665-.295-1.408-.443-2.226-.443-.78,0-1.49.162-2.132.485s-1.191.754-1.648,1.292c-.456.537-.811,1.151-1.063,1.84-.252.69-.378,1.397-.378,2.119Z" fill="#fff" stroke-width="0"/>
      <path d="m583.133,114.616v-1.227h1.498v-4.822h1.312v4.822h2.369v1.227h-2.369v12.27h-1.312v-12.27h-1.498Z" fill="#fff" stroke-width="0"/>
      <path d="m589.809,120.167c0-.97.178-1.886.535-2.747.356-.86.851-1.611,1.484-2.254.632-.641,1.379-1.148,2.239-1.52.86-.371,1.776-.556,2.747-.556.989,0,1.919.18,2.789.542.871.362,1.622.853,2.254,1.477.633.624,1.134,1.368,1.506,2.234s.556,1.798.556,2.797c0,.989-.186,1.915-.556,2.775-.371.86-.873,1.607-1.506,2.239-.633.633-1.381,1.123-2.247,1.471-.865.346-1.798.52-2.797.52-.97,0-1.88-.183-2.732-.549-.852-.367-1.593-.869-2.226-1.506s-1.133-1.379-1.499-2.226c-.366-.847-.548-1.746-.548-2.696Zm1.312,0c0,.761.14,1.491.421,2.19.28.7.675,1.318,1.183,1.855.509.538,1.104.961,1.784,1.271.68.309,1.419.463,2.218.463.818,0,1.586-.145,2.304-.435.719-.29,1.342-.7,1.87-1.227.527-.529.944-1.141,1.248-1.842.304-.699.456-1.457.456-2.275,0-.837-.152-1.612-.456-2.326-.304-.713-.721-1.332-1.248-1.855-.529-.523-1.147-.933-1.855-1.227-.709-.295-1.483-.443-2.319-.443-.799,0-1.544.157-2.234.471s-1.284.739-1.783,1.277c-.5.537-.89,1.16-1.17,1.868-.282.709-.422,1.454-.422,2.234Z" fill="#fff" stroke-width="0"/>
      <path d="m607.627,126.887v-13.498h1.312v1.755h.057c.276-.627.651-1.128,1.128-1.498.475-.371,1.074-.556,1.798-.556.275,0,.525.031.749.093.223.061.449.14.678.235l-.7,1.17c-.152-.095-.303-.164-.449-.206-.148-.044-.311-.064-.492-.064-.742,0-1.301.205-1.676.614-.376.409-.647.907-.813,1.49-.166.586-.255,1.203-.264,1.855-.01.652-.015,1.226-.015,1.72v6.892h-1.313Z" fill="#fff" stroke-width="0"/>
    </g>
  </g>
  <g>
    <path d="m165.034,375.306h0c-6.906-4.714-11.675-5.7-15.073-2.521-3.179,3.015-1.315,8.605,1.315,12.497,2.85,3.727,7.619,7.235,11.456,5.152,4.111-2.247,4.659-7.125,2.302-15.128m-5.371,12.935c-1.809,1.425-6.742-3.234-7.18-3.892h0c-.438-.603-3.398-6.742-1.48-8.002,2.686-1.809,9.318,1.864,9.537,2.138.219.329,1.644,7.783-.877,9.756" fill="#fff" fill-rule="evenodd" stroke-width="0"/>
    <path d="m171.228,370.811h0c-6.139-2.85-10.03-2.686-12.442-2.247-.219.055-.384.11-.329.219.055.055.11.055.329.164,3.234,1.206,6.303,2.795,8.551,4.714h0c1.151,2.741,1.699,6.139,1.864,9.592,0,.219,0,.274.055.329s.164-.055.274-.219c1.151-2.192,2.521-5.865,1.699-12.552h0" fill="#fff" fill-rule="evenodd" stroke-width="0"/>
    <path d="m176.216,367.194h0c-2.467-1.535-6.742-1.754-9.592-.932-.274.055-.329.164-.329.219.055.055.11.11.274.11,3.618.877,5.371,1.644,6.961,2.521.329,1.809.603,3.672.274,7.4,0,.164,0,.219.055.274s.164,0,.274-.219c1.644-2.412,2.795-6.523,2.083-9.373h0" fill="#fff" fill-rule="evenodd" stroke-width="0"/>
    <path d="m187.123,382.486h0c-6.632,5.097-9.044,9.318-7.071,13.538,1.864,3.946,7.783,3.946,12.278,2.576h0c4.44-1.535,9.263-4.988,8.441-9.318-.822-4.549-5.262-6.577-13.648-6.797m10.688,9.099c.822,2.138-5.152,5.371-5.865,5.591-.713.219-7.454,1.151-8.057-1.096-.877-3.069,4.659-8.276,4.988-8.386.274-.055,7.838.877,8.934,3.892" fill="#fff" fill-rule="evenodd" stroke-width="0"/>
    <path d="m184.766,375.196h0c-4.604,4.933-5.646,8.715-5.974,11.127,0,.219,0,.384.11.329.055,0,.11-.055.219-.274,2.138-2.686,4.604-5.097,7.125-6.687h0c2.96-.219,6.358.274,9.702,1.206.219.055.274.11.329.055.11,0,0-.164-.11-.329-1.699-1.699-4.769-4.166-11.401-5.426h0" fill="#fff" fill-rule="evenodd" stroke-width="0"/>
    <path d="m182.903,369.386h0c-2.247,1.864-3.727,5.92-3.837,8.825,0,.274,0,.384.11.384.055,0,.11-.11.219-.219,1.918-3.179,3.234-4.549,4.549-5.81,1.809.219,3.672.603,7.125,2.028.164.055.219.055.274.055s.055-.164-.11-.329c-1.864-2.412-5.426-4.769-8.331-4.933h0" fill="#fff" fill-rule="evenodd" stroke-width="0"/>
    <path d="m200.826,363.686h0c2.795,7.893,6.084,11.456,10.743,10.907,4.385-.548,6.139-6.194,6.248-10.907h0c-.11-4.714-1.918-10.359-6.248-10.907-4.659-.603-7.948,3.015-10.743,10.907m11.949-7.345c2.302-.11,3.508,6.577,3.508,7.345h0c0,.767-1.206,7.4-3.508,7.345-3.179-.11-6.413-7.016-6.468-7.345.055-.329,3.289-7.235,6.468-7.345" fill="#fff" fill-rule="evenodd" stroke-width="0"/>
    <path d="m193.152,363.686h0c3.289,5.92,6.523,8.057,8.77,9.153.164.11.384.11.384,0,0-.055-.055-.11-.164-.329-1.918-2.905-3.453-5.974-4.166-8.825h0c.713-2.905,2.247-5.974,4.166-8.825.11-.164.164-.219.164-.329s-.164-.055-.384,0c-2.247,1.096-5.481,3.234-8.77,9.153h0" fill="#fff" fill-rule="evenodd" stroke-width="0"/>
    <path d="m187.013,363.686h0c1.096,2.686,4.44,5.371,7.235,6.358.219.11.384.11.384,0,0-.055-.055-.11-.164-.274-2.412-2.85-3.343-4.495-4.111-6.139.767-1.644,1.699-3.289,4.111-6.139.11-.11.164-.219.164-.274s-.11-.055-.384,0c-2.795,1.096-6.139,3.782-7.235,6.468h0" fill="#fff" fill-rule="evenodd" stroke-width="0"/>
    <path d="m187.123,344.886h0c8.386-.274,12.826-2.247,13.703-6.851.822-4.33-4.001-7.783-8.441-9.318h0c-4.495-1.37-10.414-1.37-12.278,2.576-2.028,4.275.438,8.496,7.016,13.593m-3.234-13.648c.603-2.192,7.345-1.315,8.057-1.096h0c.713.219,6.687,3.453,5.92,5.591-1.096,3.015-8.66,3.946-8.989,3.892-.329-.11-5.865-5.317-4.988-8.386" fill="#fff" fill-rule="evenodd" stroke-width="0"/>
    <path d="m184.766,352.176h0c6.632-1.261,9.702-3.727,11.401-5.481.164-.164.219-.329.11-.329-.055,0-.11,0-.329.055-3.343.932-6.742,1.425-9.702,1.206h0c-2.521-1.535-4.988-3.946-7.125-6.687-.164-.164-.164-.219-.219-.274-.11-.055-.11.164-.11.329.329,2.467,1.37,6.248,5.974,11.181h0" fill="#fff" fill-rule="evenodd" stroke-width="0"/>
    <path d="m182.903,357.986h0c2.905-.219,6.523-2.576,8.276-4.878.164-.219.219-.329.164-.329s-.164,0-.274.055c-3.453,1.425-5.317,1.809-7.125,2.028-1.315-1.261-2.631-2.631-4.549-5.81-.11-.11-.164-.219-.219-.219s-.11.11-.11.329c.055,2.96,1.59,6.961,3.837,8.825h0" fill="#fff" fill-rule="evenodd" stroke-width="0"/>
    <path d="m165.034,352.066h0c2.357-8.002,1.809-12.881-2.302-15.128-3.837-2.138-8.605,1.37-11.456,5.152-2.686,3.892-4.549,9.482-1.315,12.497,3.398,3.179,8.167,2.192,15.073-2.521m-13.977-1.096c-1.918-1.261,1.041-7.4,1.48-8.002h0c.438-.603,5.371-5.317,7.18-3.892,2.521,1.973,1.096,9.428.932,9.702-.274.329-6.961,3.946-9.592,2.192" fill="#fff" fill-rule="evenodd" stroke-width="0"/>
    <path d="m171.228,356.561h0c.822-6.687-.548-10.359-1.699-12.552-.11-.164-.219-.274-.274-.219s-.055.11-.055.329c-.164,3.453-.713,6.851-1.864,9.592h0c-2.247,1.918-5.317,3.508-8.551,4.714-.219.055-.274.11-.329.164s.11.164.329.219c2.412.438,6.303.603,12.442-2.247h0" fill="#fff" fill-rule="evenodd" stroke-width="0"/>
    <path d="m176.216,360.178h0c.713-2.85-.438-6.961-2.083-9.373-.164-.219-.274-.274-.274-.219-.055.055-.055.11-.055.274.329,3.727.055,5.591-.274,7.4-1.59.877-3.343,1.699-6.961,2.576-.164.055-.219.055-.274.11-.055.055.055.11.329.219,2.795.767,7.125.548,9.592-.987h0" fill="#fff" fill-rule="evenodd" stroke-width="0"/>
    <path d="m60.181,374.703c-1.809-4.22-11.456-26.803-11.456-26.803h-8.441l18.526,43.301h2.905l18.252-43.301h-8.441c.055.055-9.537,22.582-11.346,26.803m36.778,8.879v-35.627h-8.222v43.301h31.023v-7.674h-22.801" fill="#fff" fill-rule="evenodd" stroke-width="0"/>
    <path d="m25.376,347.955h-5.7L1.204,391.256h8.551s3.727-8.825,4.22-10.03h17.594c.548,1.206,4.549,10.03,4.549,10.03h8.551l-19.294-43.301Zm2.85,25.652h-11.017c.932-2.247,3.946-9.428,5.317-12.607,1.425,3.179,4.659,10.359,5.7,12.607h0Z" fill="#fff" fill-rule="evenodd" stroke-width="0"/>
  </g>
  <g>
    <path d="m383.132,216.547c-2.34-.007-4.66-.425-6.855-1.235-2.299-.839-4.399-2.145-6.166-3.838l4.486-5.498c2.474,2.018,5.556,3.142,8.748,3.19,1.159.083,2.316-.174,3.331-.739.351-.232.636-.55.828-.925.192-.374.283-.792.266-1.212.015-.294-.031-.588-.136-.864-.105-.275-.265-.526-.472-.736-.496-.448-1.064-.807-1.681-1.063-.719-.324-1.569-.678-2.562-1.073l-4.425-1.863c-1.25-.502-2.42-1.184-3.473-2.025-1.072-.869-1.952-1.952-2.582-3.179-.69-1.364-1.038-2.876-1.013-4.405-.017-1.895.552-3.748,1.63-5.306,1.142-1.633,2.682-2.947,4.475-3.817,2.054-.989,4.312-1.482,6.592-1.438,2.077.002,4.135.383,6.075,1.124,1.951.708,3.739,1.803,5.255,3.22l-4.425,5.549c-1.072-.794-2.247-1.438-3.493-1.914-1.085-.402-2.235-.604-3.392-.597-1.032-.053-2.058.19-2.957.699-.349.207-.634.504-.827.861-.193.357-.285.759-.267,1.164-.005.288.049.574.158.841.11.267.273.508.48.709.533.492,1.159.871,1.843,1.114l2.744,1.124,4.324,1.711c1.329.512,2.564,1.241,3.655,2.157.997.85,1.795,1.907,2.339,3.098.585,1.333.868,2.778.83,4.232.013,1.917-.524,3.797-1.549,5.417-1.104,1.743-2.671,3.145-4.526,4.05-2.269,1.059-4.758,1.562-7.26,1.468Z" fill="#fff" stroke-width="0"/>
    <path d="m414.979,216.548c-2.927.058-5.814-.691-8.343-2.167-2.439-1.479-4.387-3.646-5.599-6.227-1.414-3.048-2.107-6.381-2.025-9.741-.095-3.341.599-6.657,2.025-9.68,1.226-2.533,3.174-4.647,5.599-6.075,2.566-1.383,5.434-2.106,8.348-2.106s5.783.724,8.349,2.106c2.423,1.431,4.37,3.544,5.599,6.075,1.426,3.023,2.12,6.339,2.025,9.68.082,3.359-.611,6.692-2.025,9.741-1.202,2.573-3.131,4.737-5.549,6.227-2.547,1.485-5.456,2.235-8.404,2.167Zm0-7.371c1.403.037,2.774-.426,3.868-1.306,1.181-.988,2.053-2.296,2.511-3.767.611-1.851.902-3.792.861-5.741.05-1.929-.241-3.853-.861-5.68-.465-1.406-1.327-2.647-2.481-3.574-1.124-.817-2.478-1.257-3.868-1.257s-2.744.44-3.868,1.257c-1.148.933-2.008,2.172-2.481,3.574-.611,1.83-.899,3.752-.851,5.68-.04,1.948.248,3.888.851,5.741.464,1.449,1.323,2.739,2.481,3.726,1.083.881,2.441,1.354,3.838,1.337v.01Z" fill="#fff" stroke-width="0"/>
    <path d="m460.964,215.895v-34.731h10.125c3.178-.07,6.333.541,9.255,1.792,2.6,1.149,4.763,3.106,6.166,5.579,1.579,3.039,2.333,6.44,2.187,9.862.135,3.434-.619,6.845-2.187,9.903-1.383,2.493-3.506,4.495-6.076,5.731-2.784,1.286-5.824,1.923-8.89,1.863h-10.58Zm8.535-6.825h1.013c1.67.027,3.326-.301,4.86-.962,1.461-.68,2.647-1.837,3.362-3.281.91-2.016,1.331-4.22,1.226-6.43.111-2.184-.31-4.363-1.226-6.349-.73-1.399-1.916-2.507-3.362-3.139-1.544-.621-3.197-.928-4.86-.901h-1.013v21.061Z" fill="#fff" stroke-width="0"/>
    <path d="m492.558,215.891v-34.731h22.134v7.149h-13.598v6.197h11.573v7.149h-11.573v7.088h14.175v7.149h-22.71Z" fill="#fff" stroke-width="0"/>
    <path d="m548.149,215.896l-7.716-13.72c1.598-.778,2.987-1.927,4.05-3.352,1.335-1.939,2-4.261,1.893-6.612.143-2.375-.525-4.727-1.893-6.673-1.282-1.608-3.024-2.788-4.992-3.382-2.193-.686-4.478-1.027-6.774-1.013h-12.86v34.731h8.537v-12.029h3.948l6.299,12.049h9.508Zm-19.745-27.997h3.685c1.52-.09,3.036.225,4.394.911.537.369.961.877,1.231,1.469.268.592.372,1.247.298,1.893.047.682-.067,1.365-.332,1.995-.266.63-.676,1.188-1.197,1.63-1.281.9-2.832,1.333-4.394,1.225h-3.685v-9.123Z" fill="#fff" stroke-width="0"/>
    <path d="m551.445,215.891v-34.731h22.145v7.149h-13.608v6.197h11.583v7.149h-11.583v7.088h14.175v7.149h-22.712Z" fill="#fff" stroke-width="0"/>
    <path d="m578.23,215.895v-34.731h10.125c3.154-.06,6.284.551,9.184,1.792,2.605,1.145,4.768,3.102,6.166,5.579,1.579,3.039,2.333,6.44,2.187,9.862.135,3.434-.618,6.845-2.187,9.903-1.38,2.495-3.504,4.498-6.076,5.731-2.779,1.287-5.817,1.924-8.879,1.863h-10.521Zm8.535-6.825h1.013c1.67.028,3.328-.3,4.86-.962,1.461-.68,2.647-1.837,3.362-3.281.916-2.015,1.336-4.219,1.226-6.43.116-2.185-.305-4.364-1.226-6.349-.729-1.399-1.916-2.507-3.362-3.139-1.544-.622-3.195-.929-4.86-.901h-1.013v21.061Z" fill="#fff" stroke-width="0"/>
    <path d="m447.821,207.912l-4.678-4.668v-22.084h-8.536v25.769l8.87,8.87h13.376v-7.888h-9.032Z" fill="#fff" stroke-width="0"/>
    <path d="m352.74,177.277c-1.093.008-2.168-.272-3.119-.81l-13.254-7.635-19.836,11.442v19.239l20.859,12.049.486-.253c.914-.48,1.686-1.191,2.242-2.061.556-.87.875-1.87.927-2.901-.021-1.068-.31-2.114-.841-3.041-.531-.927-1.286-1.706-2.197-2.265l-12.586-6.744v-9.022l10.875-6.359,9.113,5.346c.843.519,1.54,1.244,2.025,2.106.516.862,1.237,1.582,2.099,2.097.862.515,1.838.808,2.842.853s2.002-.159,2.907-.594c.905-.435,1.688-1.088,2.279-1.9.106-.14.204-.285.294-.435v-.061c.516-.918.785-1.955.78-3.009-.005-1.054-.285-2.088-.811-3.001-.526-.913-1.28-1.674-2.189-2.207-.909-.533-1.941-.821-2.994-.835h.101Z" fill="#fff" stroke-width="0"/>
    <path d="m335.581,184.86c-.914.477-1.688,1.185-2.244,2.054-.556.869-.875,1.867-.926,2.897.018,1.069.306,2.116.837,3.043.531.928,1.288,1.706,2.201,2.262l12.596,6.784v9.022l-10.915,6.338-9.113-5.346c-.838-.52-1.534-1.241-2.025-2.096-.504-.875-1.22-1.609-2.083-2.134-.863-.525-1.843-.825-2.852-.871-1.009-.046-2.013.162-2.92.606-.907.444-1.688,1.109-2.27,1.934-.106.141-.201.29-.284.446v.061c-.537.922-.817,1.971-.81,3.038,0,1.603.633,3.14,1.761,4.278,1.128,1.138,2.661,1.784,4.263,1.797,1.093-.008,2.168.272,3.119.81l13.173,7.604,19.836-11.442v-19.238l-20.859-12.08-.486.233Z" fill="#fff" stroke-width="0"/>
  </g>
  <g>
    <path d="m296.981,264.624h-5.038s-3.038,0-3.038,0h-4.558v17.282s7.596-.367,7.596-.367v-12.214s7.656,11.844,7.656,11.844l7.832-.379-10.449-16.166Zm-51.07,0v4.033s0,13.752,0,13.752v3.885s0,14.73,0,14.73v4.033h5.929s26.982,0,26.982,0v-4.033s-26.982,0-26.982,0v-14.73s22.102,0,22.102,0v-3.885h-22.102s0-13.752,0-13.752h26.982s0-4.033,0-4.033h-26.982s-5.929,0-5.929,0Zm73.821,15.571l7.744-.374v-15.197s-7.744,0-7.744,0v15.571Zm0,19.626l-7.564-11.702-8.333-.398,11.206,17.336h4.692s3.384,0,3.384,0h4.359v-16.207s-7.744-.37-7.744-.37v11.341Zm-35.384,5.236h7.596s0-17.904,0-17.904l-7.596-.363v18.266Zm48.923-40.433v7.427s15.03,0,15.03,0v6.763s11.132-.538,11.132-.538v-6.225s14.996,0,14.996,0v-7.427s-41.158,0-41.158,0Zm15.03,40.433h11.132s0-14.681,0-14.681l-11.132-.532v15.212Z" fill="#fff" stroke-width="0"/>
    <g>
      <path d="m398.657,264.63h10.84v1.476h-8.676v4.398h8.147v1.416h-8.147v4.697h8.676v1.476h-10.84v-13.463Z" fill="#fff" stroke-width="0"/>
      <path d="m412.678,266.326h1.695l.448,2.583v9.185h-2.144v-11.767Zm8.975,5.265c0-1.403-.266-2.407-.798-3.012-.532-.605-1.316-.908-2.353-.908-1.044,0-1.931.346-2.662,1.037-.731.692-1.097,1.576-1.097,2.653l-1.037-.758c0-1.024.515-2.014,1.546-2.972,1.03-.957,2.36-1.436,3.989-1.436,1.562,0,2.712.459,3.451,1.376.738.918,1.107,2.234,1.107,3.949v6.572h-2.144v-6.502Z" fill="#fff" stroke-width="0"/>
      <path d="m427.387,262.436h2.154v15.657h-2.154v-15.657Z" fill="#fff" stroke-width="0"/>
      <path d="m435.535,262.995v1.845h-2.154v-1.845h2.154Zm-2.154,3.311h2.154v11.787h-2.154v-11.787Z" fill="#fff" stroke-width="0"/>
      <path d="m440.202,276.697c-.924-.99-1.386-2.496-1.386-4.518s.459-3.522,1.376-4.502c.917-.981,2.184-1.471,3.799-1.471,1.542,0,2.839.366,3.889,1.097,1.05.731,1.576,1.439,1.576,2.124l-.918,1.147c0-.731-.377-1.396-1.132-1.994-.754-.598-1.667-.898-2.737-.898-1.104,0-1.993.338-2.668,1.012-.675.675-1.012,1.84-1.012,3.495,0,1.669.337,2.837,1.012,3.505.675.668,1.564,1.002,2.668,1.002,1.07,0,1.983-.297,2.737-.892.755-.595,1.132-1.262,1.132-2l.938,1.197c0,.698-.524,1.403-1.571,2.114-1.047.712-2.342,1.067-3.884,1.067-1.623,0-2.896-.495-3.82-1.486Zm.708,5.121c-1.051-.615-1.645-1.631-1.785-3.047h2.124c.06.618.243,1.115.549,1.491.306.375.721.658,1.247.848.525.189,1.12.284,1.785.284,1.123,0,2.023-.273,2.697-.818.675-.545,1.012-1.503,1.012-2.872v-8.656l.569-2.722h1.585v11.139c0,1.31-.274,2.352-.823,3.126-.549.774-1.24,1.326-2.074,1.655-.834.329-1.854.494-3.057.494-1.502,0-2.779-.308-3.829-.922Z" fill="#fff" stroke-width="0"/>
      <path d="m454.153,262.436h2.154v15.657h-2.154v-15.657Zm9.015,9.155c0-1.403-.278-2.407-.833-3.012-.555-.605-1.351-.908-2.388-.908-1.051,0-1.926.346-2.628,1.037-.702.692-1.052,1.576-1.052,2.653l-1.047-.758c0-1.024.504-2.014,1.511-2.972,1.008-.957,2.325-1.436,3.954-1.436,1.562,0,2.726.452,3.49,1.356.765.904,1.147,2.21,1.147,3.919v6.622h-2.154v-6.502Z" fill="#fff" stroke-width="0"/>
      <path d="m471.869,277.605c-.688-.419-1.032-1.187-1.032-2.304v-7.499h-3.43v-1.476h3.43v-2.752h2.144v2.752h4.857v1.476h-4.857v6.981c0,.805.188,1.341.563,1.611.376.269.896.404,1.561.404.598,0,1.177-.09,1.735-.269v1.416c-.771.193-1.582.289-2.434.289-1.004,0-1.85-.209-2.538-.628Z" fill="#fff" stroke-width="0"/>
      <path d="m481.427,276.642c-1.05-1.04-1.576-2.525-1.576-4.453,0-1.994.537-3.489,1.611-4.483,1.074-.994,2.581-1.491,4.522-1.491,2.001,0,3.514.5,4.538,1.501,1.024,1.001,1.536,2.478,1.536,4.433,0,.239-.017.462-.05.668h-10.321v-1.316h8.347l-.1.23c0-1.456-.354-2.511-1.062-3.166-.708-.655-1.667-.982-2.877-.982-1.19,0-2.166.346-2.927,1.037-.761.692-1.142,1.881-1.142,3.57,0,1.616.369,2.791,1.107,3.525.738.735,1.735,1.102,2.991,1.102v1.386c-2.014,0-3.547-.52-4.597-1.561Zm6.502-.12c.545-.196.971-.51,1.276-.943.306-.432.528-.917.668-1.456l1.885.628c-.139.725-.465,1.353-.977,1.885-.512.532-1.15.926-1.914,1.182-.765.256-1.712.384-2.842.384v-1.386c.725,0,1.36-.098,1.905-.294Z" fill="#fff" stroke-width="0"/>
      <path d="m495.13,266.326h1.695l.448,2.583v9.185h-2.144v-11.767Zm8.975,5.265c0-1.403-.266-2.407-.798-3.012-.532-.605-1.316-.908-2.353-.908-1.044,0-1.931.346-2.662,1.037-.731.692-1.097,1.576-1.097,2.653l-1.037-.758c0-1.024.515-2.014,1.546-2.972,1.03-.957,2.36-1.436,3.989-1.436,1.562,0,2.712.459,3.451,1.376.738.918,1.107,2.234,1.107,3.949v6.572h-2.144v-6.502Z" fill="#fff" stroke-width="0"/>
      <path d="m512.042,262.995v1.845h-2.154v-1.845h2.154Zm-2.154,3.311h2.154v11.787h-2.154v-11.787Z" fill="#fff" stroke-width="0"/>
      <path d="m515.802,266.326h1.695l.448,2.583v9.185h-2.144v-11.767Zm8.975,5.265c0-1.403-.266-2.407-.798-3.012-.532-.605-1.316-.908-2.353-.908-1.044,0-1.931.346-2.662,1.037-.731.692-1.097,1.576-1.097,2.653l-1.037-.758c0-1.024.515-2.014,1.546-2.972,1.03-.957,2.36-1.436,3.989-1.436,1.562,0,2.712.459,3.451,1.376.738.918,1.107,2.234,1.107,3.949v6.572h-2.144v-6.502Z" fill="#fff" stroke-width="0"/>
      <path d="m531.129,276.697c-.924-.99-1.386-2.496-1.386-4.518s.459-3.522,1.376-4.502c.917-.981,2.184-1.471,3.799-1.471,1.542,0,2.839.366,3.889,1.097,1.05.731,1.576,1.439,1.576,2.124l-.918,1.147c0-.731-.377-1.396-1.132-1.994-.754-.598-1.667-.898-2.737-.898-1.104,0-1.993.338-2.668,1.012-.675.675-1.012,1.84-1.012,3.495,0,1.669.337,2.837,1.012,3.505.675.668,1.564,1.002,2.668,1.002,1.07,0,1.983-.297,2.737-.892.755-.595,1.132-1.262,1.132-2l.938,1.197c0,.698-.524,1.403-1.571,2.114-1.047.712-2.342,1.067-3.884,1.067-1.623,0-2.896-.495-3.82-1.486Zm.708,5.121c-1.051-.615-1.645-1.631-1.785-3.047h2.124c.06.618.243,1.115.549,1.491.306.375.721.658,1.247.848.525.189,1.12.284,1.785.284,1.123,0,2.023-.273,2.697-.818.675-.545,1.012-1.503,1.012-2.872v-8.656l.569-2.722h1.585v11.139c0,1.31-.274,2.352-.823,3.126-.549.774-1.24,1.326-2.074,1.655-.834.329-1.854.494-3.057.494-1.502,0-2.779-.308-3.829-.922Z" fill="#fff" stroke-width="0"/>
      <path d="m398.667,291.689h3.57l8.218,12.565h-.369v-12.565h2.174v13.463h-3.52l-8.227-12.575h.319v12.575h-2.164v-13.463Z" fill="#fff" stroke-width="0"/>
      <path d="m416.876,303.701c-1.05-1.04-1.576-2.525-1.576-4.453,0-1.994.537-3.489,1.611-4.483,1.074-.994,2.581-1.491,4.522-1.491,2.001,0,3.514.5,4.538,1.501,1.024,1.001,1.536,2.478,1.536,4.433,0,.239-.017.462-.05.668h-10.321v-1.316h8.347l-.1.23c0-1.456-.354-2.511-1.062-3.166-.708-.655-1.667-.982-2.877-.982-1.19,0-2.166.346-2.927,1.037-.761.692-1.142,1.881-1.142,3.57,0,1.616.369,2.791,1.107,3.525.738.735,1.735,1.102,2.991,1.102v1.386c-2.014,0-3.547-.52-4.597-1.561Zm6.502-.12c.545-.196.971-.51,1.276-.943.306-.432.528-.917.668-1.456l1.885.628c-.139.725-.465,1.353-.977,1.885s-1.15.926-1.914,1.182c-.765.256-1.712.384-2.842.384v-1.386c.725,0,1.36-.098,1.905-.294Z" fill="#fff" stroke-width="0"/>
      <path d="m429.901,293.384h2.224l2.394,10.521h-.09l3.062-10.521h1.655l-3.291,11.767h-2.932l-3.022-11.767Zm8.028,0h1.705l3.092,10.501h-.09l2.324-10.501h2.204l-2.982,11.767h-2.892l-3.361-11.767Z" fill="#fff" stroke-width="0"/>
      <path d="m459.359,293.165h-5.136v-1.476h12.425v1.476h-5.116v11.987h-2.174v-11.987Z" fill="#fff" stroke-width="0"/>
      <path d="m469.042,303.701c-1.05-1.04-1.576-2.525-1.576-4.453,0-1.994.537-3.489,1.611-4.483,1.074-.994,2.581-1.491,4.522-1.491,2.001,0,3.514.5,4.538,1.501,1.024,1.001,1.536,2.478,1.536,4.433,0,.239-.017.462-.05.668h-10.321v-1.316h8.347l-.1.23c0-1.456-.354-2.511-1.062-3.166-.708-.655-1.667-.982-2.877-.982-1.19,0-2.166.346-2.927,1.037-.761.692-1.142,1.881-1.142,3.57,0,1.616.369,2.791,1.107,3.525.738.735,1.735,1.102,2.991,1.102v1.386c-2.014,0-3.547-.52-4.597-1.561Zm6.502-.12c.545-.196.971-.51,1.276-.943.306-.432.528-.917.668-1.456l1.885.628c-.139.725-.465,1.353-.977,1.885s-1.15.926-1.914,1.182c-.765.256-1.712.384-2.842.384v-1.386c.725,0,1.36-.098,1.905-.294Z" fill="#fff" stroke-width="0"/>
      <path d="m483.567,303.746c-1.054-1.011-1.581-2.5-1.581-4.468,0-2.028.527-3.535,1.581-4.523,1.054-.987,2.578-1.481,4.572-1.481,1.788,0,3.138.399,4.049,1.197.911.798,1.409,1.669,1.496,2.613l-1.865.768c-.04-.864-.384-1.596-1.032-2.194-.648-.598-1.534-.897-2.657-.897-1.143,0-2.086.344-2.827,1.032-.741.688-1.112,1.85-1.112,3.485,0,1.569.374,2.711,1.122,3.425.748.715,1.687,1.072,2.817,1.072s2.018-.311,2.662-.932c.645-.622.988-1.335,1.027-2.139l1.865.808c-.087.871-.587,1.714-1.501,2.528-.914.814-2.262,1.222-4.044,1.222-1.995,0-3.519-.505-4.572-1.516Z" fill="#fff" stroke-width="0"/>
      <path d="m496.685,289.495h2.154v15.657h-2.154v-15.657Zm9.015,9.155c0-1.403-.278-2.407-.833-3.012s-1.351-.908-2.388-.908c-1.051,0-1.926.346-2.628,1.037-.702.692-1.052,1.576-1.052,2.653l-1.047-.758c0-1.024.504-2.014,1.511-2.972,1.008-.957,2.325-1.436,3.954-1.436,1.562,0,2.726.452,3.49,1.356.765.904,1.147,2.21,1.147,3.919v6.622h-2.154v-6.502Z" fill="#fff" stroke-width="0"/>
      <path d="m511.026,293.384h1.695l.448,2.583v9.185h-2.144v-11.767Zm8.975,5.265c0-1.403-.266-2.407-.798-3.012-.532-.605-1.316-.908-2.353-.908-1.044,0-1.931.346-2.662,1.037-.731.692-1.097,1.576-1.097,2.653l-1.037-.758c0-1.024.515-2.014,1.546-2.972,1.03-.957,2.36-1.436,3.989-1.436,1.562,0,2.712.459,3.451,1.376.738.918,1.107,2.234,1.107,3.949v6.572h-2.144v-6.502Z" fill="#fff" stroke-width="0"/>
      <path d="m526.503,303.771c-1.104-.987-1.655-2.501-1.655-4.542s.552-3.537,1.655-4.507c1.103-.971,2.616-1.456,4.537-1.456s3.436.485,4.542,1.456c1.107.971,1.66,2.473,1.66,4.507s-.554,3.555-1.66,4.542-2.621,1.481-4.542,1.481-3.434-.494-4.537-1.481Zm7.419-.992c.778-.671,1.167-1.855,1.167-3.55,0-1.675-.389-2.847-1.167-3.515-.778-.668-1.738-1.002-2.882-1.002-1.137,0-2.094.334-2.872,1.002-.778.668-1.167,1.84-1.167,3.515,0,1.695.389,2.879,1.167,3.55.778.672,1.735,1.007,2.872,1.007,1.143,0,2.104-.336,2.882-1.007Z" fill="#fff" stroke-width="0"/>
      <path d="m540.404,289.495h2.154v15.657h-2.154v-15.657Z" fill="#fff" stroke-width="0"/>
      <path d="m547.115,303.771c-1.104-.987-1.655-2.501-1.655-4.542s.552-3.537,1.655-4.507c1.103-.971,2.616-1.456,4.537-1.456s3.436.485,4.542,1.456,1.66,2.473,1.66,4.507-.554,3.555-1.66,4.542c-1.107.987-2.621,1.481-4.542,1.481s-3.434-.494-4.537-1.481Zm7.419-.992c.778-.671,1.167-1.855,1.167-3.55,0-1.675-.389-2.847-1.167-3.515-.778-.668-1.738-1.002-2.882-1.002-1.137,0-2.094.334-2.872,1.002-.778.668-1.167,1.84-1.167,3.515,0,1.695.389,2.879,1.167,3.55.778.672,1.735,1.007,2.872,1.007,1.143,0,2.104-.336,2.882-1.007Z" fill="#fff" stroke-width="0"/>
      <path d="m561.635,303.755c-.924-.99-1.386-2.496-1.386-4.518s.459-3.522,1.376-4.502c.917-.981,2.184-1.471,3.799-1.471,1.542,0,2.839.366,3.889,1.097,1.05.731,1.576,1.439,1.576,2.124l-.918,1.147c0-.731-.377-1.396-1.132-1.994-.754-.598-1.667-.898-2.737-.898-1.104,0-1.993.338-2.668,1.012-.675.675-1.012,1.84-1.012,3.495,0,1.669.337,2.837,1.012,3.505.675.668,1.564,1.002,2.668,1.002,1.07,0,1.983-.297,2.737-.892.755-.595,1.132-1.262,1.132-2l.938,1.197c0,.698-.524,1.403-1.571,2.114-1.047.712-2.342,1.067-3.884,1.067-1.623,0-2.896-.495-3.82-1.486Zm.708,5.121c-1.051-.615-1.645-1.631-1.785-3.047h2.124c.06.618.243,1.115.549,1.491.306.375.721.658,1.247.848.525.189,1.12.284,1.785.284,1.123,0,2.023-.273,2.697-.818s1.012-1.503,1.012-2.872v-8.656l.569-2.722h1.585v11.139c0,1.31-.274,2.352-.823,3.126-.549.774-1.24,1.326-2.074,1.655-.834.329-1.854.494-3.057.494-1.502,0-2.779-.308-3.829-.922Z" fill="#fff" stroke-width="0"/>
      <path d="m577.959,290.054v1.845h-2.154v-1.845h2.154Zm-2.154,3.311h2.154v11.787h-2.154v-11.787Z" fill="#fff" stroke-width="0"/>
      <path d="m582.716,303.701c-1.05-1.04-1.576-2.525-1.576-4.453,0-1.994.537-3.489,1.611-4.483,1.074-.994,2.581-1.491,4.522-1.491,2.001,0,3.514.5,4.538,1.501,1.024,1.001,1.536,2.478,1.536,4.433,0,.239-.017.462-.05.668h-10.321v-1.316h8.347l-.1.23c0-1.456-.354-2.511-1.062-3.166-.708-.655-1.667-.982-2.877-.982-1.19,0-2.166.346-2.927,1.037-.761.692-1.142,1.881-1.142,3.57,0,1.616.369,2.791,1.107,3.525.738.735,1.735,1.102,2.991,1.102v1.386c-2.014,0-3.547-.52-4.597-1.561Zm6.502-.12c.545-.196.971-.51,1.276-.943.306-.432.528-.917.668-1.456l1.885.628c-.139.725-.465,1.353-.977,1.885-.512.532-1.15.926-1.914,1.182-.765.256-1.712.384-2.842.384v-1.386c.725,0,1.36-.098,1.905-.294Z" fill="#fff" stroke-width="0"/>
      <path d="m597.984,304.484c-1.064-.512-1.732-1.346-2.004-2.503l1.845-.798c.146.891.585,1.559,1.316,2.004.731.446,1.702.668,2.912.668,1.143,0,2.006-.165,2.588-.494.581-.329.872-.763.872-1.301,0-.691-.434-1.16-1.302-1.406-.867-.246-1.926-.479-3.176-.698-1.409-.253-2.581-.618-3.515-1.097-.934-.479-1.401-1.28-1.401-2.403,0-1.037.5-1.825,1.501-2.363,1.001-.539,2.332-.808,3.994-.808,1.649,0,2.977.248,3.984.743,1.007.495,1.634,1.275,1.88,2.339l-1.835.788c-.146-.784-.57-1.396-1.271-1.835-.702-.439-1.634-.658-2.797-.658-1.117,0-1.955.163-2.513.489-.558.326-.837.765-.837,1.316,0,.645.412,1.095,1.236,1.351s1.838.49,3.042.703c1.423.239,2.633.577,3.63,1.012.997.436,1.496,1.232,1.496,2.388,0,1.11-.485,1.943-1.456,2.498-.97.555-2.357.833-4.158.833-1.622,0-2.965-.256-4.029-.768Z" fill="#fff" stroke-width="0"/>
    </g>
  </g>
  <g>
    <path d="m272.032,335.076c16.955,0,30.715,13.76,30.715,30.715s-13.76,30.715-30.715,30.715c-16.955-.065-30.715-13.76-30.715-30.715s13.76-30.715,30.715-30.715" fill="#06a64f" stroke-width="0"/>
    <path d="m272.032,357.639c4.565,0,8.282,3.652,8.282,8.151s-3.717,8.151-8.282,8.151-8.282-3.652-8.282-8.151c0-4.5,3.717-8.151,8.282-8.151" fill="#ec2227" stroke-width="0"/>
    <polygon points="536.074 390.18 526.814 365.791 535.617 342.25 530.726 342.25 521.727 365.856 531.183 390.18 536.074 390.18" fill="#fff" stroke-width="0"/>
    <polygon points="529.357 342.25 524.401 342.25 517.945 358.748 517.945 342.25 513.641 342.25 513.641 365.269 520.619 365.269 529.357 342.25" fill="#fff" stroke-width="0"/>
    <polygon points="513.641 390.18 517.945 390.18 517.945 372.051 524.727 390.18 529.813 390.18 520.684 366.573 513.641 366.573 513.641 390.18" fill="#fff" stroke-width="0"/>
    <polygon points="508.033 390.18 512.337 390.18 512.337 342.25 508.033 342.25 508.033 390.18" fill="#fff" stroke-width="0"/>
    <polygon points="483.97 383.137 483.97 377.333 475.101 377.333 475.101 342.25 470.601 342.25 470.601 383.137 483.97 383.137" fill="#fff" stroke-width="0"/>
    <polygon points="469.362 342.25 464.863 342.25 464.863 390.18 483.97 390.18 483.97 384.376 470.014 384.376 469.362 384.376 469.362 383.789 469.362 342.25" fill="#fff" stroke-width="0"/>
    <polygon points="411.781 342.25 411.781 389.919 411.781 390.18 416.084 390.18 416.084 342.25 411.781 342.25" fill="#fff" stroke-width="0"/>
    <polygon points="405.325 390.18 410.541 390.18 410.541 390.115 393.782 349.488 392.087 345.445 392.087 390.18 396.456 390.18 396.521 366.443 405.325 390.18" fill="#fff" stroke-width="0"/>
    <polygon points="410.476 342.25 405.651 342.25 405.651 366.443 396.847 342.25 392.152 342.25 410.476 386.659 410.476 342.25" fill="#fff" stroke-width="0"/>
    <polygon points="385.957 342.25 385.892 390.18 390.782 390.18 390.782 342.25 385.957 342.25" fill="#fff" stroke-width="0"/>
    <polygon points="434.931 354.77 440.995 354.77 440.995 349.032 430.627 349.032 430.627 390.18 434.931 390.18 434.931 354.77" fill="#fff" stroke-width="0"/>
    <polygon points="440.995 342.25 418.823 342.25 418.823 347.793 440.995 347.793 440.995 342.25" fill="#fff" stroke-width="0"/>
    <polygon points="418.823 349.032 418.823 354.77 424.692 354.77 424.692 390.18 429.388 390.18 429.388 349.032 418.823 349.032" fill="#fff" stroke-width="0"/>
    <polygon points="553.159 354.77 559.224 354.77 559.224 349.032 548.855 349.032 548.855 390.18 553.159 390.18 553.159 354.77" fill="#fff" stroke-width="0"/>
    <polygon points="559.224 342.25 537.052 342.25 537.052 347.793 559.224 347.793 559.224 342.25" fill="#fff" stroke-width="0"/>
    <polygon points="537.052 349.032 537.052 354.77 542.921 354.77 542.921 390.18 547.551 390.18 547.551 349.032 537.052 349.032" fill="#fff" stroke-width="0"/>
    <polygon points="572.201 368.204 566.136 368.204 566.136 390.18 570.571 390.18 570.571 375.834 575.657 390.18 580.352 390.18 572.201 368.204" fill="#fff" stroke-width="0"/>
    <path d="m600.307,384.702c-5.152,0-9.325-8.282-9.325-18.52s4.174-18.52,9.325-18.52,9.325,8.282,9.325,18.52-4.174,18.52-9.325,18.52m0-43.366c-8.021,0-13.042,10.108-13.042,24.846s5.021,24.846,13.042,24.846,13.042-10.108,13.042-24.846-5.021-24.846-13.042-24.846" fill="#fff" stroke-width="0"/>
    <path d="m600.307,377.399c-3.261,0-4.826-5.869-4.826-11.216,0-5.413,1.565-11.216,4.826-11.216s4.826,5.804,4.826,11.216-1.565,11.216-4.826,11.216m0-28.432c-4.434,0-8.217,7.891-8.217,17.216s3.782,17.216,8.217,17.216,8.217-7.891,8.217-17.216-3.782-17.216-8.217-17.216" fill="#fff" stroke-width="0"/>
    <polygon points="322.636 342.25 317.55 390.18 321.984 390.18 327.788 342.25 322.636 342.25" fill="#fff" stroke-width="0"/>
    <polygon points="346.96 345.641 337.765 388.419 328.571 345.641 323.223 390.18 328.244 390.18 330.005 370.16 333.918 390.18 341.613 390.18 345.46 370.16 347.286 390.18 352.242 390.18 346.96 345.641" fill="#fff" stroke-width="0"/>
    <polygon points="337.765 382.029 337.765 382.029 337.765 382.029 337.765 382.029 346.439 342.25 341.743 342.25 337.765 365.53 333.722 342.25 329.092 342.25 337.765 382.029 337.765 382.029" fill="#fff" stroke-width="0"/>
    <polygon points="352.829 342.25 347.743 342.25 353.547 390.18 357.981 390.18 352.829 342.25" fill="#fff" stroke-width="0"/>
    <path d="m371.088,384.702c-5.152,0-9.325-8.282-9.325-18.52s4.174-18.52,9.325-18.52,9.325,8.282,9.325,18.52c-.065,10.238-4.239,18.52-9.325,18.52m0-43.366c-8.021,0-13.042,10.108-13.042,24.846s5.021,24.846,13.042,24.846,13.042-10.108,13.042-24.846c-.065-14.738-5.021-24.846-13.042-24.846" fill="#fff" stroke-width="0"/>
    <path d="m371.088,377.399c-3.261,0-4.826-5.869-4.826-11.216,0-5.413,1.565-11.216,4.826-11.216s4.826,5.804,4.826,11.216c-.065,5.413-1.63,11.216-4.826,11.216m0-28.432c-4.434,0-8.217,7.891-8.217,17.216s3.782,17.216,8.217,17.216,8.217-7.891,8.217-17.216-3.782-17.216-8.217-17.216" fill="#fff" stroke-width="0"/>
    <polygon points="461.863 347.793 461.863 342.25 443.604 342.25 443.604 390.18 461.863 390.18 461.863 384.441 448.495 384.441 447.973 384.441 447.973 347.793 461.863 347.793" fill="#fff" stroke-width="0"/>
    <polygon points="505.098 347.793 505.098 342.25 486.839 342.25 486.839 390.18 505.098 390.18 505.098 384.441 491.73 384.441 491.208 384.441 491.208 347.793 505.098 347.793" fill="#fff" stroke-width="0"/>
    <polygon points="461.863 377.333 453.19 377.333 453.19 372.247 461.341 372.247 461.341 366.573 449.147 366.573 449.147 383.202 461.863 383.202 461.863 377.333" fill="#fff" stroke-width="0"/>
    <polygon points="505.098 377.333 496.425 377.333 496.425 372.247 504.577 372.247 504.577 366.573 492.382 366.573 492.382 383.202 505.098 383.202 505.098 377.333" fill="#fff" stroke-width="0"/>
    <polygon points="453.385 359.596 453.385 354.77 461.863 354.77 461.863 349.032 449.147 349.032 449.147 365.269 461.341 365.269 461.341 359.596 453.385 359.596" fill="#fff" stroke-width="0"/>
    <polygon points="496.621 359.596 496.621 354.77 505.098 354.77 505.098 349.032 492.382 349.032 492.382 365.269 504.577 365.269 504.577 359.596 496.621 359.596" fill="#fff" stroke-width="0"/>
    <path d="m578.657,370.943s6.978-3.978,6.978-13.694c0-8.608-3.391-14.999-14.607-14.999h-10.043v47.865h3.978v-42.453h7.238c1.63,0,4.304.587,6.26,2.217,1.174.978,2.348,2.739,2.739,4.891.196.978.261,1.826.261,2.804,0,5.021-1.695,9.651-8.021,10.499l8.282,22.107h4.63l-7.695-19.237h0Z" fill="#fff" stroke-width="0"/>
    <path d="m570.571,362.596v-9.195s2.022-.196,3.847.652c1.109.587,1.891,1.891,1.891,3.913,0,3.913-2.543,4.76-5.739,4.63m9.912-4.239c0-2.935-.456-5.739-2.608-7.499-.065-.065-.13-.065-.13-.13-1.891-1.369-4.043-1.761-6.195-1.761h-5.347v18.129h5.543s3,.196,5.543-1.5c1.435-.978,3.195-3.456,3.195-7.238" fill="#fff" stroke-width="0"/>
  </g>
  <g>
    <g>
      <path d="m25.495,430.529c.124.011.248.026.373.033.548.03,1.092.094,1.634.178.725.113,1.437.282,2.139.493.848.256,1.676.567,2.473.952.692.334,1.381.679,2.048,1.061,1.021.585,2.022,1.207,3.032,1.812,1.068.64,2.141,1.274,3.206,1.92.779.473,1.577.911,2.394,1.312.869.426,1.755.815,2.674,1.124.636.214,1.281.389,1.947.477.306.04.616.07.922.012.21-.04.413-.113.619-.172.16-.046.319-.094.495-.146.015.131.03.248.042.366.1.95.083,1.903.077,2.856-.003.45-.017.9-.048,1.349-.063.907-.15,1.811-.27,2.713-.151,1.13-.34,2.254-.569,3.371-.335,1.631-.753,3.24-1.246,4.83-.582,1.875-1.266,3.712-2.045,5.514-.478,1.105-.988,2.195-1.535,3.268-.79,1.549-1.648,3.059-2.589,4.522-.711,1.106-1.462,2.184-2.256,3.233-.777,1.027-1.587,2.028-2.447,2.987-.475.53-.96,1.05-1.444,1.571-.268.287-.538.573-.817.849-1.238,1.22-2.518,2.393-3.868,3.488-1.164.944-2.363,1.838-3.615,2.661-.621.408-1.252.802-1.91,1.149-.027.014-.05.035-.075.053h-.063c-.158-.091-.315-.182-.473-.272-1.051-.601-2.055-1.274-3.035-1.984-1.081-.783-2.128-1.61-3.136-2.485-.49-.425-.977-.854-1.447-1.3-.684-.649-1.36-1.307-2.023-1.978-.459-.465-.893-.955-1.334-1.439-.713-.781-1.388-1.593-2.045-2.422-.758-.956-1.479-1.939-2.167-2.947-.801-1.173-1.549-2.378-2.249-3.612-.563-.993-1.09-2.005-1.588-3.032-.631-1.3-1.214-2.62-1.743-3.965-.477-1.213-.914-2.439-1.303-3.682-.332-1.058-.63-2.126-.895-3.203-.292-1.189-.543-2.387-.739-3.595-.129-.794-.234-1.592-.328-2.391-.071-.601-.116-1.206-.16-1.811-.032-.443-.025-.889-.07-1.331-.045-.45-.037-.899-.024-1.348.014-.474.071-.946.114-1.419.016-.176.043-.35.067-.54.054.011.099.018.143.031.241.071.484.134.721.216.276.096.559.09.839.067.782-.062,1.533-.265,2.273-.516.794-.269,1.561-.601,2.32-.956,1.163-.545,2.269-1.192,3.365-1.858,1.562-.947,3.124-1.895,4.694-2.831.597-.356,1.211-.685,1.823-1.017.75-.407,1.527-.759,2.323-1.068,1.106-.429,2.24-.753,3.414-.931.454-.069.912-.111,1.369-.161.212-.023.425-.037.638-.055.461,0,.923,0,1.384,0Zm22.394,11.128c-.057-.007-.082-.011-.108-.013-.408-.023-.811-.075-1.211-.157-.936-.192-1.836-.499-2.721-.856-1.074-.434-2.111-.944-3.127-1.498-.464-.253-.915-.53-1.369-.801-1.021-.608-2.044-1.212-3.059-1.83-1.256-.765-2.5-1.55-3.805-2.233-.891-.467-1.806-.878-2.756-1.21-1.57-.548-3.189-.803-4.848-.823-.177-.002-.355.01-.533.02-.349.019-.699.036-1.048.062-.695.052-1.379.177-2.055.34-1.21.292-2.364.741-3.481,1.285-.848.413-1.669.874-2.477,1.359-.781.469-1.554.951-2.334,1.42-1.184.712-2.369,1.423-3.559,2.126-.73.431-1.487.814-2.253,1.179-.846.403-1.707.768-2.596,1.067-.844.284-1.701.516-2.59.615-.076.008-.151.025-.226.038-.005.034-.011.054-.011.074.006.246.011.492.019.737.009.303.015.607.033.91.026.443.051.887.094,1.329.064.66.128,1.321.222,1.978.124.869.257,1.738.424,2.6.17.878.377,1.749.584,2.619.24,1.008.532,2.002.846,2.99.371,1.167.78,2.321,1.231,3.46.445,1.124.919,2.236,1.451,3.321.424.865.856,1.726,1.307,2.577.527.995,1.108,1.959,1.713,2.909.634.994,1.304,1.963,2.007,2.909.706.95,1.44,1.877,2.22,2.767.614.7,1.244,1.387,1.878,2.069.342.368.705.718,1.065,1.068.417.405.833.81,1.264,1.2.578.522,1.164,1.036,1.757,1.542.749.638,1.527,1.241,2.321,1.823.824.604,1.665,1.182,2.536,1.715.086.053.146.05.226-.002.281-.183.569-.354.848-.539,1.343-.886,2.627-1.851,3.867-2.877.972-.804,1.916-1.64,2.82-2.519.763-.741,1.517-1.491,2.226-2.285.456-.511.918-1.018,1.361-1.541,1.33-1.573,2.559-3.22,3.684-4.947.915-1.405,1.761-2.85,2.519-4.345.44-.868.859-1.748,1.262-2.633.789-1.735,1.467-3.514,2.054-5.328.406-1.255.765-2.523,1.074-3.805.245-1.017.468-2.04.63-3.074.13-.831.258-1.663.363-2.497.083-.658.139-1.32.187-1.981.038-.527.046-1.055.067-1.583.004-.11.009-.22.01-.33.001-.13-.002-.259-.004-.401Z" fill="#fff" stroke-width="0"/>
      <path d="m3.386,443.128c.304-.079.594-.15.88-.229.959-.266,1.89-.615,2.798-1.021.583-.26,1.158-.537,1.732-.818.871-.426,1.696-.933,2.525-1.435,1.307-.792,2.615-1.584,3.926-2.369.723-.433,1.446-.865,2.181-1.276.997-.558,2.031-1.039,3.116-1.402.79-.265,1.598-.461,2.426-.56.368-.044.738-.078,1.108-.095.413-.02.827-.034,1.24-.019.837.03,1.666.136,2.483.324,1.055.243,2.063.617,3.042,1.076,1.125.528,2.197,1.151,3.257,1.796.675.411,1.353.818,2.029,1.227,1.093.66,2.18,1.332,3.283,1.975.633.368,1.286.703,1.943,1.027,1.296.641,2.629,1.193,4.025,1.582.227.063.456.117.684.175.05.013.099.026.162.042-.01.19-.014.372-.029.553-.052.619-.096,1.24-.167,1.857-.075.649-.173,1.295-.267,1.941-.154,1.051-.367,2.091-.604,3.126-.265,1.158-.577,2.302-.926,3.438-.452,1.471-.97,2.918-1.56,4.338-.331.797-.686,1.585-1.043,2.37-.243.533-.5,1.06-.766,1.583-.722,1.419-1.507,2.803-2.368,4.143-.685,1.067-1.41,2.106-2.175,3.116-.702.926-1.438,1.825-2.206,2.697-.418.475-.853.936-1.285,1.398-.308.329-.615.659-.941.97-.693.661-1.391,1.317-2.099,1.962-1.057.963-2.167,1.861-3.32,2.707-.511.375-1.04.724-1.557,1.09-.086.061-.144.041-.223-.009-1.078-.698-2.105-1.465-3.096-2.28-.654-.538-1.295-1.093-1.934-1.649-.656-.571-1.283-1.172-1.899-1.785-.694-.691-1.367-1.401-2.021-2.13-.972-1.084-1.89-2.211-2.758-3.379-.882-1.186-1.706-2.41-2.473-3.674-.554-.914-1.076-1.844-1.568-2.792-.526-1.013-1.019-2.041-1.482-3.084-.443-1-.86-2.01-1.228-3.04-.317-.887-.62-1.78-.896-2.68-.258-.84-.487-1.69-.705-2.541-.293-1.145-.536-2.303-.718-3.472-.121-.78-.235-1.561-.334-2.343-.065-.513-.097-1.03-.142-1.545-.019-.213-.036-.427-.05-.64-.005-.078,0-.156,0-.244Zm21.415,36.09c.041-.024.074-.04.103-.061.678-.5,1.371-.982,2.03-1.506.749-.595,1.476-1.219,2.198-1.848.548-.478,1.081-.974,1.604-1.479.667-.644,1.319-1.304,1.936-1.997.484-.543.97-1.083,1.438-1.64,1.224-1.456,2.351-2.985,3.386-4.582.841-1.297,1.614-2.633,2.32-4.007.478-.931.932-1.875,1.356-2.833.814-1.84,1.52-3.719,2.109-5.643.453-1.481.83-2.982,1.139-4.5.213-1.046.367-2.101.484-3.161.055-.504.119-1.006.177-1.51.02-.17.033-.34.049-.506-.06-.019-.099-.033-.139-.044-.706-.199-1.397-.439-2.077-.713-.884-.355-1.748-.755-2.593-1.195-.329-.172-.664-.336-.984-.522-.665-.387-1.323-.785-1.982-1.182-1.457-.878-2.913-1.758-4.37-2.636-.834-.502-1.684-.976-2.566-1.392-.998-.47-2.029-.84-3.111-1.062-.554-.114-1.113-.189-1.676-.222-.364-.021-.731-.02-1.096-.012-.36.008-.721.03-1.079.062-.884.079-1.744.277-2.586.556-1.158.383-2.247.919-3.302,1.523-.754.431-1.497.883-2.241,1.331-1.198.72-2.396,1.44-3.589,2.168-.849.518-1.706,1.022-2.598,1.464-.474.234-.95.464-1.431.683-.886.403-1.793.755-2.725,1.037-.169.051-.338.101-.492.147.275,3.499.938,6.905,2.01,10.229,1.383,4.287,3.262,8.342,5.73,12.116,2.442,3.734,5.37,7.046,8.745,9.963,1.223,1.058,2.484,2.068,3.826,2.975Z" fill="#fff" stroke-width="0"/>
      <path d="m7.682,453.841c-.618-1.931-1.107-3.882-1.466-5.866-.189-1.044-.303-2.098-.447-3.155.13-.046.247-.089.365-.131.904-.318,1.785-.69,2.652-1.097,1.385-.65,2.72-1.392,4.027-2.184,1.267-.768,2.525-1.549,3.79-2.32.925-.564,1.861-1.109,2.834-1.588,1.071-.528,2.183-.933,3.362-1.134.432-.073.871-.101,1.307-.148.046-.005.093.003.149.006v17.602s-.005.007-.009.011c-.004.003-.008.007-.013.008-.021.003-.041.008-.062.008-5.472,0-10.944,0-16.417,0-.02,0-.041-.006-.074-.011Z" fill="#c1272d" stroke-width="0"/>
      <path d="m41.573,454.926c-1.816,5.198-4.357,9.974-7.806,14.252-2.471,3.064-5.272,5.786-8.448,8.161v-22.413h16.254Z" fill="#c1272d" stroke-width="0"/>
      <path d="m25.318,453.842v-8.181c.11-.032,7.856-.045,8.119-.013.03.115.039,7.988.007,8.194h-8.126Z" fill="#fff" stroke-width="0"/>
      <path d="m16.129,463.021v-8.075c.006-.006.01-.009.014-.013.004-.003.007-.009.012-.01.021-.003.041-.007.062-.007,2.662,0,5.325,0,7.987.001.015,0,.029.008.052.014v8.079s-.005.007-.009.011c-.004.003-.008.008-.012.008-.026.004-.052.009-.078.009-2.657,0-5.314,0-7.971-.002-.015,0-.029-.008-.057-.016Z" fill="#fff" stroke-width="0"/>
    </g>
    <g>
      <path d="m98.708,445.368c.437.012.873.027,1.31.036,1.405.028,2.811.067,4.206.254.803.108,1.588.284,2.31.682.823.454,1.379,1.121,1.69,2.003.266.755.383,1.539.458,2.33.162,1.709.161,3.423.133,5.136-.021,1.304-.065,2.609-.311,3.897-.134.699-.331,1.377-.734,1.973-.486.716-1.177,1.162-1.984,1.439-.706.243-1.438.373-2.178.417-1.367.081-2.736.127-4.104.188-.241.011-.483.021-.724.031h-5.679c-.047-.006-.093-.016-.14-.018-1.476-.054-2.952-.089-4.426-.168-.908-.049-1.811-.176-2.672-.495-.857-.318-1.555-.833-2.009-1.645-.41-.732-.598-1.536-.679-2.355-.107-1.086-.188-2.177-.21-3.268-.026-1.293.006-2.589.045-3.882.031-1.027.143-2.047.392-3.051.366-1.473,1.247-2.451,2.704-2.905.775-.242,1.574-.358,2.378-.411,1.096-.073,2.194-.105,3.292-.151.419-.018.838-.025,1.256-.037,1.893,0,3.786,0,5.679,0Zm-2.564,4.667c0-.007,0-.015,0-.022-.982,0-1.963-.006-2.945.002-.915.008-1.83.026-2.736.182-.632.108-1.094.425-1.367,1.02-.201.438-.302.9-.322,1.372-.043,1.027-.071,2.056-.074,3.084-.001.5.044,1.003.11,1.499.092.688.411,1.25,1.083,1.521.33.133.688.239,1.04.264,1.113.08,2.229.15,3.344.16,1.732.014,3.465-.007,5.197-.05.645-.016,1.293-.099,1.929-.216.616-.113,1.142-.429,1.366-1.051.14-.389.237-.81.26-1.222.048-.878.046-1.76.044-2.64-.002-.714-.051-1.427-.211-2.127-.203-.884-.687-1.499-1.637-1.621-.567-.073-1.139-.135-1.71-.147-1.123-.023-2.246-.007-3.37-.007Z" fill="#fff" stroke-width="0"/>
      <path d="m193.305,463.755c-.49-.013-.98-.022-1.469-.041-1.416-.056-2.834-.1-4.229-.387-.918-.189-1.77-.529-2.52-1.105-.559-.429-.916-.992-1.115-1.66-.277-.928-.366-1.886-.391-2.847-.039-1.507-.07-3.014-.06-4.521.008-1.287.071-2.574.349-3.839.127-.579.313-1.138.633-1.642.477-.752,1.16-1.241,1.995-1.526.783-.268,1.595-.403,2.413-.502,1.655-.199,3.318-.265,4.984-.288.206-.003.412-.02.618-.03,1.313,0,2.627,0,3.94,0,.206.01.412.02.618.031,1.321.072,2.643.123,3.962.225.99.077,1.966.256,2.902.611,1.228.465,2.014,1.309,2.289,2.614.143.679.194,1.365.219,2.055.011.298.002.596.002.894-.028.005-.045.01-.063.01-1.84,0-3.679,0-5.519.003-.106,0-.145-.038-.148-.145-.006-.218-.019-.436-.039-.654-.029-.326-.162-.604-.476-.728-.293-.115-.602-.233-.911-.257-1.047-.083-2.097-.161-3.147-.174-1.726-.021-3.453.005-5.18.021-.679.006-1.355.062-2.02.211-.8.179-1.357.619-1.527,1.45-.071.346-.125.7-.133,1.052-.023.993-.023,1.987-.023,2.98,0,.744.034,1.487.175,2.22.106.548.331,1.018.858,1.288.349.178.725.259,1.109.276,1.009.044,2.019.095,3.028.1,1.797.009,3.595.003,5.392-.03.669-.012,1.341-.091,2.005-.184.49-.069.875-.326.985-.856.043-.207.065-.421.075-.632.013-.268.003-.536.003-.82h-7.515v-3.556c.96,0,1.905,0,2.851,0,3.354,0,6.708,0,10.062,0,.07,0,.14.011.21.016v1.633c-.006.058-.016.116-.018.175-.054,1.369-.098,2.739-.164,4.107-.034.703-.204,1.376-.557,1.993-.513.898-1.311,1.431-2.271,1.747-.866.285-1.766.412-2.668.485-1.153.093-2.31.131-3.466.188-.395.02-.79.025-1.186.037h-4.863Z" fill="#fff" stroke-width="0"/>
      <path d="m56.22,463.507v-17.854c1.964,0,3.928-.003,5.892.001,3.892.008,7.783.02,11.675.03,1.121.003,2.229.12,3.322.367,1.098.248,2.044.751,2.74,1.663.539.706.796,1.528.97,2.382.196.965.226,1.946.238,2.926.013,1.058-.003,2.117-.025,3.174-.022,1.052-.102,2.1-.321,3.133-.123.58-.296,1.144-.604,1.655-.664,1.1-1.657,1.746-2.884,2.06-1.006.258-2.035.344-3.066.382-1.335.05-2.671.075-4.006.078-4.644.009-9.287.004-13.931.004Zm5.659-13.383v8.835c.086,0,.161,0,.236,0,3.122-.009,6.244-.015,9.366-.029.738-.003,1.474-.042,2.196-.216.557-.134,1.064-.368,1.325-.906.154-.318.257-.676.305-1.027.07-.519.083-1.047.099-1.572.032-1.021.023-2.042-.158-3.052-.105-.587-.32-1.123-.817-1.499-.382-.29-.836-.39-1.296-.422-.801-.056-1.604-.104-2.406-.107-2.874-.012-5.748-.005-8.622-.005h-.227Z" fill="#fff" stroke-width="0"/>
      <path d="m208.497,463.755h-10.329c.395-.012.791-.018,1.186-.037,1.156-.057,2.313-.095,3.466-.188.902-.073,1.802-.2,2.668-.485.96-.316,1.758-.849,2.271-1.747.353-.617.523-1.29.557-1.993.065-1.369.11-2.738.164-4.107.002-.058.012-.116.018-.175" fill="#fff" stroke-width="0"/>
      <path d="m160.928,463.497h-5.84v-17.844h.195c3.224,0,6.448,0,9.672-.003.134,0,.212.042.29.148,3.203,4.326,6.41,8.648,9.611,12.975.107.144.214.216.392.192.104-.014.212-.002.347-.002-.048-4.436-.095-8.862-.143-13.299h5.841v17.843h-.186c-3.2,0-6.401,0-9.601.003-.134,0-.212-.042-.29-.148-3.206-4.316-6.416-8.629-9.619-12.947-.134-.18-.264-.284-.492-.248-.096.015-.197.003-.318.003.048,4.449.095,8.878.143,13.328Z" fill="#fff" stroke-width="0"/>
      <path d="m116.833,456.687v6.805h-5.726v-17.823h5.726v6.461c.08.004.142.009.204.01.923,0,1.846.004,2.769-.004.095,0,.209-.045.28-.108,2.402-2.115,4.8-4.235,7.196-6.356.099-.088.197-.127.331-.127,2.786.004,5.573.003,8.359.003.059,0,.118,0,.237,0-3.655,2.971-7.27,5.91-10.902,8.862,3.93,3.028,7.845,6.044,11.791,9.084-.087.006-.136.013-.186.013-2.78,0-5.561.001-8.341-.004-.091,0-.199-.038-.269-.094-2.728-2.196-5.452-4.396-8.175-6.599-.107-.087-.213-.126-.352-.125-.911.006-1.822.003-2.733.003h-.208Z" fill="#fff" stroke-width="0"/>
      <path d="m152.436,463.498h-6.011v-17.837h6.011v17.837Z" fill="#fff" stroke-width="0"/>
      <path d="m143.455,456.612h-7.88v-3.598h7.88v3.598Z" fill="#fff" stroke-width="0"/>
    </g>
  </g>
</svg>