<?xml version="1.0" encoding="utf-8"?>
<!-- Generator: Adobe Illustrator 28.0.0, SVG Export Plug-In . SVG Version: 6.00 Build 0)  -->
<svg version="1.1" id="Layer_1" xmlns="http://www.w3.org/2000/svg" xmlns:xlink="http://www.w3.org/1999/xlink" x="0px" y="0px"
	 width="828.8px" height="108.5px" viewBox="0 0 828.8 108.5" style="enable-background:new 0 0 828.8 108.5;" xml:space="preserve"
	>
<style type="text/css">
	.st0{fill:#FFFFFF;}
</style>
<g>
	<path class="st0" d="M117,5l-11.5,0l-7,0L88.1,5l0,39.6l17.4-0.8l0-28L123,42.9l17.9-0.9L117,5z M0,5l0,9.2l0,31.5l0,8.9l0,33.8
		l0,9.2l13.6,0l61.8,0l0-9.2l-61.8,0l0-33.8l50.6,0v-8.9l-50.6,0l0-31.5l61.8,0V5L13.6,5L0,5z M169.1,40.7l17.7-0.9l0-34.8l-17.7,0
		V40.7z M169.1,85.7l-17.3-26.8l-19.1-0.9l25.7,39.7l10.8,0h7.8h10V60.5l-17.7-0.8V85.7z M88.1,97.7l17.4,0l0-41l-17.4-0.8
		L88.1,97.7z M200.2,5v17l34.4,0l0,15.5l25.5-1.2V22l34.4,0V5L200.2,5z M234.6,97.7l25.5,0V64l-25.5-1.2L234.6,97.7z"/>
	<g>
		<g>
			<g>
				<path class="st0" d="M350,5h24.8v3.4h-19.9v10.1h18.7v3.2h-18.7v10.8h19.9v3.4H350V5z"/>
				<path class="st0" d="M382.1,8.9h3.9l1,5.9v21h-4.9V8.9z M402.7,21c0-3.2-0.6-5.5-1.8-6.9s-3-2.1-5.4-2.1c-2.4,0-4.4,0.8-6.1,2.4
					c-1.7,1.6-2.5,3.6-2.5,6.1l-2.4-1.7c0-2.3,1.2-4.6,3.5-6.8c2.4-2.2,5.4-3.3,9.1-3.3c3.6,0,6.2,1.1,7.9,3.2
					c1.7,2.1,2.5,5.1,2.5,9v15.1h-4.9V21z"/>
				<path class="st0" d="M415.8,0h4.9v35.9h-4.9V0z"/>
				<path class="st0" d="M434.5,1.3v4.2h-4.9V1.3H434.5z M429.6,8.9h4.9v27h-4.9V8.9z"/>
				<path class="st0" d="M445.2,32.7c-2.1-2.3-3.2-5.7-3.2-10.4c0-4.6,1.1-8.1,3.2-10.3c2.1-2.2,5-3.4,8.7-3.4
					c3.5,0,6.5,0.8,8.9,2.5c2.4,1.7,3.6,3.3,3.6,4.9l-2.1,2.6c0-1.7-0.9-3.2-2.6-4.6c-1.7-1.4-3.8-2.1-6.3-2.1
					c-2.5,0-4.6,0.8-6.1,2.3c-1.5,1.5-2.3,4.2-2.3,8c0,3.8,0.8,6.5,2.3,8c1.5,1.5,3.6,2.3,6.1,2.3c2.5,0,4.5-0.7,6.3-2
					c1.7-1.4,2.6-2.9,2.6-4.6l2.1,2.7c0,1.6-1.2,3.2-3.6,4.8c-2.4,1.6-5.4,2.4-8.9,2.4C450.2,36.1,447.3,34.9,445.2,32.7z
					 M446.8,44.4c-2.4-1.4-3.8-3.7-4.1-7h4.9c0.1,1.4,0.6,2.6,1.3,3.4c0.7,0.9,1.7,1.5,2.9,1.9c1.2,0.4,2.6,0.7,4.1,0.7
					c2.6,0,4.6-0.6,6.2-1.9s2.3-3.4,2.3-6.6V15.1l1.3-6.2h3.6v25.5c0,3-0.6,5.4-1.9,7.2c-1.3,1.8-2.8,3-4.8,3.8
					c-1.9,0.8-4.2,1.1-7,1.1C452.1,46.5,449.2,45.8,446.8,44.4z"/>
				<path class="st0" d="M477.2,0h4.9v35.9h-4.9V0z M497.8,21c0-3.2-0.6-5.5-1.9-6.9s-3.1-2.1-5.5-2.1c-2.4,0-4.4,0.8-6,2.4
					c-1.6,1.6-2.4,3.6-2.4,6.1l-2.4-1.7c0-2.3,1.2-4.6,3.5-6.8c2.3-2.2,5.3-3.3,9.1-3.3c3.6,0,6.2,1,8,3.1s2.6,5.1,2.6,9v15.2h-4.9
					V21z"/>
				<path class="st0" d="M517.7,34.8c-1.6-1-2.4-2.7-2.4-5.3V12.3h-7.9V8.9h7.9V2.6h4.9v6.3h11.1v3.4h-11.1v16
					c0,1.8,0.4,3.1,1.3,3.7c0.9,0.6,2.1,0.9,3.6,0.9c1.4,0,2.7-0.2,4-0.6v3.2c-1.8,0.4-3.6,0.7-5.6,0.7
					C521.3,36.2,519.3,35.7,517.7,34.8z"/>
				<path class="st0" d="M539.6,32.5c-2.4-2.4-3.6-5.8-3.6-10.2c0-4.6,1.2-8,3.7-10.3c2.5-2.3,5.9-3.4,10.4-3.4
					c4.6,0,8.1,1.1,10.4,3.4c2.3,2.3,3.5,5.7,3.5,10.2c0,0.5,0,1.1-0.1,1.5h-23.6v-3h19.1l-0.2,0.5c0-3.3-0.8-5.8-2.4-7.3
					c-1.6-1.5-3.8-2.3-6.6-2.3c-2.7,0-5,0.8-6.7,2.4c-1.7,1.6-2.6,4.3-2.6,8.2c0,3.7,0.8,6.4,2.5,8.1c1.7,1.7,4,2.5,6.9,2.5v3.2
					C545.6,36.1,542.1,34.9,539.6,32.5z M554.5,32.3c1.2-0.4,2.2-1.2,2.9-2.2c0.7-1,1.2-2.1,1.5-3.3l4.3,1.4
					c-0.3,1.7-1.1,3.1-2.2,4.3s-2.6,2.1-4.4,2.7c-1.8,0.6-3.9,0.9-6.5,0.9v-3.2C551.8,32.9,553.3,32.7,554.5,32.3z"/>
				<path class="st0" d="M571,8.9h3.9l1,5.9v21H571V8.9z M591.6,21c0-3.2-0.6-5.5-1.8-6.9s-3-2.1-5.4-2.1c-2.4,0-4.4,0.8-6.1,2.4
					c-1.7,1.6-2.5,3.6-2.5,6.1l-2.4-1.7c0-2.3,1.2-4.6,3.5-6.8c2.4-2.2,5.4-3.3,9.1-3.3c3.6,0,6.2,1.1,7.9,3.2
					c1.7,2.1,2.5,5.1,2.5,9v15.1h-4.9V21z"/>
				<path class="st0" d="M609.8,1.3v4.2h-4.9V1.3H609.8z M604.9,8.9h4.9v27h-4.9V8.9z"/>
				<path class="st0" d="M618.4,8.9h3.9l1,5.9v21h-4.9V8.9z M639,21c0-3.2-0.6-5.5-1.8-6.9s-3-2.1-5.4-2.1c-2.4,0-4.4,0.8-6.1,2.4
					c-1.7,1.6-2.5,3.6-2.5,6.1l-2.4-1.7c0-2.3,1.2-4.6,3.5-6.8c2.4-2.2,5.4-3.3,9.1-3.3c3.6,0,6.2,1.1,7.9,3.2
					c1.7,2.1,2.5,5.1,2.5,9v15.1H639V21z"/>
				<path class="st0" d="M653.5,32.7c-2.1-2.3-3.2-5.7-3.2-10.4c0-4.6,1.1-8.1,3.2-10.3c2.1-2.2,5-3.4,8.7-3.4
					c3.5,0,6.5,0.8,8.9,2.5c2.4,1.7,3.6,3.3,3.6,4.9l-2.1,2.6c0-1.7-0.9-3.2-2.6-4.6c-1.7-1.4-3.8-2.1-6.3-2.1
					c-2.5,0-4.6,0.8-6.1,2.3c-1.5,1.5-2.3,4.2-2.3,8c0,3.8,0.8,6.5,2.3,8c1.5,1.5,3.6,2.3,6.1,2.3c2.5,0,4.5-0.7,6.3-2
					c1.7-1.4,2.6-2.9,2.6-4.6l2.1,2.7c0,1.6-1.2,3.2-3.6,4.8c-2.4,1.6-5.4,2.4-8.9,2.4C658.6,36.1,655.6,34.9,653.5,32.7z
					 M655.2,44.4c-2.4-1.4-3.8-3.7-4.1-7h4.9c0.1,1.4,0.6,2.6,1.3,3.4c0.7,0.9,1.7,1.5,2.9,1.9c1.2,0.4,2.6,0.7,4.1,0.7
					c2.6,0,4.6-0.6,6.2-1.9s2.3-3.4,2.3-6.6V15.1l1.3-6.2h3.6v25.5c0,3-0.6,5.4-1.9,7.2c-1.3,1.8-2.8,3-4.8,3.8
					c-1.9,0.8-4.2,1.1-7,1.1C660.5,46.5,657.6,45.8,655.2,44.4z"/>
				<path class="st0" d="M350,67h8.2L377,95.8h-0.8V67h5v30.8h-8.1l-18.9-28.8h0.7v28.8h-5V67z"/>
				<path class="st0" d="M391.7,94.5c-2.4-2.4-3.6-5.8-3.6-10.2c0-4.6,1.2-8,3.7-10.3c2.5-2.3,5.9-3.4,10.4-3.4
					c4.6,0,8.1,1.1,10.4,3.4c2.3,2.3,3.5,5.7,3.5,10.2c0,0.5,0,1.1-0.1,1.5h-23.6v-3h19.1l-0.2,0.5c0-3.3-0.8-5.8-2.4-7.3
					c-1.6-1.5-3.8-2.3-6.6-2.3c-2.7,0-5,0.8-6.7,2.4c-1.7,1.6-2.6,4.3-2.6,8.2c0,3.7,0.8,6.4,2.5,8.1c1.7,1.7,4,2.5,6.9,2.5v3.2
					C397.7,98.1,394.1,96.9,391.7,94.5z M406.6,94.3c1.2-0.4,2.2-1.2,2.9-2.2c0.7-1,1.2-2.1,1.5-3.3l4.3,1.4
					c-0.3,1.7-1.1,3.1-2.2,4.3s-2.6,2.1-4.4,2.7c-1.8,0.6-3.9,0.9-6.5,0.9v-3.2C403.9,94.9,405.4,94.7,406.6,94.3z"/>
				<path class="st0" d="M421.6,70.9h5.1l5.5,24.1H432l7-24.1h3.8l-7.5,27h-6.7L421.6,70.9z M440,70.9h3.9L451,95h-0.2l5.3-24.1h5
					l-6.8,27h-6.6L440,70.9z"/>
				<path class="st0" d="M489.1,70.4h-11.8V67h28.5v3.4h-11.7v27.5h-5V70.4z"/>
				<path class="st0" d="M511.3,94.5c-2.4-2.4-3.6-5.8-3.6-10.2c0-4.6,1.2-8,3.7-10.3c2.5-2.3,5.9-3.4,10.4-3.4
					c4.6,0,8.1,1.1,10.4,3.4c2.3,2.3,3.5,5.7,3.5,10.2c0,0.5,0,1.1-0.1,1.5h-23.6v-3H531l-0.2,0.5c0-3.3-0.8-5.8-2.4-7.3
					c-1.6-1.5-3.8-2.3-6.6-2.3c-2.7,0-5,0.8-6.7,2.4c-1.7,1.6-2.6,4.3-2.6,8.2c0,3.7,0.8,6.4,2.5,8.1c1.7,1.7,4,2.5,6.9,2.5v3.2
					C517.2,98.1,513.7,96.9,511.3,94.5z M526.2,94.3c1.2-0.4,2.2-1.2,2.9-2.2c0.7-1,1.2-2.1,1.5-3.3l4.3,1.4
					c-0.3,1.7-1.1,3.1-2.2,4.3s-2.6,2.1-4.4,2.7c-1.8,0.6-3.9,0.9-6.5,0.9v-3.2C523.5,94.9,524.9,94.7,526.2,94.3z"/>
				<path class="st0" d="M544.5,94.7c-2.4-2.3-3.6-5.7-3.6-10.2c0-4.6,1.2-8.1,3.6-10.4c2.4-2.3,5.9-3.4,10.5-3.4
					c4.1,0,7.2,0.9,9.3,2.7c2.1,1.8,3.2,3.8,3.4,6l-4.3,1.8c-0.1-2-0.9-3.7-2.4-5c-1.5-1.4-3.5-2.1-6.1-2.1c-2.6,0-4.8,0.8-6.5,2.4
					s-2.5,4.2-2.5,8c0,3.6,0.9,6.2,2.6,7.8c1.7,1.6,3.9,2.5,6.5,2.5c2.6,0,4.6-0.7,6.1-2.1s2.3-3.1,2.4-4.9l4.3,1.9
					c-0.2,2-1.3,3.9-3.4,5.8c-2.1,1.9-5.2,2.8-9.3,2.8C550.5,98.1,547,97,544.5,94.7z"/>
				<path class="st0" d="M574.6,62h4.9v35.9h-4.9V62z M595.3,83c0-3.2-0.6-5.5-1.9-6.9s-3.1-2.1-5.5-2.1c-2.4,0-4.4,0.8-6,2.4
					c-1.6,1.6-2.4,3.6-2.4,6.1l-2.4-1.7c0-2.3,1.2-4.6,3.5-6.8c2.3-2.2,5.3-3.3,9.1-3.3c3.6,0,6.2,1,8,3.1s2.6,5.1,2.6,9v15.2h-4.9
					V83z"/>
				<path class="st0" d="M607.5,70.9h3.9l1,5.9v21h-4.9V70.9z M628,83c0-3.2-0.6-5.5-1.8-6.9s-3-2.1-5.4-2.1c-2.4,0-4.4,0.8-6.1,2.4
					c-1.7,1.6-2.5,3.6-2.5,6.1l-2.4-1.7c0-2.3,1.2-4.6,3.5-6.8c2.4-2.2,5.4-3.3,9.1-3.3c3.6,0,6.2,1.1,7.9,3.2
					c1.7,2.1,2.5,5.1,2.5,9v15.1H628V83z"/>
				<path class="st0" d="M642.9,94.7c-2.5-2.3-3.8-5.7-3.8-10.4c0-4.7,1.3-8.1,3.8-10.3c2.5-2.2,6-3.3,10.4-3.3s7.9,1.1,10.4,3.3
					s3.8,5.7,3.8,10.3c0,4.7-1.3,8.1-3.8,10.4s-6,3.4-10.4,3.4S645.5,97,642.9,94.7z M659.9,92.4c1.8-1.5,2.7-4.2,2.7-8.1
					c0-3.8-0.9-6.5-2.7-8.1c-1.8-1.5-4-2.3-6.6-2.3c-2.6,0-4.8,0.8-6.6,2.3c-1.8,1.5-2.7,4.2-2.7,8.1c0,3.9,0.9,6.6,2.7,8.1
					c1.8,1.5,4,2.3,6.6,2.3C655.9,94.7,658.1,94,659.9,92.4z"/>
				<path class="st0" d="M674.8,62h4.9v35.9h-4.9V62z"/>
				<path class="st0" d="M690.2,94.7c-2.5-2.3-3.8-5.7-3.8-10.4c0-4.7,1.3-8.1,3.8-10.3c2.5-2.2,6-3.3,10.4-3.3s7.9,1.1,10.4,3.3
					s3.8,5.7,3.8,10.3c0,4.7-1.3,8.1-3.8,10.4s-6,3.4-10.4,3.4S692.7,97,690.2,94.7z M707.2,92.4c1.8-1.5,2.7-4.2,2.7-8.1
					c0-3.8-0.9-6.5-2.7-8.1c-1.8-1.5-4-2.3-6.6-2.3c-2.6,0-4.8,0.8-6.6,2.3c-1.8,1.5-2.7,4.2-2.7,8.1c0,3.9,0.9,6.6,2.7,8.1
					c1.8,1.5,4,2.3,6.6,2.3C703.2,94.7,705.4,94,707.2,92.4z"/>
				<path class="st0" d="M723.4,94.7c-2.1-2.3-3.2-5.7-3.2-10.4c0-4.6,1.1-8.1,3.2-10.3c2.1-2.2,5-3.4,8.7-3.4
					c3.5,0,6.5,0.8,8.9,2.5c2.4,1.7,3.6,3.3,3.6,4.9l-2.1,2.6c0-1.7-0.9-3.2-2.6-4.6c-1.7-1.4-3.8-2.1-6.3-2.1
					c-2.5,0-4.6,0.8-6.1,2.3c-1.5,1.5-2.3,4.2-2.3,8c0,3.8,0.8,6.5,2.3,8c1.5,1.5,3.6,2.3,6.1,2.3c2.5,0,4.5-0.7,6.3-2
					c1.7-1.4,2.6-2.9,2.6-4.6l2.1,2.7c0,1.6-1.2,3.2-3.6,4.8c-2.4,1.6-5.4,2.4-8.9,2.4C728.5,98.1,725.5,96.9,723.4,94.7z
					 M725,106.4c-2.4-1.4-3.8-3.7-4.1-7h4.9c0.1,1.4,0.6,2.6,1.3,3.4c0.7,0.9,1.7,1.5,2.9,1.9c1.2,0.4,2.6,0.7,4.1,0.7
					c2.6,0,4.6-0.6,6.2-1.9s2.3-3.4,2.3-6.6V77.1l1.3-6.2h3.6v25.5c0,3-0.6,5.4-1.9,7.2c-1.3,1.8-2.8,3-4.8,3.8
					c-1.9,0.8-4.2,1.1-7,1.1C730.4,108.5,727.5,107.8,725,106.4z"/>
				<path class="st0" d="M760.8,63.3v4.2h-4.9v-4.2H760.8z M755.9,70.9h4.9v27h-4.9V70.9z"/>
				<path class="st0" d="M771.7,94.5c-2.4-2.4-3.6-5.8-3.6-10.2c0-4.6,1.2-8,3.7-10.3c2.5-2.3,5.9-3.4,10.4-3.4
					c4.6,0,8.1,1.1,10.4,3.4c2.3,2.3,3.5,5.7,3.5,10.2c0,0.5,0,1.1-0.1,1.5h-23.6v-3h19.1l-0.2,0.5c0-3.3-0.8-5.8-2.4-7.3
					c-1.6-1.5-3.8-2.3-6.6-2.3c-2.7,0-5,0.8-6.7,2.4c-1.7,1.6-2.6,4.3-2.6,8.2c0,3.7,0.8,6.4,2.5,8.1c1.7,1.7,4,2.5,6.9,2.5v3.2
					C777.6,98.1,774.1,96.9,771.7,94.5z M786.6,94.3c1.2-0.4,2.2-1.2,2.9-2.2c0.7-1,1.2-2.1,1.5-3.3l4.3,1.4
					c-0.3,1.7-1.1,3.1-2.2,4.3s-2.6,2.1-4.4,2.7c-1.8,0.6-3.9,0.9-6.5,0.9v-3.2C783.9,94.9,785.4,94.7,786.6,94.3z"/>
				<path class="st0" d="M806.7,96.3c-2.4-1.2-4-3.1-4.6-5.7l4.2-1.8c0.3,2,1.3,3.6,3,4.6c1.7,1,3.9,1.5,6.7,1.5
					c2.6,0,4.6-0.4,5.9-1.1c1.3-0.8,2-1.7,2-3c0-1.6-1-2.7-3-3.2c-2-0.6-4.4-1.1-7.3-1.6c-3.2-0.6-5.9-1.4-8.1-2.5s-3.2-2.9-3.2-5.5
					c0-2.4,1.1-4.2,3.4-5.4s5.3-1.9,9.2-1.9c3.8,0,6.8,0.6,9.1,1.7c2.3,1.1,3.7,2.9,4.3,5.4l-4.2,1.8c-0.3-1.8-1.3-3.2-2.9-4.2
					c-1.6-1-3.7-1.5-6.4-1.5c-2.6,0-4.5,0.4-5.8,1.1c-1.3,0.7-1.9,1.8-1.9,3c0,1.5,0.9,2.5,2.8,3.1s4.2,1.1,7,1.6
					c3.3,0.5,6,1.3,8.3,2.3c2.3,1,3.4,2.8,3.4,5.5c0,2.5-1.1,4.5-3.3,5.7c-2.2,1.3-5.4,1.9-9.5,1.9
					C812.2,98.1,809.2,97.5,806.7,96.3z"/>
			</g>
		</g>
	</g>
</g>
</svg>
