<?xml version="1.0" encoding="utf-8"?>
<!-- Generator: Adobe Illustrator 28.0.0, SVG Export Plug-In . SVG Version: 6.00 Build 0)  -->
<svg version="1.1" xmlns="http://www.w3.org/2000/svg" xmlns:xlink="http://www.w3.org/1999/xlink" x="0px" y="0px" width="343.4px"
	 height="100px" viewBox="0 0 343.4 100" style="enable-background:new 0 0 343.4 100;" xml:space="preserve">
<style type="text/css">
	.st0{display:none;}
	.st1{display:inline;opacity:0.66;}
	.st2{fill:#51C2BE;}
	.st3{fill:#FFFFFF;}
	.st4{fill:#3DCD58;}
	.st5{fill:#009530;}
	.st6{fill:none;}
</style>
<g id="Layer_2" class="st0">
	<rect x="-2363.8" y="-337.9" class="st1" width="3630.6" height="658.7"/>
</g>
<g id="Layer_1">
	<g>
		<path class="st3" d="M80.6,71.7c-2.8,0-5.5-0.5-8.1-1.5c-2.7-1-5.2-2.5-7.3-4.5l5.3-6.5c2.9,2.4,6.6,3.7,10.3,3.8
			c1.4,0.1,2.7-0.2,3.9-0.9c0.4-0.3,0.8-0.6,1-1.1c0.2-0.4,0.3-0.9,0.3-1.4c0-0.3,0-0.7-0.2-1c-0.1-0.3-0.3-0.6-0.6-0.9
			c-0.6-0.5-1.3-1-2-1.3c-0.8-0.4-1.9-0.8-3-1.3L75.2,53c-1.5-0.6-2.9-1.4-4.1-2.4c-1.3-1-2.3-2.3-3-3.8c-0.8-1.6-1.2-3.4-1.2-5.2
			c0-2.2,0.7-4.4,1.9-6.3c1.3-1.9,3.2-3.5,5.3-4.5c2.4-1.2,5.1-1.7,7.8-1.7c2.4,0,4.9,0.5,7.2,1.3c2.3,0.8,4.4,2.1,6.2,3.8L90,40.9
			c-1.3-0.9-2.7-1.7-4.1-2.3c-1.3-0.5-2.6-0.7-4-0.7c-1.2-0.1-2.4,0.2-3.5,0.8c-0.4,0.2-0.7,0.6-1,1c-0.2,0.4-0.3,0.9-0.3,1.4
			c0,0.3,0.1,0.7,0.2,1c0.1,0.3,0.3,0.6,0.6,0.8c0.6,0.6,1.4,1,2.2,1.3l3.2,1.3l5.1,2c1.6,0.6,3,1.5,4.3,2.5c1.2,1,2.1,2.2,2.8,3.7
			c0.7,1.6,1,3.3,1,5c0,2.3-0.6,4.5-1.8,6.4c-1.3,2.1-3.2,3.7-5.3,4.8C86.5,71.3,83.6,71.9,80.6,71.7z"/>
		<path class="st3" d="M118.2,71.7c-3.5,0.1-6.9-0.8-9.8-2.6c-2.9-1.7-5.2-4.3-6.6-7.3c-1.7-3.6-2.5-7.5-2.4-11.5
			c-0.1-3.9,0.7-7.9,2.4-11.4c1.4-3,3.7-5.5,6.6-7.2c3-1.6,6.4-2.5,9.8-2.5c3.4,0,6.8,0.9,9.8,2.5c2.9,1.7,5.2,4.2,6.6,7.2
			c1.7,3.6,2.5,7.5,2.4,11.4c0.1,4-0.7,7.9-2.4,11.5c-1.4,3-3.7,5.6-6.5,7.3C125.1,70.9,121.7,71.8,118.2,71.7z M118.2,63.1
			c1.7,0,3.3-0.5,4.6-1.5c1.4-1.2,2.4-2.7,3-4.4c0.7-2.2,1.1-4.5,1-6.8c0.1-2.3-0.3-4.5-1-6.7c-0.5-1.7-1.6-3.1-2.9-4.2
			c-1.3-1-2.9-1.5-4.6-1.5s-3.2,0.5-4.6,1.5c-1.4,1.1-2.4,2.6-2.9,4.2c-0.7,2.2-1.1,4.4-1,6.7c0,2.3,0.3,4.6,1,6.8
			c0.5,1.7,1.6,3.2,2.9,4.4C115,62.5,116.6,63.1,118.2,63.1L118.2,63.1z"/>
		<path class="st3" d="M172.4,71V30h11.9c3.7-0.1,7.5,0.6,10.9,2.1c3.1,1.4,5.6,3.7,7.3,6.6c1.9,3.6,2.8,7.6,2.6,11.6
			c0.2,4.1-0.7,8.1-2.6,11.7c-1.6,2.9-4.1,5.3-7.2,6.8c-3.3,1.5-6.9,2.3-10.5,2.2H172.4z M182.5,62.9h1.2c2,0,3.9-0.4,5.7-1.1
			c1.7-0.8,3.1-2.2,4-3.9c1.1-2.4,1.6-5,1.4-7.6c0.1-2.6-0.4-5.1-1.4-7.5c-0.9-1.7-2.3-3-4-3.7c-1.8-0.7-3.8-1.1-5.7-1.1h-1.2V62.9z
			"/>
		<path class="st3" d="M209.7,71V30h26.1v8.4h-16v7.3h13.7v8.4h-13.7v8.4h16.7V71H209.7z"/>
		<path class="st3" d="M275.3,71l-9.1-16.2c1.9-0.9,3.5-2.3,4.8-4c1.6-2.3,2.4-5,2.2-7.8c0.2-2.8-0.6-5.6-2.2-7.9
			c-1.5-1.9-3.6-3.3-5.9-4c-2.6-0.8-5.3-1.2-8-1.2h-15.2v41H252V56.8h4.7l7.4,14.2H275.3z M252,38h4.3c1.8-0.1,3.6,0.3,5.2,1.1
			c0.6,0.4,1.1,1,1.5,1.7c0.3,0.7,0.4,1.5,0.4,2.2c0.1,0.8-0.1,1.6-0.4,2.4c-0.3,0.7-0.8,1.4-1.4,1.9c-1.5,1.1-3.3,1.6-5.2,1.4H252
			V38z"/>
		<path class="st3" d="M279.2,71V30h26.1v8.4h-16.1v7.3h13.7v8.4h-13.7v8.4H306V71H279.2z"/>
		<path class="st3" d="M310.8,71V30h11.9c3.7-0.1,7.4,0.7,10.8,2.1c3.1,1.4,5.6,3.7,7.3,6.6c1.9,3.6,2.8,7.6,2.6,11.6
			c0.2,4.1-0.7,8.1-2.6,11.7c-1.6,2.9-4.1,5.3-7.2,6.8c-3.3,1.5-6.9,2.3-10.5,2.2H310.8z M320.8,62.9h1.2c2,0,3.9-0.4,5.7-1.1
			c1.7-0.8,3.1-2.2,4-3.9c1.1-2.4,1.6-5,1.4-7.6c0.1-2.6-0.4-5.1-1.4-7.5c-0.9-1.7-2.3-3-4-3.7c-1.8-0.7-3.8-1.1-5.7-1.1h-1.2V62.9z
			"/>
		<path class="st3" d="M156.9,61.6l-5.5-5.5V30h-10.1v30.4l10.5,10.5h15.8v-9.3H156.9z"/>
		<path class="st3" d="M44.8,25.4c-1.3,0-2.6-0.3-3.7-1l-15.6-9L2.1,29v22.7l24.6,14.2l0.6-0.3c1.1-0.6,2-1.4,2.6-2.4
			c0.7-1,1-2.2,1.1-3.4c0-1.3-0.4-2.5-1-3.6c-0.6-1.1-1.5-2-2.6-2.7l-14.8-8V34.9l12.8-7.5l10.7,6.3c1,0.6,1.8,1.5,2.4,2.5
			c0.6,1,1.5,1.9,2.5,2.5c1,0.6,2.2,1,3.4,1c1.2,0.1,2.4-0.2,3.4-0.7c1.1-0.5,2-1.3,2.7-2.2c0.1-0.2,0.2-0.3,0.3-0.5v-0.1
			c0.6-1.1,0.9-2.3,0.9-3.5c0-1.2-0.3-2.5-1-3.5c-0.6-1.1-1.5-2-2.6-2.6c-1.1-0.6-2.3-1-3.5-1H44.8z"/>
		<path class="st3" d="M24.5,34.4c-1.1,0.6-2,1.4-2.6,2.4c-0.7,1-1,2.2-1.1,3.4c0,1.3,0.4,2.5,1,3.6c0.6,1.1,1.5,2,2.6,2.7l14.9,8
			v10.6l-12.9,7.5l-10.7-6.3c-1-0.6-1.8-1.5-2.4-2.5c-0.6-1-1.4-1.9-2.5-2.5c-1-0.6-2.2-1-3.4-1C6.2,60.2,5,60.5,4,61
			c-1.1,0.5-2,1.3-2.7,2.3c-0.1,0.2-0.2,0.3-0.3,0.5v0.1c-0.6,1.1-1,2.3-1,3.6c0,1.9,0.7,3.7,2.1,5c1.3,1.3,3.1,2.1,5,2.1
			c1.3,0,2.6,0.3,3.7,1l15.5,9L49.7,71V48.3L25.1,34.1L24.5,34.4z"/>
	</g>
</g>
</svg>
