<?xml version="1.0" encoding="utf-8"?>
<!-- Generator: Adobe Illustrator 28.0.0, SVG Export Plug-In . SVG Version: 6.00 Build 0)  -->
<svg version="1.1" id="Layer_1" xmlns="http://www.w3.org/2000/svg" xmlns:xlink="http://www.w3.org/1999/xlink" x="0px" y="0px"
	 width="728.5px" height="170.1px" viewBox="0 0 728.5 170.1" style="enable-background:new 0 0 728.5 170.1;" xml:space="preserve"
	>
<style type="text/css">
	.st0{fill-rule:evenodd;clip-rule:evenodd;fill:#DA1F3D;}
	.st1{fill-rule:evenodd;clip-rule:evenodd;fill:#034EA2;}
</style>
<g>
	<path class="st0" d="M127.3,14.7h-32v54.1H95c-4-5.3-8.7-9.2-14-11.5c-5.3-2-11.2-2.9-17.7-2.9c-12.7,0.3-22.5,5.4-29.2,15.2
		c-6.9,9.6-10.3,20.6-10.3,32.9c0,14.4,3.7,26.5,11,36.2c7.1,9.9,17.5,15.1,31.2,15.4c7.5-0.1,14.2-2,20-5.7
		c5.7-3.6,9.6-8.1,11.7-13.5H98v17h29.3V14.7z M56.7,103.2c0-6.6,1.7-12.1,5.2-16.6c3.2-4.5,7.9-6.9,14.2-7c6,0.1,10.7,2.4,14.1,7
		c3.5,4.5,5.2,10.5,5.4,18c-0.1,7-2,12.7-5.7,17.2c-3.6,4.6-8.2,7-13.7,7.1c-6,0-10.7-2.4-14-7.3C58.5,117,56.7,110.9,56.7,103.2"/>
	<path class="st1" d="M140.1,148.2c13.4,4,27.1,6,41,6c16.1,0.1,30-3.1,41.9-9.6c12.1-6.6,18.3-18.7,18.7-36.2
		c0-6.4-0.9-11.8-2.6-16.2c-1.8-4.4-4.3-8.1-7.5-11c-3-2.9-6.5-5.4-10.4-7.4c-3.8-1.9-7.9-3.5-12.2-4.8c-4-1.3-7.9-2.6-11.8-3.8
		c-4-1.2-7.5-2.3-10.7-3.4c-3.2-1.2-5.7-2.6-7.6-4.4c-2-1.7-3-3.9-3-6.7c0.3-6,3.3-9.7,9.2-11.2c2.7-0.8,5.4-1.3,8.2-1.6
		c2.8-0.1,5.3-0.2,7.6-0.2c10.8,0,21.2,2.1,31.1,6.3l2.3-28.7c-9.8-3.3-21.7-5-35.5-5.2c-7,0-14,0.6-20.9,1.8
		c-7,1.4-13.5,3.6-19.4,6.8c-5.8,3.2-10.5,7.6-14.1,13.2c-3.8,5.6-5.7,12.6-5.7,20.9c0.1,12.3,3.7,21.3,10.6,27
		c3.2,2.9,6.8,5.4,10.7,7.3c3.9,2,7.8,3.7,11.8,5.1c4.3,1.3,8.3,2.6,12.2,3.8c3.8,1.2,7.3,2.4,10.3,3.8c3.2,1.3,5.8,3,7.6,5.2
		c1.8,2.1,2.6,4.9,2.6,8.2c-0.1,5.5-2.5,9.1-7,10.9c-4.4,1.9-9.7,2.8-16,2.6c-15.7-0.3-28.5-3.3-38.4-9.2L140.1,148.2z"/>
	<path class="st1" d="M253.1,151.9H289v-48.7h14.3c36.3-0.4,54.8-15.3,55.3-44.8c0.1-30.6-20.5-45.9-61.8-45.7h-43.8V151.9z
		 M289,38.9h9.9c6.8,0,12.4,1.3,17,3.8c4.4,2.9,6.7,7.9,6.8,14.9c-0.1,7.1-2.4,12.1-6.8,15c-4.6,2.9-10.3,4.3-17,4.2H289V38.9z"/>
	<path class="st1" d="M343.2,151.9h36.5l10.7-29.7H441l10,29.7h39.4l-52-139.3h-44L343.2,151.9z M435.3,95.8h-34.9l17.9-54.5h0.5
		L435.3,95.8z"/>
	<path class="st1" d="M599.7,119.5c-10.2,4.7-21.4,7.1-33.7,7.2c-13.4,0-24.2-3.9-32.3-11.8c-8.4-7.7-12.6-18.5-12.7-32.2
		c0.1-13.3,4-24,11.6-32.3c7.5-8.4,17.7-12.6,30.5-12.8c12.1,0,23.9,3.3,35.2,9.8l2.9-30.1c-12.9-4.5-26.2-6.9-40-7.2
		c-22.7,0-41.1,6-55.3,17.9c-14.4,12.1-21.7,30.4-22,54.6c0.5,26,8.9,44.4,25.3,55.3c7.6,5.6,16,9.6,25.1,12.2
		c9.1,2.7,18.1,4,27.1,4c9.1-0.1,16.9-0.8,23.2-2c6.3-1,11.9-2.2,16.8-3.6L599.7,119.5z"/>
	<polygon class="st1" points="614.4,151.9 711.6,151.9 711.6,125.6 650.3,125.6 650.3,94 706.2,94 706.2,67.7 650.3,67.7 
		650.3,38.9 709.4,38.9 709.4,12.6 614.4,12.6 	"/>
</g>
</svg>
