<?xml version="1.0" encoding="utf-8"?>
<!-- Generator: Adobe Illustrator 28.0.0, SVG Export Plug-In . SVG Version: 6.00 Build 0)  -->
<svg version="1.1" xmlns="http://www.w3.org/2000/svg" xmlns:xlink="http://www.w3.org/1999/xlink" x="0px" y="0px" width="443.1px"
	 height="100px" viewBox="0 0 443.1 100" style="enable-background:new 0 0 443.1 100;" xml:space="preserve">
<style type="text/css">
	.st0{display:none;}
	.st1{display:inline;opacity:0.66;}
	.st2{fill:#51C2BE;}
	.st3{fill:#FFFFFF;}
	.st4{fill:#3DCD58;}
	.st5{fill:#009530;}
	.st6{fill:none;}
</style>
<g id="Layer_2" class="st0">
	<rect x="-1855.4" y="-337.9" class="st1" width="3630.6" height="658.7"/>
</g>
<g id="Layer_1">
	<g>
		<g>
			<g>
				<path class="st4" d="M34.9,60.4H21.9V37.8c0-0.8,0-2.1-1.4-2.1c-1.3,0-1.3,1.2-1.3,2.1v22.8c0,1.9,0.3,2.1,2.3,2.1h13.4
					c0.9,0,2,0,2-1.1C36.9,60.4,35.8,60.4,34.9,60.4z"/>
				<path class="st4" d="M40.6,43c-1.3,0-1.3,1.1-1.3,1.9v16.3c0,0.8,0,1.9,1.3,1.9c1.2,0,1.2-1,1.2-1.9V44.9
					C41.9,44.1,41.9,43,40.6,43z"/>
				<path class="st4" d="M40.6,36.4c-0.9,0-1.6,0.6-1.6,1.5c0,0.8,0.7,1.5,1.6,1.5c0.9,0,1.6-0.7,1.6-1.5
					C42.2,37.1,41.5,36.4,40.6,36.4z"/>
				<path class="st4" d="M52.9,43.4h-2.7v-1.7c0-2.4,0.2-4,3.2-4c0.1,0,0.4,0,0.8,0.1c0.4,0,0.8,0.1,0.9,0.1c0.6,0,1-0.5,1-1
					c0,0,0-0.6-0.6-0.8c-0.5-0.2-1.8-0.4-2.9-0.4c-0.9,0-1.8,0.2-2.5,0.6c-0.8,0.4-1.4,1-1.8,1.6c-0.3,0.4-0.6,1.3-0.6,3.6v2h-2.1
					c-0.4,0-1.6,0-1.6,0.8c0,0.9,1.1,0.9,1.6,0.9h2.1v16.1c0,0.8,0,1.9,1.3,1.9c1.2,0,1.2-1,1.2-1.9V45.1h2.7c1.1,0,1.6-0.3,1.6-0.9
					C54.5,43.4,53.4,43.4,52.9,43.4z M50.6,39.1C50.5,39.1,50.5,39.2,50.6,39.1C50.5,39.2,50.5,39.1,50.6,39.1z"/>
				<path class="st4" d="M73,51.7c0-0.1,0-2.3-1.2-4.5c-0.7-1.2-1.6-2.2-2.7-2.9c-0.1-0.1-0.3-0.1-0.4-0.2c-0.1,0-0.2-0.1-0.3-0.1
					c-0.3-0.1-0.6-0.3-0.9-0.4c-0.1,0-0.2-0.1-0.3-0.1c-0.3-0.1-0.7-0.2-1-0.3c-0.1,0-0.1,0-0.2,0c-0.4-0.1-0.8-0.1-1.3-0.2
					c0,0-0.1,0-0.1,0c-0.2,0-0.5,0-0.7,0c-3,0-5.4,1-7,2.8c-1.6,1.8-2.5,4.3-2.5,7.3c0,2.9,0.8,5.4,2.3,7.2c0.8,0.9,1.8,1.6,3,2.1
					c1.2,0.5,2.6,0.8,4.2,0.8c3.6,0,5.8-1.4,6.9-2.7c1.3-1.4,1.7-2.8,1.7-3.1c0-0.5-0.5-1.1-1.2-1.1c-0.5,0-1,0.3-1.2,0.8
					c-0.7,1.7-1.8,2.9-3.3,3.5C66,61,65.1,61.2,64,61.2c-2.2,0-4-0.8-5.2-2.2c-1.1-1.4-1.7-3.3-1.8-5.6h13.6
					C71.9,53.3,73,53.3,73,51.7z M57.1,51.4c0.3-2.4,2.1-6.5,6.8-6.5c5.8,0,6.3,4.9,6.5,6.5H57.1z"/>
				<path class="st4" d="M85.7,35.7c-1.4,0-1.4,1.3-1.4,2.1V61c0,0.9,0,2.1,1.4,2.1c1.3,0,1.3-1.2,1.3-2.1V37.8
					C87.1,36.8,87.1,35.7,85.7,35.7z"/>
				<path class="st4" d="M130.9,49.8c0.9,0,1.4-0.8,1.4-1.4v-16h-2.9v16C129.5,49,130,49.8,130.9,49.8z"/>
				<path class="st4" d="M104.7,53.1c-0.2-0.1-0.4-0.2-0.5-0.3c-0.1,0-0.1-0.1-0.2-0.1c-1.4-0.6-3-1-4.5-1.3c-1.5-0.3-3-0.6-4-1.2
					c-1.2-0.6-1.8-1.3-1.8-2.4c0-2.1,2.5-3.1,5-3.1c2.6,0,4.6,1,5.2,2.7c0.4,1,0.6,1.2,1.2,1.2c1.1,0,1.1-1,1.1-1
					c0-0.2-0.2-1.4-1.2-2.5c-0.6-0.7-1.4-1.2-2.3-1.5c-1.1-0.5-2.5-0.7-4.1-0.7c-2.8,0-4.8,0.8-6.1,2.2c-1.2,1.4-1.2,2.9-1.2,3.1
					c0,1.4,0.7,2.7,1.9,3.5c1.2,0.8,2.5,1.1,5.1,1.7c0.7,0.2,1.5,0.4,2.4,0.6l0.1,0c1.4,0.3,4,1,4,3.3c0,1.8-1.7,3.6-5.6,3.6
					c-2.8,0-4.8-1.1-5.7-3.2l0-0.1c-0.3-0.6-0.5-1.2-1.2-1.2c-0.3,0-0.6,0.1-0.8,0.3c-0.3,0.2-0.4,0.5-0.4,0.8
					c0,1.1,0.9,2.6,2.2,3.6c0.6,0.5,1.3,0.9,2.1,1.1c1,0.3,2.3,0.5,3.8,0.5c3.2,0,5.6-0.8,7-2.3c1.3-1.4,1.4-2.9,1.4-3.5
					C107.2,55.4,106.3,54.1,104.7,53.1z"/>
				<path class="st4" d="M163.1,45c-0.9-0.9-2.6-2-5.6-2c-3.9,0-5.5,1.8-6.7,3.2v-1.4c0-0.6,0-1.2-0.4-1.5c0,0-0.1-0.1-0.1-0.1
					c0,0,0,0,0,0c-0.2-0.1-0.4-0.2-0.7-0.2c-1.3,0-1.3,1.1-1.3,1.9v16.3c0,0.9,0,1.9,1.3,1.9c0.3,0,0.5-0.1,0.7-0.2c0,0,0,0,0,0
					c0,0,0.1,0,0.1-0.1c0.4-0.4,0.4-1,0.4-1.5v-7c0-3.1,0.1-4.7,0.7-5.9c0.5-1,1.4-1.9,2.4-2.5c1-0.6,2.2-0.9,3.3-0.9
					c1.7,0,3.2,0.7,4,1.8c0.7,1,0.8,2.5,0.8,3.9v10.5c0,0.6,0,1.2,0.4,1.5c0,0,0.1,0.1,0.1,0.1c0,0,0,0,0,0c0.2,0.1,0.4,0.2,0.7,0.2
					c1.3,0,1.3-1.1,1.3-1.9V50.1C164.6,49.1,164.6,46.7,163.1,45z"/>
				<path class="st4" d="M134.9,35.3v2.7c4.6,1.6,7.9,5.9,7.9,11c0,6.4-5.2,11.7-11.7,11.7c-6.4,0-11.7-5.2-11.7-11.7
					c0-5,3.2-9.3,7.6-10.9v-2.8c-5.9,1.8-10.2,7.2-10.2,13.7c0,7.9,6.4,14.3,14.3,14.3s14.3-6.4,14.3-14.3
					C145.4,42.5,140.9,37,134.9,35.3z"/>
			</g>
			<g>
				<path class="st5" d="M239,38.3c-4.8-2.1-7.6-2.9-10.4-2.9c-3,0-4.9,1.1-4.9,2.7c0,5,16.8,3.6,16.8,15c0,6.3-5.3,10-12.7,10
					c-5.8,0-8.6-1.5-11.9-3.2v-7.1c4.7,3.1,7.6,4.2,11.3,4.2c3.2,0,4.9-1.1,4.9-3c0-5.4-16.8-3.4-16.8-15.2c0-5.7,4.9-9.5,12.6-9.5
					c3.7,0,7,0.8,11.2,2.6V38.3"/>
				<path class="st5" d="M262.5,61.6c-2.8,1-5.2,1.5-7.5,1.5c-7.8,0-12.9-4.6-12.9-11.5c0-6.8,5.3-11.6,12.6-11.6
					c2.3,0,5.2,0.6,7.5,1.4v5.2c-1.8-1-4-1.5-5.7-1.5c-4.2,0-6.9,2.5-6.9,6.4c0,4,2.7,6.6,6.7,6.6c1.7,0,3.2-0.4,6.3-1.5V61.6"/>
				<path class="st5" d="M327.9,40c-6.9,0-11.8,4.8-11.8,11.7c0,6.9,5.1,11.4,12.9,11.4c1.7,0,5.9,0,9.9-3v-4.3
					c-3.3,2.3-5.4,3.1-8.2,3.1c-4.4,0-7.1-2.3-7.4-6.2h16C339.7,44.6,334.3,40,327.9,40 M323.5,49c0.3-3.1,2.1-4.9,4.8-4.9
					c2.7,0,4.5,1.8,4.8,4.9H323.5z"/>
				<rect x="342.1" y="40.4" class="st5" width="7" height="22.3"/>
				<path class="st5" d="M368.5,29.8v11.6c-1.9-0.9-3.8-1.4-5.8-1.4c-6.4,0-10.8,4.7-10.8,11.5c0,6.7,4.4,11.6,10.4,11.6
					c2.4,0,4.2-0.6,6.2-2.2v1.8h7V29.8H368.5 M368.5,56.6c-1.5,1.3-2.7,1.8-4.2,1.8c-3.3,0-5.4-2.7-5.4-6.8c0-4.4,2.1-7,5.6-7
					c1.3,0,2.9,0.6,3.9,1.3V56.6z"/>
				<path class="st5" d="M390.2,40c-6.9,0-11.7,4.8-11.7,11.7c0,6.9,5.1,11.4,12.9,11.4c1.7,0,5.9,0,9.9-3v-4.3
					c-3.3,2.3-5.4,3.1-8.3,3.1c-4.4,0-7.1-2.3-7.3-6.2h16C402,44.6,396.6,40,390.2,40 M385.8,49c0.3-3.1,2.1-4.9,4.8-4.9
					c2.7,0,4.6,1.8,4.8,4.9H385.8z"/>
				<path class="st5" d="M412.1,46.8h0.1c2.1-4.6,4.4-6.8,7.1-6.8c1.4,0,2.6,0.5,4.6,2l-1.9,6.2c-1.8-1.2-3-1.6-4.2-1.6
					c-2.6,0-4.2,2.4-5.7,6.5v9.6h-7V40.4h7V46.8"/>
				<path class="st5" d="M349.4,31c0.7,1.7-0.5,4.1-2.6,5.4c-2.1,1.2-4.3,0.8-5-0.9c-0.7-1.7,0.5-4.2,2.6-5.4
					C346.5,28.9,348.7,29.3,349.4,31"/>
				<path class="st5" d="M287.7,48.5c0-6-4.1-8.5-8.2-8.5c-2.8,0-5,1.2-7,3.7h-0.1V29.8h-7v32.8h7V48.5c1.6-2.4,3-3.4,4.7-3.4
					c2.2,0,3.6,1.5,3.6,4.9v7.8c2.3-1.2,4.7-1.9,7-2.2V48.5"/>
				<path class="st5" d="M305.2,40c-2.8,0-5,1.1-7.3,3.6v-3.2h-7v15.1c2.4,0.2,5.5,1.4,7,3.2V48.3c1.8-2.8,3.1-3.7,4.9-3.7
					c2,0,3.5,1.3,3.5,4.4v13.5h7V48.5C313.4,41.9,308.7,40,305.2,40"/>
				<polygon class="st5" points="317.2,69 309.1,69 309.1,74.8 316.9,74.8 316.9,77.3 309.1,77.3 309.1,83.2 317.5,83.2 317.5,85.7 
					306.4,85.7 306.4,66.5 317.2,66.5 				"/>
				<rect x="323.9" y="66.5" class="st5" width="2.5" height="19.2"/>
				<path class="st5" d="M335.2,79.8h8.9c0-4.7-2.1-6.9-5.5-6.9c-3.5,0-5.9,2.6-5.9,6.4c0,3.5,2.2,6.7,6.1,6.7c2.1,0,3.5-0.5,5-1.5
					V82c-1.5,1-2.9,1.5-4.4,1.5C337,83.6,335.6,82.3,335.2,79.8 M338.7,75c1.8,0,2.9,1.2,2.9,3.1h-6.3C335.6,76.1,336.8,75,338.7,75
					"/>
				<path class="st5" d="M360.3,76.4c-1.4-1-2.4-1.3-3.5-1.3c-2.3,0-3.9,1.7-3.9,4.3c0,2.6,1.7,4.2,4.3,4.2c1.1,0,2.1-0.3,3.3-0.8
					v2.5c-0.8,0.4-2.4,0.7-3.8,0.7c-3.8,0-6.4-2.6-6.4-6.3c0-4.2,2.4-6.8,6.2-6.8c1.5,0,2.4,0.3,3.6,0.9V76.4"/>
				<path class="st5" d="M371.7,73.1h4v2.2h-4v6.5c0,1.5,1.1,1.9,1.8,1.9c0.9,0,1.8-0.3,2.8-0.9v2.3c-0.9,0.5-2.2,0.8-3,0.8
					c-2.7,0-4.1-1.7-4.1-4v-6.7H367V75l4.7-4.6V73.1"/>
				<path class="st5" d="M385.2,73.1V76h0.1c1.3-2.2,2.5-3.2,3.7-3.2c1,0,2,0.5,3,1.5l-1.3,2.2c-0.8-0.7-1.7-1.3-2.3-1.3
					c-1.7,0-3.1,1.7-3.1,3.9v6.6h-2.5V73.1H385.2"/>
				<path class="st5" d="M417.4,76.4c-1.4-1-2.4-1.3-3.5-1.3c-2.3,0-3.8,1.7-3.8,4.3c0,2.6,1.7,4.2,4.3,4.2c1.1,0,2.1-0.3,3.4-0.8
					v2.5c-0.9,0.4-2.5,0.7-3.8,0.7c-3.8,0-6.4-2.6-6.4-6.3c0-4.2,2.4-6.8,6.2-6.8c1.5,0,2.4,0.3,3.7,0.9V76.4"/>
				<rect x="398.5" y="73.1" class="st5" width="2.5" height="12.6"/>
				<path class="st5" d="M401.1,68.5c0.2,0.6-0.2,1.5-0.9,1.9c-0.8,0.4-1.6,0.3-1.8-0.3c-0.2-0.6,0.2-1.5,0.9-1.9
					C400.1,67.8,400.9,67.9,401.1,68.5"/>
				<path class="st5" d="M291.2,74.7l0.8-2.7h6.9c0.8-4,0.2-7.7-2.2-10.1c-4.9-4.9-15.1-3.2-22.7,4.1c-1.2,1.1-2.2,2.4-3.1,3.6h4.1
					l-1,2.7H269c-0.5,0.9-0.9,1.7-1.3,2.6h5.9l-0.9,2.7h-5.8c-1,4.2-0.4,8.1,2.1,10.6c4.8,4.8,15,3.1,22.6-4.1
					c1.3-1.3,2.4-2.6,3.4-4h-5.3l0.8-2.7h6.2c0.5-0.9,0.9-1.7,1.2-2.6H291.2 M289.7,69.5c-0.4,0-0.6,0.1-0.8,0.3
					c-0.1,0.1-0.1,0.2-0.1,0.3l-2.2,8.5c-0.5,3-4.2,5.9-8.9,5.9H275h-4l1.1-4.4h4.2c0.4,0,0.8-0.2,1.1-0.5c0.1-0.1,0.2-0.3,0.3-0.5
					l1.8-7.4c0.5-3,3.7-6.3,8.4-6.3h6.8l-0.9,4H289.7z"/>
			</g>
			<rect x="189.3" y="8.1" class="st3" width="1.4" height="83.7"/>
		</g>
	</g>
</g>
</svg>
