<?xml version="1.0" encoding="utf-8"?>
<!-- Generator: Adobe Illustrator 28.0.0, SVG Export Plug-In . SVG Version: 6.00 Build 0)  -->
<svg version="1.1" id="Layer_1" xmlns="http://www.w3.org/2000/svg" xmlns:xlink="http://www.w3.org/1999/xlink" x="0px" y="0px"
	 width="34.5px" height="14.5px" viewBox="0 0 34.5 14.5" style="enable-background:new 0 0 34.5 14.5;" xml:space="preserve">
<style type="text/css">
	.st0{fill:#DA1F26;}
	.st1{fill:#53C3BE;}
	.st2{fill:#FFFFFF;}
	.st3{fill-rule:evenodd;clip-rule:evenodd;fill:#D41F35;}
	.st4{fill-rule:evenodd;clip-rule:evenodd;fill:#194891;}
	.st5{fill:#0676B3;}
	.st6{fill:#CB2329;}
	.st7{fill-rule:evenodd;clip-rule:evenodd;fill:#FFFFFF;}
	.st8{fill:#06A64F;}
	.st9{fill:#EC2227;}
	.st10{fill:#C1272D;}
</style>
<g>
	<path class="st2" d="M29.8,0c0.3,0.1,0.6,0.1,0.9,0.2c1.8,0.4,3.1,1.8,3.4,3.7c0.3,1.7-0.6,3.5-2.2,4.4c-0.1,0.1-0.3,0.2-0.4,0.3
		c1,2,2,3.9,3,6c-1.2,0-2.2,0-3.3,0c-0.1,0-0.3-0.2-0.4-0.4c-0.8-1.6-1.6-3.1-2.4-4.7c-0.2-0.5-0.5-0.7-1-0.6c-0.3,0-0.7,0-1,0
		c0-1,0-2,0-3.1c0.2,0,0.3,0,0.5,0c0.8,0,1.7,0,2.5,0C30.5,5.8,31,5.1,31,4.5c0-0.8-0.6-1.3-1.6-1.3c-4.4,0-8.7,0-13.1,0
		c-0.2,0-0.5,0-0.7,0c0-1.1,0-2.2,0-3.2C20.3,0,25,0,29.8,0z"/>
	<path class="st2" d="M12.4,0c0,1,0,2.1,0,3.2c-3,0-6.1,0-9.2,0c0,3.8,0,7.5,0,11.4c-1.1,0-2.2,0-3.2,0C0,9.7,0,4.8,0,0
		C4.1,0,8.3,0,12.4,0z"/>
	<path class="st2" d="M7.8,14.5c0-1,0-2,0-3c6.2,0,12.4,0,18.6,0c0,1,0,2,0,3C20.2,14.5,14.1,14.5,7.8,14.5z"/>
	<path class="st2" d="M23.3,5.8c0,1,0,2,0,3c-6.1,0-12.2,0-18.3,0c0-1,0-2,0-3C11.1,5.8,17.2,5.8,23.3,5.8z"/>
</g>
</svg>
