<?xml version="1.0" encoding="utf-8"?>
<!-- Generator: Adobe Illustrator 28.0.0, SVG Export Plug-In . SVG Version: 6.00 Build 0)  -->
<svg version="1.1" xmlns="http://www.w3.org/2000/svg" xmlns:xlink="http://www.w3.org/1999/xlink" x="0px" y="0px" width="282.9px"
	 height="89.5px" viewBox="0 0 282.9 89.5" style="enable-background:new 0 0 282.9 89.5;" xml:space="preserve">
<style type="text/css">
	.st0{display:none;}
	.st1{display:inline;opacity:0.66;}
	.st2{fill:#51C2BE;}
	.st3{fill:#FFFFFF;}
	.st4{fill:#3DCD58;}
	.st5{fill:#009530;}
	.st6{fill:none;}
</style>
<g id="Layer_2" class="st0">
	<rect x="-196.2" y="-343.2" class="st1" width="3630.6" height="658.7"/>
</g>
<g id="Layer_1">
	<g>
		<path class="st2" d="M48.3,16.8c0.6,0,1.1-0.2,1.4-0.6c0.4-0.4,0.6-0.9,0.6-1.4s-0.2-1.1-0.6-1.4c-0.4-0.4-0.9-0.6-1.4-0.6
			c-0.6,0-1.1,0.2-1.4,0.6c-0.4,0.4-0.6,0.9-0.6,1.4s0.2,1.1,0.6,1.4C47.2,16.6,47.7,16.8,48.3,16.8"/>
		<path class="st2" d="M68.4,55.7c0.6,0,1.1-0.2,1.4-0.6c0.4-0.4,0.6-0.9,0.6-1.4c0-0.5-0.2-1.1-0.6-1.4c-0.4-0.4-0.9-0.6-1.4-0.6
			c-0.6,0-1.1,0.2-1.4,0.6c-0.4,0.4-0.6,0.9-0.6,1.4c0,0.6,0.2,1.1,0.6,1.4C67.3,55.5,67.8,55.7,68.4,55.7"/>
		<path class="st2" d="M15.1,45.9c-0.6,0-1.1,0.2-1.4,0.6c-0.4,0.4-0.6,0.9-0.6,1.4c0,0.6,0.2,1.1,0.6,1.4c0.4,0.4,0.9,0.6,1.4,0.6
			c0.6,0,1.1-0.2,1.4-0.6c0.4-0.4,0.6-0.9,0.6-1.4c0-0.6-0.2-1.1-0.6-1.4C16.2,46.1,15.7,45.9,15.1,45.9"/>
		<path class="st2" d="M62.4,34.4c0.6,0,1.1-0.2,1.4-0.6c0.4-0.4,0.6-0.9,0.6-1.4c0-0.6-0.2-1.1-0.6-1.4c-0.4-0.4-0.9-0.6-1.4-0.6
			c-0.6,0-1.1,0.2-1.4,0.6c-0.4,0.4-0.6,0.9-0.6,1.4c0,0.6,0.2,1.1,0.6,1.4C61.4,34.1,61.9,34.4,62.4,34.4"/>
		<path class="st2" d="M31.8,26.4c0-0.6-0.2-1.1-0.6-1.4c-0.4-0.4-0.9-0.6-1.4-0.6c-0.6,0-1.1,0.2-1.4,0.6c-0.4,0.4-0.6,0.9-0.6,1.4
			c0,0.6,0.2,1.1,0.6,1.4c0.4,0.4,0.9,0.6,1.4,0.6c0.6,0,1.1-0.2,1.4-0.6C31.5,27.5,31.8,27,31.8,26.4"/>
		<path class="st2" d="M87.8,40.5L49.1,1.8c-2.4-2.4-6.2-2.4-8.6,0L1.8,40.5c-2.4,2.4-2.4,6.2,0,8.6l38.7,38.7
			c0.8,0.8,1.7,1.3,2.7,1.6v-18c0,0,0,0,0,0v0h-4.4V61H28.3V49.3h-8.6c-0.2,0.8-0.6,1.4-1.2,2c-0.9,0.9-2.1,1.4-3.4,1.4
			c-1.3,0-2.5-0.5-3.4-1.4c-0.9-0.9-1.4-2.1-1.4-3.4c0-1.3,0.5-2.5,1.4-3.4c0.9-0.9,2.1-1.4,3.4-1.4c1.3,0,2.5,0.5,3.4,1.4
			c0.6,0.6,1,1.2,1.2,2h8.6V31c-0.8-0.2-1.4-0.6-2-1.2c-0.9-0.9-1.4-2.1-1.4-3.4c0-1.3,0.5-2.5,1.4-3.4c0.9-0.9,2.1-1.4,3.4-1.4
			c1.3,0,2.5,0.5,3.4,1.4c0.9,0.9,1.4,2.1,1.4,3.4c0,1.3-0.5,2.5-1.4,3.4c-0.6,0.6-1.3,1-2,1.2v27.2h10.4v10.4h6.1V53.4h-9V32.2h7.9
			V19.2c-0.6-0.2-1.2-0.6-1.6-1.1c-0.9-0.9-1.4-2.1-1.4-3.4c0-1.3,0.5-2.5,1.4-3.4c0.9-0.9,2.1-1.4,3.4-1.4c1.3,0,2.5,0.5,3.4,1.4
			c0.9,0.9,1.4,2.1,1.4,3.4c0,1.3-0.5,2.5-1.4,3.4c-0.6,0.6-1.4,1.1-2.4,1.3v15.5h-7.9v15.7h6.3v-6.8h13.1v-7.1
			c-0.7-0.2-1.3-0.6-1.7-1.1c-0.9-0.9-1.4-2.1-1.4-3.4c0-1.3,0.5-2.5,1.4-3.4c0.9-0.9,2.1-1.4,3.4-1.4c1.3,0,2.5,0.5,3.4,1.4
			c0.9,0.9,1.4,2.1,1.4,3.4c0,1.3-0.5,2.5-1.4,3.4c-0.6,0.6-1.4,1.1-2.3,1.3v9.7H50.4v13.9h6.8v-8.2h6.6c0.2-0.8,0.7-1.5,1.2-2
			c0.9-0.9,2.1-1.4,3.4-1.4c1.3,0,2.5,0.5,3.4,1.4c0.9,0.9,1.4,2.1,1.4,3.4c0,1.3-0.5,2.5-1.4,3.4c-0.9,0.9-2.1,1.4-3.4,1.4
			c-1.3,0-2.5-0.5-3.4-1.4c-0.5-0.5-1-1.2-1.2-2H60v8.2h-9.6v8.1h-4.3v18.1c1.1-0.2,2.2-0.8,3-1.6l38.7-38.7
			C90.2,46.7,90.2,42.9,87.8,40.5"/>
		<path class="st3" d="M167.5,62.8c-6.9,0-11-2.6-11-9.3V34.4h-4.9v-8.7h4.9V17l10.7-1.5v10.2h8.3l-0.6,8.7h-7.7V52
			c0,1.5,0.9,2,2.2,2c1.2,0,2.9-0.1,4.5-0.7l1.3,8.1C172.9,62.3,170,62.8,167.5,62.8"/>
		<path class="st3" d="M197.4,38c0-2.5-0.7-4.6-4.5-4.6c-3.7,0-4.9,2.1-4.9,4.6v1.6h9.4L197.4,38L197.4,38z M188,47.6v1
			c0,4.2,1.6,5.3,6.6,5.3c3.4,0,7.8-0.6,11-1.6l1.6,8.1c-3.3,1.2-8.6,2.3-13.7,2.3c-11.8,0-16.3-5.8-16.3-14.8v-8.5
			c0-7.8,3.5-14.5,15.6-14.5c12.1,0,14.7,7.2,14.7,15.1v7.6L188,47.6L188,47.6z"/>
		<polygon class="st3" points="212.3,62 212.3,10.9 216.6,10.3 216.6,62 		"/>
		<path class="st3" d="M244.5,46.4h-10.6c-5,0-6.5,1.5-6.5,6.3c0,4.3,0.9,6.2,6,6.2c3.6,0,7.8-1.4,11.1-3.7L244.5,46.4L244.5,46.4z
			 M248.8,62h-3.7l-0.3-2.8c-3.5,2.2-7.5,3.6-12.3,3.6c-6.4,0-9.4-3.7-9.4-10.1c0-7.7,3.5-10.1,10.7-10.1h10.7v-7.1
			c0-5-2.6-6.6-8.6-6.6c-3.6,0-7.4,0.5-10.7,1.2l-0.7-3.7c2.9-0.8,7.5-1.4,11.2-1.4c9.4,0,13.1,3.7,13.1,10.5V62z"/>
		<path class="st3" d="M260.5,58.1c2.8,0.5,5.7,0.7,8.4,0.7c7.8,0,9.7-3.3,9.7-8.7V35.5c0-4.3-1.9-6.3-6.7-6.3
			c-4.4,0-7.9,1.2-11.3,3.1V58.1z M282.9,50c0,8.1-3.6,12.8-14.5,12.8c-3.1,0-8.8-0.5-12.2-1.3V10.9l4.3-0.6v17.5
			c3-1.6,7-2.8,11.9-2.8c7.3,0,10.4,4.2,10.4,10.6L282.9,50L282.9,50z"/>
		<path class="st3" d="M102.9,25c-4,0-7.4,0.9-10.3,2V9.4l-10.7,1.5v14.7l10.8,10.8c2-1,4.5-2,6.9-2c2.8,0,3.9,1.5,3.9,3.9v9.4
			c0,3.4-1,5.9-6.3,5.9c-1.5,0-2.8,0-4.4-0.2v-0.1l-8.7,8.7c4.5,0.6,9.3,0.9,12.7,0.9c15,0,17.5-6.6,17.5-15.3v-9.4
			C114.1,30,110.9,25,102.9,25"/>
		<path class="st3" d="M142.7,25.8h-2.5l-2.5,8.7l-3.3,11.4l-1.6,5.7l-7.4-25.7h-1.7h-4.9h-4.2l9.6,31.1l0.2,0.5
			c0.8,2.4,2.5,3.9,4.8,4.7l0.1,0l-4.3,14.7H135l4.6-14.5l0.1-0.2l1.9-6l9.5-30.3L142.7,25.8L142.7,25.8z"/>
	</g>
</g>
</svg>
