<?xml version="1.0" encoding="utf-8"?>
<!-- Generator: Adobe Illustrator 28.0.0, SVG Export Plug-In . SVG Version: 6.00 Build 0)  -->
<svg version="1.1" xmlns="http://www.w3.org/2000/svg" xmlns:xlink="http://www.w3.org/1999/xlink" x="0px" y="0px" width="633.4px"
	 height="100px" viewBox="0 0 633.4 100" style="enable-background:new 0 0 633.4 100;" xml:space="preserve">
<style type="text/css">
	.st0{display:none;}
	.st1{display:inline;opacity:0.66;}
	.st2{fill:#51C2BE;}
	.st3{fill:#FFFFFF;}
	.st4{fill:#3DCD58;}
	.st5{fill:#009530;}
	.st6{fill:none;}
</style>
<g id="Layer_2" class="st0">
	<rect x="-1074.7" y="-337.9" class="st1" width="3630.6" height="658.7"/>
</g>
<g id="Layer_1">
	<g>
		<path class="st3" d="M31.6,71.1v7.6H0V30.3h31.5v7.6H7.9v12h21.4v7.6H7.9v13.6L31.6,71.1L31.6,71.1z"/>
		<path class="st3" d="M53,44.8c2.1-1,4.2-1.5,6.5-1.5v7.9c-2.2,0.1-4.3,0.7-6.3,1.6c-2,0.9-3.6,2.3-4.8,4.2v21.8h-7.6V43.6h7v5.3
			C49.2,47.1,50.9,45.8,53,44.8z"/>
		<path class="st3" d="M66.9,36.4c-0.9-0.9-1.4-2-1.4-3.3c0-1.3,0.5-2.4,1.4-3.3c0.9-0.9,2.1-1.4,3.4-1.4c1.3,0,2.5,0.5,3.4,1.4
			c0.9,0.9,1.4,2,1.4,3.3c0,1.3-0.5,2.4-1.4,3.3c-0.9,0.9-2.1,1.4-3.4,1.4C69,37.7,67.8,37.3,66.9,36.4z M66.4,43.6h7.6v35.1h-7.6
			V43.6z"/>
		<path class="st3" d="M89.7,77.3c-2.5-1.5-4.4-3.6-5.6-6.2c-1.3-2.6-1.9-5.6-1.9-8.8v-2.1c0-3.2,0.6-6.2,1.9-8.8
			c1.3-2.6,3.1-4.7,5.6-6.2c2.5-1.5,5.5-2.3,9-2.3c1.8,0,3.4,0.2,5.1,0.6c1.6,0.4,2.9,0.8,3.8,1.4v7.4c-1.2-0.6-2.5-1.1-3.9-1.5
			c-1.5-0.4-2.9-0.6-4.3-0.6c-3.2,0-5.6,0.9-7.1,2.7c-1.5,1.8-2.3,4.3-2.3,7.4V62c0,3.1,0.8,5.6,2.3,7.4c1.5,1.8,3.9,2.7,7.1,2.7
			c1.4,0,2.9-0.2,4.3-0.6c1.5-0.4,2.8-0.9,3.9-1.5v7.4c-0.9,0.6-2.2,1-3.8,1.4c-1.6,0.4-3.3,0.6-5.1,0.6
			C95.2,79.6,92.2,78.8,89.7,77.3z"/>
		<path class="st3" d="M118.8,78.7c-2.1-0.6-3.7-1.3-4.9-2.2v-7.4c3.8,2.3,7.7,3.5,11.7,3.5c2,0,3.4-0.3,4.4-1
			c0.9-0.6,1.4-1.5,1.4-2.6c0-1-0.3-1.8-1-2.4c-0.7-0.6-1.8-1.1-3.5-1.7l-2.8-1c-3.5-1.2-6-2.5-7.6-4c-1.6-1.5-2.4-3.6-2.4-6.3
			c0-3.3,1.2-5.9,3.6-7.8c2.4-1.9,5.7-2.9,9.8-2.9c1.8,0,3.6,0.2,5.3,0.5c1.7,0.3,3,0.8,4.1,1.4v7.4c-3-1.6-6.1-2.4-9.6-2.4
			c-1.8,0-3.2,0.3-4.1,0.9c-0.9,0.6-1.4,1.4-1.4,2.5c0,0.9,0.4,1.6,1.1,2.1c0.7,0.5,1.9,1.1,3.7,1.7l2.7,1c3.3,1.1,5.8,2.4,7.4,4
			c1.6,1.5,2.4,3.8,2.4,6.7c0,3.3-1.2,6-3.5,8c-2.3,2-5.6,3-9.9,3C123.2,79.6,120.9,79.3,118.8,78.7z"/>
		<path class="st3" d="M149.4,78.7c-2.1-0.6-3.7-1.3-4.9-2.2v-7.4c3.8,2.3,7.7,3.5,11.7,3.5c2,0,3.4-0.3,4.4-1
			c0.9-0.6,1.4-1.5,1.4-2.6c0-1-0.3-1.8-1-2.4c-0.7-0.6-1.8-1.1-3.5-1.7l-2.8-1c-3.5-1.2-6-2.5-7.6-4c-1.6-1.5-2.4-3.6-2.4-6.3
			c0-3.3,1.2-5.9,3.6-7.8c2.4-1.9,5.7-2.9,9.8-2.9c1.8,0,3.6,0.2,5.3,0.5c1.7,0.3,3,0.8,4.1,1.4v7.4c-3-1.6-6.1-2.4-9.6-2.4
			c-1.8,0-3.2,0.3-4.1,0.9c-0.9,0.6-1.4,1.4-1.4,2.5c0,0.9,0.4,1.6,1.1,2.1c0.7,0.5,1.9,1.1,3.7,1.7l2.7,1c3.3,1.1,5.8,2.4,7.4,4
			c1.6,1.5,2.4,3.8,2.4,6.7c0,3.3-1.2,6-3.5,8c-2.3,2-5.6,3-9.9,3C153.7,79.6,151.4,79.3,149.4,78.7z"/>
		<path class="st3" d="M181.9,77.3c-2.5-1.5-4.3-3.6-5.6-6.2c-1.2-2.6-1.9-5.6-1.9-8.9v-2.1c0-3.3,0.6-6.2,1.9-8.9
			c1.2-2.6,3.1-4.7,5.6-6.2c2.5-1.5,5.4-2.3,8.9-2.3c3.5,0,6.5,0.8,8.9,2.3c2.4,1.5,4.3,3.6,5.5,6.2c1.2,2.6,1.9,5.6,1.9,8.9v2.1
			c0,3.3-0.6,6.2-1.9,8.9c-1.2,2.6-3.1,4.7-5.5,6.2c-2.4,1.5-5.4,2.3-8.9,2.3C187.4,79.6,184.4,78.9,181.9,77.3z M197.3,69.6
			c1.4-1.9,2.1-4.4,2.1-7.5v-1.7c0-3.1-0.7-5.7-2.1-7.5c-1.4-1.9-3.6-2.8-6.4-2.8c-2.9,0-5,0.9-6.4,2.8c-1.4,1.9-2.1,4.4-2.1,7.5V62
			c0,3.1,0.7,5.7,2.1,7.5c1.4,1.9,3.6,2.8,6.4,2.8C193.7,72.4,195.8,71.5,197.3,69.6z"/>
		<path class="st3" d="M241.6,46.1c2.1,2.1,3.1,5.1,3.1,8.8v23.9h-7.6v-22c0-2.2-0.4-3.8-1.3-4.9c-0.9-1.1-2.4-1.6-4.5-1.6
			c-1.5,0-3,0.3-4.5,1c-1.5,0.6-2.8,1.6-3.9,2.8v24.7h-7.6V43.6h7v3.5c1.2-1.3,2.8-2.3,4.6-3.1c1.8-0.8,3.8-1.2,6-1.2
			C236.6,42.9,239.6,43.9,241.6,46.1z"/>
		<path class="st3" d="M307.1,30.3v48.5h-8.4l-21-36.1v36.1h-7.6V30.3h8.7l20.8,35.6V30.3H307.1z"/>
		<path class="st3" d="M318.9,36.4c-0.9-0.9-1.4-2-1.4-3.3c0-1.3,0.5-2.4,1.4-3.3c0.9-0.9,2.1-1.4,3.4-1.4c1.3,0,2.5,0.5,3.4,1.4
			c0.9,0.9,1.4,2,1.4,3.3c0,1.3-0.5,2.4-1.4,3.3c-0.9,0.9-2.1,1.4-3.4,1.4C321,37.7,319.9,37.3,318.9,36.4z M318.5,43.6h7.6v35.1
			h-7.6V43.6z"/>
		<path class="st3" d="M358.3,78.7l-13.8-17.4v17.4h-7.6V28.2h7.6v30.5l13.1-15.1h9.6l-14.4,16.1l15.4,19H358.3L358.3,78.7z"/>
		<path class="st3" d="M377.8,77.3c-2.5-1.5-4.3-3.6-5.6-6.2c-1.2-2.6-1.9-5.6-1.9-8.9v-2.1c0-3.3,0.6-6.2,1.9-8.9
			c1.2-2.6,3.1-4.7,5.6-6.2c2.5-1.5,5.4-2.3,8.9-2.3c3.5,0,6.5,0.8,8.9,2.3c2.4,1.5,4.3,3.6,5.5,6.2c1.2,2.6,1.9,5.6,1.9,8.9v2.1
			c0,3.3-0.6,6.2-1.9,8.9c-1.2,2.6-3.1,4.7-5.5,6.2c-2.4,1.5-5.4,2.3-8.9,2.3C383.2,79.6,380.2,78.9,377.8,77.3z M393.1,69.6
			c1.4-1.9,2.1-4.4,2.1-7.5v-1.7c0-3.1-0.7-5.7-2.1-7.5c-1.4-1.9-3.6-2.8-6.4-2.8c-2.9,0-5,0.9-6.4,2.8c-1.4,1.9-2.1,4.4-2.1,7.5V62
			c0,3.1,0.7,5.7,2.1,7.5c1.4,1.9,3.6,2.8,6.4,2.8C389.5,72.4,391.7,71.5,393.1,69.6z"/>
		<path class="st3" d="M411.1,28.2h7.6v50.5h-7.6V28.2z"/>
		<path class="st3" d="M458.2,43.6v35.1h-7v-3.6c-1.1,1.3-2.5,2.4-4.1,3.1c-1.6,0.7-3.4,1.1-5.5,1.1c-3.1,0-5.8-0.8-8-2.3
			c-2.2-1.5-3.9-3.6-5.1-6.2c-1.2-2.6-1.7-5.5-1.7-8.7v-2.1c0-3.2,0.6-6.1,1.7-8.7c1.2-2.6,2.8-4.6,5.1-6.2c2.2-1.5,4.9-2.3,8-2.3
			c2,0,3.9,0.4,5.5,1.1c1.6,0.7,3,1.8,4.1,3.1v-3.6H458.2z M450.5,67.8V54.6c-1.8-2.8-4.4-4.2-7.9-4.2c-2.7,0-4.7,0.9-6.1,2.7
			c-1.4,1.8-2,4.2-2,7.2V62c0,3,0.7,5.4,2,7.2c1.4,1.8,3.4,2.7,6.1,2.7C446.1,71.9,448.7,70.6,450.5,67.8z"/>
		<path class="st3" d="M493.7,78.8V37.9H479v-7.6h37.2v7.6h-14.6v40.9L493.7,78.8L493.7,78.8z"/>
		<path class="st3" d="M547,63.6h-22.5c0.6,5.7,4.1,8.6,10.7,8.6c3.6,0,6.8-0.9,9.7-2.6v7.3c-1,0.8-2.4,1.4-4.3,1.9
			c-1.8,0.5-3.7,0.7-5.8,0.7c-5.6,0-10-1.5-13.2-4.6c-3.2-3.1-4.8-7.3-4.8-12.7v-2.1c0-3.3,0.6-6.3,1.8-8.9c1.2-2.6,3-4.7,5.4-6.2
			c2.4-1.5,5.1-2.2,8.3-2.2c4.7,0,8.3,1.4,10.9,4.2c2.5,2.8,3.8,6.7,3.8,11.8L547,63.6L547,63.6z M527,51.7
			c-1.3,1.3-2.1,3.2-2.4,5.7h14.9c-0.3-5.1-2.7-7.7-7.3-7.7C530,49.7,528.3,50.4,527,51.7z"/>
		<path class="st3" d="M558,78.7c-2.1-0.6-3.7-1.3-4.9-2.2v-7.4c3.8,2.3,7.7,3.5,11.7,3.5c2,0,3.4-0.3,4.4-1
			c0.9-0.6,1.4-1.5,1.4-2.6c0-1-0.3-1.8-1-2.4c-0.7-0.6-1.8-1.1-3.5-1.7l-2.8-1c-3.5-1.2-6-2.5-7.6-4c-1.6-1.5-2.4-3.6-2.4-6.3
			c0-3.3,1.2-5.9,3.6-7.8c2.4-1.9,5.7-2.9,9.8-2.9c1.8,0,3.6,0.2,5.3,0.5c1.7,0.3,3,0.8,4.1,1.4v7.4c-3-1.6-6.1-2.4-9.6-2.4
			c-1.8,0-3.2,0.3-4.1,0.9c-0.9,0.6-1.4,1.4-1.4,2.5c0,0.9,0.4,1.6,1.1,2.1c0.7,0.5,1.9,1.1,3.7,1.7l2.7,1c3.3,1.1,5.8,2.4,7.4,4
			c1.6,1.5,2.4,3.8,2.4,6.7c0,3.3-1.2,6-3.5,8c-2.3,2-5.6,3-9.9,3C562.3,79.6,560,79.3,558,78.7z"/>
		<path class="st3" d="M585.7,28.2h7.6v50.5h-7.6V28.2z"/>
		<path class="st3" d="M632.8,43.6v35.1h-7v-3.6c-1.1,1.3-2.5,2.4-4.1,3.1c-1.6,0.7-3.4,1.1-5.5,1.1c-3.1,0-5.8-0.8-8-2.3
			c-2.2-1.5-3.9-3.6-5.1-6.2c-1.2-2.6-1.7-5.5-1.7-8.7v-2.1c0-3.2,0.6-6.1,1.7-8.7c1.2-2.6,2.8-4.6,5.1-6.2c2.2-1.5,4.9-2.3,8-2.3
			c2,0,3.9,0.4,5.5,1.1c1.6,0.7,3,1.8,4.1,3.1v-3.6H632.8z M625.2,67.8V54.6c-1.8-2.8-4.4-4.2-7.9-4.2c-2.7,0-4.7,0.9-6.1,2.7
			c-1.4,1.8-2,4.2-2,7.2V62c0,3,0.7,5.4,2,7.2c1.4,1.8,3.4,2.7,6.1,2.7C620.7,71.9,623.4,70.6,625.2,67.8z"/>
	</g>
</g>
</svg>
