<?xml version="1.0" encoding="utf-8"?>
<!-- Generator: Adobe Illustrator 28.0.0, SVG Export Plug-In . SVG Version: 6.00 Build 0)  -->
<svg version="1.1" id="Layer_1" xmlns="http://www.w3.org/2000/svg" xmlns:xlink="http://www.w3.org/1999/xlink" x="0px" y="0px"
	 width="65.1px" height="16.8px" viewBox="0 0 65.1 16.8" style="enable-background:new 0 0 65.1 16.8;" xml:space="preserve">
<style type="text/css">
	.st0{fill:#DA1F26;}
	.st1{fill:#53C3BE;}
	.st2{fill:#FFFFFF;}
	.st3{fill-rule:evenodd;clip-rule:evenodd;fill:#D41F35;}
	.st4{fill-rule:evenodd;clip-rule:evenodd;fill:#194891;}
	.st5{fill:#0676B3;}
	.st6{fill:#CB2329;}
	.st7{fill-rule:evenodd;clip-rule:evenodd;fill:#FFFFFF;}
	.st8{fill:#06A64F;}
	.st9{fill:#EC2227;}
	.st10{fill:#C1272D;}
</style>
<g>
	<g>
		<path class="st2" d="M8,0C8,0,8,0,8.1,0c0.2,0,0.3,0,0.5,0.1c0.2,0,0.4,0.1,0.7,0.2C9.5,0.3,9.8,0.4,10,0.5
			c0.2,0.1,0.4,0.2,0.6,0.3C11,1,11.3,1.2,11.6,1.4c0.3,0.2,0.7,0.4,1,0.6c0.2,0.1,0.5,0.3,0.7,0.4c0.3,0.1,0.5,0.3,0.8,0.4
			c0.2,0.1,0.4,0.1,0.6,0.1c0.1,0,0.2,0,0.3,0c0.1,0,0.1,0,0.2-0.1c0,0,0.1,0,0.2,0c0,0,0,0.1,0,0.1c0,0.3,0,0.6,0,0.9
			c0,0.1,0,0.3,0,0.4c0,0.3,0,0.6-0.1,0.8c0,0.4-0.1,0.7-0.2,1.1c-0.1,0.5-0.2,1-0.4,1.5c-0.2,0.6-0.4,1.2-0.6,1.7
			c-0.1,0.3-0.3,0.7-0.5,1c-0.2,0.5-0.5,1-0.8,1.4c-0.2,0.3-0.5,0.7-0.7,1c-0.2,0.3-0.5,0.6-0.8,0.9c-0.1,0.2-0.3,0.3-0.5,0.5
			c-0.1,0.1-0.2,0.2-0.3,0.3c-0.4,0.4-0.8,0.7-1.2,1.1c-0.4,0.3-0.7,0.6-1.1,0.8c-0.2,0.1-0.4,0.3-0.6,0.4c0,0,0,0,0,0c0,0,0,0,0,0
			c0,0-0.1-0.1-0.1-0.1c-0.3-0.2-0.6-0.4-0.9-0.6c-0.3-0.2-0.7-0.5-1-0.8c-0.2-0.1-0.3-0.3-0.5-0.4c-0.2-0.2-0.4-0.4-0.6-0.6
			c-0.1-0.1-0.3-0.3-0.4-0.4c-0.2-0.2-0.4-0.5-0.6-0.8c-0.2-0.3-0.5-0.6-0.7-0.9c-0.2-0.4-0.5-0.7-0.7-1.1c-0.2-0.3-0.3-0.6-0.5-0.9
			C1.4,9.7,1.3,9.3,1.1,8.9C1,8.5,0.8,8.1,0.7,7.7C0.6,7.4,0.5,7,0.4,6.7C0.3,6.3,0.2,6,0.2,5.6c0-0.2-0.1-0.5-0.1-0.7
			c0-0.2,0-0.4,0-0.6C0,4.1,0,4,0,3.9c0-0.1,0-0.3,0-0.4C0,3.3,0,3.1,0,3c0-0.1,0-0.1,0-0.2c0,0,0,0,0,0c0.1,0,0.2,0,0.2,0.1
			c0.1,0,0.2,0,0.3,0c0.2,0,0.5-0.1,0.7-0.2C1.5,2.7,1.8,2.6,2,2.5c0.4-0.2,0.7-0.4,1.1-0.6C3.6,1.6,4,1.3,4.5,1
			c0.2-0.1,0.4-0.2,0.6-0.3c0.2-0.1,0.5-0.2,0.7-0.3c0.3-0.1,0.7-0.2,1.1-0.3C7,0,7.2,0,7.3,0c0.1,0,0.1,0,0.2,0C7.7,0,7.8,0,8,0z
			 M14.9,3.5C14.9,3.5,14.9,3.5,14.9,3.5c-0.2,0-0.3,0-0.4-0.1c-0.3-0.1-0.6-0.2-0.8-0.3c-0.3-0.1-0.7-0.3-1-0.5
			c-0.1-0.1-0.3-0.2-0.4-0.2c-0.3-0.2-0.6-0.4-1-0.6c-0.4-0.2-0.8-0.5-1.2-0.7C9.9,1,9.6,0.9,9.3,0.8c-0.5-0.2-1-0.3-1.5-0.3
			c-0.1,0-0.1,0-0.2,0c-0.1,0-0.2,0-0.3,0c-0.2,0-0.4,0.1-0.6,0.1C6.3,0.8,5.9,0.9,5.5,1.1C5.3,1.2,5,1.3,4.8,1.5
			C4.5,1.6,4.3,1.8,4,1.9C3.7,2.2,3.3,2.4,2.9,2.6C2.7,2.7,2.5,2.9,2.2,3C2,3.1,1.7,3.2,1.4,3.3C1.2,3.4,0.9,3.5,0.6,3.5
			c0,0,0,0-0.1,0c0,0,0,0,0,0c0,0.1,0,0.2,0,0.2c0,0.1,0,0.2,0,0.3c0,0.1,0,0.3,0,0.4c0,0.2,0,0.4,0.1,0.6c0,0.3,0.1,0.5,0.1,0.8
			C0.8,6.2,0.9,6.4,1,6.7C1,7,1.1,7.3,1.2,7.6C1.3,8,1.5,8.4,1.6,8.7c0.1,0.4,0.3,0.7,0.5,1c0.1,0.3,0.3,0.5,0.4,0.8
			c0.2,0.3,0.3,0.6,0.5,0.9c0.2,0.3,0.4,0.6,0.6,0.9c0.2,0.3,0.4,0.6,0.7,0.9c0.2,0.2,0.4,0.4,0.6,0.6C5,14,5.1,14.1,5.2,14.2
			c0.1,0.1,0.3,0.3,0.4,0.4c0.2,0.2,0.4,0.3,0.5,0.5c0.2,0.2,0.5,0.4,0.7,0.6c0.3,0.2,0.5,0.4,0.8,0.5c0,0,0,0,0.1,0
			C7.9,16.1,8,16.1,8,16c0.4-0.3,0.8-0.6,1.2-0.9c0.3-0.3,0.6-0.5,0.9-0.8c0.2-0.2,0.5-0.5,0.7-0.7c0.1-0.2,0.3-0.3,0.4-0.5
			c0.4-0.5,0.8-1,1.1-1.5c0.3-0.4,0.5-0.9,0.8-1.4c0.1-0.3,0.3-0.5,0.4-0.8c0.2-0.5,0.5-1.1,0.6-1.7c0.1-0.4,0.2-0.8,0.3-1.2
			c0.1-0.3,0.1-0.6,0.2-1c0-0.3,0.1-0.5,0.1-0.8c0-0.2,0-0.4,0.1-0.6c0-0.2,0-0.3,0-0.5c0,0,0-0.1,0-0.1C14.9,3.6,14.9,3.5,14.9,3.5
			z"/>
		<path class="st2" d="M1.1,3.9c0.1,0,0.2,0,0.3-0.1c0.3-0.1,0.6-0.2,0.9-0.3c0.2-0.1,0.4-0.2,0.5-0.3C3,3.2,3.3,3,3.5,2.8
			c0.4-0.2,0.8-0.5,1.2-0.7C5,2,5.2,1.8,5.4,1.7c0.3-0.2,0.6-0.3,1-0.4c0.2-0.1,0.5-0.1,0.8-0.2c0.1,0,0.2,0,0.3,0
			c0.1,0,0.3,0,0.4,0c0.3,0,0.5,0,0.8,0.1C9,1.2,9.3,1.3,9.6,1.5c0.4,0.2,0.7,0.4,1,0.6c0.2,0.1,0.4,0.3,0.6,0.4
			c0.3,0.2,0.7,0.4,1,0.6c0.2,0.1,0.4,0.2,0.6,0.3c0.4,0.2,0.8,0.4,1.3,0.5c0.1,0,0.1,0,0.2,0.1c0,0,0,0,0.1,0c0,0.1,0,0.1,0,0.2
			c0,0.2,0,0.4-0.1,0.6c0,0.2-0.1,0.4-0.1,0.6c0,0.3-0.1,0.7-0.2,1C14,6.6,13.9,7,13.8,7.3c-0.1,0.5-0.3,0.9-0.5,1.4
			c-0.1,0.2-0.2,0.5-0.3,0.7c-0.1,0.2-0.2,0.3-0.2,0.5c-0.2,0.4-0.5,0.9-0.7,1.3c-0.2,0.3-0.4,0.7-0.7,1c-0.2,0.3-0.4,0.6-0.7,0.8
			c-0.1,0.1-0.3,0.3-0.4,0.4c-0.1,0.1-0.2,0.2-0.3,0.3c-0.2,0.2-0.4,0.4-0.7,0.6c-0.3,0.3-0.7,0.6-1,0.8c-0.2,0.1-0.3,0.2-0.5,0.3
			c0,0,0,0-0.1,0c-0.3-0.2-0.7-0.5-1-0.7c-0.2-0.2-0.4-0.3-0.6-0.5c-0.2-0.2-0.4-0.4-0.6-0.6c-0.2-0.2-0.4-0.4-0.6-0.7
			c-0.3-0.3-0.6-0.7-0.9-1.1c-0.3-0.4-0.5-0.8-0.8-1.1c-0.2-0.3-0.3-0.6-0.5-0.9c-0.2-0.3-0.3-0.6-0.5-1C2.2,8.8,2.1,8.5,1.9,8.1
			C1.8,7.9,1.8,7.6,1.7,7.3C1.6,7,1.5,6.8,1.4,6.5C1.4,6.1,1.3,5.8,1.2,5.4c0-0.2-0.1-0.5-0.1-0.7c0-0.2,0-0.3,0-0.5
			C1.1,4.1,1.1,4.1,1.1,3.9C1.1,4,1.1,4,1.1,3.9z M7.7,15.2C7.8,15.2,7.8,15.2,7.7,15.2C8,15,8.2,14.9,8.4,14.7
			c0.2-0.2,0.5-0.4,0.7-0.6c0.2-0.1,0.3-0.3,0.5-0.5c0.2-0.2,0.4-0.4,0.6-0.6c0.2-0.2,0.3-0.3,0.4-0.5c0.4-0.5,0.7-0.9,1.1-1.4
			c0.3-0.4,0.5-0.8,0.7-1.3c0.1-0.3,0.3-0.6,0.4-0.9c0.3-0.6,0.5-1.2,0.7-1.8c0.1-0.5,0.3-0.9,0.4-1.4c0.1-0.3,0.1-0.7,0.2-1
			c0-0.2,0-0.3,0.1-0.5c0-0.1,0-0.1,0-0.2c0,0,0,0,0,0c-0.2-0.1-0.4-0.1-0.6-0.2c-0.3-0.1-0.5-0.2-0.8-0.4c-0.1-0.1-0.2-0.1-0.3-0.2
			c-0.2-0.1-0.4-0.2-0.6-0.4c-0.5-0.3-0.9-0.5-1.4-0.8C10,2.1,9.8,1.9,9.5,1.8c-0.3-0.1-0.6-0.3-1-0.3C8.3,1.4,8.2,1.4,8,1.4
			c-0.1,0-0.2,0-0.3,0c-0.1,0-0.2,0-0.3,0C7,1.4,6.8,1.5,6.5,1.6c-0.4,0.1-0.7,0.3-1,0.5C5.2,2.2,5,2.3,4.8,2.5
			C4.4,2.7,4,2.9,3.7,3.1C3.4,3.3,3.1,3.5,2.9,3.6C2.7,3.7,2.6,3.7,2.4,3.8C2.1,3.9,1.8,4,1.6,4.1c-0.1,0-0.1,0-0.2,0
			C1.5,5.3,1.7,6.3,2,7.4c0.4,1.3,1,2.6,1.8,3.8c0.8,1.2,1.7,2.2,2.7,3.1C6.9,14.6,7.3,14.9,7.7,15.2z"/>
		<path class="st10" d="M2.4,7.3C2.2,6.7,2.1,6.1,1.9,5.4c-0.1-0.3-0.1-0.7-0.1-1c0,0,0.1,0,0.1,0c0.3-0.1,0.6-0.2,0.8-0.3
			C3.2,3.9,3.6,3.6,4,3.4c0.4-0.2,0.8-0.5,1.2-0.7c0.3-0.2,0.6-0.3,0.9-0.5c0.3-0.2,0.7-0.3,1-0.4c0.1,0,0.3,0,0.4,0c0,0,0,0,0,0
			c0,1.8,0,3.7,0,5.5c0,0,0,0,0,0c0,0,0,0,0,0c0,0,0,0,0,0C5.8,7.3,4.1,7.3,2.4,7.3C2.4,7.3,2.4,7.3,2.4,7.3z"/>
		<path class="st10" d="M13,7.6c-0.6,1.6-1.4,3.1-2.4,4.4c-0.8,1-1.6,1.8-2.6,2.5c0-2.3,0-4.7,0-7C9.6,7.6,11.3,7.6,13,7.6z"/>
		<path class="st2" d="M7.9,7.3c0-0.9,0-1.7,0-2.6c0,0,2.5,0,2.5,0c0,0,0,2.5,0,2.6C9.6,7.3,8.7,7.3,7.9,7.3z"/>
		<path class="st2" d="M5,10.1c0-0.8,0-1.7,0-2.5c0,0,0,0,0,0c0,0,0,0,0,0c0,0,0,0,0,0c0.8,0,1.7,0,2.5,0c0,0,0,0,0,0
			c0,0.8,0,1.7,0,2.5c0,0,0,0,0,0c0,0,0,0,0,0c0,0,0,0,0,0C6.7,10.1,5.9,10.1,5,10.1C5,10.1,5,10.1,5,10.1z"/>
	</g>
	<g>
		<path class="st2" d="M30.8,4.6c0.1,0,0.3,0,0.4,0c0.4,0,0.9,0,1.3,0.1c0.3,0,0.5,0.1,0.7,0.2c0.3,0.1,0.4,0.3,0.5,0.6
			c0.1,0.2,0.1,0.5,0.1,0.7C34,6.8,34,7.4,34,7.9c0,0.4,0,0.8-0.1,1.2c0,0.2-0.1,0.4-0.2,0.6c-0.2,0.2-0.4,0.4-0.6,0.4
			c-0.2,0.1-0.4,0.1-0.7,0.1c-0.4,0-0.9,0-1.3,0.1c-0.1,0-0.2,0-0.2,0c-0.6,0-1.2,0-1.8,0c0,0,0,0,0,0c-0.5,0-0.9,0-1.4-0.1
			c-0.3,0-0.6-0.1-0.8-0.2c-0.3-0.1-0.5-0.3-0.6-0.5C26,9.4,26,9.2,26,8.9c0-0.3-0.1-0.7-0.1-1c0-0.4,0-0.8,0-1.2c0-0.3,0-0.6,0.1-1
			c0.1-0.5,0.4-0.8,0.8-0.9c0.2-0.1,0.5-0.1,0.7-0.1c0.3,0,0.7,0,1,0c0.1,0,0.3,0,0.4,0C29.6,4.6,30.2,4.6,30.8,4.6z M30,6.1
			C30,6.1,30,6.1,30,6.1c-0.3,0-0.6,0-0.9,0c-0.3,0-0.6,0-0.9,0.1c-0.2,0-0.3,0.1-0.4,0.3c-0.1,0.1-0.1,0.3-0.1,0.4c0,0.3,0,0.6,0,1
			c0,0.2,0,0.3,0,0.5c0,0.2,0.1,0.4,0.3,0.5c0.1,0,0.2,0.1,0.3,0.1c0.3,0,0.7,0,1,0c0.5,0,1.1,0,1.6,0c0.2,0,0.4,0,0.6-0.1
			c0.2,0,0.4-0.1,0.4-0.3c0-0.1,0.1-0.3,0.1-0.4c0-0.3,0-0.5,0-0.8c0-0.2,0-0.4-0.1-0.7c-0.1-0.3-0.2-0.5-0.5-0.5
			c-0.2,0-0.4,0-0.5,0C30.7,6.1,30.3,6.1,30,6.1z"/>
		<path class="st2" d="M60.3,10.4c-0.2,0-0.3,0-0.5,0c-0.4,0-0.9,0-1.3-0.1c-0.3-0.1-0.6-0.2-0.8-0.3c-0.2-0.1-0.3-0.3-0.3-0.5
			c-0.1-0.3-0.1-0.6-0.1-0.9c0-0.5,0-0.9,0-1.4c0-0.4,0-0.8,0.1-1.2c0-0.2,0.1-0.4,0.2-0.5c0.1-0.2,0.4-0.4,0.6-0.5
			c0.2-0.1,0.5-0.1,0.8-0.2c0.5-0.1,1-0.1,1.6-0.1c0.1,0,0.1,0,0.2,0c0.4,0,0.8,0,1.2,0c0.1,0,0.1,0,0.2,0c0.4,0,0.8,0,1.2,0.1
			c0.3,0,0.6,0.1,0.9,0.2C64.6,5,64.9,5.3,65,5.7C65,5.9,65,6.1,65,6.4c0,0.1,0,0.2,0,0.3c0,0,0,0,0,0c-0.6,0-1.1,0-1.7,0
			c0,0,0,0,0,0c0-0.1,0-0.1,0-0.2c0-0.1-0.1-0.2-0.1-0.2c-0.1,0-0.2-0.1-0.3-0.1c-0.3,0-0.7-0.1-1-0.1c-0.5,0-1.1,0-1.6,0
			c-0.2,0-0.4,0-0.6,0.1c-0.2,0.1-0.4,0.2-0.5,0.5c0,0.1,0,0.2,0,0.3c0,0.3,0,0.6,0,0.9c0,0.2,0,0.5,0.1,0.7c0,0.2,0.1,0.3,0.3,0.4
			C59.5,9,59.6,9,59.7,9c0.3,0,0.6,0,0.9,0c0.6,0,1.1,0,1.7,0C62.6,9,62.8,9,63,9c0.2,0,0.3-0.1,0.3-0.3c0-0.1,0-0.1,0-0.2
			c0-0.1,0-0.2,0-0.3c-0.8,0-1.6,0-2.3,0c0-0.4,0-0.7,0-1.1c0.3,0,0.6,0,0.9,0c1,0,2.1,0,3.1,0c0,0,0,0,0.1,0c0,0.2,0,0.3,0,0.5
			c0,0,0,0,0,0.1C65,8.1,65,8.6,65,9c0,0.2-0.1,0.4-0.2,0.6c-0.2,0.3-0.4,0.4-0.7,0.5c-0.3,0.1-0.6,0.1-0.8,0.2
			c-0.4,0-0.7,0-1.1,0.1c-0.1,0-0.2,0-0.4,0C61.3,10.4,60.8,10.4,60.3,10.4z"/>
		<path class="st2" d="M17.5,10.3c0-1.9,0-3.7,0-5.6c0.6,0,1.2,0,1.8,0c1.2,0,2.4,0,3.6,0c0.3,0,0.7,0,1,0.1
			c0.3,0.1,0.6,0.2,0.9,0.5c0.2,0.2,0.2,0.5,0.3,0.7c0.1,0.3,0.1,0.6,0.1,0.9c0,0.3,0,0.7,0,1c0,0.3,0,0.7-0.1,1
			c0,0.2-0.1,0.4-0.2,0.5c-0.2,0.3-0.5,0.5-0.9,0.6c-0.3,0.1-0.6,0.1-1,0.1c-0.4,0-0.8,0-1.3,0C20.4,10.3,19,10.3,17.5,10.3z
			 M19.3,6.1c0,0.9,0,1.8,0,2.8c0,0,0.1,0,0.1,0c1,0,1.9,0,2.9,0c0.2,0,0.5,0,0.7-0.1c0.2,0,0.3-0.1,0.4-0.3c0-0.1,0.1-0.2,0.1-0.3
			c0-0.2,0-0.3,0-0.5c0-0.3,0-0.6,0-1c0-0.2-0.1-0.4-0.3-0.5c-0.1-0.1-0.3-0.1-0.4-0.1c-0.2,0-0.5,0-0.8,0
			C21.2,6.1,20.3,6.1,19.3,6.1C19.4,6.1,19.3,6.1,19.3,6.1z"/>
		<path class="st2" d="M65.1,10.4c-1.1,0-2.1,0-3.2,0c0.1,0,0.2,0,0.4,0c0.4,0,0.7,0,1.1-0.1c0.3,0,0.6-0.1,0.8-0.2
			c0.3-0.1,0.5-0.3,0.7-0.5C64.9,9.4,65,9.2,65,9c0-0.4,0-0.9,0.1-1.3c0,0,0,0,0-0.1"/>
		<path class="st2" d="M50.2,10.3c-0.6,0-1.2,0-1.8,0c0-1.9,0-3.7,0-5.6c0,0,0,0,0.1,0c1,0,2,0,3,0c0,0,0.1,0,0.1,0c1,1.3,2,2.7,3,4
			c0,0,0.1,0.1,0.1,0.1c0,0,0.1,0,0.1,0c0-1.4,0-2.8,0-4.1c0.6,0,1.2,0,1.8,0c0,1.9,0,3.7,0,5.6c0,0,0,0-0.1,0c-1,0-2,0-3,0
			c0,0-0.1,0-0.1,0c-1-1.3-2-2.7-3-4c0-0.1-0.1-0.1-0.2-0.1c0,0-0.1,0-0.1,0C50.2,7.5,50.2,8.9,50.2,10.3z"/>
		<path class="st2" d="M36.5,8.2c0,0.7,0,1.4,0,2.1c-0.6,0-1.2,0-1.8,0c0-1.9,0-3.7,0-5.6c0.6,0,1.2,0,1.8,0c0,0.7,0,1.3,0,2
			c0,0,0,0,0.1,0c0.3,0,0.6,0,0.9,0c0,0,0.1,0,0.1,0c0.7-0.7,1.5-1.3,2.2-2c0,0,0.1,0,0.1,0c0.9,0,1.7,0,2.6,0c0,0,0,0,0.1,0
			c-1.1,0.9-2.3,1.8-3.4,2.8c1.2,0.9,2.4,1.9,3.7,2.8c0,0,0,0-0.1,0c-0.9,0-1.7,0-2.6,0c0,0-0.1,0-0.1,0c-0.9-0.7-1.7-1.4-2.6-2.1
			c0,0-0.1,0-0.1,0C37.1,8.2,36.8,8.2,36.5,8.2C36.5,8.2,36.5,8.2,36.5,8.2z"/>
		<path class="st2" d="M47.6,10.3c-0.6,0-1.2,0-1.9,0c0-1.9,0-3.7,0-5.6c0.6,0,1.2,0,1.9,0C47.6,6.6,47.6,8.4,47.6,10.3z"/>
		<path class="st2" d="M44.8,8.1c-0.8,0-1.6,0-2.5,0c0-0.4,0-0.7,0-1.1c0.8,0,1.6,0,2.5,0C44.8,7.4,44.8,7.8,44.8,8.1z"/>
	</g>
</g>
</svg>
