<?xml version="1.0" encoding="utf-8"?>
<!-- Generator: Adobe Illustrator 28.0.0, SVG Export Plug-In . SVG Version: 6.00 Build 0)  -->
<svg version="1.1" id="Layer_1" focusable="false" xmlns="http://www.w3.org/2000/svg" xmlns:xlink="http://www.w3.org/1999/xlink"
	 x="0px" y="0px" width="401px" height="140.2px" viewBox="0 0 401 140.2" style="enable-background:new 0 0 401 140.2;"
	 xml:space="preserve">
<style type="text/css">
	.st0{fill-rule:evenodd;clip-rule:evenodd;fill:#FFFFFF;}
</style>
<g>
	<path class="st0" d="M301.8,89.7L301.8,89.7L301.8,89.7L301.8,89.7c-12.6-8.6-21.3-10.4-27.5-4.6c-5.8,5.5-2.4,15.7,2.4,22.8
		c5.2,6.8,13.9,13.2,20.9,9.4C305.1,113.2,306.1,104.3,301.8,89.7 M292,113.3c-3.3,2.6-12.3-5.9-13.1-7.1h0
		c-0.8-1.1-6.2-12.3-2.7-14.6c4.9-3.3,17,3.4,17.4,3.9C294,96.1,296.6,109.7,292,113.3"/>
	<path class="st0" d="M313.1,81.5L313.1,81.5c-11.2-5.2-18.3-4.9-22.7-4.1c-0.4,0.1-0.7,0.2-0.6,0.4c0.1,0.1,0.2,0.1,0.6,0.3
		c5.9,2.2,11.5,5.1,15.6,8.6v0c2.1,5,3.1,11.2,3.4,17.5c0,0.4,0,0.5,0.1,0.6c0.1,0.1,0.3-0.1,0.5-0.4
		C312.1,100.4,314.6,93.7,313.1,81.5C313.1,81.5,313.1,81.5,313.1,81.5"/>
	<path class="st0" d="M322.2,74.9L322.2,74.9c-4.5-2.8-12.3-3.2-17.5-1.7c-0.5,0.1-0.6,0.3-0.6,0.4c0.1,0.1,0.2,0.2,0.5,0.2
		c6.6,1.6,9.8,3,12.7,4.6c0.6,3.3,1.1,6.7,0.5,13.5c0,0.3,0,0.4,0.1,0.5c0.1,0.1,0.3,0,0.5-0.4C321.4,87.6,323.5,80.1,322.2,74.9
		L322.2,74.9"/>
	<path class="st0" d="M342.1,102.8L342.1,102.8L342.1,102.8L342.1,102.8L342.1,102.8c-12.1,9.3-16.5,17-12.9,24.7
		c3.4,7.2,14.2,7.2,22.4,4.7v0c8.1-2.8,16.9-9.1,15.4-17C365.5,106.9,357.4,103.2,342.1,102.8 M361.6,119.4
		c1.5,3.9-9.4,9.8-10.7,10.2c-1.3,0.4-13.6,2.1-14.7-2c-1.6-5.6,8.5-15.1,9.1-15.3C345.8,112.2,359.6,113.9,361.6,119.4"/>
	<path class="st0" d="M337.8,89.5L337.8,89.5c-8.4,9-10.3,15.9-10.9,20.3c0,0.4,0,0.7,0.2,0.6c0.1,0,0.2-0.1,0.4-0.5
		c3.9-4.9,8.4-9.3,13-12.2v0c0,0,0,0,0,0c5.4-0.4,11.6,0.5,17.7,2.2c0.4,0.1,0.5,0.2,0.6,0.1c0.2,0,0-0.3-0.2-0.6
		C355.5,96.3,349.9,91.8,337.8,89.5L337.8,89.5"/>
	<path class="st0" d="M334.4,78.9L334.4,78.9c-4.1,3.4-6.8,10.8-7,16.1c0,0.5,0,0.7,0.2,0.7c0.1,0,0.2-0.2,0.4-0.4
		c3.5-5.8,5.9-8.3,8.3-10.6c3.3,0.4,6.7,1.1,13,3.7c0.3,0.1,0.4,0.1,0.5,0.1c0.1,0,0.1-0.3-0.2-0.6
		C346.2,83.5,339.7,79.2,334.4,78.9C334.4,78.9,334.4,78.9,334.4,78.9"/>
	<path class="st0" d="M367.1,68.5L367.1,68.5L367.1,68.5L367.1,68.5L367.1,68.5c5.1,14.4,11.1,20.9,19.6,19.9
		c8-1,11.2-11.3,11.4-19.9v0c-0.2-8.6-3.5-18.9-11.4-19.9C378.2,47.5,372.2,54.1,367.1,68.5 M388.9,55.1c4.2-0.2,6.4,12,6.4,13.4
		l0,0c0,1.4-2.2,13.5-6.4,13.4c-5.8-0.2-11.7-12.8-11.8-13.4C377.2,67.9,383.1,55.3,388.9,55.1"/>
	<path class="st0" d="M353.1,68.5L353.1,68.5c6,10.8,11.9,14.7,16,16.7c0.3,0.2,0.7,0.2,0.7,0c0-0.1-0.1-0.2-0.3-0.6
		c-3.5-5.3-6.3-10.9-7.6-16.1v0c1.3-5.3,4.1-10.9,7.6-16.1c0.2-0.3,0.3-0.4,0.3-0.6c0-0.2-0.3-0.1-0.7,0
		C365,53.8,359.1,57.7,353.1,68.5C353.1,68.5,353.1,68.5,353.1,68.5"/>
	<path class="st0" d="M341.9,68.5L341.9,68.5c2,4.9,8.1,9.8,13.2,11.6c0.4,0.2,0.7,0.2,0.7,0c0-0.1-0.1-0.2-0.3-0.5
		c-4.4-5.2-6.1-8.2-7.5-11.2c1.4-3,3.1-6,7.5-11.2c0.2-0.2,0.3-0.4,0.3-0.5c0-0.1-0.2-0.1-0.7,0C350,58.7,343.9,63.6,341.9,68.5
		L341.9,68.5"/>
	<path class="st0" d="M342.1,34.2L342.1,34.2c15.3-0.5,23.4-4.1,25-12.5c1.5-7.9-7.3-14.2-15.4-17h0c-8.2-2.5-19-2.5-22.4,4.7
		C325.6,17.2,330.1,24.9,342.1,34.2 M336.2,9.3c1.1-4,13.4-2.4,14.7-2h0c1.3,0.4,12.2,6.3,10.8,10.2c-2,5.5-15.8,7.2-16.4,7.1
		C344.7,24.4,334.6,14.9,336.2,9.3"/>
	<path class="st0" d="M337.8,47.5L337.8,47.5c12.1-2.3,17.7-6.8,20.8-10c0.3-0.3,0.4-0.6,0.2-0.6c-0.1,0-0.2,0-0.6,0.1
		c-6.1,1.7-12.3,2.6-17.7,2.2h0l0,0c-4.6-2.8-9.1-7.2-13-12.2c-0.3-0.3-0.3-0.4-0.4-0.5c-0.2-0.1-0.2,0.3-0.2,0.6
		C327.5,31.6,329.4,38.5,337.8,47.5C337.8,47.5,337.8,47.5,337.8,47.5"/>
	<path class="st0" d="M334.4,58.1L334.4,58.1c5.3-0.4,11.9-4.7,15.1-8.9c0.3-0.4,0.4-0.6,0.3-0.6c-0.1,0-0.3,0-0.5,0.1
		c-6.3,2.6-9.7,3.3-13,3.7c-2.4-2.3-4.8-4.8-8.3-10.6c-0.2-0.2-0.3-0.4-0.4-0.4c-0.1,0-0.2,0.2-0.2,0.6
		C327.5,47.4,330.3,54.7,334.4,58.1C334.4,58.1,334.4,58.1,334.4,58.1"/>
	<path class="st0" d="M301.8,47.3L301.8,47.3L301.8,47.3c4.3-14.6,3.3-23.5-4.2-27.6c-7-3.9-15.7,2.5-20.9,9.4
		c-4.9,7.1-8.3,17.3-2.4,22.8C280.5,57.7,289.2,55.9,301.8,47.3 M276.3,45.3c-3.5-2.3,1.9-13.5,2.7-14.6v0c0.8-1.1,9.8-9.7,13.1-7.1
		c4.6,3.6,2,17.2,1.7,17.7C293.3,41.9,281.1,48.5,276.3,45.3"/>
	<path class="st0" d="M313.1,55.5L313.1,55.5c1.5-12.2-1-18.9-3.1-22.9c-0.2-0.3-0.4-0.5-0.5-0.4c-0.1,0.1-0.1,0.2-0.1,0.6
		c-0.3,6.3-1.3,12.5-3.4,17.5v0h0c-4.1,3.5-9.7,6.4-15.6,8.6c-0.4,0.1-0.5,0.2-0.6,0.3c-0.1,0.1,0.2,0.3,0.6,0.4
		C294.8,60.4,301.9,60.7,313.1,55.5C313.1,55.5,313.1,55.5,313.1,55.5"/>
	<path class="st0" d="M322.2,62.1L322.2,62.1c1.3-5.2-0.8-12.7-3.8-17.1c-0.3-0.4-0.5-0.5-0.5-0.4c-0.1,0.1-0.1,0.2-0.1,0.5
		c0.6,6.8,0.1,10.2-0.5,13.5c-2.9,1.6-6.1,3.1-12.7,4.7c-0.3,0.1-0.4,0.1-0.5,0.2c-0.1,0.1,0.1,0.2,0.6,0.4
		C309.8,65.3,317.7,64.9,322.2,62.1L322.2,62.1"/>
	<path class="st0" d="M110.5,88.6c-3.3-7.7-20.9-48.9-20.9-48.9H74.2l33.8,79h5.3l33.3-79h-15.4C131.3,39.8,113.8,80.9,110.5,88.6
		 M177.6,104.8v-65h-15v79h56.6v-14H177.6"/>
	<path class="st0" d="M47,39.8H36.6l-33.7,79h15.6c0,0,6.8-16.1,7.7-18.3h32.1c1,2.2,8.3,18.3,8.3,18.3h15.6L47,39.8z M52.2,86.6
		H32.1c1.7-4.1,7.2-17.2,9.7-23C44.4,69.4,50.3,82.5,52.2,86.6L52.2,86.6z"/>
</g>
</svg>
