<?xml version="1.0" encoding="UTF-8"?> <!-- Generator: Adobe Illustrator 16.0.3, SVG Export Plug-In . SVG Version: 6.00 Build 0) --> <svg xmlns="http://www.w3.org/2000/svg" xmlns:xlink="http://www.w3.org/1999/xlink" version="1.1" id="Layer_1" x="0px" y="0px" width="134px" height="150px" viewBox="0 0 134 150" xml:space="preserve"> <path fill="#CA2328" d="M54.767,49.807c0,0,3.159-7.325,7.326-14.966c4.167-7.64,8.368-13.195,10.798-20.87 c2.432-7.673,2.779-12.534,2.779-12.534s-4.201,10.799-6.979,16.702c-2.778,5.904-6.911,8.334-10.418,16.702 c-3.506,8.368-5.242,13.924-5.242,13.924l-3.473,2.084c0,0-4.514-5.209-11.494-7.293c-6.979-2.083-10.799-4.548-13.577-5.937 c-2.778-1.389-6.979-4.862-6.979-4.862s2.431,6.979,9.757,9.41c7.327,2.431,13.577,3.82,14.967,5.209 c1.389,1.389,3.853,3.82,3.853,3.82s1.042,9.063,5.904,8.716c4.862-0.348,3.82-3.82,3.125-5.557 C54.42,52.619,54.767,49.807,54.767,49.807"></path> <path d="M34.221,76.553c-3.36-3.771-7.567-5.656-12.619-5.656c-4.386,0.001-8.31,1.797-11.773,5.387V57.047H1.173v52.362H9.83 v-3.924c3.411,3.335,7.284,5.001,11.619,5.001c5.129-0.001,9.374-1.872,12.735-5.617c3.385-3.771,5.078-8.541,5.078-14.313 C39.26,84.966,37.581,80.298,34.221,76.553z M27.412,99.406c-1.975,2.231-4.463,3.347-7.464,3.347c-3.181,0-5.746-1.115-7.694-3.347 c-1.951-2.181-2.924-5.092-2.924-8.734c0-3.539,0.987-6.411,2.962-8.618c2.001-2.23,4.59-3.347,7.772-3.347 c2.974,0,5.45,1.153,7.425,3.463c1.949,2.258,2.924,5.182,2.924,8.771C30.413,94.329,29.413,97.148,27.412,99.406z"></path> <rect x="48.113" y="71.937" width="8.656" height="37.473"></rect> <path d="M67.647,71.936h8.656v3.348c1.59-1.666,3-2.808,4.232-3.425c1.256-0.641,2.743-0.961,4.463-0.962 c2.281,0,4.667,0.745,7.156,2.232l-3.963,7.925c-1.643-1.179-3.245-1.768-4.809-1.769c-4.722,0-7.08,3.564-7.08,10.694v19.43h-8.656 V71.936z"></path> <path d="M124.215,57.047v19.236c-3.463-3.59-7.387-5.387-11.772-5.387c-5.053,0-9.247,1.886-12.581,5.656 c-3.36,3.745-5.04,8.413-5.04,14.004c0,5.721,1.68,10.491,5.04,14.313c3.386,3.745,7.643,5.617,12.773,5.617 c4.31-0.001,8.169-1.666,11.58-5.001v3.924h8.695V57.047H124.215z M121.791,99.444c-1.975,2.207-4.565,3.309-7.771,3.309 c-3.002,0-5.489-1.141-7.463-3.424c-1.924-2.257-2.886-5.181-2.886-8.772c0-3.358,0.986-6.181,2.962-8.464 c2.001-2.257,4.487-3.386,7.464-3.386c3.155,0,5.72,1.116,7.694,3.347c1.975,2.283,2.963,5.183,2.963,8.695 C124.753,94.264,123.766,97.162,121.791,99.444z"></path> <g> <path fill="#231F20" d="M1.229,128.123c0-0.388,0.135-0.717,0.407-0.988c0.271-0.271,0.6-0.406,0.988-0.406 c0.387,0,0.716,0.139,0.988,0.415c0.271,0.276,0.407,0.604,0.407,0.979c0,0.388-0.139,0.717-0.415,0.988 c-0.277,0.271-0.604,0.406-0.979,0.406c-0.388,0-0.717-0.136-0.988-0.406C1.365,128.84,1.229,128.511,1.229,128.123z M1.844,149.074v-15.705h1.527v15.705H1.844z"></path> <path fill="#231F20" d="M9.827,149.074v-15.705h1.527v2.44h0.066c0.454-0.863,1.087-1.544,1.901-2.042s1.735-0.747,2.764-0.747 c1.018,0,1.854,0.155,2.507,0.465c0.653,0.31,1.179,0.747,1.577,1.312s0.678,1.248,0.838,2.051c0.16,0.802,0.241,1.718,0.241,2.747 v9.479h-1.527v-9.479c0-0.697-0.036-1.361-0.108-1.992c-0.072-0.631-0.238-1.176-0.498-1.636c-0.26-0.459-0.639-0.827-1.137-1.104 s-1.179-0.415-2.042-0.415c-0.996,0-1.793,0.21-2.391,0.631s-1.057,0.96-1.378,1.618c-0.321,0.659-0.537,1.395-0.647,2.209 c-0.111,0.813-0.166,1.618-0.166,2.415v7.753H9.827z"></path> <path fill="#231F20" d="M25.563,141.188c0-1.129,0.202-2.194,0.606-3.196c0.404-1.001,0.968-1.87,1.693-2.605 c0.725-0.736,1.583-1.314,2.573-1.735c0.99-0.421,2.061-0.631,3.212-0.631c1.018,0,1.986,0.16,2.905,0.481 c0.918,0.321,1.776,0.808,2.573,1.461v2.042c-0.753-0.819-1.583-1.45-2.49-1.893c-0.908-0.442-1.926-0.664-3.055-0.664 c-0.93,0-1.791,0.183-2.582,0.548c-0.792,0.365-1.478,0.86-2.059,1.486c-0.581,0.625-1.035,1.344-1.361,2.158 c-0.327,0.813-0.49,1.662-0.49,2.548s0.163,1.74,0.49,2.565c0.326,0.824,0.78,1.549,1.361,2.174 c0.581,0.626,1.262,1.124,2.042,1.494c0.78,0.371,1.635,0.557,2.565,0.557c1.129,0,2.191-0.255,3.188-0.764s1.859-1.195,2.59-2.059 v2.075c-0.797,0.697-1.683,1.229-2.656,1.594c-0.974,0.365-1.992,0.548-3.055,0.548c-1.151,0-2.222-0.207-3.212-0.623 c-0.991-0.414-1.843-0.99-2.557-1.727c-0.714-0.735-1.273-1.604-1.677-2.605C25.765,143.416,25.563,142.34,25.563,141.188z"></path> <path fill="#231F20" d="M43.656,142.782v-9.413H45.2v8.865c0,0.753,0.039,1.48,0.116,2.184c0.077,0.702,0.251,1.313,0.523,1.834 c0.271,0.521,0.678,0.938,1.22,1.254c0.542,0.314,1.289,0.473,2.241,0.473c0.952,0,1.702-0.158,2.25-0.473 c0.548-0.316,0.957-0.733,1.229-1.254c0.271-0.521,0.445-1.132,0.523-1.834c0.077-0.703,0.116-1.431,0.116-2.184v-8.865h1.527 v9.413c0,0.797-0.033,1.585-0.1,2.366c-0.066,0.779-0.349,1.502-0.847,2.166c-0.542,0.73-1.24,1.256-2.092,1.577 c-0.853,0.321-1.721,0.481-2.606,0.481c-0.886,0-1.751-0.163-2.598-0.49c-0.847-0.326-1.542-0.849-2.083-1.568 c-0.498-0.653-0.783-1.372-0.855-2.158C43.692,144.37,43.656,143.579,43.656,142.782z"></path> <path fill="#231F20" d="M60.555,149.074v-28.057h1.527v15.074h0.066c0.653-0.996,1.519-1.757,2.598-2.283 c1.079-0.525,2.227-0.788,3.445-0.788c1.173,0,2.232,0.205,3.18,0.614c0.945,0.409,1.754,0.977,2.424,1.701 c0.669,0.726,1.184,1.58,1.543,2.565s0.54,2.059,0.54,3.221c0,1.151-0.181,2.225-0.54,3.221s-0.874,1.87-1.543,2.623 c-0.67,0.753-1.486,1.342-2.449,1.769c-0.963,0.426-2.037,0.639-3.221,0.639c-0.587,0-1.168-0.066-1.743-0.199 c-0.576-0.133-1.132-0.335-1.668-0.605c-0.537-0.271-1.024-0.601-1.461-0.988c-0.438-0.388-0.805-0.83-1.104-1.328h-0.066v2.822 H60.555z M61.982,141.155c0,0.93,0.141,1.802,0.423,2.614c0.282,0.814,0.689,1.539,1.22,2.176c0.531,0.636,1.176,1.134,1.934,1.494 c0.758,0.359,1.624,0.539,2.598,0.539c0.951,0,1.814-0.186,2.59-0.557c0.774-0.37,1.428-0.874,1.959-1.51 c0.531-0.637,0.938-1.367,1.221-2.191c0.281-0.825,0.423-1.691,0.423-2.599c0-0.863-0.147-1.696-0.44-2.499 c-0.293-0.802-0.711-1.51-1.253-2.125c-0.542-0.613-1.19-1.109-1.942-1.485c-0.753-0.376-1.577-0.564-2.474-0.564 c-0.996,0-1.882,0.177-2.656,0.531c-0.775,0.354-1.428,0.83-1.959,1.428s-0.938,1.306-1.22,2.125S61.982,140.226,61.982,141.155z"></path> <path fill="#231F20" d="M78.664,141.122c0-1.151,0.18-2.222,0.54-3.212c0.359-0.991,0.868-1.849,1.527-2.574 c0.658-0.725,1.464-1.292,2.415-1.701c0.952-0.409,2.015-0.614,3.188-0.614c1.229,0,2.383,0.263,3.462,0.788 c1.079,0.526,1.944,1.287,2.599,2.283h0.066v-2.723h1.527v15.705h-1.527v-2.822h-0.066c-0.299,0.498-0.67,0.94-1.113,1.328 c-0.442,0.388-0.93,0.717-1.461,0.988c-0.531,0.271-1.09,0.473-1.676,0.605c-0.588,0.133-1.168,0.199-1.744,0.199 c-1.206,0-2.282-0.213-3.229-0.639c-0.946-0.427-1.754-1.016-2.424-1.769s-1.185-1.627-1.544-2.623 C78.844,143.347,78.664,142.273,78.664,141.122z M80.191,141.122c0,0.907,0.142,1.773,0.424,2.599 c0.282,0.824,0.694,1.555,1.236,2.191c0.543,0.636,1.193,1.14,1.951,1.51c0.758,0.371,1.613,0.557,2.564,0.557 c0.996,0,1.882-0.186,2.656-0.557c0.775-0.37,1.422-0.879,1.943-1.527c0.52-0.646,0.915-1.395,1.187-2.24 c0.271-0.848,0.407-1.746,0.407-2.698c0-0.907-0.147-1.76-0.44-2.557c-0.294-0.797-0.717-1.483-1.271-2.059 c-0.553-0.575-1.217-1.035-1.992-1.378c-0.774-0.343-1.638-0.515-2.59-0.515c-0.907,0-1.734,0.188-2.481,0.564 s-1.386,0.877-1.917,1.503c-0.531,0.625-0.944,1.339-1.237,2.141C80.338,139.459,80.191,140.281,80.191,141.122z"></path> <path fill="#231F20" d="M98.252,134.797v-1.428h1.743v-5.611h1.527v5.611h2.756v1.428h-2.756v14.277h-1.527v-14.277H98.252z"></path> <path fill="#231F20" d="M106.02,141.255c0-1.129,0.207-2.194,0.623-3.196c0.414-1.001,0.99-1.875,1.727-2.623 c0.735-0.746,1.604-1.336,2.605-1.768s2.067-0.647,3.196-0.647c1.151,0,2.233,0.21,3.245,0.631 c1.014,0.421,1.887,0.993,2.623,1.718c0.736,0.726,1.32,1.592,1.752,2.599s0.647,2.092,0.647,3.254 c0,1.151-0.216,2.228-0.647,3.229c-0.432,1.001-1.016,1.87-1.752,2.605c-0.736,0.736-1.607,1.307-2.614,1.711 c-1.007,0.403-2.092,0.605-3.254,0.605c-1.129,0-2.188-0.213-3.179-0.639c-0.991-0.427-1.854-1.011-2.59-1.752 c-0.736-0.741-1.318-1.604-1.744-2.59S106.02,142.361,106.02,141.255z M107.547,141.255c0,0.886,0.163,1.735,0.49,2.548 c0.326,0.814,0.785,1.533,1.377,2.158c0.592,0.626,1.284,1.118,2.076,1.479c0.791,0.359,1.651,0.539,2.581,0.539 c0.952,0,1.845-0.169,2.681-0.506c0.836-0.338,1.561-0.814,2.176-1.428c0.613-0.615,1.098-1.328,1.452-2.143 c0.354-0.813,0.531-1.695,0.531-2.647c0-0.974-0.177-1.876-0.531-2.706s-0.839-1.55-1.452-2.158 c-0.615-0.608-1.334-1.085-2.158-1.428c-0.825-0.343-1.725-0.515-2.698-0.515c-0.93,0-1.796,0.183-2.599,0.548 s-1.494,0.86-2.074,1.486c-0.582,0.625-1.035,1.35-1.361,2.174C107.71,139.481,107.547,140.348,107.547,141.255z"></path> <path fill="#231F20" d="M126.752,149.074v-15.705h1.527v2.042h0.066c0.321-0.73,0.758-1.312,1.313-1.743 c0.553-0.432,1.25-0.647,2.092-0.647c0.32,0,0.611,0.036,0.871,0.108c0.26,0.071,0.523,0.163,0.789,0.273l-0.814,1.361 c-0.177-0.11-0.352-0.191-0.522-0.24c-0.172-0.051-0.362-0.075-0.573-0.075c-0.863,0-1.514,0.238-1.95,0.714 c-0.438,0.476-0.753,1.055-0.946,1.734c-0.193,0.682-0.297,1.4-0.307,2.158c-0.012,0.759-0.018,1.426-0.018,2.001v8.019H126.752z"></path> </g> </svg> 