<?xml version="1.0" encoding="utf-8"?>
<!-- Generator: Adobe Illustrator 28.0.0, SVG Export Plug-In . SVG Version: 6.00 Build 0)  -->
<svg version="1.1" xmlns="http://www.w3.org/2000/svg" xmlns:xlink="http://www.w3.org/1999/xlink" x="0px" y="0px" width="495.1px"
	 height="100px" viewBox="0 0 495.1 100" style="enable-background:new 0 0 495.1 100;" xml:space="preserve">
<style type="text/css">
	.st0{display:none;}
	.st1{display:inline;opacity:0.66;}
	.st2{fill:#51C2BE;}
	.st3{fill:#FFFFFF;}
	.st4{fill:#3DCD58;}
	.st5{fill:#009530;}
	.st6{fill:none;}
</style>
<g id="Layer_2" class="st0">
	<rect x="-533.2" y="-342.1" class="st1" width="3630.6" height="658.7"/>
</g>
<g id="Layer_1">
	<g id="JH_1_">
		<path class="st3" d="M47.6,58.9c-0.7,2.3-1.2,4.8-1.2,6.7c0,6.9,5.3,11.1,16.2,11.1c14.5,0,20-5.3,23.3-16.5L95.5,28H82l-9.5,32
			c-1,3.6-3.1,5.1-7.4,5.1c-3.9,0-5.3-1.9-4.3-5.2l9.4-32H56.8L47.6,58.9z"/>
		<polygon class="st3" points="229.1,76.1 260.9,76.1 264.3,64.7 245.9,64.7 248,57.4 264.2,57.4 267.5,46.4 251.3,46.4 253.5,38.9 
			271.9,38.9 275.2,28 243.3,28 		"/>
		<path class="st3" d="M437.3,27.3c-13.1,0-22.9,1.5-29.3,25.8c-1.1,4.1-1.8,7.8-1.8,11.1c0,7.8,4.1,12.6,17.4,12.6
			c3.4,0,7.7-0.5,10.7-1.5l3.3-11.1c0,0-3.5,0.9-9.1,0.9c-6.1,0-7.8-1.9-7.8-5c0-1.9,0.5-4.1,1.2-6.5c3.3-12.9,6.9-14.3,13.6-14.3
			c5.6,0,8.8,0.9,8.8,0.9l3.4-11.5C445.8,28,440.6,27.3,437.3,27.3z"/>
		<path class="st3" d="M2.2,75.7c1.9,0.5,6.7,1,10.4,1c17.2,0,24.1-4.7,28-17.8l9.2-31H36.4l-8.1,27.6c-0.3,0.9-0.8,2.7-1.5,4.1
			c-2.2,4-6.6,5.1-11.7,5.1c-5,0-9.3-0.6-9.3-0.6L2.2,75.7z"/>
		<path class="st3" d="M336.9,76.1h13.3l4.7-16.1h3.6l4,16.1H377l-5.4-18.3c4.1-1.2,8.7-2.6,11.8-13.3c0.8-2.8,1.2-5.8,1.2-7.3
			c0-5.8-3.4-9.2-12-9.2h-21.5L336.9,76.1z M357.9,49.8l3.2-10.9h6c2.3,0,3.5,1.2,3.5,3.1c0,4.5-2.2,7.8-6.8,7.8
			C363.8,49.8,357.9,49.8,357.9,49.8z"/>
		<path class="st3" d="M181.4,48.4h-18l-2.7,8.9h5.7l-2.3,7.6c0,0-1.9,0.3-4.1,0.3c-4.9,0-5.6-2.1-5.6-5.2c0-1.9,0.5-4.1,1.1-6.6
			c3.3-12.8,7.1-14.5,13.8-14.5c6.9,0,12.4,1.4,12.4,1.4l3.5-11.2c-1.9-0.6-8.1-1.8-14.2-1.8c-13.1,0-23,1.4-29.4,25.7
			c-1.1,4.1-1.6,7.8-1.6,11c0,7.8,4.5,12.8,17.6,12.8c6.3,0,13-1,16-2.1L181.4,48.4z"/>
		<polygon class="st3" points="282.2,28 295.7,28 281.5,76.1 268,76.1 		"/>
		<path class="st3" d="M103.1,28h11.3l7,25.6h0.2c0,0,1.1-4.2,2.1-7.8l5.3-17.9h13.3l-14.2,48.1h-11.3l-7.1-25.3h-0.2
			c0,0-1,3.9-2.1,7.9l-5.2,17.4H88.9L103.1,28z"/>
		<path class="st3" d="M303.7,28h11.3l7,25.6h0.2c0,0,1.1-4.2,2.1-7.8l5.3-17.9h13.3l-14.2,48.1h-11.3l-7.1-25.3H310
			c0,0-1,3.9-2.1,7.9l-5.2,17.4h-13.3L303.7,28z"/>
		<polygon class="st3" points="395.2,28 408.7,28 394.5,76.1 381,76.1 		"/>
		<polygon class="st3" points="194.8,28 208.3,28 202.7,46.6 215.9,46.6 221.5,28 235,28 220.7,76.1 207.3,76.1 212.7,57.7 
			199.5,57.7 194.1,76.1 180.6,76.1 		"/>
		<polygon class="st3" points="454.9,28 468.4,28 462.8,46.6 476,46.6 481.6,28 495.1,28 480.8,76.1 467.4,76.1 472.8,57.7 
			459.6,57.7 454.2,76.1 440.7,76.1 		"/>
		<path class="st3" d="M51.7,23.8L31.2,4.1L0,23.8h17.7L7,59.7c0,0,3.6,0.5,8.5,0.5c3.8,0,6-1.2,7.1-3c0.6-1,0.8-1.4,1.2-3.1
			l9.1-30.4L51.7,23.8z"/>
	</g>
</g>
</svg>
