<?xml version="1.0" encoding="utf-8"?>
<!-- Generator: Adobe Illustrator 28.0.0, SVG Export Plug-In . SVG Version: 6.00 Build 0)  -->
<svg version="1.1" id="Layer_1" xmlns="http://www.w3.org/2000/svg" xmlns:xlink="http://www.w3.org/1999/xlink" x="0px" y="0px"
	 width="570.5px" height="94.1px" viewBox="0 0 570.5 94.1" style="enable-background:new 0 0 570.5 94.1;" xml:space="preserve">
<style type="text/css">
	.st0{fill:#00A651;}
	.st1{fill:#ED1C24;}
	.st2{fill:#FFFFFF;}
</style>
<g>
	<path class="st0" d="M47.1,0c26,0,47.1,21.1,47.1,47.1c0,26-21.1,47.1-47.1,47.1C21.1,94.1,0,73.1,0,47.1C0,21.1,21.1,0,47.1,0"/>
	<path class="st1" d="M47.1,34.6c7,0,12.7,5.6,12.7,12.5c0,6.9-5.7,12.5-12.7,12.5c-7,0-12.7-5.6-12.7-12.5
		C34.4,40.2,40.1,34.6,47.1,34.6"/>
	<polygon class="st2" points="452,84.5 437.8,47.1 451.3,11 443.8,11 430,47.2 444.5,84.5 452,84.5 	"/>
	<polygon class="st2" points="441.7,11 434.1,11 424.2,36.3 424.2,11 417.6,11 417.6,46.3 428.3,46.3 441.7,11 	"/>
	<polygon class="st2" points="417.6,84.5 424.2,84.5 424.2,56.7 434.6,84.5 442.4,84.5 428.4,48.3 417.6,48.3 417.6,84.5 	"/>
	<polygon class="st2" points="409,84.5 415.6,84.5 415.6,11 409,11 409,84.5 	"/>
	<polygon class="st2" points="372.1,73.7 372.1,64.8 358.5,64.8 358.5,11 351.6,11 351.6,73.7 372.1,73.7 	"/>
	<polygon class="st2" points="349.7,11 342.8,11 342.8,84.5 372.1,84.5 372.1,75.6 350.7,75.6 349.7,75.6 349.7,74.7 349.7,11 	"/>
	<polygon class="st2" points="261.4,11 261.4,84.1 261.4,84.5 268,84.5 268,11 261.4,11 	"/>
	<polygon class="st2" points="251.5,84.5 259.5,84.5 259.5,84.4 233.8,22.1 231.2,15.9 231.2,84.5 237.9,84.5 238,48.1 251.5,84.5 	
		"/>
	<polygon class="st2" points="259.4,11 252,11 252,48.1 238.5,11 231.3,11 259.4,79.1 259.4,11 	"/>
	<polygon class="st2" points="221.8,11 221.7,84.5 229.2,84.5 229.2,11 221.8,11 	"/>
	<polygon class="st2" points="296.9,30.2 306.2,30.2 306.2,21.4 290.3,21.4 290.3,84.5 296.9,84.5 296.9,30.2 	"/>
	<polygon class="st2" points="306.2,11 272.2,11 272.2,19.5 306.2,19.5 306.2,11 	"/>
	<polygon class="st2" points="272.2,21.4 272.2,30.2 281.2,30.2 281.2,84.5 288.4,84.5 288.4,21.4 272.2,21.4 	"/>
	<polygon class="st2" points="478.2,30.2 487.5,30.2 487.5,21.4 471.6,21.4 471.6,84.5 478.2,84.5 478.2,30.2 	"/>
	<polygon class="st2" points="487.5,11 453.5,11 453.5,19.5 487.5,19.5 487.5,11 	"/>
	<polygon class="st2" points="453.5,21.4 453.5,30.2 462.5,30.2 462.5,84.5 469.6,84.5 469.6,21.4 453.5,21.4 	"/>
	<polygon class="st2" points="507.4,50.8 498.1,50.8 498.1,84.5 504.9,84.5 504.9,62.5 512.7,84.5 519.9,84.5 507.4,50.8 	"/>
	<path class="st2" d="M550.5,76.1c-7.9,0-14.3-12.7-14.3-28.4c0-15.7,6.4-28.4,14.3-28.4s14.3,12.7,14.3,28.4
		C564.8,63.4,558.4,76.1,550.5,76.1 M550.5,9.6c-12.3,0-20,15.5-20,38.1c0,22.6,7.7,38.1,20,38.1s20-15.5,20-38.1
		C570.5,25.1,562.8,9.6,550.5,9.6"/>
	<path class="st2" d="M550.5,64.9c-5,0-7.4-9-7.4-17.2c0-8.3,2.4-17.2,7.4-17.2c5,0,7.4,8.9,7.4,17.2
		C557.9,56,555.5,64.9,550.5,64.9 M550.5,21.3c-6.8,0-12.6,12.1-12.6,26.4c0,14.3,5.8,26.4,12.6,26.4c6.8,0,12.6-12.1,12.6-26.4
		C563.1,33.4,557.3,21.3,550.5,21.3"/>
	<polygon class="st2" points="124.7,11 116.9,84.5 123.7,84.5 132.6,11 124.7,11 	"/>
	<polygon class="st2" points="162,16.2 147.9,81.8 133.8,16.2 125.6,84.5 133.3,84.5 136,53.8 142,84.5 153.8,84.5 159.7,53.8 
		162.5,84.5 170.1,84.5 162,16.2 	"/>
	<polygon class="st2" points="147.9,72 147.9,72 147.9,72 147.9,72 161.2,11 154,11 147.9,46.7 141.7,11 134.6,11 147.9,72 
		147.9,72 	"/>
	<polygon class="st2" points="171,11 163.2,11 172.1,84.5 178.9,84.5 171,11 	"/>
	<path class="st2" d="M199,76.1c-7.9,0-14.3-12.7-14.3-28.4c0-15.7,6.4-28.4,14.3-28.4c7.9,0,14.3,12.7,14.3,28.4
		C213.2,63.4,206.8,76.1,199,76.1 M199,9.6c-12.3,0-20,15.5-20,38.1c0,22.6,7.7,38.1,20,38.1c12.3,0,20-15.5,20-38.1
		C218.9,25.1,211.3,9.6,199,9.6"/>
	<path class="st2" d="M199,64.9c-5,0-7.4-9-7.4-17.2c0-8.3,2.4-17.2,7.4-17.2c5,0,7.4,8.9,7.4,17.2C206.3,56,203.9,64.9,199,64.9
		 M199,21.3c-6.8,0-12.6,12.1-12.6,26.4c0,14.3,5.8,26.4,12.6,26.4c6.8,0,12.6-12.1,12.6-26.4C211.6,33.4,205.8,21.3,199,21.3"/>
	<polygon class="st2" points="338.2,19.5 338.2,11 310.2,11 310.2,84.5 338.2,84.5 338.2,75.7 317.7,75.7 316.9,75.7 316.9,19.5 
		338.2,19.5 	"/>
	<polygon class="st2" points="404.5,19.5 404.5,11 376.5,11 376.5,84.5 404.5,84.5 404.5,75.7 384,75.7 383.2,75.7 383.2,19.5 
		404.5,19.5 	"/>
	<polygon class="st2" points="338.2,64.8 324.9,64.8 324.9,57 337.4,57 337.4,48.3 318.7,48.3 318.7,73.8 338.2,73.8 338.2,64.8 	
		"/>
	<polygon class="st2" points="404.5,64.8 391.2,64.8 391.2,57 403.7,57 403.7,48.3 385,48.3 385,73.8 404.5,73.8 404.5,64.8 	"/>
	<polygon class="st2" points="325.2,37.6 325.2,30.2 338.2,30.2 338.2,21.4 318.7,21.4 318.7,46.3 337.4,46.3 337.4,37.6 
		325.2,37.6 	"/>
	<polygon class="st2" points="391.5,37.6 391.5,30.2 404.5,30.2 404.5,21.4 385,21.4 385,46.3 403.7,46.3 403.7,37.6 391.5,37.6 	
		"/>
	<path class="st2" d="M517.3,55c0,0,10.7-6.1,10.7-21c0-13.2-5.2-23-22.4-23h-15.4v73.4h6.1l0-65.1h8.9h2.2c2.5,0,6.6,0.9,9.6,3.4
		c1.8,1.5,3.6,4.2,4.2,7.5c0.3,1.5,0.4,2.8,0.4,4.3c0,7.7-2.6,14.8-12.3,16.1L522,84.5h7.1L517.3,55L517.3,55z"/>
	<path class="st2" d="M504.9,42.2V28.1c0,0,3.1-0.3,5.9,1c1.7,0.9,2.9,2.9,2.9,6C513.7,41.1,509.8,42.4,504.9,42.2 M520.1,35.7
		c0-4.5-0.7-8.8-4-11.5c-0.1-0.1-0.2-0.1-0.2-0.2c-2.9-2.1-6.2-2.7-9.5-2.7c-2.3,0-6,0-8.2,0v27.8h8.5c0,0,4.6,0.3,8.5-2.3
		C517.4,45.3,520.1,41.5,520.1,35.7"/>
</g>
</svg>
