<?xml version="1.0" encoding="iso-8859-1"?>
<!-- Generator: Adobe Illustrator 28.0.0, SVG Export Plug-In . SVG Version: 6.00 Build 0)  -->
<svg version="1.1" id="PMS_369_and_PMS_355" xmlns="http://www.w3.org/2000/svg" xmlns:xlink="http://www.w3.org/1999/xlink"
	 x="0px" y="0px" width="305.738px" height="112.659px" viewBox="0 0 305.738 112.659" enable-background="new 0 0 305.738 112.659"
	 xml:space="preserve">
<g>
	<g>
		<path fill="#FFFFFF" d="M38.307,29.253c-6.681-2.966-10.667-4.117-14.622-4.117c-4.152,0-6.811,1.487-6.811,3.785
			c0,6.935,23.526,4.982,23.526,21.024c0,8.844-7.422,13.983-17.732,13.983c-8.09,0-12.069-2.093-16.657-4.462v-9.921
			c6.616,4.384,10.665,5.933,15.768,5.933c4.426,0,6.813-1.549,6.813-4.247c0-7.552-23.526-4.787-23.526-21.303
			c0-7.966,6.884-13.237,17.602-13.237c5.172,0,9.84,1.084,15.64,3.579V29.253"/>
		<path fill="#FFFFFF" d="M71.244,61.819c-3.92,1.422-7.236,2.102-10.545,2.102c-10.957,0-18.04-6.382-18.04-16.091
			c0-9.53,7.358-16.264,17.633-16.264c3.174,0,7.231,0.814,10.477,2.022v7.296c-2.568-1.365-5.544-2.112-7.977-2.112
			c-5.88,0-9.665,3.535-9.665,8.986c0,5.533,3.721,9.174,9.324,9.174c2.365,0,4.466-0.544,8.793-2.164V61.819"/>
		<path fill="#FFFFFF" d="M162.759,31.575c-9.614,0-16.458,6.791-16.458,16.346c0,9.625,7.119,16,18.086,16
			c2.429,0,8.307,0,13.905-4.145v-6.09c-4.588,3.265-7.621,4.391-11.536,4.391c-6.178,0-9.957-3.199-10.298-8.654h22.382
			C179.308,38.03,171.828,31.575,162.759,31.575 M156.666,44.255c0.403-4.331,2.916-6.835,6.767-6.835
			c3.789,0,6.355,2.575,6.76,6.835H156.666z"/>
		<rect x="182.629" y="32.15" fill="#FFFFFF" width="9.789" height="31.202"/>
		<path fill="#FFFFFF" d="M219.655,17.264v16.257c-2.644-1.281-5.278-1.953-8.13-1.953c-8.926,0-15.104,6.597-15.104,16.146
			c0,9.342,6.178,16.215,14.554,16.215c3.32,0,5.889-0.872,8.68-3.099v2.513h9.786V17.264H219.655 M219.655,54.824
			c-2.037,1.834-3.732,2.571-5.825,2.571c-4.608,0-7.523-3.792-7.523-9.477c0-6.229,2.916-9.82,7.849-9.82
			c1.767,0,4.073,0.812,5.499,1.832V54.824z"/>
		<path fill="#FFFFFF" d="M250.015,31.575c-9.612,0-16.445,6.791-16.445,16.346c0,9.625,7.119,16,18.075,16
			c2.427,0,8.313,0,13.925-4.145v-6.09c-4.59,3.265-7.63,4.391-11.563,4.391c-6.148,0-9.941-3.199-10.282-8.654h22.376
			C266.566,38.03,259.08,31.575,250.015,31.575 M243.929,44.255c0.407-4.331,2.907-6.835,6.756-6.835
			c3.792,0,6.382,2.575,6.789,6.835H243.929z"/>
		<path fill="#FFFFFF" d="M280.754,41.085h0.144c2.905-6.495,6.156-9.539,9.933-9.539c1.956,0,3.643,0.745,6.482,2.847l-2.692,8.649
			c-2.573-1.621-4.261-2.298-5.813-2.298c-3.59,0-5.889,3.385-8.052,9.105v13.461h-9.802V32.12h9.802V41.085"/>
		<path fill="#FFFFFF" d="M192.875,19.026c0.92,2.425-0.734,5.805-3.683,7.543c-2.96,1.739-6.088,1.188-7.001-1.237
			c-0.927-2.429,0.719-5.813,3.677-7.543C188.818,16.042,191.948,16.598,192.875,19.026"/>
		<path fill="#FFFFFF" d="M106.498,43.494c0-8.455-5.745-11.919-11.417-11.919c-3.856,0-7.026,1.628-9.862,5.218h-0.135V17.263
			h-9.795v45.999h9.795V43.494c2.292-3.316,4.252-4.734,6.546-4.734c3.046,0,5.072,2.166,5.072,6.827v10.961
			c3.285-1.688,6.625-2.725,9.795-3.11V43.494"/>
		<path fill="#FFFFFF" d="M131.073,31.567c-3.991,0-7.037,1.482-10.156,5.048v-4.464h-9.793v21.203
			c3.393,0.338,7.723,1.893,9.793,4.464V43.249c2.575-3.864,4.402-5.152,6.838-5.152c2.774,0,4.882,1.832,4.882,6.229v18.945h9.795
			V43.519C142.432,34.33,135.942,31.567,131.073,31.567"/>
		<polygon fill="#FFFFFF" points="147.843,72.231 136.462,72.231 136.462,80.318 147.443,80.318 147.443,83.789 136.462,83.789 
			136.462,92.131 148.184,92.131 148.184,95.597 132.646,95.597 132.646,68.769 147.843,68.769 		"/>
		<rect x="157.139" y="68.759" fill="#FFFFFF" width="3.486" height="26.853"/>
		<path fill="#FFFFFF" d="M173.061,87.278h12.421c0-6.546-2.991-9.705-7.676-9.705c-4.86,0-8.234,3.592-8.234,8.95
			c0,4.898,3.048,9.422,8.537,9.422c2.991,0,4.926-0.666,7.068-2.088v-3.393c-2.071,1.356-4.077,2.137-6.19,2.137
			C175.611,92.6,173.605,90.788,173.061,87.278 M177.885,80.573c2.473,0,4.004,1.703,4.119,4.378h-8.88
			C173.605,82.157,175.215,80.573,177.885,80.573"/>
		<path fill="#FFFFFF" d="M208.248,82.555c-2.006-1.374-3.345-1.776-4.871-1.776c-3.192,0-5.402,2.449-5.402,6.035
			c0,3.65,2.352,5.851,5.986,5.851c1.493,0,2.918-0.387,4.676-1.175v3.438c-1.175,0.555-3.413,1.015-5.26,1.015
			c-5.278,0-8.944-3.63-8.944-8.82c0-5.853,3.347-9.55,8.705-9.55c2.046,0,3.422,0.476,5.11,1.217V82.555"/>
		<path fill="#FFFFFF" d="M224.132,77.91h5.594v3.141h-5.594v9.081c0,2.079,1.504,2.679,2.522,2.679
			c1.261,0,2.562-0.442,3.975-1.314v3.272c-1.226,0.673-3.104,1.175-4.256,1.175c-3.796,0-5.714-2.356-5.714-5.548v-9.344h-3.077
			v-0.389l6.55-6.409V77.91"/>
		<path fill="#FFFFFF" d="M243.06,77.91v4.095h0.071c1.779-3.135,3.469-4.433,5.114-4.433c1.418,0,2.75,0.666,4.21,2.048
			l-1.847,3.073c-1.062-1.049-2.436-1.774-3.265-1.774c-2.398,0-4.283,2.44-4.283,5.464v9.231h-3.482V77.91H243.06"/>
		<path fill="#FFFFFF" d="M288.178,82.555c-2.015-1.374-3.351-1.776-4.889-1.776c-3.183,0-5.375,2.449-5.375,6.035
			c0,3.65,2.356,5.851,5.966,5.851c1.498,0,2.911-0.387,4.694-1.175v3.438c-1.199,0.555-3.442,1.015-5.285,1.015
			c-5.269,0-8.95-3.63-8.95-8.82c0-5.853,3.362-9.55,8.72-9.55c2.051,0,3.411,0.476,5.119,1.217V82.555"/>
		<rect x="261.693" y="77.908" fill="#FFFFFF" width="3.486" height="17.704"/>
		<path fill="#FFFFFF" d="M265.298,71.55c0.341,0.856-0.254,2.062-1.301,2.679c-1.057,0.617-2.175,0.418-2.493-0.438
			c-0.319-0.863,0.259-2.062,1.318-2.679C263.869,70.488,264.98,70.687,265.298,71.55"/>
		<path fill="#FFFFFF" d="M111.388,80.206l1.057-3.836h9.629c1.188-5.561,0.252-10.716-3.124-14.091
			c-6.831-6.829-21.124-4.508-31.773,5.678c-1.661,1.582-3.066,3.292-4.347,5.039h5.798l-1.347,3.845h-6.926
			c-0.661,1.212-1.283,2.413-1.759,3.634h8.214l-1.314,3.845h-8.072c-1.38,5.871-0.5,11.35,2.971,14.828
			c6.749,6.745,20.998,4.373,31.64-5.811c1.863-1.772,3.4-3.683,4.789-5.648h-7.448l1.135-3.836h8.709
			c0.637-1.221,1.226-2.427,1.683-3.648H111.388 M109.251,72.981c-0.615,0-0.874,0.1-1.126,0.381
			c-0.097,0.111-0.137,0.221-0.173,0.442l-3.126,11.857c-0.734,4.157-5.842,8.311-12.501,8.311h-3.628h-5.628l1.606-6.094h5.946
			c0.608,0,1.082-0.223,1.48-0.666c0.144-0.173,0.336-0.442,0.361-0.719l2.469-10.359c0.728-4.161,5.123-8.756,11.78-8.756h9.477
			l-1.212,5.603H109.251z"/>
	</g>
</g>
<g>
</g>
<g>
</g>
<g>
</g>
<g>
</g>
<g>
</g>
<g>
</g>
<g>
</g>
<g>
</g>
<g>
</g>
<g>
</g>
<g>
</g>
<g>
</g>
<g>
</g>
<g>
</g>
<g>
</g>
</svg>
