<?xml version="1.0" encoding="UTF-8"?> <svg xmlns="http://www.w3.org/2000/svg" width="205" height="42" viewBox="0 0 205 42" fill="none"><path d="M48.1336 33.5978C46.4862 33.5929 44.8524 33.2985 43.3068 32.728C41.6881 32.1375 40.2096 31.2174 38.9648 30.0259L42.1233 26.1544C43.8652 27.5753 46.0357 28.3667 48.2833 28.4003C49.0992 28.4585 49.9144 28.2777 50.629 27.8798C50.8761 27.7167 51.0768 27.4924 51.2117 27.2288C51.3467 26.9653 51.4112 26.6713 51.399 26.3755C51.4096 26.1683 51.3771 25.9612 51.3035 25.7673C51.2298 25.5734 51.1167 25.3969 50.9712 25.249C50.6223 24.9337 50.222 24.6805 49.7877 24.5004C49.2815 24.2722 48.6826 24.0227 47.9839 23.7446L44.8682 22.4327C43.9878 22.0794 43.1639 21.599 42.4227 21.0068C41.6676 20.3951 41.0484 19.6326 40.6047 18.7681C40.1188 17.8075 39.8741 16.743 39.8917 15.6667C39.8794 14.3327 40.2804 13.0276 41.0396 11.9307C41.8436 10.7807 42.9284 9.8554 44.1909 9.24282C45.6374 8.54637 47.2272 8.19957 48.8323 8.23041C50.2945 8.23183 51.7442 8.50002 53.1101 9.0218C54.4839 9.52015 55.7426 10.2914 56.8104 11.289L53.6948 15.1961C52.9403 14.6367 52.1127 14.1833 51.235 13.8486C50.4707 13.5658 49.6616 13.4233 48.8466 13.4279C48.12 13.3908 47.3978 13.5614 46.7647 13.9199C46.5193 14.0655 46.318 14.2751 46.1824 14.5263C46.0467 14.7774 45.9819 15.0607 45.9947 15.3458C45.991 15.5487 46.0289 15.7502 46.1062 15.9378C46.1834 16.1255 46.2984 16.2953 46.4439 16.4367C46.8189 16.7832 47.2603 17.0501 47.7415 17.2209L49.6736 18.0123L52.718 19.2173C53.6538 19.5781 54.5235 20.0913 55.2918 20.7359C55.9935 21.3342 56.5556 22.0788 56.9388 22.9176C57.3505 23.8559 57.5501 24.8735 57.5234 25.8978C57.5328 27.2475 57.1541 28.5715 56.4326 29.7122C55.655 30.9397 54.5516 31.927 53.2456 32.564C51.6479 33.3097 49.8955 33.6641 48.1336 33.5978Z" fill="white"></path><path d="M70.5582 33.5981C68.4969 33.6392 66.4641 33.1113 64.6833 32.0724C62.9661 31.0307 61.5946 29.5054 60.7406 27.6876C59.7449 25.5412 59.257 23.1943 59.3147 20.8289C59.2477 18.4764 59.7362 16.1412 60.7406 14.0129C61.6038 12.229 62.9756 10.7406 64.6833 9.73506C66.4898 8.76158 68.5097 8.25195 70.5617 8.25195C72.6138 8.25195 74.6337 8.76158 76.4402 9.73506C78.146 10.7429 79.5172 12.2307 80.3829 14.0129C81.3873 16.1412 81.8758 18.4764 81.8088 20.8289C81.8665 23.1943 81.3785 25.5412 80.3829 27.6876C79.5363 29.4992 78.1782 31.0234 76.4758 32.0724C74.6823 33.1182 72.6338 33.6464 70.5582 33.5981ZM70.5582 28.4077C71.5463 28.4336 72.5115 28.1076 73.2817 27.488C74.1136 26.7921 74.7274 25.8713 75.0499 24.8357C75.4804 23.5325 75.6853 22.1654 75.6559 20.7932C75.6914 19.4346 75.4862 18.0805 75.0499 16.7935C74.7222 15.8038 74.1156 14.9298 73.3031 14.2767C72.5114 13.7016 71.5581 13.3919 70.5796 13.3919C69.6011 13.3919 68.6477 13.7016 67.856 14.2767C67.0476 14.9337 66.442 15.8063 66.1093 16.7935C65.6789 18.0818 65.4763 19.4353 65.5104 20.7932C65.4823 22.1647 65.6848 23.5312 66.1093 24.8357C66.4359 25.8559 67.0409 26.7645 67.856 27.4595C68.6188 28.0798 69.5751 28.4129 70.5582 28.4006V28.4077Z" fill="white"></path><path d="M102.938 33.1383V8.68345H110.067C112.305 8.63442 114.526 9.06471 116.584 9.94541C118.415 10.7548 119.938 12.1322 120.926 13.8739C122.038 16.014 122.569 18.4085 122.466 20.8182C122.561 23.2362 122.03 25.6379 120.926 27.791C119.952 29.5463 118.457 30.9562 116.648 31.8264C114.688 32.7321 112.547 33.1806 110.388 33.1383H102.938ZM108.948 28.3329H109.661C110.837 28.3519 112.003 28.121 113.083 27.6556C114.112 27.177 114.947 26.3622 115.45 25.3455C116.091 23.9257 116.387 22.3742 116.313 20.8182C116.391 19.2802 116.095 17.7463 115.45 16.3479C114.936 15.3627 114.101 14.5828 113.083 14.1377C111.996 13.7002 110.832 13.4844 109.661 13.5031H108.948V28.3329Z" fill="white"></path><path d="M125.184 33.1355V8.68066H140.769V13.7142H131.194V18.0776H139.343V23.1112H131.194V28.1019H141.175V33.1355H125.184Z" fill="white"></path><path d="M164.327 33.1393L158.894 23.4786C160.019 22.9308 160.997 22.1216 161.746 21.1187C162.686 19.7537 163.154 18.1187 163.079 16.463C163.18 14.791 162.709 13.1344 161.746 11.7645C160.843 10.6322 159.617 9.80162 158.231 9.38321C156.687 8.90042 155.078 8.6599 153.461 8.67024H144.406V33.1251H150.417V24.655H153.197L157.632 33.1393H164.327ZM150.424 13.4257H153.019C154.089 13.3626 155.157 13.584 156.113 14.0674C156.491 14.3271 156.79 14.6846 156.98 15.1016C157.169 15.5186 157.242 15.9794 157.19 16.4345C157.223 16.9146 157.143 17.3958 156.956 17.8392C156.769 18.2826 156.48 18.6758 156.113 18.9869C155.211 19.6209 154.119 19.9255 153.019 19.8496H150.424V13.4257Z" fill="white"></path><path d="M166.648 33.1355V8.68066H182.241V13.7142H172.659V18.0776H180.815V23.1112H172.659V28.1019H182.64V33.1355H166.648Z" fill="white"></path><path d="M185.508 33.1383V8.68346H192.637C194.858 8.64154 197.062 9.07168 199.104 9.94541C200.938 10.7513 202.461 12.1296 203.446 13.8739C204.558 16.014 205.089 18.4085 204.986 20.8182C205.081 23.2362 204.551 25.6379 203.446 27.791C202.474 29.548 200.979 30.9585 199.168 31.8264C197.211 32.7324 195.072 33.1811 192.916 33.1383H185.508ZM191.518 28.3329H192.231C193.407 28.3526 194.574 28.1217 195.653 27.6556C196.682 27.177 197.517 26.3622 198.02 25.3455C198.665 23.9268 198.961 22.3745 198.883 20.8182C198.965 19.28 198.668 17.7453 198.02 16.3479C197.507 15.3627 196.671 14.5828 195.653 14.1377C194.566 13.6996 193.403 13.4839 192.231 13.5031H191.518V28.3329Z" fill="white"></path><path d="M93.6831 27.5173L90.3892 24.2305V8.68066H84.3789V26.8257L90.6245 33.0713H100.043V27.5173H93.6831Z" fill="white"></path><path d="M26.734 5.94616C25.9647 5.95165 25.2075 5.75496 24.5381 5.37578L15.2053 0L1.23828 8.05655V21.603L15.9254 30.0873L16.2677 29.909C16.911 29.5707 17.4551 29.0706 17.8464 28.458C18.2377 27.8454 18.4627 27.1415 18.4993 26.4155C18.4847 25.6633 18.2812 24.9269 17.9074 24.2741C17.5336 23.6212 17.0016 23.0729 16.3603 22.6795L7.49815 17.9312V11.5786L15.1554 7.10117L21.5721 10.8656C22.1656 11.231 22.6563 11.7413 22.9981 12.3486C23.3611 12.9553 23.8688 13.4626 24.4759 13.8251C25.0829 14.1876 25.7704 14.3939 26.4767 14.4257C27.183 14.4575 27.8862 14.3137 28.5233 14.0072C29.1605 13.7007 29.7117 13.2411 30.1278 12.6695C30.2024 12.5712 30.2714 12.4689 30.3345 12.3629V12.3201C30.6981 11.6734 30.8873 10.9432 30.8834 10.2013C30.8796 9.45933 30.6828 8.73116 30.3124 8.08827C29.9421 7.44537 29.4109 6.90985 28.771 6.53429C28.1312 6.15873 27.4046 5.95606 26.6627 5.94616H26.734Z" fill="white"></path><path d="M14.6516 11.2861C14.0079 11.6221 13.4633 12.1207 13.0718 12.7323C12.6804 13.3439 12.4557 14.0472 12.42 14.7725C12.4326 15.525 12.6353 16.2622 13.0093 16.9154C13.3832 17.5686 13.9163 18.1166 14.5589 18.5084L23.4282 23.2853V29.6379L15.7424 34.101L9.32572 30.3366C8.73567 29.9701 8.24573 29.463 7.89978 28.8607C7.54482 28.2446 7.04041 27.7277 6.4331 27.3578C5.82578 26.9879 5.1351 26.7769 4.42475 26.7442C3.71441 26.7116 3.00728 26.8583 2.36857 27.1709C1.72986 27.4834 1.18013 27.9518 0.770097 28.5328C0.695357 28.6319 0.628604 28.7368 0.570467 28.8465V28.8892C0.19214 29.5382 -0.00485344 30.277 9.08299e-05 31.0282C5.16488e-05 32.1566 0.445852 33.2393 1.2404 34.0405C2.03495 34.8417 3.1139 35.2966 4.24225 35.306C5.01156 35.3005 5.76881 35.4972 6.4382 35.8763L15.7139 41.2307L29.681 33.1742V19.6278L14.9938 11.1221L14.6516 11.2861Z" fill="white"></path></svg> 